<?xml version="1.0" encoding="utf-8" standalone="no"?>
<!DOCTYPE svg PUBLIC "-//W3C//DTD SVG 1.1//EN"
  "http://www.w3.org/Graphics/SVG/1.1/DTD/svg11.dtd">
<!-- Created with matplotlib (http://matplotlib.org/) -->
<svg height="169pt" version="1.1" viewBox="0 0 233 169" width="233pt" xmlns="http://www.w3.org/2000/svg" xmlns:xlink="http://www.w3.org/1999/xlink">
 <defs>
  <style type="text/css">
*{stroke-linecap:butt;stroke-linejoin:round;}
  </style>
 </defs>
 <g id="figure_1">
  <g id="patch_1">
   <path d="M 0 169.444217 
L 233.324937 169.444217 
L 233.324937 0 
L 0 0 
z
" style="fill:#ffffff;"/>
  </g>
  <g id="axes_1">
   <g id="patch_2">
    <path d="M 25.660938 131.188987 
L 222.624937 131.188987 
L 222.624937 7.2 
L 25.660938 7.2 
z
" style="fill:#ffffff;"/>
   </g>
   <g id="matplotlib.axis_1">
    <g id="xtick_1">
     <g id="line2d_1">
      <defs>
       <path d="M 0 0 
L 0 3.5 
" id="m569c339d31" style="stroke:#000000;stroke-width:0.8;"/>
      </defs>
      <g>
       <use style="stroke:#000000;stroke-width:0.8;" x="124.142937" xlink:href="#m569c339d31" y="131.188987"/>
      </g>
     </g>
     <g id="text_1">
      <!-- V$_{mid}$ -->
      <defs>
       <path d="M 13.28125 71.734375 
L 33.890625 10.640625 
L 54.25 71.734375 
L 65.140625 71.734375 
L 38.96875 0 
L 28.65625 0 
L 2.546875 71.734375 
z
" id="Helvetica-56"/>
       <path d="M 6.453125 52.296875 
L 15.140625 52.296875 
L 15.140625 44.875 
Q 18.265625 48.734375 20.796875 50.484375 
Q 25.140625 53.46875 30.671875 53.46875 
Q 36.921875 53.46875 40.71875 50.390625 
Q 42.875 48.640625 44.625 45.21875 
Q 47.5625 49.421875 51.515625 51.4375 
Q 55.46875 53.46875 60.40625 53.46875 
Q 70.953125 53.46875 74.75 45.84375 
Q 76.8125 41.75 76.8125 34.8125 
L 76.8125 0 
L 67.671875 0 
L 67.671875 36.328125 
Q 67.671875 41.546875 65.0625 43.5 
Q 62.453125 45.453125 58.6875 45.453125 
Q 53.515625 45.453125 49.78125 41.984375 
Q 46.046875 38.53125 46.046875 30.421875 
L 46.046875 0 
L 37.109375 0 
L 37.109375 34.125 
Q 37.109375 39.453125 35.84375 41.890625 
Q 33.84375 45.5625 28.375 45.5625 
Q 23.390625 45.5625 19.3125 41.703125 
Q 15.234375 37.84375 15.234375 27.734375 
L 15.234375 0 
L 6.453125 0 
z
" id="Helvetica-6d"/>
       <path d="M 6.453125 52.046875 
L 15.375 52.046875 
L 15.375 0 
L 6.453125 0 
z
M 6.453125 71.734375 
L 15.375 71.734375 
L 15.375 61.765625 
L 6.453125 61.765625 
z
" id="Helvetica-69"/>
       <path d="M 12.015625 25.53125 
Q 12.015625 17.140625 15.578125 11.46875 
Q 19.140625 5.8125 27 5.8125 
Q 33.109375 5.8125 37.03125 11.0625 
Q 40.96875 16.3125 40.96875 26.125 
Q 40.96875 36.03125 36.90625 40.796875 
Q 32.859375 45.5625 26.90625 45.5625 
Q 20.265625 45.5625 16.140625 40.484375 
Q 12.015625 35.40625 12.015625 25.53125 
z
M 25.25 53.21875 
Q 31.25 53.21875 35.296875 50.6875 
Q 37.640625 49.21875 40.625 45.5625 
L 40.625 71.96875 
L 49.078125 71.96875 
L 49.078125 0 
L 41.15625 0 
L 41.15625 7.28125 
Q 38.09375 2.4375 33.890625 0.28125 
Q 29.6875 -1.859375 24.265625 -1.859375 
Q 15.53125 -1.859375 9.125 5.484375 
Q 2.734375 12.84375 2.734375 25.046875 
Q 2.734375 36.46875 8.5625 44.84375 
Q 14.40625 53.21875 25.25 53.21875 
z
" id="Helvetica-64"/>
      </defs>
      <g transform="translate(119.385631 160.636445)rotate(-50)scale(0.12 -0.12)">
       <use transform="translate(0 0.265625)" xlink:href="#Helvetica-56"/>
       <use transform="translate(67.614414 -15.423438)scale(0.7)" xlink:href="#Helvetica-6d"/>
       <use transform="translate(125.924961 -15.423438)scale(0.7)" xlink:href="#Helvetica-69"/>
       <use transform="translate(141.476719 -15.423438)scale(0.7)" xlink:href="#Helvetica-64"/>
      </g>
     </g>
    </g>
    <g id="text_2">
     <!-- V$_{p}$ -->
     <defs>
      <path d="M 28.515625 5.90625 
Q 34.671875 5.90625 38.75 11.0625 
Q 42.828125 16.21875 42.828125 26.46875 
Q 42.828125 32.71875 41.015625 37.203125 
Q 37.59375 45.84375 28.515625 45.84375 
Q 19.390625 45.84375 16.015625 36.71875 
Q 14.203125 31.84375 14.203125 24.3125 
Q 14.203125 18.265625 16.015625 14.015625 
Q 19.4375 5.90625 28.515625 5.90625 
z
M 5.765625 52.046875 
L 14.3125 52.046875 
L 14.3125 45.125 
Q 16.9375 48.6875 20.0625 50.640625 
Q 24.515625 53.5625 30.515625 53.5625 
Q 39.40625 53.5625 45.609375 46.75 
Q 51.8125 39.9375 51.8125 27.296875 
Q 51.8125 10.203125 42.875 2.875 
Q 37.203125 -1.765625 29.6875 -1.765625 
Q 23.78125 -1.765625 19.78125 0.828125 
Q 17.4375 2.296875 14.546875 5.859375 
L 14.546875 -20.84375 
L 5.765625 -20.84375 
z
" id="Helvetica-70"/>
     </defs>
     <g transform="translate(205.076737 147.324217)scale(0.14 -0.14)">
      <use transform="translate(0 0.265625)" xlink:href="#Helvetica-56"/>
      <use transform="translate(67.614414 -15.423438)scale(0.7)" xlink:href="#Helvetica-70"/>
     </g>
    </g>
   </g>
   <g id="matplotlib.axis_2">
    <g id="ytick_1">
     <g id="line2d_2">
      <defs>
       <path d="M 0 0 
L 3.5 0 
" id="ma8bb73d896" style="stroke:#000000;stroke-width:0.8;"/>
      </defs>
      <g>
       <use style="stroke:#000000;stroke-width:0.8;" x="25.660938" xlink:href="#ma8bb73d896" y="120.856572"/>
      </g>
     </g>
    </g>
    <g id="ytick_2">
     <g id="line2d_3">
      <g>
       <use style="stroke:#000000;stroke-width:0.8;" x="25.660938" xlink:href="#ma8bb73d896" y="95.025533"/>
      </g>
     </g>
    </g>
    <g id="ytick_3">
     <g id="line2d_4">
      <g>
       <use style="stroke:#000000;stroke-width:0.8;" x="25.660938" xlink:href="#ma8bb73d896" y="69.194494"/>
      </g>
     </g>
    </g>
    <g id="ytick_4">
     <g id="line2d_5">
      <g>
       <use style="stroke:#000000;stroke-width:0.8;" x="25.660938" xlink:href="#ma8bb73d896" y="43.363455"/>
      </g>
     </g>
    </g>
    <g id="ytick_5">
     <g id="line2d_6">
      <g>
       <use style="stroke:#000000;stroke-width:0.8;" x="25.660938" xlink:href="#ma8bb73d896" y="17.532416"/>
      </g>
     </g>
    </g>
    <g id="text_3">
     <!-- $\delta G_{sens}$ -->
     <defs>
      <path d="M 10.40625 70.609375 
L 49.8125 70.609375 
L 49.8125 63.375 
L 21.78125 63.375 
L 21.78125 63.1875 
L 39.203125 51.609375 
Q 48.96875 45.015625 52.6875 38.578125 
Q 56.109375 32.078125 56 25 
Q 55.90625 14.59375 49.421875 6.984375 
Q 42.78125 -0.78125 30.28125 -0.984375 
Q 18.796875 -0.875 12.015625 6.296875 
Q 5.171875 13.28125 5.078125 24.3125 
Q 5.328125 47.90625 29.109375 49.8125 
L 29.109375 50 
L 10.40625 63.375 
z
M 31.109375 6.203125 
Q 39.015625 6.296875 42.671875 12.40625 
Q 46.390625 18.21875 46.390625 25.09375 
Q 46.390625 29 45.609375 31.890625 
Q 44.78125 34.71875 43.609375 36.625 
Q 42.390625 38.484375 41.21875 39.703125 
Q 39.984375 40.921875 39.203125 41.40625 
Q 37.203125 43.21875 33.6875 43.21875 
Q 14.796875 43.21875 14.703125 23.875 
Q 14.703125 16.5 19 11.53125 
Q 23.296875 6.296875 31.109375 6.203125 
z
" id="Helvetica-3b4"/>
      <path d="M 38.625 73.578125 
Q 48.734375 73.578125 56.109375 69.671875 
Q 66.796875 64.0625 69.1875 50 
L 59.578125 50 
Q 57.8125 57.859375 52.296875 61.453125 
Q 46.78125 65.046875 38.375 65.046875 
Q 28.421875 65.046875 21.609375 57.5625 
Q 14.796875 50.09375 14.796875 35.296875 
Q 14.796875 22.515625 20.40625 14.484375 
Q 26.03125 6.453125 38.71875 6.453125 
Q 48.4375 6.453125 54.8125 12.078125 
Q 61.1875 17.71875 61.328125 30.328125 
L 38.875 30.328125 
L 38.875 38.375 
L 70.359375 38.375 
L 70.359375 0 
L 64.109375 0 
L 61.765625 9.234375 
Q 56.84375 3.8125 53.03125 1.703125 
Q 46.625 -1.90625 36.765625 -1.90625 
Q 24.03125 -1.90625 14.84375 6.34375 
Q 4.828125 16.703125 4.828125 34.765625 
Q 4.828125 52.78125 14.59375 63.421875 
Q 23.875 73.578125 38.625 73.578125 
z
M 37.015625 73.6875 
z
" id="Helvetica-47"/>
      <path d="M 11.671875 16.40625 
Q 12.0625 12.015625 13.875 9.671875 
Q 17.1875 5.421875 25.390625 5.421875 
Q 30.28125 5.421875 33.984375 7.546875 
Q 37.703125 9.671875 37.703125 14.109375 
Q 37.703125 17.484375 34.71875 19.234375 
Q 32.8125 20.3125 27.203125 21.734375 
L 20.21875 23.484375 
Q 13.53125 25.140625 10.359375 27.203125 
Q 4.6875 30.765625 4.6875 37.0625 
Q 4.6875 44.484375 10.03125 49.0625 
Q 15.375 53.65625 24.421875 53.65625 
Q 36.234375 53.65625 41.453125 46.734375 
Q 44.734375 42.328125 44.625 37.25 
L 36.328125 37.25 
Q 36.078125 40.234375 34.234375 42.671875 
Q 31.203125 46.140625 23.734375 46.140625 
Q 18.75 46.140625 16.1875 44.234375 
Q 13.625 42.328125 13.625 39.203125 
Q 13.625 35.796875 17 33.734375 
Q 18.953125 32.515625 22.75 31.59375 
L 28.5625 30.171875 
Q 38.03125 27.875 41.265625 25.734375 
Q 46.390625 22.359375 46.390625 15.140625 
Q 46.390625 8.15625 41.09375 3.078125 
Q 35.796875 -2 24.953125 -2 
Q 13.28125 -2 8.421875 3.296875 
Q 3.5625 8.59375 3.21875 16.40625 
z
M 24.65625 53.5625 
z
" id="Helvetica-73"/>
      <path d="M 28.21875 53.46875 
Q 33.796875 53.46875 39.015625 50.859375 
Q 44.234375 48.25 46.96875 44.09375 
Q 49.609375 40.140625 50.484375 34.859375 
Q 51.265625 31.25 51.265625 23.34375 
L 12.9375 23.34375 
Q 13.1875 15.375 16.703125 10.5625 
Q 20.21875 5.765625 27.59375 5.765625 
Q 34.46875 5.765625 38.578125 10.296875 
Q 40.921875 12.9375 41.890625 16.40625 
L 50.53125 16.40625 
Q 50.203125 13.53125 48.265625 9.984375 
Q 46.34375 6.453125 43.953125 4.203125 
Q 39.9375 0.296875 34.03125 -1.078125 
Q 30.859375 -1.859375 26.859375 -1.859375 
Q 17.09375 -1.859375 10.296875 5.25 
Q 3.515625 12.359375 3.515625 25.140625 
Q 3.515625 37.75 10.34375 45.609375 
Q 17.1875 53.46875 28.21875 53.46875 
z
M 42.234375 30.328125 
Q 41.703125 36.03125 39.75 39.453125 
Q 36.140625 45.796875 27.6875 45.796875 
Q 21.625 45.796875 17.515625 41.421875 
Q 13.421875 37.0625 13.1875 30.328125 
z
M 27.390625 53.5625 
z
" id="Helvetica-65"/>
      <path d="M 6.453125 52.296875 
L 14.796875 52.296875 
L 14.796875 44.875 
Q 18.5 49.46875 22.65625 51.46875 
Q 26.8125 53.46875 31.890625 53.46875 
Q 43.015625 53.46875 46.921875 45.703125 
Q 49.078125 41.453125 49.078125 33.546875 
L 49.078125 0 
L 40.140625 0 
L 40.140625 32.953125 
Q 40.140625 37.75 38.71875 40.671875 
Q 36.375 45.5625 30.21875 45.5625 
Q 27.09375 45.5625 25.09375 44.921875 
Q 21.484375 43.84375 18.75 40.625 
Q 16.546875 38.03125 15.890625 35.265625 
Q 15.234375 32.515625 15.234375 27.390625 
L 15.234375 0 
L 6.453125 0 
z
M 27.09375 53.5625 
z
" id="Helvetica-6e"/>
     </defs>
     <g transform="translate(17.242813 89.564494)rotate(-90)scale(0.14 -0.14)">
      <use transform="translate(0 0.3125)" xlink:href="#Helvetica-3b4"/>
      <use transform="translate(61.083984 0.3125)" xlink:href="#Helvetica-47"/>
      <use transform="translate(139.782383 -15.376563)scale(0.7)" xlink:href="#Helvetica-73"/>
      <use transform="translate(174.782383 -15.376563)scale(0.7)" xlink:href="#Helvetica-65"/>
      <use transform="translate(213.713047 -15.376563)scale(0.7)" xlink:href="#Helvetica-6e"/>
      <use transform="translate(252.643711 -15.376563)scale(0.7)" xlink:href="#Helvetica-73"/>
     </g>
    </g>
   </g>
   <g id="PolyCollection_1">
    <path clip-path="url(#p48c82eb979)" d="M -368.267063 69.194494 
L -368.267063 69.194494 
L -364.977751 69.194494 
L -361.688439 69.194494 
L -358.399127 69.194494 
L -355.109815 69.194494 
L -351.820503 69.194494 
L -348.531191 69.194494 
L -345.241879 69.194494 
L -341.952567 69.194494 
L -338.663255 69.194494 
L -335.373943 69.194494 
L -332.084631 69.194494 
L -328.795319 69.194494 
L -325.506007 69.194494 
L -322.216695 69.194494 
L -318.927383 69.194494 
L -315.638071 69.194494 
L -312.348759 69.194494 
L -309.059447 69.194494 
L -305.770135 69.194494 
L -302.480823 69.194494 
L -299.191511 69.194494 
L -295.902199 69.194494 
L -292.612887 69.194494 
L -289.323576 69.194494 
L -286.034264 69.194494 
L -282.744952 69.194494 
L -279.45564 69.194494 
L -276.166328 69.194494 
L -272.877016 69.194494 
L -269.587704 69.194494 
L -266.298392 69.194494 
L -263.00908 69.194494 
L -259.719768 69.194494 
L -256.430456 69.194494 
L -253.141144 69.194494 
L -249.851832 69.194494 
L -246.56252 69.194494 
L -243.273208 69.194494 
L -239.983896 69.194494 
L -236.694584 69.194494 
L -233.405272 69.194494 
L -230.11596 69.194494 
L -226.826648 69.194494 
L -223.537336 69.194494 
L -220.248024 69.194494 
L -216.958712 69.194494 
L -213.669401 69.194494 
L -210.380089 69.194494 
L -207.090777 69.194494 
L -203.801465 69.194494 
L -200.512153 69.194494 
L -197.222841 69.194494 
L -193.933529 69.194494 
L -190.644217 69.194494 
L -187.354905 69.194494 
L -184.065593 69.194494 
L -180.776281 69.194494 
L -177.486969 69.194494 
L -174.197657 69.194494 
L -170.908345 69.194494 
L -167.619033 69.194494 
L -164.329721 69.194494 
L -161.040409 69.194494 
L -157.751097 69.194494 
L -154.461785 69.194494 
L -151.172473 69.194494 
L -147.883161 69.194494 
L -144.593849 69.194494 
L -141.304537 69.194494 
L -138.015225 69.194494 
L -134.725914 69.194494 
L -131.436602 69.194494 
L -128.14729 69.194494 
L -124.857978 69.194494 
L -121.568666 69.194494 
L -118.279354 69.194494 
L -114.990042 69.194494 
L -111.70073 69.194494 
L -108.411418 69.194494 
L -105.122106 69.194494 
L -101.832794 69.194494 
L -98.543482 69.194494 
L -95.25417 69.194494 
L -91.964858 69.194494 
L -88.675546 69.194494 
L -85.386234 69.194494 
L -82.096922 69.194494 
L -78.80761 69.194494 
L -75.518298 69.194494 
L -72.228986 69.194494 
L -68.939674 69.194494 
L -65.650362 69.194494 
L -62.36105 69.194494 
L -59.071739 69.194494 
L -55.782427 69.194494 
L -52.493115 69.194494 
L -49.203803 69.194494 
L -45.914491 69.194494 
L -42.625179 69.194494 
L -39.335867 69.194494 
L -36.046555 69.194494 
L -32.757243 69.194494 
L -29.467931 69.194494 
L -26.178619 69.194494 
L -22.889307 69.194494 
L -19.599995 69.194494 
L -16.310683 69.194494 
L -13.021371 69.194494 
L -9.732059 69.194494 
L -6.442747 69.194494 
L -3.153435 69.194494 
L 0.135877 69.194494 
L 3.425189 69.194494 
L 6.714501 69.194494 
L 10.003813 69.194494 
L 13.293125 69.194494 
L 16.582436 69.194494 
L 19.871748 69.194494 
L 23.16106 69.194494 
L 26.450372 69.194494 
L 29.739684 69.194494 
L 33.028996 69.194494 
L 36.318308 69.194494 
L 39.60762 69.194494 
L 42.896932 69.194494 
L 46.186244 69.194494 
L 49.475556 69.194494 
L 52.764868 69.194494 
L 56.05418 69.194494 
L 59.343492 69.194494 
L 62.632804 69.194494 
L 65.922116 69.194494 
L 69.211428 69.194494 
L 72.50074 69.194494 
L 75.790052 69.194494 
L 79.079364 69.194494 
L 82.368676 69.194494 
L 85.657988 69.194494 
L 88.9473 69.194494 
L 92.236612 69.194494 
L 95.525923 69.194494 
L 98.815235 69.194494 
L 102.104547 69.194494 
L 105.393859 69.194494 
L 108.683171 69.194494 
L 111.972483 69.194494 
L 115.261795 69.194494 
L 118.551107 69.194494 
L 121.840419 69.194494 
L 125.129731 69.194494 
L 128.419043 69.194494 
L 131.708355 69.194494 
L 134.997667 69.194494 
L 138.286979 69.194494 
L 141.576291 69.194494 
L 144.865603 69.194494 
L 148.154915 69.194494 
L 151.444227 69.194494 
L 154.733539 69.194494 
L 158.022851 69.194494 
L 161.312163 69.194494 
L 164.601475 69.194494 
L 167.890787 69.194494 
L 171.180098 69.194494 
L 174.46941 69.194494 
L 177.758722 69.194494 
L 181.048034 69.194494 
L 184.337346 69.194494 
L 187.626658 69.194494 
L 190.91597 69.194494 
L 194.205282 69.194494 
L 197.494594 69.194494 
L 200.783906 69.194494 
L 204.073218 69.194494 
L 207.36253 69.194494 
L 210.651842 69.194494 
L 213.941154 69.194494 
L 217.230466 69.194494 
L 220.519778 69.194494 
L 223.80909 69.194494 
L 227.098402 69.194494 
L 230.387714 69.194494 
L 233.677026 69.194494 
L 236.966338 69.194494 
L 240.25565 69.194494 
L 243.544962 69.194494 
L 246.834274 69.194494 
L 250.123585 69.194494 
L 253.412897 69.194494 
L 256.702209 69.194494 
L 259.991521 69.194494 
L 263.280833 69.194494 
L 266.570145 69.194494 
L 269.859457 69.194494 
L 273.148769 69.194494 
L 276.438081 69.194494 
L 279.727393 69.194494 
L 283.016705 69.194494 
L 286.306017 69.194494 
L 289.595329 69.194494 
L 292.884641 69.194494 
L 296.173953 69.194494 
L 299.463265 69.194494 
L 302.752577 69.194494 
L 306.041889 69.194494 
L 309.331201 69.194494 
L 312.620513 69.194494 
L 315.909825 69.194494 
L 319.199137 69.194494 
L 322.488449 69.194494 
L 325.77776 69.194494 
L 329.067072 69.194494 
L 332.356384 69.194494 
L 335.645696 69.194494 
L 338.935008 69.194494 
L 342.22432 69.194494 
L 345.513632 69.194494 
L 348.802944 69.194494 
L 352.092256 69.194494 
L 355.381568 69.194494 
L 358.67088 69.194494 
L 361.960192 69.194494 
L 365.249504 69.194494 
L 368.538816 69.194494 
L 371.828128 69.194494 
L 375.11744 69.194494 
L 378.406752 69.194494 
L 381.696064 69.194494 
L 384.985376 69.194494 
L 388.274688 69.194494 
L 391.564 69.194494 
L 394.853312 69.194494 
L 398.142624 69.194494 
L 401.431935 69.194494 
L 404.721247 69.194494 
L 408.010559 69.194494 
L 411.299871 69.194494 
L 414.589183 69.194494 
L 417.878495 69.194494 
L 421.167807 69.194494 
L 424.457119 69.194494 
L 427.746431 69.194494 
L 431.035743 69.194494 
L 434.325055 69.194494 
L 437.614367 69.194494 
L 440.903679 69.194494 
L 444.192991 69.194494 
L 447.482303 69.194494 
L 450.771615 69.194494 
L 454.060927 69.194494 
L 457.350239 69.194494 
L 460.639551 69.194494 
L 463.928863 69.194494 
L 467.218175 69.194494 
L 470.507487 69.194494 
L 473.796799 69.194494 
L 477.086111 69.194494 
L 480.375422 69.194494 
L 483.664734 69.194494 
L 486.954046 69.194494 
L 490.243358 69.194494 
L 493.53267 69.194494 
L 496.821982 69.194494 
L 500.111294 69.194494 
L 503.400606 69.194494 
L 506.689918 69.194494 
L 509.97923 69.194494 
L 513.268542 69.194494 
L 516.557854 69.194494 
L 519.847166 69.194494 
L 523.136478 69.194494 
L 526.42579 69.194494 
L 529.715102 69.194494 
L 533.004414 69.194494 
L 536.293726 69.194494 
L 539.583038 69.194494 
L 542.87235 69.194494 
L 546.161662 69.194494 
L 549.450974 69.194494 
L 552.740286 69.194494 
L 556.029597 69.194494 
L 559.318909 69.194494 
L 562.608221 69.194494 
L 565.897533 69.194494 
L 569.186845 69.194494 
L 572.476157 69.194494 
L 575.765469 69.194494 
L 579.054781 69.194494 
L 582.344093 69.194494 
L 585.633405 69.194494 
L 588.922717 69.194494 
L 592.212029 69.194494 
L 595.501341 69.194494 
L 598.790653 69.194494 
L 602.079965 69.194494 
L 605.369277 69.194494 
L 608.658589 69.194494 
L 611.947901 69.194494 
L 615.237213 69.194494 
L 618.526525 69.194494 
L 621.815837 69.194494 
L 625.105149 69.194494 
L 628.394461 69.194494 
L 631.683773 69.194494 
L 634.973084 69.194494 
L 638.262396 69.194494 
L 641.551708 69.194494 
L 644.84102 69.194494 
L 648.130332 69.194494 
L 651.419644 69.194494 
L 654.708956 69.194494 
L 657.998268 69.194494 
L 661.28758 69.194494 
L 664.576892 69.194494 
L 667.866204 69.194494 
L 671.155516 69.194494 
L 674.444828 69.194494 
L 677.73414 69.194494 
L 681.023452 69.194494 
L 684.312764 69.194494 
L 687.602076 69.194494 
L 690.891388 69.194494 
L 694.1807 69.194494 
L 697.470012 69.194494 
L 700.759324 69.194494 
L 704.048636 69.194494 
L 707.337948 69.194494 
L 710.627259 69.194494 
L 713.916571 69.194494 
L 717.205883 69.194494 
L 720.495195 69.194494 
L 723.784507 69.194494 
L 727.073819 69.194494 
L 730.363131 69.194494 
L 733.652443 69.194494 
L 736.941755 69.194494 
L 740.231067 69.194494 
L 743.520379 69.194494 
L 746.809691 69.194494 
L 750.099003 69.194494 
L 753.388315 69.194494 
L 756.677627 69.194494 
L 759.966939 69.194494 
L 763.256251 69.194494 
L 766.545563 69.194494 
L 769.834875 69.194494 
L 773.124187 69.194494 
L 776.413499 69.194494 
L 779.702811 69.194494 
L 782.992123 69.194494 
L 786.281434 69.194494 
L 789.570746 69.194494 
L 792.860058 69.194494 
L 796.14937 69.194494 
L 799.438682 69.194494 
L 802.727994 69.194494 
L 806.017306 69.194494 
L 809.306618 69.194494 
L 812.59593 69.194494 
L 815.885242 69.194494 
L 819.174554 69.194494 
L 822.463866 69.194494 
L 825.753178 69.194494 
L 829.04249 69.194494 
L 832.331802 69.194494 
L 835.621114 69.194494 
L 838.910426 69.194494 
L 842.199738 69.194494 
L 845.48905 69.194494 
L 848.778362 69.194494 
L 852.067674 69.194494 
L 855.356986 69.194494 
L 858.646298 69.194494 
L 861.93561 69.194494 
L 865.224921 69.194494 
L 868.514233 69.194494 
L 871.803545 69.194494 
L 875.092857 69.194494 
L 878.382169 69.194494 
L 881.671481 69.194494 
L 884.960793 69.194494 
L 888.250105 69.194494 
L 891.539417 69.194494 
L 894.828729 69.194494 
L 898.118041 69.194494 
L 901.407353 69.194494 
L 904.696665 69.194494 
L 907.985977 69.194494 
L 911.275289 69.194494 
L 914.564601 69.194494 
L 917.853913 69.194494 
L 921.143225 69.194494 
L 924.432537 69.194494 
L 927.721849 69.194494 
L 931.011161 69.194494 
L 934.300473 69.194494 
L 937.589785 69.194494 
L 940.879096 69.194494 
L 944.168408 69.194494 
L 947.45772 69.194494 
L 950.747032 69.194494 
L 954.036344 69.194494 
L 957.325656 69.194494 
L 960.614968 69.194494 
L 963.90428 69.194494 
L 967.193592 69.194494 
L 970.482904 69.194494 
L 973.772216 69.194494 
L 977.061528 69.194494 
L 980.35084 69.194494 
L 983.640152 69.194494 
L 986.929464 69.194494 
L 990.218776 69.194494 
L 993.508088 69.194494 
L 996.7974 69.194494 
L 1000.086712 69.194494 
L 1003.376024 69.194494 
L 1006.665336 69.194494 
L 1009.954648 69.194494 
L 1013.24396 69.194494 
L 1016.533272 69.194494 
L 1019.822583 69.194494 
L 1023.111895 69.194494 
L 1026.401207 69.194494 
L 1029.690519 69.194494 
L 1032.979831 69.194494 
L 1036.269143 69.194494 
L 1039.558455 69.194494 
L 1042.847767 69.194494 
L 1046.137079 69.194494 
L 1049.426391 69.194494 
L 1052.715703 69.194494 
L 1056.005015 69.194494 
L 1059.294327 69.194494 
L 1062.583639 69.194494 
L 1065.872951 69.194494 
L 1069.162263 69.194494 
L 1072.451575 69.194494 
L 1075.740887 69.194494 
L 1079.030199 69.194494 
L 1082.319511 69.194494 
L 1085.608823 69.194494 
L 1088.898135 69.194494 
L 1092.187447 69.194494 
L 1095.476758 69.194494 
L 1098.76607 69.194494 
L 1102.055382 69.194494 
L 1105.344694 69.194494 
L 1108.634006 69.194494 
L 1111.923318 69.194494 
L 1115.21263 69.194494 
L 1118.501942 69.194494 
L 1121.791254 69.194494 
L 1125.080566 69.194494 
L 1128.369878 69.194494 
L 1131.65919 69.194494 
L 1134.948502 69.194494 
L 1138.237814 69.194494 
L 1141.527126 69.194494 
L 1144.816438 69.194494 
L 1148.10575 69.194494 
L 1151.395062 69.194494 
L 1154.684374 69.194494 
L 1157.973686 69.194494 
L 1161.262998 69.194494 
L 1164.55231 69.194494 
L 1167.841622 69.194494 
L 1171.130933 69.194494 
L 1174.420245 69.194494 
L 1177.709557 69.194494 
L 1180.998869 69.194494 
L 1184.288181 69.194494 
L 1187.577493 69.194494 
L 1190.866805 69.194494 
L 1194.156117 69.194494 
L 1197.445429 69.194494 
L 1200.734741 69.194494 
L 1204.024053 69.194494 
L 1207.313365 69.194494 
L 1210.602677 69.194494 
L 1213.891989 69.194494 
L 1217.181301 69.194494 
L 1220.470613 69.194494 
L 1223.759925 69.194494 
L 1227.049237 69.194494 
L 1230.338549 69.194494 
L 1233.627861 69.194494 
L 1236.917173 69.194494 
L 1240.206485 69.194494 
L 1243.495797 69.194494 
L 1246.785109 69.194494 
L 1250.07442 69.194494 
L 1253.363732 69.194494 
L 1256.653044 69.194494 
L 1259.942356 69.194494 
L 1263.231668 69.194494 
L 1266.52098 69.194494 
L 1269.810292 69.194494 
L 1273.099604 69.194494 
L 1273.099604 69.194494 
L 1273.099604 69.194494 
L 1269.810292 69.194494 
L 1266.52098 69.194494 
L 1263.231668 69.194494 
L 1259.942356 69.194494 
L 1256.653044 69.194494 
L 1253.363732 69.194494 
L 1250.07442 69.194494 
L 1246.785109 69.194494 
L 1243.495797 69.194494 
L 1240.206485 69.194494 
L 1236.917173 69.194494 
L 1233.627861 69.194494 
L 1230.338549 69.194494 
L 1227.049237 69.194494 
L 1223.759925 69.194494 
L 1220.470613 69.194494 
L 1217.181301 69.194494 
L 1213.891989 69.194494 
L 1210.602677 69.194494 
L 1207.313365 69.194494 
L 1204.024053 69.194494 
L 1200.734741 69.194494 
L 1197.445429 69.194494 
L 1194.156117 69.194494 
L 1190.866805 69.194494 
L 1187.577493 69.194494 
L 1184.288181 69.194494 
L 1180.998869 69.194494 
L 1177.709557 69.194494 
L 1174.420245 69.194494 
L 1171.130933 69.194494 
L 1167.841622 69.194494 
L 1164.55231 69.194494 
L 1161.262998 69.194494 
L 1157.973686 69.194494 
L 1154.684374 69.194494 
L 1151.395062 69.194494 
L 1148.10575 69.194494 
L 1144.816438 69.194494 
L 1141.527126 69.194494 
L 1138.237814 69.194494 
L 1134.948502 69.194494 
L 1131.65919 69.194494 
L 1128.369878 69.194494 
L 1125.080566 69.194494 
L 1121.791254 69.194494 
L 1118.501942 69.194494 
L 1115.21263 69.194494 
L 1111.923318 69.194494 
L 1108.634006 69.194494 
L 1105.344694 69.194494 
L 1102.055382 69.194494 
L 1098.76607 69.194494 
L 1095.476758 69.194494 
L 1092.187447 69.194494 
L 1088.898135 69.194494 
L 1085.608823 69.194494 
L 1082.319511 69.194494 
L 1079.030199 69.194494 
L 1075.740887 69.194494 
L 1072.451575 69.194494 
L 1069.162263 69.194494 
L 1065.872951 69.194494 
L 1062.583639 69.194494 
L 1059.294327 69.194494 
L 1056.005015 69.194494 
L 1052.715703 69.194494 
L 1049.426391 69.194494 
L 1046.137079 69.194494 
L 1042.847767 69.194494 
L 1039.558455 69.194494 
L 1036.269143 69.194494 
L 1032.979831 69.194494 
L 1029.690519 69.194494 
L 1026.401207 69.194494 
L 1023.111895 69.194494 
L 1019.822583 69.194494 
L 1016.533272 69.194494 
L 1013.24396 69.194494 
L 1009.954648 69.194494 
L 1006.665336 69.194494 
L 1003.376024 69.194494 
L 1000.086712 69.194494 
L 996.7974 69.194494 
L 993.508088 69.194494 
L 990.218776 69.194494 
L 986.929464 69.194494 
L 983.640152 69.194494 
L 980.35084 69.194494 
L 977.061528 69.194494 
L 973.772216 69.194494 
L 970.482904 69.194494 
L 967.193592 69.194494 
L 963.90428 69.194494 
L 960.614968 69.194494 
L 957.325656 69.194494 
L 954.036344 69.194494 
L 950.747032 69.194494 
L 947.45772 69.194494 
L 944.168408 69.194494 
L 940.879096 69.194494 
L 937.589785 69.194494 
L 934.300473 69.194494 
L 931.011161 69.194494 
L 927.721849 69.194494 
L 924.432537 69.194494 
L 921.143225 69.194494 
L 917.853913 69.194494 
L 914.564601 69.194494 
L 911.275289 69.194494 
L 907.985977 69.194494 
L 904.696665 69.194494 
L 901.407353 69.194494 
L 898.118041 69.194494 
L 894.828729 69.194494 
L 891.539417 69.194494 
L 888.250105 69.194494 
L 884.960793 69.194494 
L 881.671481 69.194494 
L 878.382169 69.194494 
L 875.092857 69.194494 
L 871.803545 69.194494 
L 868.514233 69.194494 
L 865.224921 69.194494 
L 861.93561 69.194494 
L 858.646298 69.194494 
L 855.356986 69.194494 
L 852.067674 69.194494 
L 848.778362 69.194494 
L 845.48905 69.194494 
L 842.199738 69.194494 
L 838.910426 69.194494 
L 835.621114 69.194494 
L 832.331802 69.194494 
L 829.04249 69.194494 
L 825.753178 69.194494 
L 822.463866 69.194494 
L 819.174554 69.194494 
L 815.885242 69.194494 
L 812.59593 69.194494 
L 809.306618 69.194494 
L 806.017306 69.194494 
L 802.727994 69.194494 
L 799.438682 69.194494 
L 796.14937 69.194494 
L 792.860058 69.194494 
L 789.570746 69.194494 
L 786.281434 69.194494 
L 782.992123 69.194494 
L 779.702811 69.194494 
L 776.413499 69.194494 
L 773.124187 69.194494 
L 769.834875 69.194494 
L 766.545563 69.194494 
L 763.256251 69.194494 
L 759.966939 69.194494 
L 756.677627 69.194494 
L 753.388315 69.194494 
L 750.099003 69.194494 
L 746.809691 69.194494 
L 743.520379 69.194494 
L 740.231067 69.194494 
L 736.941755 69.194494 
L 733.652443 69.194494 
L 730.363131 69.194494 
L 727.073819 69.194494 
L 723.784507 69.194494 
L 720.495195 69.194494 
L 717.205883 69.194494 
L 713.916571 69.194494 
L 710.627259 69.194494 
L 707.337948 69.194494 
L 704.048636 69.194494 
L 700.759324 69.194494 
L 697.470012 69.194494 
L 694.1807 69.194494 
L 690.891388 69.194494 
L 687.602076 69.194494 
L 684.312764 69.194494 
L 681.023452 69.194494 
L 677.73414 69.194494 
L 674.444828 69.194494 
L 671.155516 69.194494 
L 667.866204 69.194494 
L 664.576892 69.194494 
L 661.28758 69.194494 
L 657.998268 69.194494 
L 654.708956 69.194494 
L 651.419644 69.194494 
L 648.130332 69.194494 
L 644.84102 69.194494 
L 641.551708 69.194494 
L 638.262396 69.194494 
L 634.973084 69.194494 
L 631.683773 69.194494 
L 628.394461 69.194494 
L 625.105149 69.194494 
L 621.815837 69.194494 
L 618.526525 69.194494 
L 615.237213 69.194494 
L 611.947901 69.194494 
L 608.658589 69.194494 
L 605.369277 69.194494 
L 602.079965 69.194494 
L 598.790653 69.194494 
L 595.501341 69.194494 
L 592.212029 69.194494 
L 588.922717 69.194494 
L 585.633405 69.194494 
L 582.344093 69.194494 
L 579.054781 69.194494 
L 575.765469 69.194494 
L 572.476157 69.194494 
L 569.186845 69.194494 
L 565.897533 69.194494 
L 562.608221 69.194494 
L 559.318909 69.194494 
L 556.029597 69.194494 
L 552.740286 69.194494 
L 549.450974 69.194494 
L 546.161662 69.194494 
L 542.87235 69.194494 
L 539.583038 69.194494 
L 536.293726 69.194494 
L 533.004414 69.194494 
L 529.715102 69.194494 
L 526.42579 69.194494 
L 523.136478 69.194494 
L 519.847166 69.194494 
L 516.557854 69.194494 
L 513.268542 69.194494 
L 509.97923 69.194494 
L 506.689918 69.194494 
L 503.400606 69.194495 
L 500.111294 69.194495 
L 496.821982 69.194495 
L 493.53267 69.194495 
L 490.243358 69.194496 
L 486.954046 69.194496 
L 483.664734 69.194496 
L 480.375422 69.194497 
L 477.086111 69.194497 
L 473.796799 69.194498 
L 470.507487 69.194499 
L 467.218175 69.1945 
L 463.928863 69.194501 
L 460.639551 69.194502 
L 457.350239 69.194504 
L 454.060927 69.194506 
L 450.771615 69.194508 
L 447.482303 69.194511 
L 444.192991 69.194514 
L 440.903679 69.194518 
L 437.614367 69.194522 
L 434.325055 69.194527 
L 431.035743 69.194533 
L 427.746431 69.194541 
L 424.457119 69.194549 
L 421.167807 69.194559 
L 417.878495 69.194571 
L 414.589183 69.194585 
L 411.299871 69.194602 
L 408.010559 69.194622 
L 404.721247 69.194645 
L 401.431935 69.194672 
L 398.142624 69.194705 
L 394.853312 69.194743 
L 391.564 69.194789 
L 388.274688 69.194842 
L 384.985376 69.194906 
L 381.696064 69.194981 
L 378.406752 69.195069 
L 375.11744 69.195174 
L 371.828128 69.195297 
L 368.538816 69.195443 
L 365.249504 69.195616 
L 361.960192 69.19582 
L 358.67088 69.196061 
L 355.381568 69.196346 
L 352.092256 69.196683 
L 348.802944 69.19708 
L 345.513632 69.197551 
L 342.22432 69.198106 
L 338.935008 69.198763 
L 335.645696 69.199539 
L 332.356384 69.200456 
L 329.067072 69.201539 
L 325.77776 69.20282 
L 322.488449 69.204333 
L 319.199137 69.206121 
L 315.909825 69.208234 
L 312.620513 69.210731 
L 309.331201 69.213682 
L 306.041889 69.21717 
L 302.752577 69.22129 
L 299.463265 69.22616 
L 296.173953 69.231914 
L 292.884641 69.238714 
L 289.595329 69.246749 
L 286.306017 69.256244 
L 283.016705 69.267463 
L 279.727393 69.280719 
L 276.438081 69.296382 
L 273.148769 69.314889 
L 269.859457 69.336753 
L 266.570145 69.362585 
L 263.280833 69.393102 
L 259.991521 69.429152 
L 256.702209 69.471734 
L 253.412897 69.522027 
L 250.123585 69.581423 
L 246.834274 69.651559 
L 243.544962 69.734364 
L 240.25565 69.832111 
L 236.966338 69.94747 
L 233.677026 70.083578 
L 230.387714 70.24412 
L 227.098402 70.43341 
L 223.80909 70.656499 
L 220.519778 70.919281 
L 217.230466 71.228624 
L 213.941154 71.592499 
L 210.651842 72.020127 
L 207.36253 72.522127 
L 204.073218 73.110652 
L 200.783906 73.799511 
L 197.494594 74.604253 
L 194.205282 75.542171 
L 190.91597 76.632187 
L 187.626658 77.894564 
L 184.337346 79.350319 
L 181.048034 81.020238 
L 177.758722 82.923292 
L 174.46941 85.07422 
L 171.180098 87.479965 
L 167.890787 90.134566 
L 164.601475 93.012059 
L 161.312163 96.056936 
L 158.022851 99.171868 
L 154.733539 102.20291 
L 151.444227 104.923561 
L 148.154915 107.021312 
L 144.865603 108.094081 
L 141.576291 107.668969 
L 138.286979 105.259835 
L 134.997667 100.477156 
L 131.708355 93.184093 
L 128.419043 83.652404 
L 125.129731 72.630021 
L 121.840419 61.237057 
L 118.551107 50.692765 
L 115.261795 41.993219 
L 111.972483 35.69752 
L 108.683171 31.898659 
L 105.393859 30.338393 
L 102.104547 30.571889 
L 98.815235 32.108224 
L 95.525923 34.498478 
L 92.236612 37.375738 
L 88.9473 40.463101 
L 85.657988 43.564959 
L 82.368676 46.551912 
L 79.079364 49.345009 
L 75.790052 51.901878 
L 72.50074 54.205554 
L 69.211428 56.255967 
L 65.922116 58.063695 
L 62.632804 59.645526 
L 59.343492 61.021395 
L 56.05418 62.212331 
L 52.764868 63.239142 
L 49.475556 64.121605 
L 46.186244 64.878016 
L 42.896932 65.524974 
L 39.60762 66.077327 
L 36.318308 66.548209 
L 33.028996 66.949143 
L 29.739684 67.290172 
L 26.450372 67.579999 
L 23.16106 67.826137 
L 19.871748 68.035049 
L 16.582436 68.212277 
L 13.293125 68.362565 
L 10.003813 68.489964 
L 6.714501 68.597929 
L 3.425189 68.689403 
L 0.135877 68.766888 
L -3.153435 68.832514 
L -6.442747 68.888087 
L -9.732059 68.935141 
L -13.021371 68.974979 
L -16.310683 69.008705 
L -19.599995 69.037254 
L -22.889307 69.061419 
L -26.178619 69.081873 
L -29.467931 69.099185 
L -32.757243 69.113837 
L -36.046555 69.126238 
L -39.335867 69.136732 
L -42.625179 69.145614 
L -45.914491 69.15313 
L -49.203803 69.15949 
L -52.493115 69.164873 
L -55.782427 69.169428 
L -59.071739 69.173283 
L -62.36105 69.176545 
L -65.650362 69.179305 
L -68.939674 69.181641 
L -72.228986 69.183618 
L -75.518298 69.18529 
L -78.80761 69.186706 
L -82.096922 69.187903 
L -85.386234 69.188917 
L -88.675546 69.189775 
L -91.964858 69.1905 
L -95.25417 69.191115 
L -98.543482 69.191634 
L -101.832794 69.192074 
L -105.122106 69.192446 
L -108.411418 69.192761 
L -111.70073 69.193028 
L -114.990042 69.193253 
L -118.279354 69.193444 
L -121.568666 69.193605 
L -124.857978 69.193742 
L -128.14729 69.193858 
L -131.436602 69.193955 
L -134.725914 69.194038 
L -138.015225 69.194108 
L -141.304537 69.194167 
L -144.593849 69.194218 
L -147.883161 69.19426 
L -151.172473 69.194296 
L -154.461785 69.194326 
L -157.751097 69.194352 
L -161.040409 69.194374 
L -164.329721 69.194392 
L -167.619033 69.194408 
L -170.908345 69.194421 
L -174.197657 69.194432 
L -177.486969 69.194442 
L -180.776281 69.19445 
L -184.065593 69.194456 
L -187.354905 69.194462 
L -190.644217 69.194467 
L -193.933529 69.194471 
L -197.222841 69.194475 
L -200.512153 69.194477 
L -203.801465 69.19448 
L -207.090777 69.194482 
L -210.380089 69.194484 
L -213.669401 69.194485 
L -216.958712 69.194487 
L -220.248024 69.194488 
L -223.537336 69.194489 
L -226.826648 69.194489 
L -230.11596 69.19449 
L -233.405272 69.194491 
L -236.694584 69.194491 
L -239.983896 69.194491 
L -243.273208 69.194492 
L -246.56252 69.194492 
L -249.851832 69.194492 
L -253.141144 69.194493 
L -256.430456 69.194493 
L -259.719768 69.194493 
L -263.00908 69.194493 
L -266.298392 69.194493 
L -269.587704 69.194493 
L -272.877016 69.194493 
L -276.166328 69.194493 
L -279.45564 69.194493 
L -282.744952 69.194493 
L -286.034264 69.194493 
L -289.323576 69.194493 
L -292.612887 69.194493 
L -295.902199 69.194494 
L -299.191511 69.194494 
L -302.480823 69.194494 
L -305.770135 69.194494 
L -309.059447 69.194494 
L -312.348759 69.194494 
L -315.638071 69.194494 
L -318.927383 69.194494 
L -322.216695 69.194494 
L -325.506007 69.194494 
L -328.795319 69.194494 
L -332.084631 69.194494 
L -335.373943 69.194494 
L -338.663255 69.194494 
L -341.952567 69.194494 
L -345.241879 69.194494 
L -348.531191 69.194494 
L -351.820503 69.194494 
L -355.109815 69.194494 
L -358.399127 69.194494 
L -361.688439 69.194494 
L -364.977751 69.194494 
L -368.267063 69.194494 
z
" style="fill:#7f7f7f;fill-opacity:0.2;"/>
   </g>
   <g id="LineCollection_1">
    <path clip-path="url(#p48c82eb979)" d="M 124.142937 170.444217 
L 124.142937 69.194494 
" style="fill:none;stroke:#000000;stroke-dasharray:1,1.65;stroke-dashoffset:0;"/>
   </g>
   <g id="LineCollection_2">
    <path clip-path="url(#p48c82eb979)" d="M -1 69.194494 
L 234.324937 69.194494 
" style="fill:none;stroke:#000000;stroke-dasharray:1,1.65;stroke-dashoffset:0;"/>
   </g>
   <g id="line2d_7">
    <path clip-path="url(#p48c82eb979)" d="M -1 68.78955 
L 10.003813 68.489964 
L 19.871748 68.035049 
L 26.450372 67.579999 
L 33.028996 66.949143 
L 39.60762 66.077327 
L 46.186244 64.878016 
L 49.475556 64.121605 
L 52.764868 63.239142 
L 56.05418 62.212331 
L 59.343492 61.021395 
L 62.632804 59.645526 
L 65.922116 58.063695 
L 69.211428 56.255967 
L 72.50074 54.205554 
L 75.790052 51.901878 
L 79.079364 49.345009 
L 82.368676 46.551912 
L 88.9473 40.463101 
L 92.236612 37.375738 
L 95.525923 34.498478 
L 98.815235 32.108224 
L 102.104547 30.571889 
L 105.393859 30.338393 
L 108.683171 31.898659 
L 111.972483 35.69752 
L 115.261795 41.993219 
L 118.551107 50.692765 
L 121.840419 61.237057 
L 128.419043 83.652404 
L 131.708355 93.184093 
L 134.997667 100.477156 
L 138.286979 105.259835 
L 141.576291 107.668969 
L 144.865603 108.094081 
L 148.154915 107.021312 
L 151.444227 104.923561 
L 154.733539 102.20291 
L 167.890787 90.134566 
L 171.180098 87.479965 
L 174.46941 85.07422 
L 177.758722 82.923292 
L 181.048034 81.020238 
L 184.337346 79.350319 
L 187.626658 77.894564 
L 190.91597 76.632187 
L 194.205282 75.542171 
L 197.494594 74.604253 
L 200.783906 73.799511 
L 207.36253 72.522127 
L 213.941154 71.592499 
L 220.519778 70.919281 
L 227.098402 70.43341 
L 234.324937 70.056768 
L 234.324937 70.056768 
" style="fill:none;stroke:#9467bd;stroke-linecap:square;"/>
   </g>
   <g id="patch_3">
    <path d="M 25.660938 131.188987 
L 25.660938 7.2 
" style="fill:none;stroke:#000000;stroke-linecap:square;stroke-linejoin:miter;stroke-width:0.8;"/>
   </g>
   <g id="patch_4">
    <path d="M 222.624937 131.188987 
L 222.624937 7.2 
" style="fill:none;stroke:#000000;stroke-linecap:square;stroke-linejoin:miter;stroke-width:0.8;"/>
   </g>
   <g id="patch_5">
    <path d="M 25.660937 131.188987 
L 222.624937 131.188987 
" style="fill:none;stroke:#000000;stroke-linecap:square;stroke-linejoin:miter;stroke-width:0.8;"/>
   </g>
   <g id="patch_6">
    <path d="M 25.660937 7.2 
L 222.624937 7.2 
" style="fill:none;stroke:#000000;stroke-linecap:square;stroke-linejoin:miter;stroke-width:0.8;"/>
   </g>
   <g id="text_4">
    <!-- ANTISYMMETRIC -->
    <defs>
     <path d="M 44.4375 29.390625 
L 33.546875 61.078125 
L 21.96875 29.390625 
z
M 28.46875 71.734375 
L 39.453125 71.734375 
L 65.484375 0 
L 54.828125 0 
L 47.5625 21.484375 
L 19.1875 21.484375 
L 11.421875 0 
L 1.46875 0 
z
M 33.5 71.734375 
z
" id="Helvetica-41"/>
     <path d="M 7.625 71.734375 
L 19.09375 71.734375 
L 55.328125 13.625 
L 55.328125 71.734375 
L 64.546875 71.734375 
L 64.546875 0 
L 53.65625 0 
L 16.890625 58.0625 
L 16.890625 0 
L 7.625 0 
z
M 35.453125 71.734375 
z
" id="Helvetica-4e"/>
     <path d="M 59.8125 71.734375 
L 59.8125 63.1875 
L 35.640625 63.1875 
L 35.640625 0 
L 25.78125 0 
L 25.78125 63.1875 
L 1.609375 63.1875 
L 1.609375 71.734375 
z
" id="Helvetica-54"/>
     <path d="M 9.8125 71.734375 
L 19.625 71.734375 
L 19.625 0 
L 9.8125 0 
z
" id="Helvetica-49"/>
     <path d="M 13.96875 23.140625 
Q 14.3125 17.046875 16.84375 13.234375 
Q 21.6875 6.109375 33.890625 6.109375 
Q 39.359375 6.109375 43.84375 7.671875 
Q 52.546875 10.6875 52.546875 18.5 
Q 52.546875 24.359375 48.875 26.859375 
Q 45.171875 29.296875 37.25 31.109375 
L 27.546875 33.296875 
Q 18.015625 35.453125 14.0625 38.03125 
Q 7.234375 42.53125 7.234375 51.46875 
Q 7.234375 61.140625 13.921875 67.328125 
Q 20.609375 73.53125 32.859375 73.53125 
Q 44.140625 73.53125 52.015625 68.078125 
Q 59.90625 62.640625 59.90625 50.6875 
L 50.78125 50.6875 
Q 50.046875 56.453125 47.65625 59.515625 
Q 43.21875 65.140625 32.5625 65.140625 
Q 23.96875 65.140625 20.203125 61.515625 
Q 16.453125 57.90625 16.453125 53.125 
Q 16.453125 47.859375 20.84375 45.40625 
Q 23.734375 43.84375 33.890625 41.5 
L 43.953125 39.203125 
Q 51.21875 37.546875 55.171875 34.671875 
Q 62.015625 29.640625 62.015625 20.0625 
Q 62.015625 8.15625 53.34375 3.03125 
Q 44.671875 -2.09375 33.203125 -2.09375 
Q 19.828125 -2.09375 12.25 4.734375 
Q 4.6875 11.53125 4.828125 23.140625 
z
M 33.59375 73.6875 
z
" id="Helvetica-53"/>
     <path d="M 2.046875 71.734375 
L 13.375 71.734375 
L 33.984375 37.25 
L 54.59375 71.734375 
L 65.96875 71.734375 
L 38.875 28.90625 
L 38.875 0 
L 29.15625 0 
L 29.15625 28.90625 
z
M 34.125 71.734375 
z
" id="Helvetica-59"/>
     <path d="M 7.375 71.734375 
L 21.296875 71.734375 
L 41.890625 11.078125 
L 62.359375 71.734375 
L 76.125 71.734375 
L 76.125 0 
L 66.890625 0 
L 66.890625 42.328125 
Q 66.890625 44.53125 66.984375 49.609375 
Q 67.09375 54.6875 67.09375 60.5 
L 46.625 0 
L 37.015625 0 
L 16.40625 60.5 
L 16.40625 58.296875 
Q 16.40625 55.671875 16.53125 50.265625 
Q 16.65625 44.875 16.65625 42.328125 
L 16.65625 0 
L 7.375 0 
z
" id="Helvetica-4d"/>
     <path d="M 8.546875 71.734375 
L 60.84375 71.734375 
L 60.84375 62.9375 
L 18.015625 62.9375 
L 18.015625 41.15625 
L 57.625 41.15625 
L 57.625 32.859375 
L 18.015625 32.859375 
L 18.015625 8.546875 
L 61.578125 8.546875 
L 61.578125 0 
L 8.546875 0 
z
M 35.0625 71.734375 
z
" id="Helvetica-45"/>
     <path d="M 40.96875 38.875 
Q 47.796875 38.875 51.78125 41.609375 
Q 55.765625 44.34375 55.765625 51.46875 
Q 55.765625 59.125 50.203125 61.921875 
Q 47.21875 63.375 42.234375 63.375 
L 18.5 63.375 
L 18.5 38.875 
z
M 8.796875 71.734375 
L 42 71.734375 
Q 50.203125 71.734375 55.515625 69.34375 
Q 65.625 64.75 65.625 52.390625 
Q 65.625 45.953125 62.953125 41.84375 
Q 60.296875 37.75 55.515625 35.25 
Q 59.71875 33.546875 61.84375 30.765625 
Q 63.96875 27.984375 64.203125 21.734375 
L 64.546875 12.109375 
Q 64.703125 8.015625 65.234375 6 
Q 66.109375 2.59375 68.359375 1.609375 
L 68.359375 0 
L 56.453125 0 
Q 55.953125 0.921875 55.65625 2.390625 
Q 55.375 3.859375 55.171875 8.0625 
L 54.59375 20.015625 
Q 54.25 27.046875 49.359375 29.4375 
Q 46.578125 30.765625 40.625 30.765625 
L 18.5 30.765625 
L 18.5 0 
L 8.796875 0 
z
" id="Helvetica-52"/>
     <path d="M 37.84375 73.6875 
Q 51.46875 73.6875 58.984375 66.5 
Q 66.5 59.328125 67.328125 50.203125 
L 57.859375 50.203125 
Q 56.25 57.125 51.4375 61.171875 
Q 46.625 65.234375 37.9375 65.234375 
Q 27.34375 65.234375 20.828125 57.78125 
Q 14.3125 50.34375 14.3125 34.96875 
Q 14.3125 22.359375 20.1875 14.515625 
Q 26.078125 6.6875 37.75 6.6875 
Q 48.484375 6.6875 54.109375 14.9375 
Q 57.078125 19.28125 58.546875 26.375 
L 68.015625 26.375 
Q 66.75 15.046875 59.625 7.375 
Q 51.078125 -1.859375 36.578125 -1.859375 
Q 24.078125 -1.859375 15.578125 5.71875 
Q 4.390625 15.71875 4.390625 36.625 
Q 4.390625 52.484375 12.796875 62.640625 
Q 21.875 73.6875 37.84375 73.6875 
z
M 35.890625 73.6875 
z
" id="Helvetica-43"/>
    </defs>
    <g transform="translate(120.203657 31.997797)scale(0.12 -0.12)">
     <use xlink:href="#Helvetica-41"/>
     <use x="66.699219" xlink:href="#Helvetica-4e"/>
     <use x="138.916016" xlink:href="#Helvetica-54"/>
     <use x="200" xlink:href="#Helvetica-49"/>
     <use x="227.783203" xlink:href="#Helvetica-53"/>
     <use x="294.482422" xlink:href="#Helvetica-59"/>
     <use x="361.181641" xlink:href="#Helvetica-4d"/>
     <use x="444.482422" xlink:href="#Helvetica-4d"/>
     <use x="527.783203" xlink:href="#Helvetica-45"/>
     <use x="594.482422" xlink:href="#Helvetica-54"/>
     <use x="655.566406" xlink:href="#Helvetica-52"/>
     <use x="727.783203" xlink:href="#Helvetica-49"/>
     <use x="755.566406" xlink:href="#Helvetica-43"/>
    </g>
   </g>
  </g>
 </g>
 <defs>
  <clipPath id="p48c82eb979">
   <rect height="123.988987" width="196.964" x="25.660938" y="7.2"/>
  </clipPath>
 </defs>
</svg>
