<?xml version="1.0" encoding="utf-8" standalone="no"?>
<!DOCTYPE svg PUBLIC "-//W3C//DTD SVG 1.1//EN"
  "http://www.w3.org/Graphics/SVG/1.1/DTD/svg11.dtd">
<!-- Created with matplotlib (http://matplotlib.org/) -->
<svg height="194pt" version="1.1" viewBox="0 0 480 194" width="480pt" xmlns="http://www.w3.org/2000/svg" xmlns:xlink="http://www.w3.org/1999/xlink">
 <defs>
  <style type="text/css">
*{stroke-linecap:butt;stroke-linejoin:round;}
  </style>
 </defs>
 <g id="figure_1">
  <g id="patch_1">
   <path d="M 0 194.77875 
L 480.841085 194.77875 
L 480.841085 0 
L 0 0 
z
" style="fill:#ffffff;"/>
  </g>
  <g id="axes_1">
   <g id="patch_2">
    <path d="M 42.340938 157.669375 
L 434.16546 157.669375 
L 434.16546 34.029375 
L 42.340938 34.029375 
z
" style="fill:#ffffff;"/>
   </g>
   <g id="LineCollection_1">
    <path clip-path="url(#p3023c53efa)" d="M 60.151143 168.5327 
L 60.151143 116.91251 
" style="fill:none;stroke:#000000;"/>
    <path clip-path="url(#p3023c53efa)" d="M 77.961349 72.193355 
L 77.961349 29.697616 
" style="fill:none;stroke:#000000;"/>
    <path clip-path="url(#p3023c53efa)" d="M 95.771554 110.632397 
L 95.771554 98.495314 
" style="fill:none;stroke:#000000;"/>
    <path clip-path="url(#p3023c53efa)" d="M 113.58176 84.593789 
L 113.58176 70.506064 
" style="fill:none;stroke:#000000;"/>
    <path clip-path="url(#p3023c53efa)" d="M 131.391965 93.489619 
L 131.391965 83.142129 
" style="fill:none;stroke:#000000;"/>
    <path clip-path="url(#p3023c53efa)" d="M 149.202171 98.320507 
L 149.202171 88.287502 
" style="fill:none;stroke:#000000;"/>
    <path clip-path="url(#p3023c53efa)" d="M 167.012376 100.618277 
L 167.012376 93.758773 
" style="fill:none;stroke:#000000;"/>
    <path clip-path="url(#p3023c53efa)" d="M 184.822582 92.968971 
L 184.822582 86.006667 
" style="fill:none;stroke:#000000;"/>
    <path clip-path="url(#p3023c53efa)" d="M 202.632788 96.800512 
L 202.632788 90.903435 
" style="fill:none;stroke:#000000;"/>
    <path clip-path="url(#p3023c53efa)" d="M 220.442993 100.106957 
L 220.442993 92.216269 
" style="fill:none;stroke:#000000;"/>
    <path clip-path="url(#p3023c53efa)" d="M 238.253199 108.571329 
L 238.253199 102.535559 
" style="fill:none;stroke:#000000;"/>
    <path clip-path="url(#p3023c53efa)" d="M 256.063404 107.933275 
L 256.063404 100.844316 
" style="fill:none;stroke:#000000;"/>
    <path clip-path="url(#p3023c53efa)" d="M 273.87361 104.065568 
L 273.87361 95.374792 
" style="fill:none;stroke:#000000;"/>
    <path clip-path="url(#p3023c53efa)" d="M 291.683815 105.616806 
L 291.683815 97.981874 
" style="fill:none;stroke:#000000;"/>
    <path clip-path="url(#p3023c53efa)" d="M 309.494021 107.152421 
L 309.494021 98.769572 
" style="fill:none;stroke:#000000;"/>
    <path clip-path="url(#p3023c53efa)" d="M 327.304227 109.338962 
L 327.304227 102.052528 
" style="fill:none;stroke:#000000;"/>
    <path clip-path="url(#p3023c53efa)" d="M 345.114432 106.360668 
L 345.114432 95.474033 
" style="fill:none;stroke:#000000;"/>
    <path clip-path="url(#p3023c53efa)" d="M 362.924638 103.181519 
L 362.924638 94.732102 
" style="fill:none;stroke:#000000;"/>
    <path clip-path="url(#p3023c53efa)" d="M 380.734843 105.847722 
L 380.734843 96.613785 
" style="fill:none;stroke:#000000;"/>
    <path clip-path="url(#p3023c53efa)" d="M 398.545049 109.331302 
L 398.545049 99.369173 
" style="fill:none;stroke:#000000;"/>
   </g>
   <g id="line2d_1">
    <defs>
     <path d="M 2 0 
L -2 -0 
" id="mb04039c47a" style="stroke:#000000;"/>
    </defs>
    <g clip-path="url(#p3023c53efa)">
     <use style="stroke:#000000;" x="60.151143" xlink:href="#mb04039c47a" y="168.5327"/>
     <use style="stroke:#000000;" x="77.961349" xlink:href="#mb04039c47a" y="72.193355"/>
     <use style="stroke:#000000;" x="95.771554" xlink:href="#mb04039c47a" y="110.632397"/>
     <use style="stroke:#000000;" x="113.58176" xlink:href="#mb04039c47a" y="84.593789"/>
     <use style="stroke:#000000;" x="131.391965" xlink:href="#mb04039c47a" y="93.489619"/>
     <use style="stroke:#000000;" x="149.202171" xlink:href="#mb04039c47a" y="98.320507"/>
     <use style="stroke:#000000;" x="167.012376" xlink:href="#mb04039c47a" y="100.618277"/>
     <use style="stroke:#000000;" x="184.822582" xlink:href="#mb04039c47a" y="92.968971"/>
     <use style="stroke:#000000;" x="202.632788" xlink:href="#mb04039c47a" y="96.800512"/>
     <use style="stroke:#000000;" x="220.442993" xlink:href="#mb04039c47a" y="100.106957"/>
     <use style="stroke:#000000;" x="238.253199" xlink:href="#mb04039c47a" y="108.571329"/>
     <use style="stroke:#000000;" x="256.063404" xlink:href="#mb04039c47a" y="107.933275"/>
     <use style="stroke:#000000;" x="273.87361" xlink:href="#mb04039c47a" y="104.065568"/>
     <use style="stroke:#000000;" x="291.683815" xlink:href="#mb04039c47a" y="105.616806"/>
     <use style="stroke:#000000;" x="309.494021" xlink:href="#mb04039c47a" y="107.152421"/>
     <use style="stroke:#000000;" x="327.304227" xlink:href="#mb04039c47a" y="109.338962"/>
     <use style="stroke:#000000;" x="345.114432" xlink:href="#mb04039c47a" y="106.360668"/>
     <use style="stroke:#000000;" x="362.924638" xlink:href="#mb04039c47a" y="103.181519"/>
     <use style="stroke:#000000;" x="380.734843" xlink:href="#mb04039c47a" y="105.847722"/>
     <use style="stroke:#000000;" x="398.545049" xlink:href="#mb04039c47a" y="109.331302"/>
    </g>
   </g>
   <g id="line2d_2">
    <g clip-path="url(#p3023c53efa)">
     <use style="stroke:#000000;" x="60.151143" xlink:href="#mb04039c47a" y="116.91251"/>
     <use style="stroke:#000000;" x="77.961349" xlink:href="#mb04039c47a" y="29.697616"/>
     <use style="stroke:#000000;" x="95.771554" xlink:href="#mb04039c47a" y="98.495314"/>
     <use style="stroke:#000000;" x="113.58176" xlink:href="#mb04039c47a" y="70.506064"/>
     <use style="stroke:#000000;" x="131.391965" xlink:href="#mb04039c47a" y="83.142129"/>
     <use style="stroke:#000000;" x="149.202171" xlink:href="#mb04039c47a" y="88.287502"/>
     <use style="stroke:#000000;" x="167.012376" xlink:href="#mb04039c47a" y="93.758773"/>
     <use style="stroke:#000000;" x="184.822582" xlink:href="#mb04039c47a" y="86.006667"/>
     <use style="stroke:#000000;" x="202.632788" xlink:href="#mb04039c47a" y="90.903435"/>
     <use style="stroke:#000000;" x="220.442993" xlink:href="#mb04039c47a" y="92.216269"/>
     <use style="stroke:#000000;" x="238.253199" xlink:href="#mb04039c47a" y="102.535559"/>
     <use style="stroke:#000000;" x="256.063404" xlink:href="#mb04039c47a" y="100.844316"/>
     <use style="stroke:#000000;" x="273.87361" xlink:href="#mb04039c47a" y="95.374792"/>
     <use style="stroke:#000000;" x="291.683815" xlink:href="#mb04039c47a" y="97.981874"/>
     <use style="stroke:#000000;" x="309.494021" xlink:href="#mb04039c47a" y="98.769572"/>
     <use style="stroke:#000000;" x="327.304227" xlink:href="#mb04039c47a" y="102.052528"/>
     <use style="stroke:#000000;" x="345.114432" xlink:href="#mb04039c47a" y="95.474033"/>
     <use style="stroke:#000000;" x="362.924638" xlink:href="#mb04039c47a" y="94.732102"/>
     <use style="stroke:#000000;" x="380.734843" xlink:href="#mb04039c47a" y="96.613785"/>
     <use style="stroke:#000000;" x="398.545049" xlink:href="#mb04039c47a" y="99.369173"/>
    </g>
   </g>
   <g id="matplotlib.axis_1">
    <g id="xtick_1">
     <g id="line2d_3">
      <defs>
       <path d="M 0 0 
L 0 -3.5 
" id="m31d9b33ebb" style="stroke:#000000;stroke-width:0.8;"/>
      </defs>
      <g>
       <use style="stroke:#000000;stroke-width:0.8;" x="42.340938" xlink:href="#m31d9b33ebb" y="157.669375"/>
      </g>
     </g>
     <g id="text_1">
      <!-- 0 -->
      <defs>
       <path d="M 27.046875 69.921875 
Q 40.625 69.921875 46.6875 58.734375 
Q 51.375 50.09375 51.375 35.0625 
Q 51.375 20.796875 47.125 11.46875 
Q 40.96875 -1.90625 27 -1.90625 
Q 14.40625 -1.90625 8.25 9.03125 
Q 3.125 18.171875 3.125 33.546875 
Q 3.125 45.453125 6.203125 54 
Q 11.96875 69.921875 27.046875 69.921875 
z
M 26.953125 6.109375 
Q 33.796875 6.109375 37.84375 12.15625 
Q 41.890625 18.21875 41.890625 34.71875 
Q 41.890625 46.625 38.953125 54.3125 
Q 36.03125 62.015625 27.59375 62.015625 
Q 19.828125 62.015625 16.234375 54.703125 
Q 12.640625 47.40625 12.640625 33.203125 
Q 12.640625 22.515625 14.9375 16.015625 
Q 18.453125 6.109375 26.953125 6.109375 
z
" id="Helvetica-30"/>
      </defs>
      <g transform="translate(39.004375 169.7775)scale(0.12 -0.12)">
       <use xlink:href="#Helvetica-30"/>
      </g>
     </g>
    </g>
    <g id="xtick_2">
     <g id="line2d_4">
      <g>
       <use style="stroke:#000000;stroke-width:0.8;" x="131.391965" xlink:href="#m31d9b33ebb" y="157.669375"/>
      </g>
     </g>
     <g id="text_2">
      <!-- 5 -->
      <defs>
       <path d="M 12.359375 17.828125 
Q 13.234375 10.296875 19.34375 7.421875 
Q 22.46875 5.953125 26.5625 5.953125 
Q 34.375 5.953125 38.125 10.9375 
Q 41.890625 15.921875 41.890625 21.96875 
Q 41.890625 29.296875 37.421875 33.296875 
Q 32.953125 37.3125 26.703125 37.3125 
Q 22.171875 37.3125 18.921875 35.546875 
Q 15.671875 33.796875 13.375 30.671875 
L 5.765625 31.109375 
L 11.078125 68.75 
L 47.40625 68.75 
L 47.40625 60.25 
L 17.671875 60.25 
L 14.703125 40.828125 
Q 17.140625 42.671875 19.34375 43.609375 
Q 23.25 45.21875 28.375 45.21875 
Q 37.984375 45.21875 44.671875 39.015625 
Q 51.375 32.8125 51.375 23.296875 
Q 51.375 13.375 45.234375 5.796875 
Q 39.109375 -1.765625 25.6875 -1.765625 
Q 17.140625 -1.765625 10.5625 3.046875 
Q 4 7.859375 3.21875 17.828125 
z
" id="Helvetica-35"/>
      </defs>
      <g transform="translate(128.055403 169.7775)scale(0.12 -0.12)">
       <use xlink:href="#Helvetica-35"/>
      </g>
     </g>
    </g>
    <g id="xtick_3">
     <g id="line2d_5">
      <g>
       <use style="stroke:#000000;stroke-width:0.8;" x="220.442993" xlink:href="#m31d9b33ebb" y="157.669375"/>
      </g>
     </g>
     <g id="text_3">
      <!-- 10 -->
      <defs>
       <path d="M 9.578125 49.515625 
L 9.578125 56.25 
Q 19.09375 57.171875 22.84375 59.34375 
Q 26.609375 61.53125 28.46875 69.625 
L 35.40625 69.625 
L 35.40625 0 
L 26.03125 0 
L 26.03125 49.515625 
z
" id="Helvetica-31"/>
      </defs>
      <g transform="translate(213.769868 169.7775)scale(0.12 -0.12)">
       <use xlink:href="#Helvetica-31"/>
       <use x="55.615234" xlink:href="#Helvetica-30"/>
      </g>
     </g>
    </g>
    <g id="xtick_4">
     <g id="line2d_6">
      <g>
       <use style="stroke:#000000;stroke-width:0.8;" x="309.494021" xlink:href="#m31d9b33ebb" y="157.669375"/>
      </g>
     </g>
     <g id="text_4">
      <!-- 15 -->
      <g transform="translate(302.820896 169.7775)scale(0.12 -0.12)">
       <use xlink:href="#Helvetica-31"/>
       <use x="55.615234" xlink:href="#Helvetica-35"/>
      </g>
     </g>
    </g>
    <g id="xtick_5">
     <g id="line2d_7">
      <g>
       <use style="stroke:#000000;stroke-width:0.8;" x="398.545049" xlink:href="#m31d9b33ebb" y="157.669375"/>
      </g>
     </g>
     <g id="text_5">
      <!-- 20 -->
      <defs>
       <path d="M 3.125 0 
Q 3.609375 9.03125 6.859375 15.71875 
Q 10.109375 22.40625 19.53125 27.875 
L 28.90625 33.296875 
Q 35.203125 36.96875 37.75 39.546875 
Q 41.75 43.609375 41.75 48.828125 
Q 41.75 54.9375 38.078125 58.515625 
Q 34.421875 62.109375 28.328125 62.109375 
Q 19.28125 62.109375 15.828125 55.28125 
Q 13.96875 51.609375 13.765625 45.125 
L 4.828125 45.125 
Q 4.984375 54.25 8.203125 60.015625 
Q 13.921875 70.171875 28.375 70.171875 
Q 40.375 70.171875 45.921875 63.671875 
Q 51.46875 57.171875 51.46875 49.21875 
Q 51.46875 40.828125 45.5625 34.859375 
Q 42.140625 31.390625 33.296875 26.46875 
L 26.609375 22.75 
Q 21.828125 20.125 19.09375 17.71875 
Q 14.203125 13.484375 12.9375 8.296875 
L 51.125 8.296875 
L 51.125 0 
L 3.125 0 
z
" id="Helvetica-32"/>
      </defs>
      <g transform="translate(391.871924 169.7775)scale(0.12 -0.12)">
       <use xlink:href="#Helvetica-32"/>
       <use x="55.615234" xlink:href="#Helvetica-30"/>
      </g>
     </g>
    </g>
    <g id="text_6">
     <!-- I$_{heat}$ (nA RMS) -->
     <defs>
      <path d="M 9.8125 71.734375 
L 19.625 71.734375 
L 19.625 0 
L 9.8125 0 
z
" id="Helvetica-49"/>
      <path d="M 6.453125 71.96875 
L 15.234375 71.96875 
L 15.234375 45.21875 
Q 18.359375 49.171875 20.84375 50.78125 
Q 25.09375 53.5625 31.453125 53.5625 
Q 42.828125 53.5625 46.875 45.609375 
Q 49.078125 41.265625 49.078125 33.546875 
L 49.078125 0 
L 40.046875 0 
L 40.046875 32.953125 
Q 40.046875 38.71875 38.578125 41.40625 
Q 36.1875 45.703125 29.59375 45.703125 
Q 24.125 45.703125 19.671875 41.9375 
Q 15.234375 38.1875 15.234375 27.734375 
L 15.234375 0 
L 6.453125 0 
z
" id="Helvetica-68"/>
      <path d="M 28.21875 53.46875 
Q 33.796875 53.46875 39.015625 50.859375 
Q 44.234375 48.25 46.96875 44.09375 
Q 49.609375 40.140625 50.484375 34.859375 
Q 51.265625 31.25 51.265625 23.34375 
L 12.9375 23.34375 
Q 13.1875 15.375 16.703125 10.5625 
Q 20.21875 5.765625 27.59375 5.765625 
Q 34.46875 5.765625 38.578125 10.296875 
Q 40.921875 12.9375 41.890625 16.40625 
L 50.53125 16.40625 
Q 50.203125 13.53125 48.265625 9.984375 
Q 46.34375 6.453125 43.953125 4.203125 
Q 39.9375 0.296875 34.03125 -1.078125 
Q 30.859375 -1.859375 26.859375 -1.859375 
Q 17.09375 -1.859375 10.296875 5.25 
Q 3.515625 12.359375 3.515625 25.140625 
Q 3.515625 37.75 10.34375 45.609375 
Q 17.1875 53.46875 28.21875 53.46875 
z
M 42.234375 30.328125 
Q 41.703125 36.03125 39.75 39.453125 
Q 36.140625 45.796875 27.6875 45.796875 
Q 21.625 45.796875 17.515625 41.421875 
Q 13.421875 37.0625 13.1875 30.328125 
z
M 27.390625 53.5625 
z
" id="Helvetica-65"/>
      <path d="M 13.1875 13.921875 
Q 13.1875 10.109375 15.96875 7.90625 
Q 18.75 5.71875 22.5625 5.71875 
Q 27.203125 5.71875 31.546875 7.859375 
Q 38.875 11.421875 38.875 19.53125 
L 38.875 26.609375 
Q 37.25 25.59375 34.703125 24.90625 
Q 32.171875 24.21875 29.734375 23.921875 
L 24.421875 23.25 
Q 19.625 22.609375 17.234375 21.234375 
Q 13.1875 18.953125 13.1875 13.921875 
z
M 34.46875 31.6875 
Q 37.5 32.078125 38.53125 34.234375 
Q 39.109375 35.40625 39.109375 37.59375 
Q 39.109375 42.09375 35.90625 44.109375 
Q 32.71875 46.140625 26.765625 46.140625 
Q 19.875 46.140625 17 42.4375 
Q 15.375 40.375 14.890625 36.328125 
L 6.6875 36.328125 
Q 6.9375 46 12.96875 49.78125 
Q 19 53.5625 26.953125 53.5625 
Q 36.1875 53.5625 41.9375 50.046875 
Q 47.65625 46.53125 47.65625 39.109375 
L 47.65625 8.984375 
Q 47.65625 7.625 48.21875 6.78125 
Q 48.78125 5.953125 50.59375 5.953125 
Q 51.171875 5.953125 51.90625 6.03125 
Q 52.640625 6.109375 53.46875 6.25 
L 53.46875 -0.25 
Q 51.421875 -0.828125 50.34375 -0.96875 
Q 49.265625 -1.125 47.40625 -1.125 
Q 42.875 -1.125 40.828125 2.09375 
Q 39.75 3.8125 39.3125 6.9375 
Q 36.625 3.421875 31.59375 0.828125 
Q 26.5625 -1.765625 20.515625 -1.765625 
Q 13.234375 -1.765625 8.609375 2.65625 
Q 4 7.078125 4 13.71875 
Q 4 21 8.546875 25 
Q 13.09375 29 20.453125 29.9375 
z
M 27.203125 53.5625 
z
" id="Helvetica-61"/>
      <path d="M 8.203125 66.890625 
L 17.09375 66.890625 
L 17.09375 52.296875 
L 25.4375 52.296875 
L 25.4375 45.125 
L 17.09375 45.125 
L 17.09375 10.984375 
Q 17.09375 8.25 18.953125 7.328125 
Q 19.96875 6.78125 22.359375 6.78125 
Q 23 6.78125 23.734375 6.8125 
Q 24.46875 6.84375 25.4375 6.9375 
L 25.4375 0 
Q 23.921875 -0.4375 22.28125 -0.625 
Q 20.65625 -0.828125 18.75 -0.828125 
Q 12.59375 -0.828125 10.390625 2.3125 
Q 8.203125 5.46875 8.203125 10.5 
L 8.203125 45.125 
L 1.125 45.125 
L 1.125 52.296875 
L 8.203125 52.296875 
z
" id="Helvetica-74"/>
      <path id="Helvetica-20"/>
      <path d="M 29.59375 72.90625 
Q 21.921875 58.015625 19.625 50.984375 
Q 16.15625 40.28125 16.15625 26.265625 
Q 16.15625 12.109375 20.125 0.390625 
Q 22.5625 -6.84375 29.734375 -20.40625 
L 23.828125 -20.40625 
Q 16.703125 -9.28125 14.984375 -6.203125 
Q 13.28125 -3.125 11.28125 2.15625 
Q 8.546875 9.375 7.46875 17.578125 
Q 6.9375 21.828125 6.9375 25.6875 
Q 6.9375 40.140625 11.46875 51.421875 
Q 14.359375 58.59375 23.484375 72.90625 
z
" id="Helvetica-28"/>
      <path d="M 6.453125 52.296875 
L 14.796875 52.296875 
L 14.796875 44.875 
Q 18.5 49.46875 22.65625 51.46875 
Q 26.8125 53.46875 31.890625 53.46875 
Q 43.015625 53.46875 46.921875 45.703125 
Q 49.078125 41.453125 49.078125 33.546875 
L 49.078125 0 
L 40.140625 0 
L 40.140625 32.953125 
Q 40.140625 37.75 38.71875 40.671875 
Q 36.375 45.5625 30.21875 45.5625 
Q 27.09375 45.5625 25.09375 44.921875 
Q 21.484375 43.84375 18.75 40.625 
Q 16.546875 38.03125 15.890625 35.265625 
Q 15.234375 32.515625 15.234375 27.390625 
L 15.234375 0 
L 6.453125 0 
z
M 27.09375 53.5625 
z
" id="Helvetica-6e"/>
      <path d="M 44.4375 29.390625 
L 33.546875 61.078125 
L 21.96875 29.390625 
z
M 28.46875 71.734375 
L 39.453125 71.734375 
L 65.484375 0 
L 54.828125 0 
L 47.5625 21.484375 
L 19.1875 21.484375 
L 11.421875 0 
L 1.46875 0 
z
M 33.5 71.734375 
z
" id="Helvetica-41"/>
      <path d="M 40.96875 38.875 
Q 47.796875 38.875 51.78125 41.609375 
Q 55.765625 44.34375 55.765625 51.46875 
Q 55.765625 59.125 50.203125 61.921875 
Q 47.21875 63.375 42.234375 63.375 
L 18.5 63.375 
L 18.5 38.875 
z
M 8.796875 71.734375 
L 42 71.734375 
Q 50.203125 71.734375 55.515625 69.34375 
Q 65.625 64.75 65.625 52.390625 
Q 65.625 45.953125 62.953125 41.84375 
Q 60.296875 37.75 55.515625 35.25 
Q 59.71875 33.546875 61.84375 30.765625 
Q 63.96875 27.984375 64.203125 21.734375 
L 64.546875 12.109375 
Q 64.703125 8.015625 65.234375 6 
Q 66.109375 2.59375 68.359375 1.609375 
L 68.359375 0 
L 56.453125 0 
Q 55.953125 0.921875 55.65625 2.390625 
Q 55.375 3.859375 55.171875 8.0625 
L 54.59375 20.015625 
Q 54.25 27.046875 49.359375 29.4375 
Q 46.578125 30.765625 40.625 30.765625 
L 18.5 30.765625 
L 18.5 0 
L 8.796875 0 
z
" id="Helvetica-52"/>
      <path d="M 7.375 71.734375 
L 21.296875 71.734375 
L 41.890625 11.078125 
L 62.359375 71.734375 
L 76.125 71.734375 
L 76.125 0 
L 66.890625 0 
L 66.890625 42.328125 
Q 66.890625 44.53125 66.984375 49.609375 
Q 67.09375 54.6875 67.09375 60.5 
L 46.625 0 
L 37.015625 0 
L 16.40625 60.5 
L 16.40625 58.296875 
Q 16.40625 55.671875 16.53125 50.265625 
Q 16.65625 44.875 16.65625 42.328125 
L 16.65625 0 
L 7.375 0 
z
" id="Helvetica-4d"/>
      <path d="M 13.96875 23.140625 
Q 14.3125 17.046875 16.84375 13.234375 
Q 21.6875 6.109375 33.890625 6.109375 
Q 39.359375 6.109375 43.84375 7.671875 
Q 52.546875 10.6875 52.546875 18.5 
Q 52.546875 24.359375 48.875 26.859375 
Q 45.171875 29.296875 37.25 31.109375 
L 27.546875 33.296875 
Q 18.015625 35.453125 14.0625 38.03125 
Q 7.234375 42.53125 7.234375 51.46875 
Q 7.234375 61.140625 13.921875 67.328125 
Q 20.609375 73.53125 32.859375 73.53125 
Q 44.140625 73.53125 52.015625 68.078125 
Q 59.90625 62.640625 59.90625 50.6875 
L 50.78125 50.6875 
Q 50.046875 56.453125 47.65625 59.515625 
Q 43.21875 65.140625 32.5625 65.140625 
Q 23.96875 65.140625 20.203125 61.515625 
Q 16.453125 57.90625 16.453125 53.125 
Q 16.453125 47.859375 20.84375 45.40625 
Q 23.734375 43.84375 33.890625 41.5 
L 43.953125 39.203125 
Q 51.21875 37.546875 55.171875 34.671875 
Q 62.015625 29.640625 62.015625 20.0625 
Q 62.015625 8.15625 53.34375 3.03125 
Q 44.671875 -2.09375 33.203125 -2.09375 
Q 19.828125 -2.09375 12.25 4.734375 
Q 4.6875 11.53125 4.828125 23.140625 
z
M 33.59375 73.6875 
z
" id="Helvetica-53"/>
      <path d="M 3.46875 -20.40625 
Q 11.234375 -5.28125 13.484375 1.65625 
Q 16.890625 12.15625 16.890625 26.265625 
Q 16.890625 40.375 12.9375 52.09375 
Q 10.5 59.328125 3.328125 72.90625 
L 9.234375 72.90625 
Q 16.75 60.890625 18.328125 58.078125 
Q 19.921875 55.28125 21.78125 50.34375 
Q 24.125 44.234375 25.125 38.28125 
Q 26.125 32.328125 26.125 26.8125 
Q 26.125 12.359375 21.53125 1.03125 
Q 18.65625 -6.25 9.578125 -20.40625 
z
" id="Helvetica-29"/>
     </defs>
     <g transform="translate(193.803199 184.63875)scale(0.14 -0.14)">
      <use transform="translate(0 0.3125)" xlink:href="#Helvetica-49"/>
      <use transform="translate(28.698398 -15.376563)scale(0.7)" xlink:href="#Helvetica-68"/>
      <use transform="translate(67.629062 -15.376563)scale(0.7)" xlink:href="#Helvetica-65"/>
      <use transform="translate(106.559727 -15.376563)scale(0.7)" xlink:href="#Helvetica-61"/>
      <use transform="translate(145.490391 -15.376563)scale(0.7)" xlink:href="#Helvetica-74"/>
      <use transform="translate(167.553477 0.3125)" xlink:href="#Helvetica-20"/>
      <use transform="translate(195.33668 0.3125)" xlink:href="#Helvetica-28"/>
      <use transform="translate(228.637461 0.3125)" xlink:href="#Helvetica-6e"/>
      <use transform="translate(284.252695 0.3125)" xlink:href="#Helvetica-41"/>
      <use transform="translate(350.951914 0.3125)" xlink:href="#Helvetica-20"/>
      <use transform="translate(378.735117 0.3125)" xlink:href="#Helvetica-52"/>
      <use transform="translate(450.951914 0.3125)" xlink:href="#Helvetica-4d"/>
      <use transform="translate(534.252695 0.3125)" xlink:href="#Helvetica-53"/>
      <use transform="translate(600.951914 0.3125)" xlink:href="#Helvetica-29"/>
     </g>
    </g>
   </g>
   <g id="matplotlib.axis_2">
    <g id="ytick_1">
     <g id="line2d_8">
      <defs>
       <path d="M 0 0 
L 3.5 0 
" id="m711bad0f68" style="stroke:#000000;stroke-width:0.8;"/>
      </defs>
      <g>
       <use style="stroke:#000000;stroke-width:0.8;" x="42.340938" xlink:href="#m711bad0f68" y="140.95496"/>
      </g>
     </g>
     <g id="text_7">
      <!-- 0.4 -->
      <defs>
       <path d="M 8.546875 10.640625 
L 18.75 10.640625 
L 18.75 0 
L 8.546875 0 
z
" id="Helvetica-2e"/>
       <path d="M 33.0625 24.75 
L 33.0625 56.453125 
L 10.640625 24.75 
z
M 33.203125 0 
L 33.203125 17.09375 
L 2.546875 17.09375 
L 2.546875 25.6875 
L 34.578125 70.125 
L 42 70.125 
L 42 24.75 
L 52.296875 24.75 
L 52.296875 17.09375 
L 42 17.09375 
L 42 0 
z
" id="Helvetica-34"/>
      </defs>
      <g transform="translate(22.160938 145.259022)scale(0.12 -0.12)">
       <use xlink:href="#Helvetica-30"/>
       <use x="55.615234" xlink:href="#Helvetica-2e"/>
       <use x="83.398438" xlink:href="#Helvetica-34"/>
      </g>
     </g>
    </g>
    <g id="ytick_2">
     <g id="line2d_9">
      <g>
       <use style="stroke:#000000;stroke-width:0.8;" x="42.340938" xlink:href="#m711bad0f68" y="91.957123"/>
      </g>
     </g>
     <g id="text_8">
      <!-- $\ln{2}$ -->
      <defs>
       <path d="M 6.6875 71.734375 
L 15.484375 71.734375 
L 15.484375 0 
L 6.6875 0 
z
" id="Helvetica-6c"/>
      </defs>
      <g transform="translate(22.760938 96.261186)scale(0.12 -0.12)">
       <use transform="translate(0 0.265625)" xlink:href="#Helvetica-6c"/>
       <use transform="translate(22.216797 0.265625)" xlink:href="#Helvetica-6e"/>
       <use transform="translate(77.832031 0.265625)" xlink:href="#Helvetica-32"/>
      </g>
     </g>
    </g>
    <g id="ytick_3">
     <g id="line2d_10">
      <g>
       <use style="stroke:#000000;stroke-width:0.8;" x="42.340938" xlink:href="#m711bad0f68" y="57.382885"/>
      </g>
     </g>
     <g id="text_9">
      <!-- 0.9 -->
      <defs>
       <path d="M 13.28125 16.890625 
Q 13.671875 9.625 18.890625 6.84375 
Q 21.578125 5.375 24.953125 5.375 
Q 31.25 5.375 35.6875 10.625 
Q 40.140625 15.875 42 31.9375 
Q 39.0625 27.296875 34.734375 25.40625 
Q 30.421875 23.53125 25.4375 23.53125 
Q 15.328125 23.53125 9.4375 29.828125 
Q 3.5625 36.140625 3.5625 46.046875 
Q 3.5625 55.5625 9.375 62.78125 
Q 15.1875 70.015625 26.515625 70.015625 
Q 41.796875 70.015625 47.609375 56.25 
Q 50.828125 48.6875 50.828125 37.3125 
Q 50.828125 24.46875 46.96875 14.546875 
Q 40.578125 -1.953125 25.296875 -1.953125 
Q 15.046875 -1.953125 9.71875 3.421875 
Q 4.390625 8.796875 4.390625 16.890625 
z
M 26.609375 31.25 
Q 31.84375 31.25 36.15625 34.6875 
Q 40.484375 38.140625 40.484375 46.734375 
Q 40.484375 54.4375 36.59375 58.21875 
Q 32.71875 62.015625 26.703125 62.015625 
Q 20.265625 62.015625 16.484375 57.6875 
Q 12.703125 53.375 12.703125 46.140625 
Q 12.703125 39.3125 16.015625 35.28125 
Q 19.34375 31.25 26.609375 31.25 
z
" id="Helvetica-39"/>
      </defs>
      <g transform="translate(22.160938 61.686947)scale(0.12 -0.12)">
       <use xlink:href="#Helvetica-30"/>
       <use x="55.615234" xlink:href="#Helvetica-2e"/>
       <use x="83.398438" xlink:href="#Helvetica-39"/>
      </g>
     </g>
    </g>
    <g id="text_10">
     <!-- $\Delta S/k_B$ -->
     <defs>
      <path d="M 14.40625 7.8125 
L 57.375 7.8125 
L 35.59375 61.578125 
z
M 30.71875 70.609375 
L 41.109375 70.609375 
L 70.21875 0 
L 2 0 
z
" id="Helvetica-394"/>
      <path d="M 22.75 71.734375 
L 30.171875 71.734375 
L 7.421875 0 
L 0 0 
z
" id="Helvetica-2f"/>
      <path d="M 6.25 71.734375 
L 14.703125 71.734375 
L 14.703125 30.078125 
L 37.25 52.296875 
L 48.484375 52.296875 
L 28.46875 32.71875 
L 49.609375 0 
L 38.375 0 
L 22.078125 26.375 
L 14.703125 19.625 
L 14.703125 0 
L 6.25 0 
z
" id="Helvetica-6b"/>
      <path d="M 34.578125 41.40625 
Q 40.71875 41.40625 44.140625 43.109375 
Q 49.515625 45.796875 49.515625 52.78125 
Q 49.515625 59.8125 43.796875 62.25 
Q 40.578125 63.625 34.234375 63.625 
L 16.890625 63.625 
L 16.890625 41.40625 
z
M 37.84375 8.296875 
Q 46.78125 8.296875 50.59375 13.484375 
Q 52.984375 16.75 52.984375 21.390625 
Q 52.984375 29.203125 46 32.03125 
Q 42.28125 33.546875 36.1875 33.546875 
L 16.890625 33.546875 
L 16.890625 8.296875 
z
M 7.375 71.734375 
L 38.1875 71.734375 
Q 50.78125 71.734375 56.109375 64.203125 
Q 59.234375 59.765625 59.234375 53.953125 
Q 59.234375 47.171875 55.375 42.828125 
Q 53.375 40.53125 49.609375 38.625 
Q 55.125 36.53125 57.859375 33.890625 
Q 62.703125 29.203125 62.703125 20.953125 
Q 62.703125 14.015625 58.34375 8.40625 
Q 51.859375 0 37.703125 0 
L 7.375 0 
z
" id="Helvetica-42"/>
     </defs>
     <g transform="translate(17.242812 114.539375)rotate(-90)scale(0.14 -0.14)">
      <use transform="translate(0 0.3125)" xlink:href="#Helvetica-394"/>
      <use transform="translate(72.216797 0.3125)" xlink:href="#Helvetica-53"/>
      <use transform="translate(138.916016 0.3125)" xlink:href="#Helvetica-2f"/>
      <use transform="translate(166.699219 0.3125)" xlink:href="#Helvetica-6b"/>
      <use transform="translate(217.614414 -15.376563)scale(0.7)" xlink:href="#Helvetica-42"/>
     </g>
    </g>
   </g>
   <g id="line2d_11">
    <path clip-path="url(#p3023c53efa)" d="M 42.340938 91.957123 
L 434.16546 91.957123 
" style="fill:none;stroke:#b0b0b0;stroke-dasharray:1,1.65;stroke-dashoffset:0;"/>
   </g>
   <g id="PathCollection_1">
    <defs>
     <path d="M 0 3 
C 0.795609 3 1.55874 2.683901 2.12132 2.12132 
C 2.683901 1.55874 3 0.795609 3 0 
C 3 -0.795609 2.683901 -1.55874 2.12132 -2.12132 
C 1.55874 -2.683901 0.795609 -3 0 -3 
C -0.795609 -3 -1.55874 -2.683901 -2.12132 -2.12132 
C -2.683901 -1.55874 -3 -0.795609 -3 0 
C -3 0.795609 -2.683901 1.55874 -2.12132 2.12132 
C -1.55874 2.683901 -0.795609 3 0 3 
z
" id="m2eeae0c9b4" style="stroke:#000000;"/>
    </defs>
    <g clip-path="url(#p3023c53efa)">
     <use style="fill:#17becf;stroke:#000000;" x="60.151143" xlink:href="#m2eeae0c9b4" y="143.270398"/>
     <use style="fill:#17becf;stroke:#000000;" x="77.961349" xlink:href="#m2eeae0c9b4" y="51.99958"/>
     <use style="fill:#17becf;stroke:#000000;" x="95.771554" xlink:href="#m2eeae0c9b4" y="104.368325"/>
     <use style="fill:#17becf;stroke:#000000;" x="113.58176" xlink:href="#m2eeae0c9b4" y="77.431754"/>
     <use style="fill:#17becf;stroke:#000000;" x="131.391965" xlink:href="#m2eeae0c9b4" y="88.13185"/>
     <use style="fill:#17becf;stroke:#000000;" x="149.202171" xlink:href="#m2eeae0c9b4" y="93.282982"/>
     <use style="fill:#17becf;stroke:#000000;" x="167.012376" xlink:href="#m2eeae0c9b4" y="97.282336"/>
     <use style="fill:#17becf;stroke:#000000;" x="184.822582" xlink:href="#m2eeae0c9b4" y="89.453515"/>
     <use style="fill:#17becf;stroke:#000000;" x="202.632788" xlink:href="#m2eeae0c9b4" y="93.900527"/>
     <use style="fill:#17becf;stroke:#000000;" x="220.442993" xlink:href="#m2eeae0c9b4" y="96.390396"/>
     <use style="fill:#17becf;stroke:#000000;" x="238.253199" xlink:href="#m2eeae0c9b4" y="105.796012"/>
     <use style="fill:#17becf;stroke:#000000;" x="256.063404" xlink:href="#m2eeae0c9b4" y="104.599732"/>
     <use style="fill:#17becf;stroke:#000000;" x="273.87361" xlink:href="#m2eeae0c9b4" y="99.725657"/>
     <use style="fill:#17becf;stroke:#000000;" x="291.683815" xlink:href="#m2eeae0c9b4" y="101.636525"/>
     <use style="fill:#17becf;stroke:#000000;" x="309.494021" xlink:href="#m2eeae0c9b4" y="103.004863"/>
     <use style="fill:#17becf;stroke:#000000;" x="327.304227" xlink:href="#m2eeae0c9b4" y="105.681911"/>
     <use style="fill:#17becf;stroke:#000000;" x="345.114432" xlink:href="#m2eeae0c9b4" y="101.200862"/>
     <use style="fill:#17becf;stroke:#000000;" x="362.924638" xlink:href="#m2eeae0c9b4" y="99.243666"/>
     <use style="fill:#17becf;stroke:#000000;" x="380.734843" xlink:href="#m2eeae0c9b4" y="101.308447"/>
     <use style="fill:#17becf;stroke:#000000;" x="398.545049" xlink:href="#m2eeae0c9b4" y="104.749797"/>
    </g>
   </g>
   <g id="patch_3">
    <path d="M 42.340938 157.669375 
L 42.340938 34.029375 
" style="fill:none;stroke:#000000;stroke-linecap:square;stroke-linejoin:miter;stroke-width:0.8;"/>
   </g>
   <g id="patch_4">
    <path d="M 434.16546 157.669375 
L 434.16546 34.029375 
" style="fill:none;stroke:#000000;stroke-linecap:square;stroke-linejoin:miter;stroke-width:0.8;"/>
   </g>
   <g id="patch_5">
    <path d="M 42.340938 157.669375 
L 434.16546 157.669375 
" style="fill:none;stroke:#000000;stroke-linecap:square;stroke-linejoin:miter;stroke-width:0.8;"/>
   </g>
   <g id="patch_6">
    <path d="M 42.340938 34.029375 
L 434.16546 34.029375 
" style="fill:none;stroke:#000000;stroke-linecap:square;stroke-linejoin:miter;stroke-width:0.8;"/>
   </g>
  </g>
  <g id="axes_2">
   <g id="matplotlib.axis_3">
    <g id="xtick_6">
     <g id="line2d_12">
      <defs>
       <path d="M 0 0 
L 0 3.5 
" id="mdb2c0d180a" style="stroke:#000000;stroke-width:0.8;"/>
      </defs>
      <g>
       <use style="stroke:#000000;stroke-width:0.8;" x="42.340938" xlink:href="#mdb2c0d180a" y="34.029375"/>
      </g>
     </g>
     <g id="text_11">
      <!-- 0 -->
      <g transform="translate(39.004375 28.028125)scale(0.12 -0.12)">
       <use xlink:href="#Helvetica-30"/>
      </g>
     </g>
    </g>
    <g id="xtick_7">
     <g id="line2d_13">
      <g>
       <use style="stroke:#000000;stroke-width:0.8;" x="180.440778" xlink:href="#mdb2c0d180a" y="34.029375"/>
      </g>
     </g>
     <g id="text_12">
      <!-- 30 -->
      <defs>
       <path d="M 25.984375 -1.90625 
Q 13.578125 -1.90625 7.984375 4.90625 
Q 2.390625 11.71875 2.390625 21.484375 
L 11.578125 21.484375 
Q 12.15625 14.703125 14.109375 11.625 
Q 17.53125 6.109375 26.46875 6.109375 
Q 33.40625 6.109375 37.59375 9.8125 
Q 41.796875 13.53125 41.796875 19.390625 
Q 41.796875 26.609375 37.375 29.484375 
Q 32.953125 32.375 25.09375 32.375 
Q 24.21875 32.375 23.3125 32.34375 
Q 22.40625 32.328125 21.484375 32.28125 
L 21.484375 40.046875 
Q 22.859375 39.890625 23.78125 39.84375 
Q 24.703125 39.796875 25.78125 39.796875 
Q 30.71875 39.796875 33.890625 41.359375 
Q 39.453125 44.09375 39.453125 51.125 
Q 39.453125 56.34375 35.734375 59.171875 
Q 32.03125 62.015625 27.09375 62.015625 
Q 18.3125 62.015625 14.9375 56.15625 
Q 13.09375 52.9375 12.84375 46.96875 
L 4.15625 46.96875 
Q 4.15625 54.78125 7.28125 60.25 
Q 12.640625 70.015625 26.171875 70.015625 
Q 36.859375 70.015625 42.71875 65.25 
Q 48.578125 60.5 48.578125 51.46875 
Q 48.578125 45.015625 45.125 41.015625 
Q 42.96875 38.53125 39.546875 37.109375 
Q 45.0625 35.59375 48.15625 31.265625 
Q 51.265625 26.953125 51.265625 20.703125 
Q 51.265625 10.6875 44.671875 4.390625 
Q 38.09375 -1.90625 25.984375 -1.90625 
z
" id="Helvetica-33"/>
      </defs>
      <g transform="translate(173.767653 28.028125)scale(0.12 -0.12)">
       <use xlink:href="#Helvetica-33"/>
       <use x="55.615234" xlink:href="#Helvetica-30"/>
      </g>
     </g>
    </g>
    <g id="xtick_8">
     <g id="line2d_14">
      <g>
       <use style="stroke:#000000;stroke-width:0.8;" x="248.738388" xlink:href="#mdb2c0d180a" y="34.029375"/>
      </g>
     </g>
     <g id="text_13">
      <!-- 60 -->
      <defs>
       <path d="M 29.25 70.21875 
Q 40.96875 70.21875 45.578125 64.140625 
Q 50.203125 58.0625 50.203125 51.609375 
L 41.5 51.609375 
Q 40.71875 55.765625 39.015625 58.109375 
Q 35.84375 62.5 29.390625 62.5 
Q 22.015625 62.5 17.671875 55.6875 
Q 13.328125 48.875 12.84375 36.1875 
Q 15.875 40.625 20.453125 42.828125 
Q 24.65625 44.78125 29.828125 44.78125 
Q 38.625 44.78125 45.15625 39.15625 
Q 51.703125 33.546875 51.703125 22.40625 
Q 51.703125 12.890625 45.5 5.53125 
Q 39.3125 -1.8125 27.828125 -1.8125 
Q 18.015625 -1.8125 10.890625 5.640625 
Q 3.765625 13.09375 3.765625 30.71875 
Q 3.765625 43.75 6.9375 52.828125 
Q 13.03125 70.21875 29.25 70.21875 
z
M 28.609375 6 
Q 35.546875 6 38.984375 10.65625 
Q 42.4375 15.328125 42.4375 21.6875 
Q 42.4375 27.046875 39.359375 31.90625 
Q 36.28125 36.765625 28.171875 36.765625 
Q 22.515625 36.765625 18.234375 33 
Q 13.96875 29.25 13.96875 21.6875 
Q 13.96875 15.046875 17.84375 10.515625 
Q 21.734375 6 28.609375 6 
z
" id="Helvetica-36"/>
      </defs>
      <g transform="translate(242.065263 28.028125)scale(0.12 -0.12)">
       <use xlink:href="#Helvetica-36"/>
       <use x="55.615234" xlink:href="#Helvetica-30"/>
      </g>
     </g>
    </g>
    <g id="xtick_9">
     <g id="line2d_15">
      <g>
       <use style="stroke:#000000;stroke-width:0.8;" x="308.002586" xlink:href="#mdb2c0d180a" y="34.029375"/>
      </g>
     </g>
     <g id="text_14">
      <!-- 90 -->
      <g transform="translate(301.329461 28.028125)scale(0.12 -0.12)">
       <use xlink:href="#Helvetica-39"/>
       <use x="55.615234" xlink:href="#Helvetica-30"/>
      </g>
     </g>
    </g>
    <g id="xtick_10">
     <g id="line2d_16">
      <g>
       <use style="stroke:#000000;stroke-width:0.8;" x="363.277346" xlink:href="#mdb2c0d180a" y="34.029375"/>
      </g>
     </g>
     <g id="text_15">
      <!-- 120 -->
      <g transform="translate(353.267658 28.028125)scale(0.12 -0.12)">
       <use xlink:href="#Helvetica-31"/>
       <use x="55.615234" xlink:href="#Helvetica-32"/>
       <use x="111.230469" xlink:href="#Helvetica-30"/>
      </g>
     </g>
    </g>
    <g id="text_16">
     <!-- $\delta T$ (mK) -->
     <defs>
      <path d="M 10.40625 70.609375 
L 49.8125 70.609375 
L 49.8125 63.375 
L 21.78125 63.375 
L 21.78125 63.1875 
L 39.203125 51.609375 
Q 48.96875 45.015625 52.6875 38.578125 
Q 56.109375 32.078125 56 25 
Q 55.90625 14.59375 49.421875 6.984375 
Q 42.78125 -0.78125 30.28125 -0.984375 
Q 18.796875 -0.875 12.015625 6.296875 
Q 5.171875 13.28125 5.078125 24.3125 
Q 5.328125 47.90625 29.109375 49.8125 
L 29.109375 50 
L 10.40625 63.375 
z
M 31.109375 6.203125 
Q 39.015625 6.296875 42.671875 12.40625 
Q 46.390625 18.21875 46.390625 25.09375 
Q 46.390625 29 45.609375 31.890625 
Q 44.78125 34.71875 43.609375 36.625 
Q 42.390625 38.484375 41.21875 39.703125 
Q 39.984375 40.921875 39.203125 41.40625 
Q 37.203125 43.21875 33.6875 43.21875 
Q 14.796875 43.21875 14.703125 23.875 
Q 14.703125 16.5 19 11.53125 
Q 23.296875 6.296875 31.109375 6.203125 
z
" id="Helvetica-3b4"/>
      <path d="M 59.8125 71.734375 
L 59.8125 63.1875 
L 35.640625 63.1875 
L 35.640625 0 
L 25.78125 0 
L 25.78125 63.1875 
L 1.609375 63.1875 
L 1.609375 71.734375 
z
" id="Helvetica-54"/>
      <path d="M 6.453125 52.296875 
L 15.140625 52.296875 
L 15.140625 44.875 
Q 18.265625 48.734375 20.796875 50.484375 
Q 25.140625 53.46875 30.671875 53.46875 
Q 36.921875 53.46875 40.71875 50.390625 
Q 42.875 48.640625 44.625 45.21875 
Q 47.5625 49.421875 51.515625 51.4375 
Q 55.46875 53.46875 60.40625 53.46875 
Q 70.953125 53.46875 74.75 45.84375 
Q 76.8125 41.75 76.8125 34.8125 
L 76.8125 0 
L 67.671875 0 
L 67.671875 36.328125 
Q 67.671875 41.546875 65.0625 43.5 
Q 62.453125 45.453125 58.6875 45.453125 
Q 53.515625 45.453125 49.78125 41.984375 
Q 46.046875 38.53125 46.046875 30.421875 
L 46.046875 0 
L 37.109375 0 
L 37.109375 34.125 
Q 37.109375 39.453125 35.84375 41.890625 
Q 33.84375 45.5625 28.375 45.5625 
Q 23.390625 45.5625 19.3125 41.703125 
Q 15.234375 37.84375 15.234375 27.734375 
L 15.234375 0 
L 6.453125 0 
z
" id="Helvetica-6d"/>
      <path d="M 7.625 71.734375 
L 17.09375 71.734375 
L 17.09375 36.765625 
L 52.046875 71.734375 
L 65.484375 71.734375 
L 35.640625 42.828125 
L 66.3125 0 
L 53.65625 0 
L 28.5625 35.984375 
L 17.09375 25 
L 17.09375 0 
L 7.625 0 
z
" id="Helvetica-4b"/>
     </defs>
     <g transform="translate(212.563199 17.42)scale(0.14 -0.14)">
      <use transform="translate(0 0.09375)" xlink:href="#Helvetica-3b4"/>
      <use transform="translate(61.083984 0.09375)" xlink:href="#Helvetica-54"/>
      <use transform="translate(122.167969 0.09375)" xlink:href="#Helvetica-20"/>
      <use transform="translate(149.951172 0.09375)" xlink:href="#Helvetica-28"/>
      <use transform="translate(183.251953 0.09375)" xlink:href="#Helvetica-6d"/>
      <use transform="translate(266.552734 0.09375)" xlink:href="#Helvetica-4b"/>
      <use transform="translate(333.251953 0.09375)" xlink:href="#Helvetica-29"/>
     </g>
    </g>
   </g>
   <g id="patch_7">
    <path d="M 42.340938 157.669375 
L 42.340938 34.029375 
" style="fill:none;stroke:#000000;stroke-linecap:square;stroke-linejoin:miter;stroke-width:0.8;"/>
   </g>
   <g id="patch_8">
    <path d="M 434.16546 157.669375 
L 434.16546 34.029375 
" style="fill:none;stroke:#000000;stroke-linecap:square;stroke-linejoin:miter;stroke-width:0.8;"/>
   </g>
   <g id="patch_9">
    <path d="M 42.340938 157.669375 
L 434.16546 157.669375 
" style="fill:none;stroke:#000000;stroke-linecap:square;stroke-linejoin:miter;stroke-width:0.8;"/>
   </g>
   <g id="patch_10">
    <path d="M 42.340938 34.029375 
L 434.16546 34.029375 
" style="fill:none;stroke:#000000;stroke-linecap:square;stroke-linejoin:miter;stroke-width:0.8;"/>
   </g>
  </g>
  <g id="axes_3">
   <g id="matplotlib.axis_4">
    <g id="ytick_4">
     <g id="line2d_17">
      <defs>
       <path d="M 0 0 
L -3.5 0 
" id="m49fdac0707" style="stroke:#000000;stroke-width:0.8;"/>
      </defs>
      <g>
       <use style="stroke:#000000;stroke-width:0.8;" x="434.16546" xlink:href="#m49fdac0707" y="135.037778"/>
      </g>
     </g>
     <g id="text_17">
      <!-- -0.8 -->
      <defs>
       <path d="M 4.15625 32.375 
L 28.65625 32.375 
L 28.65625 23.34375 
L 4.15625 23.34375 
z
" id="Helvetica-2d"/>
       <path d="M 27.203125 40.625 
Q 33.015625 40.625 36.28125 43.875 
Q 39.546875 47.125 39.546875 51.609375 
Q 39.546875 55.515625 36.421875 58.78125 
Q 33.296875 62.0625 26.90625 62.0625 
Q 20.5625 62.0625 17.71875 58.78125 
Q 14.890625 55.515625 14.890625 51.125 
Q 14.890625 46.1875 18.546875 43.40625 
Q 22.21875 40.625 27.203125 40.625 
z
M 27.734375 6 
Q 33.84375 6 37.859375 9.296875 
Q 41.890625 12.59375 41.890625 19.140625 
Q 41.890625 25.921875 37.734375 29.4375 
Q 33.59375 32.953125 27.09375 32.953125 
Q 20.796875 32.953125 16.8125 29.359375 
Q 12.84375 25.78125 12.84375 19.4375 
Q 12.84375 13.96875 16.484375 9.984375 
Q 20.125 6 27.734375 6 
z
M 15.234375 37.25 
Q 11.578125 38.8125 9.515625 40.921875 
Q 5.671875 44.828125 5.671875 51.078125 
Q 5.671875 58.890625 11.328125 64.5 
Q 17 70.125 27.390625 70.125 
Q 37.453125 70.125 43.15625 64.8125 
Q 48.875 59.515625 48.875 52.4375 
Q 48.875 45.90625 45.5625 41.84375 
Q 43.703125 39.546875 39.796875 37.359375 
Q 44.140625 35.359375 46.625 32.765625 
Q 51.265625 27.875 51.265625 20.0625 
Q 51.265625 10.84375 45.0625 4.421875 
Q 38.875 -2 27.546875 -2 
Q 17.328125 -2 10.265625 3.53125 
Q 3.21875 9.078125 3.21875 19.625 
Q 3.21875 25.828125 6.25 30.34375 
Q 9.28125 34.859375 15.234375 37.25 
z
" id="Helvetica-38"/>
      </defs>
      <g transform="translate(437.66546 139.34184)scale(0.12 -0.12)">
       <use xlink:href="#Helvetica-2d"/>
       <use x="33.300781" xlink:href="#Helvetica-30"/>
       <use x="88.916016" xlink:href="#Helvetica-2e"/>
       <use x="116.699219" xlink:href="#Helvetica-38"/>
      </g>
     </g>
    </g>
    <g id="ytick_5">
     <g id="line2d_18">
      <g>
       <use style="stroke:#000000;stroke-width:0.8;" x="434.16546" xlink:href="#m49fdac0707" y="98.650357"/>
      </g>
     </g>
     <g id="text_18">
      <!-- -1.2 -->
      <g transform="translate(437.66546 102.954419)scale(0.12 -0.12)">
       <use xlink:href="#Helvetica-2d"/>
       <use x="33.300781" xlink:href="#Helvetica-31"/>
       <use x="88.916016" xlink:href="#Helvetica-2e"/>
       <use x="116.699219" xlink:href="#Helvetica-32"/>
      </g>
     </g>
    </g>
    <g id="ytick_6">
     <g id="line2d_19">
      <g>
       <use style="stroke:#000000;stroke-width:0.8;" x="434.16546" xlink:href="#m49fdac0707" y="62.262936"/>
      </g>
     </g>
     <g id="text_19">
      <!-- -1.6 -->
      <g transform="translate(437.66546 66.566998)scale(0.12 -0.12)">
       <use xlink:href="#Helvetica-2d"/>
       <use x="33.300781" xlink:href="#Helvetica-31"/>
       <use x="88.916016" xlink:href="#Helvetica-2e"/>
       <use x="116.699219" xlink:href="#Helvetica-36"/>
      </g>
     </g>
    </g>
    <g id="text_20">
     <!-- $\partial V_{mid} / \partial T$ $(\mu V / mK)$ -->
     <defs>
      <path d="M 11.875 18.84375 
Q 11.875 13.03125 14.96875 9.390625 
Q 18.078125 5.765625 22.328125 5.765625 
Q 27.5 5.765625 31.28125 11.0625 
Q 35.0625 16.359375 35.0625 22.859375 
Q 35.0625 28.8125 31.90625 32.03125 
Q 28.765625 35.25 24.5625 35.25 
Q 18.953125 35.25 15.40625 30.078125 
Q 11.875 24.90625 11.875 18.84375 
z
M 23.4375 43.65625 
Q 28.8125 43.65625 32.234375 41.15625 
Q 35.65625 38.671875 37.953125 33.890625 
Q 38 35.890625 38.0625 37.734375 
Q 38.140625 39.59375 38.140625 40.578125 
Q 38.140625 47.171875 36.875 53.328125 
Q 34.28125 65.484375 27.84375 65.484375 
Q 26.078125 65.484375 24.8125 64.796875 
Q 23.546875 64.109375 22.21875 62.9375 
L 15.875 70.703125 
Q 18.65625 72.21875 20.375 72.796875 
Q 23.203125 73.78125 26.421875 73.78125 
Q 36.78125 73.78125 42.34375 62.9375 
Q 47.265625 53.375 47.265625 38.1875 
Q 47.265625 23 40.921875 11.53125 
Q 33.453125 -1.859375 20.703125 -1.859375 
Q 12.65625 -1.859375 7.46875 4.265625 
Q 2.296875 10.40625 2.296875 19.390625 
Q 2.296875 28.078125 8.15625 35.859375 
Q 14.015625 43.65625 23.4375 43.65625 
z
" id="Helvetica-2202"/>
      <path d="M 13.28125 71.734375 
L 33.890625 10.640625 
L 54.25 71.734375 
L 65.140625 71.734375 
L 38.96875 0 
L 28.65625 0 
L 2.546875 71.734375 
z
" id="Helvetica-56"/>
      <path d="M 6.453125 52.046875 
L 15.375 52.046875 
L 15.375 0 
L 6.453125 0 
z
M 6.453125 71.734375 
L 15.375 71.734375 
L 15.375 61.765625 
L 6.453125 61.765625 
z
" id="Helvetica-69"/>
      <path d="M 12.015625 25.53125 
Q 12.015625 17.140625 15.578125 11.46875 
Q 19.140625 5.8125 27 5.8125 
Q 33.109375 5.8125 37.03125 11.0625 
Q 40.96875 16.3125 40.96875 26.125 
Q 40.96875 36.03125 36.90625 40.796875 
Q 32.859375 45.5625 26.90625 45.5625 
Q 20.265625 45.5625 16.140625 40.484375 
Q 12.015625 35.40625 12.015625 25.53125 
z
M 25.25 53.21875 
Q 31.25 53.21875 35.296875 50.6875 
Q 37.640625 49.21875 40.625 45.5625 
L 40.625 71.96875 
L 49.078125 71.96875 
L 49.078125 0 
L 41.15625 0 
L 41.15625 7.28125 
Q 38.09375 2.4375 33.890625 0.28125 
Q 29.6875 -1.859375 24.265625 -1.859375 
Q 15.53125 -1.859375 9.125 5.484375 
Q 2.734375 12.84375 2.734375 25.046875 
Q 2.734375 36.46875 8.5625 44.84375 
Q 14.40625 53.21875 25.25 53.21875 
z
" id="Helvetica-64"/>
      <path d="M 8.984375 52 
L 18.015625 52 
L 18.015625 21.390625 
Q 17.921875 14.59375 20.703125 10.796875 
Q 23.390625 6.78125 30.515625 6.78125 
Q 37.796875 6.78125 40.484375 10.890625 
Q 43.109375 14.703125 43.109375 21.390625 
L 43.109375 52 
L 52.09375 52 
L 52.09375 12.59375 
Q 51.8125 6.78125 55.421875 6.78125 
Q 56.78125 6.78125 58.203125 7.078125 
L 58.203125 0 
Q 56.890625 -0.875 52.6875 -0.984375 
Q 48.578125 -0.6875 46.78125 0.984375 
Q 44.875 2.59375 43.796875 6 
Q 39.109375 -0.78125 30.71875 -0.984375 
Q 23.484375 -0.984375 18.21875 5.609375 
L 18.015625 5.609375 
L 18.015625 -19.578125 
L 8.984375 -19.578125 
z
" id="Helvetica-3bc"/>
     </defs>
     <g transform="translate(463.281085 41.879375)rotate(-270)scale(0.14 -0.14)">
      <use transform="translate(0 0.21875)" xlink:href="#Helvetica-2202"/>
      <use transform="translate(49.414062 0.21875)" xlink:href="#Helvetica-56"/>
      <use transform="translate(117.028477 -15.470313)scale(0.7)" xlink:href="#Helvetica-6d"/>
      <use transform="translate(175.339023 -15.470313)scale(0.7)" xlink:href="#Helvetica-69"/>
      <use transform="translate(190.890781 -15.470313)scale(0.7)" xlink:href="#Helvetica-64"/>
      <use transform="translate(232.436289 0.21875)" xlink:href="#Helvetica-2f"/>
      <use transform="translate(260.219492 0.21875)" xlink:href="#Helvetica-2202"/>
      <use transform="translate(309.633555 0.21875)" xlink:href="#Helvetica-54"/>
      <use transform="translate(370.717539 0.21875)" xlink:href="#Helvetica-20"/>
      <use transform="translate(398.500742 0.21875)" xlink:href="#Helvetica-28"/>
      <use transform="translate(431.801523 0.21875)" xlink:href="#Helvetica-3bc"/>
      <use transform="translate(492.885508 0.21875)" xlink:href="#Helvetica-56"/>
      <use transform="translate(559.584727 0.21875)" xlink:href="#Helvetica-2f"/>
      <use transform="translate(587.36793 0.21875)" xlink:href="#Helvetica-6d"/>
      <use transform="translate(670.668711 0.21875)" xlink:href="#Helvetica-4b"/>
      <use transform="translate(737.36793 0.21875)" xlink:href="#Helvetica-29"/>
     </g>
    </g>
   </g>
   <g id="patch_11">
    <path d="M 42.340938 157.669375 
L 42.340938 34.029375 
" style="fill:none;stroke:#000000;stroke-linecap:square;stroke-linejoin:miter;stroke-width:0.8;"/>
   </g>
   <g id="patch_12">
    <path d="M 434.16546 157.669375 
L 434.16546 34.029375 
" style="fill:none;stroke:#000000;stroke-linecap:square;stroke-linejoin:miter;stroke-width:0.8;"/>
   </g>
   <g id="patch_13">
    <path d="M 42.340938 157.669375 
L 434.16546 157.669375 
" style="fill:none;stroke:#000000;stroke-linecap:square;stroke-linejoin:miter;stroke-width:0.8;"/>
   </g>
   <g id="patch_14">
    <path d="M 42.340938 34.029375 
L 434.16546 34.029375 
" style="fill:none;stroke:#000000;stroke-linecap:square;stroke-linejoin:miter;stroke-width:0.8;"/>
   </g>
  </g>
 </g>
 <defs>
  <clipPath id="p3023c53efa">
   <rect height="123.64" width="391.824522" x="42.340938" y="34.029375"/>
  </clipPath>
 </defs>
</svg>
