<?xml version="1.0" encoding="utf-8" standalone="no"?>
<!DOCTYPE svg PUBLIC "-//W3C//DTD SVG 1.1//EN"
  "http://www.w3.org/Graphics/SVG/1.1/DTD/svg11.dtd">
<!-- Created with matplotlib (http://matplotlib.org/) -->
<svg height="169pt" version="1.1" viewBox="0 0 233 169" width="233pt" xmlns="http://www.w3.org/2000/svg" xmlns:xlink="http://www.w3.org/1999/xlink">
 <defs>
  <style type="text/css">
*{stroke-linecap:butt;stroke-linejoin:round;}
  </style>
 </defs>
 <g id="figure_1">
  <g id="patch_1">
   <path d="M 0 169.444217 
L 233.324937 169.444217 
L 233.324937 0 
L 0 0 
z
" style="fill:#ffffff;"/>
  </g>
  <g id="axes_1">
   <g id="patch_2">
    <path d="M 25.660938 131.188987 
L 222.624937 131.188987 
L 222.624937 7.2 
L 25.660938 7.2 
z
" style="fill:#ffffff;"/>
   </g>
   <g id="matplotlib.axis_1">
    <g id="xtick_1">
     <g id="line2d_1">
      <defs>
       <path d="M 0 0 
L 0 3.5 
" id="m612c9ed03e" style="stroke:#000000;stroke-width:0.8;"/>
      </defs>
      <g>
       <use style="stroke:#000000;stroke-width:0.8;" x="116.264377" xlink:href="#m612c9ed03e" y="131.188987"/>
      </g>
     </g>
     <g id="text_1">
      <!-- V$_{mid}$ -->
      <defs>
       <path d="M 13.28125 71.734375 
L 33.890625 10.640625 
L 54.25 71.734375 
L 65.140625 71.734375 
L 38.96875 0 
L 28.65625 0 
L 2.546875 71.734375 
z
" id="Helvetica-56"/>
       <path d="M 6.453125 52.296875 
L 15.140625 52.296875 
L 15.140625 44.875 
Q 18.265625 48.734375 20.796875 50.484375 
Q 25.140625 53.46875 30.671875 53.46875 
Q 36.921875 53.46875 40.71875 50.390625 
Q 42.875 48.640625 44.625 45.21875 
Q 47.5625 49.421875 51.515625 51.4375 
Q 55.46875 53.46875 60.40625 53.46875 
Q 70.953125 53.46875 74.75 45.84375 
Q 76.8125 41.75 76.8125 34.8125 
L 76.8125 0 
L 67.671875 0 
L 67.671875 36.328125 
Q 67.671875 41.546875 65.0625 43.5 
Q 62.453125 45.453125 58.6875 45.453125 
Q 53.515625 45.453125 49.78125 41.984375 
Q 46.046875 38.53125 46.046875 30.421875 
L 46.046875 0 
L 37.109375 0 
L 37.109375 34.125 
Q 37.109375 39.453125 35.84375 41.890625 
Q 33.84375 45.5625 28.375 45.5625 
Q 23.390625 45.5625 19.3125 41.703125 
Q 15.234375 37.84375 15.234375 27.734375 
L 15.234375 0 
L 6.453125 0 
z
" id="Helvetica-6d"/>
       <path d="M 6.453125 52.046875 
L 15.375 52.046875 
L 15.375 0 
L 6.453125 0 
z
M 6.453125 71.734375 
L 15.375 71.734375 
L 15.375 61.765625 
L 6.453125 61.765625 
z
" id="Helvetica-69"/>
       <path d="M 12.015625 25.53125 
Q 12.015625 17.140625 15.578125 11.46875 
Q 19.140625 5.8125 27 5.8125 
Q 33.109375 5.8125 37.03125 11.0625 
Q 40.96875 16.3125 40.96875 26.125 
Q 40.96875 36.03125 36.90625 40.796875 
Q 32.859375 45.5625 26.90625 45.5625 
Q 20.265625 45.5625 16.140625 40.484375 
Q 12.015625 35.40625 12.015625 25.53125 
z
M 25.25 53.21875 
Q 31.25 53.21875 35.296875 50.6875 
Q 37.640625 49.21875 40.625 45.5625 
L 40.625 71.96875 
L 49.078125 71.96875 
L 49.078125 0 
L 41.15625 0 
L 41.15625 7.28125 
Q 38.09375 2.4375 33.890625 0.28125 
Q 29.6875 -1.859375 24.265625 -1.859375 
Q 15.53125 -1.859375 9.125 5.484375 
Q 2.734375 12.84375 2.734375 25.046875 
Q 2.734375 36.46875 8.5625 44.84375 
Q 14.40625 53.21875 25.25 53.21875 
z
" id="Helvetica-64"/>
      </defs>
      <g style="fill:#d62728;" transform="translate(100.155558 160.636445)rotate(-50)scale(0.12 -0.12)">
       <use transform="translate(0 0.265625)" xlink:href="#Helvetica-56"/>
       <use transform="translate(67.614414 -15.423438)scale(0.7)" xlink:href="#Helvetica-6d"/>
       <use transform="translate(125.924961 -15.423438)scale(0.7)" xlink:href="#Helvetica-69"/>
       <use transform="translate(141.476719 -15.423438)scale(0.7)" xlink:href="#Helvetica-64"/>
      </g>
     </g>
    </g>
    <g id="xtick_2">
     <g id="line2d_2">
      <g>
       <use style="stroke:#000000;stroke-width:0.8;" x="124.142937" xlink:href="#m612c9ed03e" y="131.188987"/>
      </g>
     </g>
     <g id="text_2">
      <!-- V$_{mid}$ -->
      <g style="fill:#1f77b4;" transform="translate(119.385631 160.636445)rotate(-50)scale(0.12 -0.12)">
       <use transform="translate(0 0.265625)" xlink:href="#Helvetica-56"/>
       <use transform="translate(67.614414 -15.423438)scale(0.7)" xlink:href="#Helvetica-6d"/>
       <use transform="translate(125.924961 -15.423438)scale(0.7)" xlink:href="#Helvetica-69"/>
       <use transform="translate(141.476719 -15.423438)scale(0.7)" xlink:href="#Helvetica-64"/>
      </g>
     </g>
    </g>
    <g id="text_3">
     <!-- V$_{p}$ -->
     <defs>
      <path d="M 28.515625 5.90625 
Q 34.671875 5.90625 38.75 11.0625 
Q 42.828125 16.21875 42.828125 26.46875 
Q 42.828125 32.71875 41.015625 37.203125 
Q 37.59375 45.84375 28.515625 45.84375 
Q 19.390625 45.84375 16.015625 36.71875 
Q 14.203125 31.84375 14.203125 24.3125 
Q 14.203125 18.265625 16.015625 14.015625 
Q 19.4375 5.90625 28.515625 5.90625 
z
M 5.765625 52.046875 
L 14.3125 52.046875 
L 14.3125 45.125 
Q 16.9375 48.6875 20.0625 50.640625 
Q 24.515625 53.5625 30.515625 53.5625 
Q 39.40625 53.5625 45.609375 46.75 
Q 51.8125 39.9375 51.8125 27.296875 
Q 51.8125 10.203125 42.875 2.875 
Q 37.203125 -1.765625 29.6875 -1.765625 
Q 23.78125 -1.765625 19.78125 0.828125 
Q 17.4375 2.296875 14.546875 5.859375 
L 14.546875 -20.84375 
L 5.765625 -20.84375 
z
" id="Helvetica-70"/>
     </defs>
     <g transform="translate(205.076737 147.324217)scale(0.14 -0.14)">
      <use transform="translate(0 0.265625)" xlink:href="#Helvetica-56"/>
      <use transform="translate(67.614414 -15.423438)scale(0.7)" xlink:href="#Helvetica-70"/>
     </g>
    </g>
   </g>
   <g id="matplotlib.axis_2">
    <g id="ytick_1">
     <g id="line2d_3">
      <defs>
       <path d="M 0 0 
L 3.5 0 
" id="ma9031d4480" style="stroke:#000000;stroke-width:0.8;"/>
      </defs>
      <g>
       <use style="stroke:#000000;stroke-width:0.8;" x="25.660938" xlink:href="#ma9031d4480" y="131.188987"/>
      </g>
     </g>
    </g>
    <g id="ytick_2">
     <g id="line2d_4">
      <g>
       <use style="stroke:#000000;stroke-width:0.8;" x="25.660938" xlink:href="#ma9031d4480" y="100.19174"/>
      </g>
     </g>
    </g>
    <g id="ytick_3">
     <g id="line2d_5">
      <g>
       <use style="stroke:#000000;stroke-width:0.8;" x="25.660938" xlink:href="#ma9031d4480" y="69.194494"/>
      </g>
     </g>
    </g>
    <g id="ytick_4">
     <g id="line2d_6">
      <g>
       <use style="stroke:#000000;stroke-width:0.8;" x="25.660938" xlink:href="#ma9031d4480" y="38.197247"/>
      </g>
     </g>
    </g>
    <g id="ytick_5">
     <g id="line2d_7">
      <g>
       <use style="stroke:#000000;stroke-width:0.8;" x="25.660938" xlink:href="#ma9031d4480" y="7.2"/>
      </g>
     </g>
    </g>
    <g id="text_4">
     <!-- G$_{sens}$ -->
     <defs>
      <path d="M 38.625 73.578125 
Q 48.734375 73.578125 56.109375 69.671875 
Q 66.796875 64.0625 69.1875 50 
L 59.578125 50 
Q 57.8125 57.859375 52.296875 61.453125 
Q 46.78125 65.046875 38.375 65.046875 
Q 28.421875 65.046875 21.609375 57.5625 
Q 14.796875 50.09375 14.796875 35.296875 
Q 14.796875 22.515625 20.40625 14.484375 
Q 26.03125 6.453125 38.71875 6.453125 
Q 48.4375 6.453125 54.8125 12.078125 
Q 61.1875 17.71875 61.328125 30.328125 
L 38.875 30.328125 
L 38.875 38.375 
L 70.359375 38.375 
L 70.359375 0 
L 64.109375 0 
L 61.765625 9.234375 
Q 56.84375 3.8125 53.03125 1.703125 
Q 46.625 -1.90625 36.765625 -1.90625 
Q 24.03125 -1.90625 14.84375 6.34375 
Q 4.828125 16.703125 4.828125 34.765625 
Q 4.828125 52.78125 14.59375 63.421875 
Q 23.875 73.578125 38.625 73.578125 
z
M 37.015625 73.6875 
z
" id="Helvetica-47"/>
      <path d="M 11.671875 16.40625 
Q 12.0625 12.015625 13.875 9.671875 
Q 17.1875 5.421875 25.390625 5.421875 
Q 30.28125 5.421875 33.984375 7.546875 
Q 37.703125 9.671875 37.703125 14.109375 
Q 37.703125 17.484375 34.71875 19.234375 
Q 32.8125 20.3125 27.203125 21.734375 
L 20.21875 23.484375 
Q 13.53125 25.140625 10.359375 27.203125 
Q 4.6875 30.765625 4.6875 37.0625 
Q 4.6875 44.484375 10.03125 49.0625 
Q 15.375 53.65625 24.421875 53.65625 
Q 36.234375 53.65625 41.453125 46.734375 
Q 44.734375 42.328125 44.625 37.25 
L 36.328125 37.25 
Q 36.078125 40.234375 34.234375 42.671875 
Q 31.203125 46.140625 23.734375 46.140625 
Q 18.75 46.140625 16.1875 44.234375 
Q 13.625 42.328125 13.625 39.203125 
Q 13.625 35.796875 17 33.734375 
Q 18.953125 32.515625 22.75 31.59375 
L 28.5625 30.171875 
Q 38.03125 27.875 41.265625 25.734375 
Q 46.390625 22.359375 46.390625 15.140625 
Q 46.390625 8.15625 41.09375 3.078125 
Q 35.796875 -2 24.953125 -2 
Q 13.28125 -2 8.421875 3.296875 
Q 3.5625 8.59375 3.21875 16.40625 
z
M 24.65625 53.5625 
z
" id="Helvetica-73"/>
      <path d="M 28.21875 53.46875 
Q 33.796875 53.46875 39.015625 50.859375 
Q 44.234375 48.25 46.96875 44.09375 
Q 49.609375 40.140625 50.484375 34.859375 
Q 51.265625 31.25 51.265625 23.34375 
L 12.9375 23.34375 
Q 13.1875 15.375 16.703125 10.5625 
Q 20.21875 5.765625 27.59375 5.765625 
Q 34.46875 5.765625 38.578125 10.296875 
Q 40.921875 12.9375 41.890625 16.40625 
L 50.53125 16.40625 
Q 50.203125 13.53125 48.265625 9.984375 
Q 46.34375 6.453125 43.953125 4.203125 
Q 39.9375 0.296875 34.03125 -1.078125 
Q 30.859375 -1.859375 26.859375 -1.859375 
Q 17.09375 -1.859375 10.296875 5.25 
Q 3.515625 12.359375 3.515625 25.140625 
Q 3.515625 37.75 10.34375 45.609375 
Q 17.1875 53.46875 28.21875 53.46875 
z
M 42.234375 30.328125 
Q 41.703125 36.03125 39.75 39.453125 
Q 36.140625 45.796875 27.6875 45.796875 
Q 21.625 45.796875 17.515625 41.421875 
Q 13.421875 37.0625 13.1875 30.328125 
z
M 27.390625 53.5625 
z
" id="Helvetica-65"/>
      <path d="M 6.453125 52.296875 
L 14.796875 52.296875 
L 14.796875 44.875 
Q 18.5 49.46875 22.65625 51.46875 
Q 26.8125 53.46875 31.890625 53.46875 
Q 43.015625 53.46875 46.921875 45.703125 
Q 49.078125 41.453125 49.078125 33.546875 
L 49.078125 0 
L 40.140625 0 
L 40.140625 32.953125 
Q 40.140625 37.75 38.71875 40.671875 
Q 36.375 45.5625 30.21875 45.5625 
Q 27.09375 45.5625 25.09375 44.921875 
Q 21.484375 43.84375 18.75 40.625 
Q 16.546875 38.03125 15.890625 35.265625 
Q 15.234375 32.515625 15.234375 27.390625 
L 15.234375 0 
L 6.453125 0 
z
M 27.09375 53.5625 
z
" id="Helvetica-6e"/>
     </defs>
     <g transform="translate(17.242813 85.294494)rotate(-90)scale(0.14 -0.14)">
      <use transform="translate(0 0.3125)" xlink:href="#Helvetica-47"/>
      <use transform="translate(78.698398 -15.376563)scale(0.7)" xlink:href="#Helvetica-73"/>
      <use transform="translate(113.698398 -15.376563)scale(0.7)" xlink:href="#Helvetica-65"/>
      <use transform="translate(152.629062 -15.376563)scale(0.7)" xlink:href="#Helvetica-6e"/>
      <use transform="translate(191.559727 -15.376563)scale(0.7)" xlink:href="#Helvetica-73"/>
     </g>
    </g>
   </g>
   <g id="PolyCollection_1">
    <path clip-path="url(#p7056c42d5b)" d="M -368.267063 31.700224 
L -368.267063 31.997797 
L -364.977751 31.87356 
L -361.688439 31.749323 
L -358.399127 31.625085 
L -355.109815 31.500848 
L -351.820503 31.37661 
L -348.531191 31.252373 
L -345.241879 31.128135 
L -341.952567 31.003898 
L -338.663255 30.87966 
L -335.373943 30.755423 
L -332.084631 30.631185 
L -328.795319 30.506948 
L -325.506007 30.38271 
L -322.216695 30.258473 
L -318.927383 30.134236 
L -315.638071 30.009998 
L -312.348759 29.885761 
L -309.059447 29.761523 
L -305.770135 29.637286 
L -302.480823 29.513048 
L -299.191511 29.388811 
L -295.902199 29.264573 
L -292.612887 29.140336 
L -289.323576 29.016098 
L -286.034264 28.891861 
L -282.744952 28.767623 
L -279.45564 28.643386 
L -276.166328 28.519149 
L -272.877016 28.394911 
L -269.587704 28.270674 
L -266.298392 28.146436 
L -263.00908 28.022199 
L -259.719768 27.897961 
L -256.430456 27.773724 
L -253.141144 27.649486 
L -249.851832 27.525249 
L -246.56252 27.401011 
L -243.273208 27.276774 
L -239.983896 27.152536 
L -236.694584 27.028299 
L -233.405272 26.904062 
L -230.11596 26.779824 
L -226.826648 26.655587 
L -223.537336 26.531349 
L -220.248024 26.407112 
L -216.958712 26.282874 
L -213.669401 26.158637 
L -210.380089 26.034399 
L -207.090777 25.910162 
L -203.801465 25.785924 
L -200.512153 25.661687 
L -197.222841 25.537449 
L -193.933529 25.413212 
L -190.644217 25.288974 
L -187.354905 25.164737 
L -184.065593 25.0405 
L -180.776281 24.916262 
L -177.486969 24.792025 
L -174.197657 24.667787 
L -170.908345 24.54355 
L -167.619033 24.419312 
L -164.329721 24.295075 
L -161.040409 24.170837 
L -157.751097 24.0466 
L -154.461785 23.922362 
L -151.172473 23.798125 
L -147.883161 23.673887 
L -144.593849 23.54965 
L -141.304537 23.425413 
L -138.015225 23.301175 
L -134.725914 23.176938 
L -131.436602 23.0527 
L -128.14729 22.928463 
L -124.857978 22.804225 
L -121.568666 22.679988 
L -118.279354 22.55575 
L -114.990042 22.431513 
L -111.70073 22.307275 
L -108.411418 22.183038 
L -105.122106 22.0588 
L -101.832794 21.934563 
L -98.543482 21.810326 
L -95.25417 21.686088 
L -91.964858 21.561851 
L -88.675546 21.437613 
L -85.386234 21.313376 
L -82.096922 21.189138 
L -78.80761 21.064901 
L -75.518298 20.940663 
L -72.228986 20.816426 
L -68.939674 20.692188 
L -65.650362 20.567951 
L -62.36105 20.443714 
L -59.071739 20.319476 
L -55.782427 20.195239 
L -52.493115 20.071001 
L -49.203803 19.946764 
L -45.914491 19.822527 
L -42.625179 19.69829 
L -39.335867 19.574053 
L -36.046555 19.449816 
L -32.757243 19.325579 
L -29.467931 19.201343 
L -26.178619 19.077108 
L -22.889307 18.952873 
L -19.599995 18.82864 
L -16.310683 18.704409 
L -13.021371 18.58018 
L -9.732059 18.455955 
L -6.442747 18.331735 
L -3.153435 18.207523 
L 0.135877 18.083322 
L 3.425189 17.959138 
L 6.714501 17.834977 
L 10.003813 17.71085 
L 13.293125 17.58677 
L 16.582436 17.462761 
L 19.871748 17.338852 
L 23.16106 17.215087 
L 26.450372 17.09153 
L 29.739684 16.968271 
L 33.028996 16.845444 
L 36.318308 16.723235 
L 39.60762 16.601919 
L 42.896932 16.481887 
L 46.186244 16.363702 
L 49.475556 16.248178 
L 52.764868 16.136481 
L 56.05418 16.030293 
L 59.343492 15.932028 
L 62.632804 15.845159 
L 65.922116 15.774675 
L 69.211428 15.727728 
L 72.50074 15.714571 
L 75.790052 15.749856 
L 79.079364 15.854465 
L 82.368676 16.058024 
L 85.657988 16.402291 
L 88.9473 16.94558 
L 92.236612 17.768215 
L 95.525923 18.97866 
L 98.815235 20.719135 
L 102.104547 23.168093 
L 105.393859 26.53475 
L 108.683171 31.038535 
L 111.972483 36.865975 
L 115.261795 44.103157 
L 118.551107 52.657501 
L 121.840419 62.204366 
L 125.129731 72.203655 
L 128.419043 82.005681 
L 131.708355 91.00941 
L 134.997667 98.796922 
L 138.286979 105.186235 
L 141.576291 110.200984 
L 144.865603 113.996759 
L 148.154915 116.786446 
L 151.444227 118.78693 
L 154.733539 120.19029 
L 158.022851 121.153251 
L 161.312163 121.797204 
L 164.601475 122.212982 
L 167.890787 122.466997 
L 171.180098 122.607038 
L 174.46941 122.667122 
L 177.758722 122.671282 
L 181.048034 122.636409 
L 184.337346 122.574331 
L 187.626658 122.493314 
L 190.91597 122.399118 
L 194.205282 122.295758 
L 197.494594 122.186028 
L 200.783906 122.07187 
L 204.073218 121.954635 
L 207.36253 121.835262 
L 210.651842 121.714404 
L 213.941154 121.592514 
L 217.230466 121.469908 
L 220.519778 121.346803 
L 223.80909 121.223353 
L 227.098402 121.099662 
L 230.387714 120.975804 
L 233.677026 120.85183 
L 236.966338 120.727776 
L 240.25565 120.603666 
L 243.544962 120.479517 
L 246.834274 120.355341 
L 250.123585 120.231146 
L 253.412897 120.106938 
L 256.702209 119.982721 
L 259.991521 119.858498 
L 263.280833 119.734271 
L 266.570145 119.61004 
L 269.859457 119.485807 
L 273.148769 119.361573 
L 276.438081 119.237338 
L 279.727393 119.113102 
L 283.016705 118.988866 
L 286.306017 118.864629 
L 289.595329 118.740392 
L 292.884641 118.616155 
L 296.173953 118.491918 
L 299.463265 118.367681 
L 302.752577 118.243443 
L 306.041889 118.119206 
L 309.331201 117.994969 
L 312.620513 117.870731 
L 315.909825 117.746494 
L 319.199137 117.622256 
L 322.488449 117.498019 
L 325.77776 117.373781 
L 329.067072 117.249544 
L 332.356384 117.125307 
L 335.645696 117.001069 
L 338.935008 116.876832 
L 342.22432 116.752594 
L 345.513632 116.628357 
L 348.802944 116.504119 
L 352.092256 116.379882 
L 355.381568 116.255644 
L 358.67088 116.131407 
L 361.960192 116.007169 
L 365.249504 115.882932 
L 368.538816 115.758694 
L 371.828128 115.634457 
L 375.11744 115.51022 
L 378.406752 115.385982 
L 381.696064 115.261745 
L 384.985376 115.137507 
L 388.274688 115.01327 
L 391.564 114.889032 
L 394.853312 114.764795 
L 398.142624 114.640557 
L 401.431935 114.51632 
L 404.721247 114.392082 
L 408.010559 114.267845 
L 411.299871 114.143607 
L 414.589183 114.01937 
L 417.878495 113.895133 
L 421.167807 113.770895 
L 424.457119 113.646658 
L 427.746431 113.52242 
L 431.035743 113.398183 
L 434.325055 113.273945 
L 437.614367 113.149708 
L 440.903679 113.02547 
L 444.192991 112.901233 
L 447.482303 112.776995 
L 450.771615 112.652758 
L 454.060927 112.52852 
L 457.350239 112.404283 
L 460.639551 112.280046 
L 463.928863 112.155808 
L 467.218175 112.031571 
L 470.507487 111.907333 
L 473.796799 111.783096 
L 477.086111 111.658858 
L 480.375422 111.534621 
L 483.664734 111.410383 
L 486.954046 111.286146 
L 490.243358 111.161908 
L 493.53267 111.037671 
L 496.821982 110.913433 
L 500.111294 110.789196 
L 503.400606 110.664959 
L 506.689918 110.540721 
L 509.97923 110.416484 
L 513.268542 110.292246 
L 516.557854 110.168009 
L 519.847166 110.043771 
L 523.136478 109.919534 
L 526.42579 109.795296 
L 529.715102 109.671059 
L 533.004414 109.546821 
L 536.293726 109.422584 
L 539.583038 109.298346 
L 542.87235 109.174109 
L 546.161662 109.049871 
L 549.450974 108.925634 
L 552.740286 108.801397 
L 556.029597 108.677159 
L 559.318909 108.552922 
L 562.608221 108.428684 
L 565.897533 108.304447 
L 569.186845 108.180209 
L 572.476157 108.055972 
L 575.765469 107.931734 
L 579.054781 107.807497 
L 582.344093 107.683259 
L 585.633405 107.559022 
L 588.922717 107.434784 
L 592.212029 107.310547 
L 595.501341 107.18631 
L 598.790653 107.062072 
L 602.079965 106.937835 
L 605.369277 106.813597 
L 608.658589 106.68936 
L 611.947901 106.565122 
L 615.237213 106.440885 
L 618.526525 106.316647 
L 621.815837 106.19241 
L 625.105149 106.068172 
L 628.394461 105.943935 
L 631.683773 105.819697 
L 634.973084 105.69546 
L 638.262396 105.571223 
L 641.551708 105.446985 
L 644.84102 105.322748 
L 648.130332 105.19851 
L 651.419644 105.074273 
L 654.708956 104.950035 
L 657.998268 104.825798 
L 661.28758 104.70156 
L 664.576892 104.577323 
L 667.866204 104.453085 
L 671.155516 104.328848 
L 674.444828 104.20461 
L 677.73414 104.080373 
L 681.023452 103.956136 
L 684.312764 103.831898 
L 687.602076 103.707661 
L 690.891388 103.583423 
L 694.1807 103.459186 
L 697.470012 103.334948 
L 700.759324 103.210711 
L 704.048636 103.086473 
L 707.337948 102.962236 
L 710.627259 102.837998 
L 713.916571 102.713761 
L 717.205883 102.589523 
L 720.495195 102.465286 
L 723.784507 102.341049 
L 727.073819 102.216811 
L 730.363131 102.092574 
L 733.652443 101.968336 
L 736.941755 101.844099 
L 740.231067 101.719861 
L 743.520379 101.595624 
L 746.809691 101.471386 
L 750.099003 101.347149 
L 753.388315 101.222911 
L 756.677627 101.098674 
L 759.966939 100.974436 
L 763.256251 100.850199 
L 766.545563 100.725962 
L 769.834875 100.601724 
L 773.124187 100.477487 
L 776.413499 100.353249 
L 779.702811 100.229012 
L 782.992123 100.104774 
L 786.281434 99.980537 
L 789.570746 99.856299 
L 792.860058 99.732062 
L 796.14937 99.607824 
L 799.438682 99.483587 
L 802.727994 99.359349 
L 806.017306 99.235112 
L 809.306618 99.110875 
L 812.59593 98.986637 
L 815.885242 98.8624 
L 819.174554 98.738162 
L 822.463866 98.613925 
L 825.753178 98.489687 
L 829.04249 98.36545 
L 832.331802 98.241212 
L 835.621114 98.116975 
L 838.910426 97.992737 
L 842.199738 97.8685 
L 845.48905 97.744262 
L 848.778362 97.620025 
L 852.067674 97.495788 
L 855.356986 97.37155 
L 858.646298 97.247313 
L 861.93561 97.123075 
L 865.224921 96.998838 
L 868.514233 96.8746 
L 871.803545 96.750363 
L 875.092857 96.626125 
L 878.382169 96.501888 
L 881.671481 96.37765 
L 884.960793 96.253413 
L 888.250105 96.129175 
L 891.539417 96.004938 
L 894.828729 95.880701 
L 898.118041 95.756463 
L 901.407353 95.632226 
L 904.696665 95.507988 
L 907.985977 95.383751 
L 911.275289 95.259513 
L 914.564601 95.135276 
L 917.853913 95.011038 
L 921.143225 94.886801 
L 924.432537 94.762563 
L 927.721849 94.638326 
L 931.011161 94.514088 
L 934.300473 94.389851 
L 937.589785 94.265613 
L 940.879096 94.141376 
L 944.168408 94.017139 
L 947.45772 93.892901 
L 950.747032 93.768664 
L 954.036344 93.644426 
L 957.325656 93.520189 
L 960.614968 93.395951 
L 963.90428 93.271714 
L 967.193592 93.147476 
L 970.482904 93.023239 
L 973.772216 92.899001 
L 977.061528 92.774764 
L 980.35084 92.650526 
L 983.640152 92.526289 
L 986.929464 92.402052 
L 990.218776 92.277814 
L 993.508088 92.153577 
L 996.7974 92.029339 
L 1000.086712 91.905102 
L 1003.376024 91.780864 
L 1006.665336 91.656627 
L 1009.954648 91.532389 
L 1013.24396 91.408152 
L 1016.533272 91.283914 
L 1019.822583 91.159677 
L 1023.111895 91.035439 
L 1026.401207 90.911202 
L 1029.690519 90.786965 
L 1032.979831 90.662727 
L 1036.269143 90.53849 
L 1039.558455 90.414252 
L 1042.847767 90.290015 
L 1046.137079 90.165777 
L 1049.426391 90.04154 
L 1052.715703 89.917302 
L 1056.005015 89.793065 
L 1059.294327 89.668827 
L 1062.583639 89.54459 
L 1065.872951 89.420352 
L 1069.162263 89.296115 
L 1072.451575 89.171878 
L 1075.740887 89.04764 
L 1079.030199 88.923403 
L 1082.319511 88.799165 
L 1085.608823 88.674928 
L 1088.898135 88.55069 
L 1092.187447 88.426453 
L 1095.476758 88.302215 
L 1098.76607 88.177978 
L 1102.055382 88.05374 
L 1105.344694 87.929503 
L 1108.634006 87.805265 
L 1111.923318 87.681028 
L 1115.21263 87.556791 
L 1118.501942 87.432553 
L 1121.791254 87.308316 
L 1125.080566 87.184078 
L 1128.369878 87.059841 
L 1131.65919 86.935603 
L 1134.948502 86.811366 
L 1138.237814 86.687128 
L 1141.527126 86.562891 
L 1144.816438 86.438653 
L 1148.10575 86.314416 
L 1151.395062 86.190178 
L 1154.684374 86.065941 
L 1157.973686 85.941704 
L 1161.262998 85.817466 
L 1164.55231 85.693229 
L 1167.841622 85.568991 
L 1171.130933 85.444754 
L 1174.420245 85.320516 
L 1177.709557 85.196279 
L 1180.998869 85.072041 
L 1184.288181 84.947804 
L 1187.577493 84.823566 
L 1190.866805 84.699329 
L 1194.156117 84.575091 
L 1197.445429 84.450854 
L 1200.734741 84.326617 
L 1204.024053 84.202379 
L 1207.313365 84.078142 
L 1210.602677 83.953904 
L 1213.891989 83.829667 
L 1217.181301 83.705429 
L 1220.470613 83.581192 
L 1223.759925 83.456954 
L 1227.049237 83.332717 
L 1230.338549 83.208479 
L 1233.627861 83.084242 
L 1236.917173 82.960004 
L 1240.206485 82.835767 
L 1243.495797 82.71153 
L 1246.785109 82.587292 
L 1250.07442 82.463055 
L 1253.363732 82.338817 
L 1256.653044 82.21458 
L 1259.942356 82.090342 
L 1263.231668 81.966105 
L 1266.52098 81.841867 
L 1269.810292 81.71763 
L 1273.099604 81.593392 
L 1273.099604 81.295819 
L 1273.099604 81.295819 
L 1269.810292 81.420056 
L 1266.52098 81.544294 
L 1263.231668 81.668531 
L 1259.942356 81.792769 
L 1256.653044 81.917006 
L 1253.363732 82.041244 
L 1250.07442 82.165481 
L 1246.785109 82.289718 
L 1243.495797 82.413956 
L 1240.206485 82.538193 
L 1236.917173 82.662431 
L 1233.627861 82.786668 
L 1230.338549 82.910906 
L 1227.049237 83.035143 
L 1223.759925 83.159381 
L 1220.470613 83.283618 
L 1217.181301 83.407856 
L 1213.891989 83.532093 
L 1210.602677 83.656331 
L 1207.313365 83.780568 
L 1204.024053 83.904805 
L 1200.734741 84.029043 
L 1197.445429 84.15328 
L 1194.156117 84.277518 
L 1190.866805 84.401755 
L 1187.577493 84.525993 
L 1184.288181 84.65023 
L 1180.998869 84.774468 
L 1177.709557 84.898705 
L 1174.420245 85.022943 
L 1171.130933 85.14718 
L 1167.841622 85.271418 
L 1164.55231 85.395655 
L 1161.262998 85.519892 
L 1157.973686 85.64413 
L 1154.684374 85.768367 
L 1151.395062 85.892605 
L 1148.10575 86.016842 
L 1144.816438 86.14108 
L 1141.527126 86.265317 
L 1138.237814 86.389555 
L 1134.948502 86.513792 
L 1131.65919 86.63803 
L 1128.369878 86.762267 
L 1125.080566 86.886505 
L 1121.791254 87.010742 
L 1118.501942 87.13498 
L 1115.21263 87.259217 
L 1111.923318 87.383454 
L 1108.634006 87.507692 
L 1105.344694 87.631929 
L 1102.055382 87.756167 
L 1098.76607 87.880404 
L 1095.476758 88.004642 
L 1092.187447 88.128879 
L 1088.898135 88.253117 
L 1085.608823 88.377354 
L 1082.319511 88.501592 
L 1079.030199 88.625829 
L 1075.740887 88.750067 
L 1072.451575 88.874304 
L 1069.162263 88.998541 
L 1065.872951 89.122779 
L 1062.583639 89.247016 
L 1059.294327 89.371254 
L 1056.005015 89.495491 
L 1052.715703 89.619729 
L 1049.426391 89.743966 
L 1046.137079 89.868204 
L 1042.847767 89.992441 
L 1039.558455 90.116679 
L 1036.269143 90.240916 
L 1032.979831 90.365154 
L 1029.690519 90.489391 
L 1026.401207 90.613628 
L 1023.111895 90.737866 
L 1019.822583 90.862103 
L 1016.533272 90.986341 
L 1013.24396 91.110578 
L 1009.954648 91.234816 
L 1006.665336 91.359053 
L 1003.376024 91.483291 
L 1000.086712 91.607528 
L 996.7974 91.731766 
L 993.508088 91.856003 
L 990.218776 91.980241 
L 986.929464 92.104478 
L 983.640152 92.228715 
L 980.35084 92.352953 
L 977.061528 92.47719 
L 973.772216 92.601428 
L 970.482904 92.725665 
L 967.193592 92.849903 
L 963.90428 92.97414 
L 960.614968 93.098378 
L 957.325656 93.222615 
L 954.036344 93.346853 
L 950.747032 93.47109 
L 947.45772 93.595328 
L 944.168408 93.719565 
L 940.879096 93.843802 
L 937.589785 93.96804 
L 934.300473 94.092277 
L 931.011161 94.216515 
L 927.721849 94.340752 
L 924.432537 94.46499 
L 921.143225 94.589227 
L 917.853913 94.713465 
L 914.564601 94.837702 
L 911.275289 94.96194 
L 907.985977 95.086177 
L 904.696665 95.210415 
L 901.407353 95.334652 
L 898.118041 95.458889 
L 894.828729 95.583127 
L 891.539417 95.707364 
L 888.250105 95.831602 
L 884.960793 95.955839 
L 881.671481 96.080077 
L 878.382169 96.204314 
L 875.092857 96.328552 
L 871.803545 96.452789 
L 868.514233 96.577027 
L 865.224921 96.701264 
L 861.93561 96.825502 
L 858.646298 96.949739 
L 855.356986 97.073976 
L 852.067674 97.198214 
L 848.778362 97.322451 
L 845.48905 97.446689 
L 842.199738 97.570926 
L 838.910426 97.695164 
L 835.621114 97.819401 
L 832.331802 97.943639 
L 829.04249 98.067876 
L 825.753178 98.192114 
L 822.463866 98.316351 
L 819.174554 98.440589 
L 815.885242 98.564826 
L 812.59593 98.689063 
L 809.306618 98.813301 
L 806.017306 98.937538 
L 802.727994 99.061776 
L 799.438682 99.186013 
L 796.14937 99.310251 
L 792.860058 99.434488 
L 789.570746 99.558726 
L 786.281434 99.682963 
L 782.992123 99.807201 
L 779.702811 99.931438 
L 776.413499 100.055676 
L 773.124187 100.179913 
L 769.834875 100.30415 
L 766.545563 100.428388 
L 763.256251 100.552625 
L 759.966939 100.676863 
L 756.677627 100.8011 
L 753.388315 100.925338 
L 750.099003 101.049575 
L 746.809691 101.173813 
L 743.520379 101.29805 
L 740.231067 101.422288 
L 736.941755 101.546525 
L 733.652443 101.670763 
L 730.363131 101.795 
L 727.073819 101.919238 
L 723.784507 102.043475 
L 720.495195 102.167712 
L 717.205883 102.29195 
L 713.916571 102.416187 
L 710.627259 102.540425 
L 707.337948 102.664662 
L 704.048636 102.7889 
L 700.759324 102.913137 
L 697.470012 103.037375 
L 694.1807 103.161612 
L 690.891388 103.28585 
L 687.602076 103.410087 
L 684.312764 103.534325 
L 681.023452 103.658562 
L 677.73414 103.782799 
L 674.444828 103.907037 
L 671.155516 104.031274 
L 667.866204 104.155512 
L 664.576892 104.279749 
L 661.28758 104.403987 
L 657.998268 104.528224 
L 654.708956 104.652462 
L 651.419644 104.776699 
L 648.130332 104.900937 
L 644.84102 105.025174 
L 641.551708 105.149412 
L 638.262396 105.273649 
L 634.973084 105.397886 
L 631.683773 105.522124 
L 628.394461 105.646361 
L 625.105149 105.770599 
L 621.815837 105.894836 
L 618.526525 106.019074 
L 615.237213 106.143311 
L 611.947901 106.267549 
L 608.658589 106.391786 
L 605.369277 106.516024 
L 602.079965 106.640261 
L 598.790653 106.764499 
L 595.501341 106.888736 
L 592.212029 107.012973 
L 588.922717 107.137211 
L 585.633405 107.261448 
L 582.344093 107.385686 
L 579.054781 107.509923 
L 575.765469 107.634161 
L 572.476157 107.758398 
L 569.186845 107.882636 
L 565.897533 108.006873 
L 562.608221 108.131111 
L 559.318909 108.255348 
L 556.029597 108.379586 
L 552.740286 108.503823 
L 549.450974 108.62806 
L 546.161662 108.752298 
L 542.87235 108.876535 
L 539.583038 109.000773 
L 536.293726 109.12501 
L 533.004414 109.249248 
L 529.715102 109.373485 
L 526.42579 109.497723 
L 523.136478 109.62196 
L 519.847166 109.746197 
L 516.557854 109.870435 
L 513.268542 109.994672 
L 509.97923 110.11891 
L 506.689918 110.243147 
L 503.400606 110.367385 
L 500.111294 110.491622 
L 496.821982 110.615859 
L 493.53267 110.740097 
L 490.243358 110.864334 
L 486.954046 110.988571 
L 483.664734 111.112809 
L 480.375422 111.237046 
L 477.086111 111.361283 
L 473.796799 111.485521 
L 470.507487 111.609758 
L 467.218175 111.733995 
L 463.928863 111.858232 
L 460.639551 111.982469 
L 457.350239 112.106706 
L 454.060927 112.230943 
L 450.771615 112.35518 
L 447.482303 112.479416 
L 444.192991 112.603653 
L 440.903679 112.727889 
L 437.614367 112.852125 
L 434.325055 112.976361 
L 431.035743 113.100596 
L 427.746431 113.224831 
L 424.457119 113.349066 
L 421.167807 113.4733 
L 417.878495 113.597534 
L 414.589183 113.721767 
L 411.299871 113.845999 
L 408.010559 113.97023 
L 404.721247 114.09446 
L 401.431935 114.218689 
L 398.142624 114.342916 
L 394.853312 114.467141 
L 391.564 114.591364 
L 388.274688 114.715584 
L 384.985376 114.839801 
L 381.696064 114.964014 
L 378.406752 115.088223 
L 375.11744 115.212427 
L 371.828128 115.336625 
L 368.538816 115.460815 
L 365.249504 115.584997 
L 361.960192 115.709169 
L 358.67088 115.833329 
L 355.381568 115.957475 
L 352.092256 116.081604 
L 348.802944 116.205713 
L 345.513632 116.3298 
L 342.22432 116.453858 
L 338.935008 116.577884 
L 335.645696 116.701872 
L 332.356384 116.825815 
L 329.067072 116.949704 
L 325.77776 117.073529 
L 322.488449 117.19728 
L 319.199137 117.320942 
L 315.909825 117.444499 
L 312.620513 117.567933 
L 309.331201 117.691221 
L 306.041889 117.814336 
L 302.752577 117.937248 
L 299.463265 118.059918 
L 296.173953 118.182304 
L 292.884641 118.304353 
L 289.595329 118.426004 
L 286.306017 118.547186 
L 283.016705 118.667813 
L 279.727393 118.787783 
L 276.438081 118.906979 
L 273.148769 119.025258 
L 269.859457 119.142456 
L 266.570145 119.258375 
L 263.280833 119.372783 
L 259.991521 119.485408 
L 256.702209 119.595925 
L 253.412897 119.703953 
L 250.123585 119.80904 
L 246.834274 119.910655 
L 243.544962 120.008171 
L 240.25565 120.100846 
L 236.966338 120.187808 
L 233.677026 120.268026 
L 230.387714 120.340289 
L 227.098402 120.403168 
L 223.80909 120.454982 
L 220.519778 120.493753 
L 217.230466 120.517161 
L 213.941154 120.522478 
L 210.651842 120.506508 
L 207.36253 120.465512 
L 204.073218 120.395119 
L 200.783906 120.290233 
L 197.494594 120.144927 
L 194.205282 119.952326 
L 190.91597 119.704487 
L 187.626658 119.392268 
L 184.337346 119.005201 
L 181.048034 118.53137 
L 177.758722 117.957305 
L 174.46941 117.267919 
L 171.180098 116.446479 
L 167.890787 115.47467 
L 164.601475 114.332755 
L 161.312163 112.999882 
L 158.022851 111.454565 
L 154.733539 109.675387 
L 151.444227 107.64194 
L 148.154915 105.336025 
L 144.865603 102.74309 
L 141.576291 99.85386 
L 138.286979 96.666035 
L 134.997667 93.185928 
L 131.708355 89.429802 
L 128.419043 85.424702 
L 125.129731 81.208549 
L 121.840419 76.829334 
L 118.551107 72.343361 
L 115.261795 67.812634 
L 111.972483 63.301599 
L 108.683171 58.873625 
L 105.393859 54.587595 
L 102.104547 50.495004 
L 98.815235 46.637854 
L 95.525923 43.04747 
L 92.236612 39.744264 
L 88.9473 36.738295 
L 85.657988 34.030444 
L 82.368676 31.613954 
L 79.079364 29.476134 
L 75.790052 27.600026 
L 72.50074 25.965926 
L 69.211428 24.552685 
L 65.922116 23.338749 
L 62.632804 22.30295 
L 59.343492 21.425069 
L 56.05418 20.686209 
L 52.764868 20.06901 
L 49.475556 19.557738 
L 46.186244 19.138299 
L 42.896932 18.798183 
L 39.60762 18.526368 
L 36.318308 18.313211 
L 33.028996 18.150315 
L 29.739684 18.030404 
L 26.450372 17.947195 
L 23.16106 17.89528 
L 19.871748 17.870018 
L 16.582436 17.867433 
L 13.293125 17.884127 
L 10.003813 17.917197 
L 6.714501 17.964173 
L 3.425189 18.022947 
L 0.135877 18.091729 
L -3.153435 18.168997 
L -6.442747 18.253458 
L -9.732059 18.344015 
L -13.021371 18.439736 
L -16.310683 18.539831 
L -19.599995 18.643631 
L -22.889307 18.750569 
L -26.178619 18.860163 
L -29.467931 18.972006 
L -32.757243 19.085754 
L -36.046555 19.201113 
L -39.335867 19.317836 
L -42.625179 19.435715 
L -45.914491 19.554571 
L -49.203803 19.674254 
L -52.493115 19.794637 
L -55.782427 19.915613 
L -59.071739 20.037091 
L -62.36105 20.158992 
L -65.650362 20.281253 
L -68.939674 20.403818 
L -72.228986 20.52664 
L -75.518298 20.64968 
L -78.80761 20.772904 
L -82.096922 20.896284 
L -85.386234 21.019795 
L -88.675546 21.143419 
L -91.964858 21.267136 
L -95.25417 21.390934 
L -98.543482 21.514799 
L -101.832794 21.638722 
L -105.122106 21.762693 
L -108.411418 21.886705 
L -111.70073 22.010752 
L -114.990042 22.134828 
L -118.279354 22.258928 
L -121.568666 22.38305 
L -124.857978 22.50719 
L -128.14729 22.631345 
L -131.436602 22.755512 
L -134.725914 22.87969 
L -138.015225 23.003878 
L -141.304537 23.128073 
L -144.593849 23.252274 
L -147.883161 23.376481 
L -151.172473 23.500693 
L -154.461785 23.624909 
L -157.751097 23.749128 
L -161.040409 23.87335 
L -164.329721 23.997574 
L -167.619033 24.1218 
L -170.908345 24.246028 
L -174.197657 24.370258 
L -177.486969 24.494488 
L -180.776281 24.61872 
L -184.065593 24.742953 
L -187.354905 24.867186 
L -190.644217 24.99142 
L -193.933529 25.115655 
L -197.222841 25.23989 
L -200.512153 25.364125 
L -203.801465 25.488361 
L -207.090777 25.612597 
L -210.380089 25.736833 
L -213.669401 25.861069 
L -216.958712 25.985306 
L -220.248024 26.109542 
L -223.537336 26.233779 
L -226.826648 26.358016 
L -230.11596 26.482253 
L -233.405272 26.60649 
L -236.694584 26.730727 
L -239.983896 26.854964 
L -243.273208 26.979202 
L -246.56252 27.103439 
L -249.851832 27.227676 
L -253.141144 27.351914 
L -256.430456 27.476151 
L -259.719768 27.600388 
L -263.00908 27.724626 
L -266.298392 27.848863 
L -269.587704 27.9731 
L -272.877016 28.097338 
L -276.166328 28.221575 
L -279.45564 28.345813 
L -282.744952 28.47005 
L -286.034264 28.594287 
L -289.323576 28.718525 
L -292.612887 28.842762 
L -295.902199 28.967 
L -299.191511 29.091237 
L -302.480823 29.215475 
L -305.770135 29.339712 
L -309.059447 29.46395 
L -312.348759 29.588187 
L -315.638071 29.712425 
L -318.927383 29.836662 
L -322.216695 29.960899 
L -325.506007 30.085137 
L -328.795319 30.209374 
L -332.084631 30.333612 
L -335.373943 30.457849 
L -338.663255 30.582087 
L -341.952567 30.706324 
L -345.241879 30.830562 
L -348.531191 30.954799 
L -351.820503 31.079037 
L -355.109815 31.203274 
L -358.399127 31.327511 
L -361.688439 31.451749 
L -364.977751 31.575986 
L -368.267063 31.700224 
z
" style="fill:#7f7f7f;fill-opacity:0.2;"/>
   </g>
   <g id="LineCollection_1">
    <path clip-path="url(#p7056c42d5b)" d="M 124.142937 170.444217 
L 124.142937 69.194494 
" style="fill:none;stroke:#000000;stroke-dasharray:1,1.65;stroke-dashoffset:0;"/>
   </g>
   <g id="LineCollection_2">
    <path clip-path="url(#p7056c42d5b)" d="M 116.264377 170.444217 
L 116.264377 69.194494 
" style="fill:none;stroke:#000000;stroke-dasharray:1,1.65;stroke-dashoffset:0;"/>
   </g>
   <g id="LineCollection_3">
    <path clip-path="url(#p7056c42d5b)" d="M -1 69.194494 
L 124.142937 69.194494 
" style="fill:none;stroke:#000000;stroke-dasharray:1,1.65;stroke-dashoffset:0;"/>
   </g>
   <g id="line2d_8">
    <path clip-path="url(#p7056c42d5b)" d="M -1 18.126212 
L 59.343492 15.932028 
L 69.211428 15.727728 
L 75.790052 15.749856 
L 82.368676 16.058024 
L 85.657988 16.402291 
L 88.9473 16.94558 
L 92.236612 17.768215 
L 95.525923 18.97866 
L 98.815235 20.719135 
L 102.104547 23.168093 
L 105.393859 26.53475 
L 108.683171 31.038535 
L 111.972483 36.865975 
L 115.261795 44.103157 
L 118.551107 52.657501 
L 121.840419 62.204366 
L 128.419043 82.005681 
L 131.708355 91.00941 
L 134.997667 98.796922 
L 138.286979 105.186235 
L 141.576291 110.200984 
L 144.865603 113.996759 
L 148.154915 116.786446 
L 151.444227 118.78693 
L 154.733539 120.19029 
L 158.022851 121.153251 
L 161.312163 121.797204 
L 164.601475 122.212982 
L 167.890787 122.466997 
L 174.46941 122.667122 
L 184.337346 122.574331 
L 200.783906 122.07187 
L 234.324937 120.827395 
L 234.324937 120.827395 
" style="fill:none;stroke:#1f77b4;stroke-linecap:square;"/>
   </g>
   <g id="line2d_9">
    <path clip-path="url(#p7056c42d5b)" d="M -1 18.118412 
L 13.293125 17.884127 
L 23.16106 17.89528 
L 33.028996 18.150315 
L 39.60762 18.526368 
L 46.186244 19.138299 
L 52.764868 20.06901 
L 56.05418 20.686209 
L 59.343492 21.425069 
L 62.632804 22.30295 
L 65.922116 23.338749 
L 69.211428 24.552685 
L 72.50074 25.965926 
L 75.790052 27.600026 
L 79.079364 29.476134 
L 82.368676 31.613954 
L 85.657988 34.030444 
L 88.9473 36.738295 
L 92.236612 39.744264 
L 95.525923 43.04747 
L 98.815235 46.637854 
L 102.104547 50.495004 
L 105.393859 54.587595 
L 111.972483 63.301599 
L 125.129731 81.208549 
L 128.419043 85.424702 
L 131.708355 89.429802 
L 134.997667 93.185928 
L 138.286979 96.666035 
L 141.576291 99.85386 
L 144.865603 102.74309 
L 148.154915 105.336025 
L 151.444227 107.64194 
L 154.733539 109.675387 
L 158.022851 111.454565 
L 161.312163 112.999882 
L 164.601475 114.332755 
L 167.890787 115.47467 
L 171.180098 116.446479 
L 174.46941 117.267919 
L 177.758722 117.957305 
L 184.337346 119.005201 
L 190.91597 119.704487 
L 197.494594 120.144927 
L 204.073218 120.395119 
L 213.941154 120.522478 
L 227.098402 120.403168 
L 234.324937 120.252225 
L 234.324937 120.252225 
" style="fill:none;stroke:#d62728;stroke-linecap:square;"/>
   </g>
   <g id="patch_3">
    <path d="M 25.660938 131.188987 
L 25.660938 7.2 
" style="fill:none;stroke:#000000;stroke-linecap:square;stroke-linejoin:miter;stroke-width:0.8;"/>
   </g>
   <g id="patch_4">
    <path d="M 222.624937 131.188987 
L 222.624937 7.2 
" style="fill:none;stroke:#000000;stroke-linecap:square;stroke-linejoin:miter;stroke-width:0.8;"/>
   </g>
   <g id="patch_5">
    <path d="M 25.660937 131.188987 
L 222.624937 131.188987 
" style="fill:none;stroke:#000000;stroke-linecap:square;stroke-linejoin:miter;stroke-width:0.8;"/>
   </g>
   <g id="patch_6">
    <path d="M 25.660937 7.2 
L 222.624937 7.2 
" style="fill:none;stroke:#000000;stroke-linecap:square;stroke-linejoin:miter;stroke-width:0.8;"/>
   </g>
   <g id="text_5">
    <!-- $N-1$ -->
    <defs>
     <path d="M 22.859375 71.734375 
L 34.328125 71.734375 
L 58.203125 13.625 
L 70.5625 71.734375 
L 79.78125 71.734375 
L 64.546875 0 
L 53.65625 0 
L 29.203125 58.0625 
L 16.890625 0 
L 7.625 0 
z
" id="Helvetica-Oblique-4e"/>
     <path d="M 61.671875 29.59375 
L 59.96875 21.390625 
L 9.03125 21.390625 
L 10.75 29.59375 
z
" id="Helvetica-Oblique-2212"/>
     <path d="M 20.0625 49.515625 
L 21.484375 56.25 
Q 31.203125 57.171875 35.421875 59.34375 
Q 39.65625 61.53125 43.265625 69.625 
L 50.203125 69.625 
L 35.40625 0 
L 26.03125 0 
L 36.53125 49.515625 
z
" id="Helvetica-Oblique-31"/>
    </defs>
    <g transform="translate(55.205538 87.792842)scale(0.12 -0.12)">
     <use transform="translate(0 0.265625)" xlink:href="#Helvetica-Oblique-4e"/>
     <use transform="translate(88.876953 0.265625)" xlink:href="#Helvetica-Oblique-2212"/>
     <use transform="translate(163.935547 0.265625)" xlink:href="#Helvetica-Oblique-31"/>
    </g>
   </g>
   <g id="text_6">
    <!-- $N$ -->
    <g transform="translate(173.383938 87.792842)scale(0.12 -0.12)">
     <use transform="translate(0 0.265625)" xlink:href="#Helvetica-Oblique-4e"/>
    </g>
   </g>
   <g id="text_7">
    <!-- $\Delta S_{N-1 \rightarrow N} &gt; 0$ -->
    <defs>
     <path d="M 40.59375 68.796875 
C 39.796875 70.5 39.40625 70.5 38.59375 70.5 
C 37.40625 70.5 37.296875 70.296875 36.59375 68.890625 
L 4.203125 1.703125 
C 4.09375 1.5 3.703125 0.59375 3.703125 0.5 
C 3.703125 0.09375 3.796875 0 5.59375 0 
L 71.5 0 
C 73.296875 0 73.40625 0.09375 73.40625 0.5 
C 73.40625 0.59375 73 1.5 72.90625 1.703125 
z
M 36.09375 63.09375 
L 63.796875 5.59375 
L 8.296875 5.59375 
z
" id="CMR17-1"/>
     <path d="M 63.5 69.109375 
C 63.5 70 62.796875 70 62.59375 70 
C 62.203125 70 62.09375 69.90625 60.90625 68.40625 
C 60.296875 67.703125 56.203125 62.515625 56.09375 62.421875 
C 52.796875 68.90625 46.203125 70 42 70 
C 29.296875 70 17.796875 58.484375 17.796875 47.265625 
C 17.796875 39.828125 22.296875 35.453125 27.203125 33.765625 
C 28.296875 33.359375 34.203125 31.765625 37.203125 31.078125 
C 42.296875 29.6875 43.59375 29.296875 45.703125 27.109375 
C 46.09375 26.609375 48.09375 24.328125 48.09375 19.65625 
C 48.09375 10.421875 39.5 0.890625 29.5 0.890625 
C 21.296875 0.890625 12.203125 4.375 12.203125 15.484375 
C 12.203125 17.375 12.59375 19.765625 12.90625 20.75 
C 12.90625 21.0625 13 21.53125 13 21.734375 
C 13 22.140625 12.796875 22.640625 12 22.640625 
C 11.09375 22.640625 11 22.4375 10.59375 20.75 
L 5.5 0.375 
C 5.5 0.28125 5.09375 -1 5.09375 -1.109375 
C 5.09375 -2 5.90625 -2 6.09375 -2 
C 6.5 -2 6.59375 -1.90625 7.796875 -0.40625 
L 12.40625 5.5625 
C 14.796875 1.96875 20 -2 29.296875 -2 
C 42.203125 -2 54 10.40625 54 22.8125 
C 54 27 53 30.671875 49.203125 34.328125 
C 47.09375 36.421875 45.296875 36.921875 36.09375 39.3125 
C 29.40625 41.09375 28.5 41.390625 26.703125 42.984375 
C 25 44.65625 23.703125 47.046875 23.703125 50.421875 
C 23.703125 58.765625 32.203125 67.3125 41.703125 67.3125 
C 51.5 67.3125 56.09375 61.34375 56.09375 51.921875 
C 56.09375 49.34375 55.59375 46.65625 55.59375 46.265625 
C 55.59375 45.359375 56.40625 45.359375 56.703125 45.359375 
C 57.59375 45.359375 57.703125 45.65625 58.09375 47.25 
z
" id="CMMI12-83"/>
     <path d="M 74 57.78125 
C 75.09375 62.09375 76.703125 65.09375 84.296875 65.09375 
C 84.59375 65.09375 85.796875 65.09375 85.796875 66.859375 
C 85.796875 68 84.90625 68 84.5 68 
C 82.5 68 77.40625 68 75.40625 68 
L 70.59375 68 
C 69.203125 68 67.40625 68 66 68 
C 65.40625 68 64.203125 68 64.203125 66.09375 
C 64.203125 65.09375 65 65.09375 65.703125 65.09375 
C 71.703125 65.09375 72.09375 62.796875 72.09375 60.984375 
C 72.09375 60.09375 72 59.78125 71.703125 58.390625 
L 60.40625 13.28125 
L 39 66.390625 
C 38.296875 68 38.203125 68 36 68 
L 23.796875 68 
C 21.796875 68 20.90625 68 20.90625 66.09375 
C 20.90625 65.09375 21.59375 65.09375 23.5 65.09375 
C 24 65.09375 29.90625 65.09375 29.90625 64.296875 
C 29.90625 64.09375 29.703125 63.296875 29.59375 63 
L 16.296875 9.921875 
C 15.09375 5 12.703125 2.90625 6.09375 2.90625 
C 5.59375 2.90625 4.59375 2.90625 4.59375 1.046875 
C 4.59375 0 5.59375 0 5.90625 0 
C 7.90625 0 13 0 15 0 
L 19.796875 0 
C 21.203125 0 22.90625 0 24.296875 0 
C 25 0 26.09375 0 26.09375 1.90625 
C 26.09375 2.8125 25.09375 2.90625 24.703125 2.90625 
C 21.40625 2.90625 18.203125 3.5 18.203125 7.09375 
C 18.203125 7.890625 18.40625 8.78125 18.59375 9.578125 
L 32.09375 63 
C 32.703125 62 32.703125 61.8125 33.09375 60.90625 
L 56.90625 1.796875 
C 57.40625 0.59375 57.59375 0 58.5 0 
C 59.5 0 59.59375 0.296875 60 2 
z
" id="CMMI12-78"/>
     <path d="M 65.90625 23 
C 67.59375 23 69.40625 23 69.40625 25 
C 69.40625 27 67.59375 27 65.90625 27 
L 11.796875 27 
C 10.09375 27 8.296875 27 8.296875 25 
C 8.296875 23 10.09375 23 11.796875 23 
z
" id="CMSY10-0"/>
     <path d="M 26.59375 63.40625 
C 26.59375 65.5 26.5 65.5 25.09375 65.5 
C 21.203125 61.1875 15.296875 59.796875 9.703125 59.796875 
C 9.40625 59.796875 8.90625 59.796875 8.796875 59.5 
C 8.703125 59.296875 8.703125 59.09375 8.703125 57 
C 11.796875 57 17 57.59375 21 59.984375 
L 21 7.203125 
C 21 3.6875 20.796875 2.5 12.203125 2.5 
L 9.203125 2.5 
L 9.203125 0 
C 14 0 19 0 23.796875 0 
C 28.59375 0 33.59375 0 38.40625 0 
L 38.40625 2.5 
L 35.40625 2.5 
C 26.796875 2.5 26.59375 3.59375 26.59375 7.15625 
z
" id="CMR17-49"/>
     <path d="M 83.40625 23 
C 77.90625 18.796875 75.203125 14.703125 74.40625 13.40625 
C 69.90625 6.5 69.09375 0.203125 69.09375 0.09375 
C 69.09375 -1.09375 70.296875 -1.09375 71.09375 -1.09375 
C 72.796875 -1.09375 72.90625 -0.90625 73.296875 0.90625 
C 75.59375 10.703125 81.5 19.09375 92.796875 23.703125 
C 94 24.09375 94.296875 24.296875 94.296875 25 
C 94.296875 25.703125 93.703125 26 93.5 26.09375 
C 89.09375 27.796875 77 32.796875 73.203125 49.59375 
C 72.90625 50.796875 72.796875 51.09375 71.09375 51.09375 
C 70.296875 51.09375 69.09375 51.09375 69.09375 49.890625 
C 69.09375 49.6875 70 43.390625 74.203125 36.703125 
C 76.203125 33.703125 79.09375 30.203125 83.40625 27 
L 9.09375 27 
C 7.296875 27 5.5 27 5.5 25 
C 5.5 23 7.296875 23 9.09375 23 
z
" id="CMSY10-33"/>
     <path d="M 65.90625 22.640625 
C 67.796875 23.546875 67.90625 24.140625 67.90625 24.84375 
C 67.90625 25.4375 67.703125 26.140625 65.90625 26.953125 
L 11.796875 51.90625 
C 10.5 52.5 10.296875 52.5 10.09375 52.5 
C 8.90625 52.5 8.203125 51.5 8.203125 50.703125 
C 8.203125 49.5 9 49.09375 10.296875 48.5 
L 61.703125 24.84375 
L 10.203125 1.015625 
C 8.203125 0.09375 8.203125 -0.609375 8.203125 -1.203125 
C 8.203125 -2 8.90625 -3 10.09375 -3 
C 10.296875 -3 10.40625 -2.890625 11.796875 -2.296875 
z
" id="CMMI12-62"/>
     <path d="M 42 31.640625 
C 42 37.75 41.90625 48.125 37.703125 56.109375 
C 34 63.109375 28.09375 65.59375 22.90625 65.59375 
C 18.09375 65.59375 12 63.40625 8.203125 56.203125 
C 4.203125 48.71875 3.796875 39.4375 3.796875 31.640625 
C 3.796875 25.953125 3.90625 17.28125 7 9.671875 
C 11.296875 -0.609375 19 -2 22.90625 -2 
C 27.5 -2 34.5 -0.109375 38.59375 9.375 
C 41.59375 16.28125 42 24.359375 42 31.640625 
z
M 22.90625 -0.40625 
C 16.5 -0.40625 12.703125 5.078125 11.296875 12.6875 
C 10.203125 18.5625 10.203125 27.15625 10.203125 32.75 
C 10.203125 40.4375 10.203125 46.828125 11.5 52.921875 
C 13.40625 61.390625 19 64 22.90625 64 
C 27 64 32.296875 61.296875 34.203125 53.125 
C 35.5 47.4375 35.59375 40.734375 35.59375 32.75 
C 35.59375 26.25 35.59375 18.265625 34.40625 12.375 
C 32.296875 1.484375 26.40625 -0.40625 22.90625 -0.40625 
z
" id="CMR17-48"/>
    </defs>
    <g transform="translate(124.142937 38.197247)scale(0.16 -0.16)">
     <use transform="translate(0 14.943915)scale(0.996264)" xlink:href="#CMR17-1"/>
     <use transform="translate(76.91959 14.943915)scale(0.996264)" xlink:href="#CMMI12-83"/>
     <use transform="translate(136.914078 0)scale(0.697382)" xlink:href="#CMMI12-78"/>
     <use transform="translate(198.879051 0)scale(0.697382)" xlink:href="#CMSY10-0"/>
     <use transform="translate(253.120044 0)scale(0.697382)" xlink:href="#CMR17-49"/>
     <use transform="translate(285.103226 0)scale(0.697382)" xlink:href="#CMSY10-33"/>
     <use transform="translate(354.8416 0)scale(0.697382)" xlink:href="#CMMI12-78"/>
     <use transform="translate(444.978714 14.943915)scale(0.996264)" xlink:href="#CMMI12-62"/>
     <use transform="translate(548.524819 14.943915)scale(0.996264)" xlink:href="#CMR17-48"/>
    </g>
   </g>
  </g>
 </g>
 <defs>
  <clipPath id="p7056c42d5b">
   <rect height="123.988987" width="196.964" x="25.660938" y="7.2"/>
  </clipPath>
 </defs>
</svg>
