<?xml version="1.0" encoding="utf-8" standalone="no"?>
<!DOCTYPE svg PUBLIC "-//W3C//DTD SVG 1.1//EN"
  "http://www.w3.org/Graphics/SVG/1.1/DTD/svg11.dtd">
<!-- Created with matplotlib (http://matplotlib.org/) -->
<svg height="211pt" version="1.1" viewBox="0 0 412 211" width="412pt" xmlns="http://www.w3.org/2000/svg" xmlns:xlink="http://www.w3.org/1999/xlink">
 <defs>
  <style type="text/css">
*{stroke-linecap:butt;stroke-linejoin:round;}
  </style>
 </defs>
 <g id="figure_1">
  <g id="patch_1">
   <path d="M 0 211.801875 
L 412.12546 211.801875 
L 412.12546 0 
L 0 0 
z
" style="fill:#ffffff;"/>
  </g>
  <g id="axes_1">
   <g id="patch_2">
    <path d="M 42.340938 173.7125 
L 404.92546 173.7125 
L 404.92546 7.2 
L 42.340938 7.2 
z
" style="fill:#ffffff;"/>
   </g>
   <g id="matplotlib.axis_1">
    <g id="xtick_1">
     <g id="line2d_1">
      <defs>
       <path d="M 0 0 
L 0 -3.5 
" id="m1ea5571dc3" style="stroke:#000000;stroke-width:0.8;"/>
      </defs>
      <g>
       <use style="stroke:#000000;stroke-width:0.8;" x="91.784281" xlink:href="#m1ea5571dc3" y="173.7125"/>
      </g>
     </g>
     <g id="line2d_2">
      <defs>
       <path d="M 0 0 
L 0 3.5 
" id="m3f7841a3cb" style="stroke:#000000;stroke-width:0.8;"/>
      </defs>
      <g>
       <use style="stroke:#000000;stroke-width:0.8;" x="91.784281" xlink:href="#m3f7841a3cb" y="7.2"/>
      </g>
     </g>
     <g id="text_1">
      <!-- −4 -->
      <defs>
       <path d="M 55.421875 29.59375 
L 55.421875 21.390625 
L 4.5 21.390625 
L 4.5 29.59375 
z
" id="Helvetica-2212"/>
       <path d="M 33.0625 24.75 
L 33.0625 56.453125 
L 10.640625 24.75 
z
M 33.203125 0 
L 33.203125 17.09375 
L 2.546875 17.09375 
L 2.546875 25.6875 
L 34.578125 70.125 
L 42 70.125 
L 42 24.75 
L 52.296875 24.75 
L 52.296875 17.09375 
L 42 17.09375 
L 42 0 
z
" id="Helvetica-34"/>
      </defs>
      <g transform="translate(84.943344 185.820625)scale(0.12 -0.12)">
       <use xlink:href="#Helvetica-2212"/>
       <use x="58.398438" xlink:href="#Helvetica-34"/>
      </g>
     </g>
    </g>
    <g id="xtick_2">
     <g id="line2d_3">
      <g>
       <use style="stroke:#000000;stroke-width:0.8;" x="157.70874" xlink:href="#m1ea5571dc3" y="173.7125"/>
      </g>
     </g>
     <g id="line2d_4">
      <g>
       <use style="stroke:#000000;stroke-width:0.8;" x="157.70874" xlink:href="#m3f7841a3cb" y="7.2"/>
      </g>
     </g>
     <g id="text_2">
      <!-- −2 -->
      <defs>
       <path d="M 3.125 0 
Q 3.609375 9.03125 6.859375 15.71875 
Q 10.109375 22.40625 19.53125 27.875 
L 28.90625 33.296875 
Q 35.203125 36.96875 37.75 39.546875 
Q 41.75 43.609375 41.75 48.828125 
Q 41.75 54.9375 38.078125 58.515625 
Q 34.421875 62.109375 28.328125 62.109375 
Q 19.28125 62.109375 15.828125 55.28125 
Q 13.96875 51.609375 13.765625 45.125 
L 4.828125 45.125 
Q 4.984375 54.25 8.203125 60.015625 
Q 13.921875 70.171875 28.375 70.171875 
Q 40.375 70.171875 45.921875 63.671875 
Q 51.46875 57.171875 51.46875 49.21875 
Q 51.46875 40.828125 45.5625 34.859375 
Q 42.140625 31.390625 33.296875 26.46875 
L 26.609375 22.75 
Q 21.828125 20.125 19.09375 17.71875 
Q 14.203125 13.484375 12.9375 8.296875 
L 51.125 8.296875 
L 51.125 0 
L 3.125 0 
z
" id="Helvetica-32"/>
      </defs>
      <g transform="translate(150.867803 185.820625)scale(0.12 -0.12)">
       <use xlink:href="#Helvetica-2212"/>
       <use x="58.398438" xlink:href="#Helvetica-32"/>
      </g>
     </g>
    </g>
    <g id="xtick_3">
     <g id="line2d_5">
      <g>
       <use style="stroke:#000000;stroke-width:0.8;" x="223.633199" xlink:href="#m1ea5571dc3" y="173.7125"/>
      </g>
     </g>
     <g id="line2d_6">
      <g>
       <use style="stroke:#000000;stroke-width:0.8;" x="223.633199" xlink:href="#m3f7841a3cb" y="7.2"/>
      </g>
     </g>
     <g id="text_3">
      <!-- 0 -->
      <defs>
       <path d="M 27.046875 69.921875 
Q 40.625 69.921875 46.6875 58.734375 
Q 51.375 50.09375 51.375 35.0625 
Q 51.375 20.796875 47.125 11.46875 
Q 40.96875 -1.90625 27 -1.90625 
Q 14.40625 -1.90625 8.25 9.03125 
Q 3.125 18.171875 3.125 33.546875 
Q 3.125 45.453125 6.203125 54 
Q 11.96875 69.921875 27.046875 69.921875 
z
M 26.953125 6.109375 
Q 33.796875 6.109375 37.84375 12.15625 
Q 41.890625 18.21875 41.890625 34.71875 
Q 41.890625 46.625 38.953125 54.3125 
Q 36.03125 62.015625 27.59375 62.015625 
Q 19.828125 62.015625 16.234375 54.703125 
Q 12.640625 47.40625 12.640625 33.203125 
Q 12.640625 22.515625 14.9375 16.015625 
Q 18.453125 6.109375 26.953125 6.109375 
z
" id="Helvetica-30"/>
      </defs>
      <g transform="translate(220.296636 185.820625)scale(0.12 -0.12)">
       <use xlink:href="#Helvetica-30"/>
      </g>
     </g>
    </g>
    <g id="xtick_4">
     <g id="line2d_7">
      <g>
       <use style="stroke:#000000;stroke-width:0.8;" x="289.557657" xlink:href="#m1ea5571dc3" y="173.7125"/>
      </g>
     </g>
     <g id="line2d_8">
      <g>
       <use style="stroke:#000000;stroke-width:0.8;" x="289.557657" xlink:href="#m3f7841a3cb" y="7.2"/>
      </g>
     </g>
     <g id="text_4">
      <!-- 2 -->
      <g transform="translate(286.221095 185.820625)scale(0.12 -0.12)">
       <use xlink:href="#Helvetica-32"/>
      </g>
     </g>
    </g>
    <g id="xtick_5">
     <g id="line2d_9">
      <g>
       <use style="stroke:#000000;stroke-width:0.8;" x="355.482116" xlink:href="#m1ea5571dc3" y="173.7125"/>
      </g>
     </g>
     <g id="line2d_10">
      <g>
       <use style="stroke:#000000;stroke-width:0.8;" x="355.482116" xlink:href="#m3f7841a3cb" y="7.2"/>
      </g>
     </g>
     <g id="text_5">
      <!-- 4 -->
      <g transform="translate(352.145553 185.820625)scale(0.12 -0.12)">
       <use xlink:href="#Helvetica-34"/>
      </g>
     </g>
    </g>
    <g id="text_6">
     <!-- B$_{\parallel}$ (T) -->
     <defs>
      <path d="M 34.578125 41.40625 
Q 40.71875 41.40625 44.140625 43.109375 
Q 49.515625 45.796875 49.515625 52.78125 
Q 49.515625 59.8125 43.796875 62.25 
Q 40.578125 63.625 34.234375 63.625 
L 16.890625 63.625 
L 16.890625 41.40625 
z
M 37.84375 8.296875 
Q 46.78125 8.296875 50.59375 13.484375 
Q 52.984375 16.75 52.984375 21.390625 
Q 52.984375 29.203125 46 32.03125 
Q 42.28125 33.546875 36.1875 33.546875 
L 16.890625 33.546875 
L 16.890625 8.296875 
z
M 7.375 71.734375 
L 38.1875 71.734375 
Q 50.78125 71.734375 56.109375 64.203125 
Q 59.234375 59.765625 59.234375 53.953125 
Q 59.234375 47.171875 55.375 42.828125 
Q 53.375 40.53125 49.609375 38.625 
Q 55.125 36.53125 57.859375 33.890625 
Q 62.703125 29.203125 62.703125 20.953125 
Q 62.703125 14.015625 58.34375 8.40625 
Q 51.859375 0 37.703125 0 
L 7.375 0 
z
" id="Helvetica-42"/>
      <path d="M 39.40625 -18.90625 
L 32.796875 -18.90625 
L 32.796875 69 
L 39.40625 69 
z
M 19.5 -18.90625 
L 12.90625 -18.90625 
L 12.90625 69 
L 19.5 69 
z
" id="STIXGeneral-Regular-2225"/>
      <path id="Helvetica-20"/>
      <path d="M 29.59375 72.90625 
Q 21.921875 58.015625 19.625 50.984375 
Q 16.15625 40.28125 16.15625 26.265625 
Q 16.15625 12.109375 20.125 0.390625 
Q 22.5625 -6.84375 29.734375 -20.40625 
L 23.828125 -20.40625 
Q 16.703125 -9.28125 14.984375 -6.203125 
Q 13.28125 -3.125 11.28125 2.15625 
Q 8.546875 9.375 7.46875 17.578125 
Q 6.9375 21.828125 6.9375 25.6875 
Q 6.9375 40.140625 11.46875 51.421875 
Q 14.359375 58.59375 23.484375 72.90625 
z
" id="Helvetica-28"/>
      <path d="M 59.8125 71.734375 
L 59.8125 63.1875 
L 35.640625 63.1875 
L 35.640625 0 
L 25.78125 0 
L 25.78125 63.1875 
L 1.609375 63.1875 
L 1.609375 71.734375 
z
" id="Helvetica-54"/>
      <path d="M 3.46875 -20.40625 
Q 11.234375 -5.28125 13.484375 1.65625 
Q 16.890625 12.15625 16.890625 26.265625 
Q 16.890625 40.375 12.9375 52.09375 
Q 10.5 59.328125 3.328125 72.90625 
L 9.234375 72.90625 
Q 16.75 60.890625 18.328125 58.078125 
Q 19.921875 55.28125 21.78125 50.34375 
Q 24.125 44.234375 25.125 38.28125 
Q 26.125 32.328125 26.125 26.8125 
Q 26.125 12.359375 21.53125 1.03125 
Q 18.65625 -6.25 9.578125 -20.40625 
z
" id="Helvetica-29"/>
     </defs>
     <g transform="translate(203.613199 200.541875)scale(0.14 -0.14)">
      <use transform="translate(0 0.09375)" xlink:href="#Helvetica-42"/>
      <use transform="translate(79.276523 -15.595313)scale(0.7)" xlink:href="#STIXGeneral-Regular-2225"/>
      <use transform="translate(130.163468 0.09375)" xlink:href="#Helvetica-20"/>
      <use transform="translate(157.946671 0.09375)" xlink:href="#Helvetica-28"/>
      <use transform="translate(191.247452 0.09375)" xlink:href="#Helvetica-54"/>
      <use transform="translate(252.331437 0.09375)" xlink:href="#Helvetica-29"/>
     </g>
    </g>
   </g>
   <g id="matplotlib.axis_2">
    <g id="ytick_1">
     <g id="line2d_11">
      <defs>
       <path d="M 0 0 
L 3.5 0 
" id="m2f34c9c58a" style="stroke:#000000;stroke-width:0.8;"/>
      </defs>
      <g>
       <use style="stroke:#000000;stroke-width:0.8;" x="42.340938" xlink:href="#m2f34c9c58a" y="156.184868"/>
      </g>
     </g>
     <g id="line2d_12">
      <defs>
       <path d="M 0 0 
L -3.5 0 
" id="m4d7403760b" style="stroke:#000000;stroke-width:0.8;"/>
      </defs>
      <g>
       <use style="stroke:#000000;stroke-width:0.8;" x="404.92546" xlink:href="#m4d7403760b" y="156.184868"/>
      </g>
     </g>
     <g id="text_7">
      <!-- 0.0 -->
      <defs>
       <path d="M 8.546875 10.640625 
L 18.75 10.640625 
L 18.75 0 
L 8.546875 0 
z
" id="Helvetica-2e"/>
      </defs>
      <g transform="translate(22.160938 160.488931)scale(0.12 -0.12)">
       <use xlink:href="#Helvetica-30"/>
       <use x="55.615234" xlink:href="#Helvetica-2e"/>
       <use x="83.398438" xlink:href="#Helvetica-30"/>
      </g>
     </g>
    </g>
    <g id="ytick_2">
     <g id="line2d_13">
      <g>
       <use style="stroke:#000000;stroke-width:0.8;" x="42.340938" xlink:href="#m2f34c9c58a" y="86.074342"/>
      </g>
     </g>
     <g id="line2d_14">
      <g>
       <use style="stroke:#000000;stroke-width:0.8;" x="404.92546" xlink:href="#m4d7403760b" y="86.074342"/>
      </g>
     </g>
     <g id="text_8">
      <!-- 0.4 -->
      <g transform="translate(22.160938 90.378405)scale(0.12 -0.12)">
       <use xlink:href="#Helvetica-30"/>
       <use x="55.615234" xlink:href="#Helvetica-2e"/>
       <use x="83.398438" xlink:href="#Helvetica-34"/>
      </g>
     </g>
    </g>
    <g id="ytick_3">
     <g id="line2d_15">
      <g>
       <use style="stroke:#000000;stroke-width:0.8;" x="42.340938" xlink:href="#m2f34c9c58a" y="34.692584"/>
      </g>
     </g>
     <g id="line2d_16">
      <g>
       <use style="stroke:#000000;stroke-width:0.8;" x="404.92546" xlink:href="#m4d7403760b" y="34.692584"/>
      </g>
     </g>
     <g id="text_9">
      <!-- $\ln{2}$ -->
      <defs>
       <path d="M 6.6875 71.734375 
L 15.484375 71.734375 
L 15.484375 0 
L 6.6875 0 
z
" id="Helvetica-6c"/>
       <path d="M 6.453125 52.296875 
L 14.796875 52.296875 
L 14.796875 44.875 
Q 18.5 49.46875 22.65625 51.46875 
Q 26.8125 53.46875 31.890625 53.46875 
Q 43.015625 53.46875 46.921875 45.703125 
Q 49.078125 41.453125 49.078125 33.546875 
L 49.078125 0 
L 40.140625 0 
L 40.140625 32.953125 
Q 40.140625 37.75 38.71875 40.671875 
Q 36.375 45.5625 30.21875 45.5625 
Q 27.09375 45.5625 25.09375 44.921875 
Q 21.484375 43.84375 18.75 40.625 
Q 16.546875 38.03125 15.890625 35.265625 
Q 15.234375 32.515625 15.234375 27.390625 
L 15.234375 0 
L 6.453125 0 
z
M 27.09375 53.5625 
z
" id="Helvetica-6e"/>
      </defs>
      <g transform="translate(22.760938 38.996647)scale(0.12 -0.12)">
       <use transform="translate(0 0.265625)" xlink:href="#Helvetica-6c"/>
       <use transform="translate(22.216797 0.265625)" xlink:href="#Helvetica-6e"/>
       <use transform="translate(77.832031 0.265625)" xlink:href="#Helvetica-32"/>
      </g>
     </g>
    </g>
    <g id="text_10">
     <!-- $\Delta S/k_B$ -->
     <defs>
      <path d="M 14.40625 7.8125 
L 57.375 7.8125 
L 35.59375 61.578125 
z
M 30.71875 70.609375 
L 41.109375 70.609375 
L 70.21875 0 
L 2 0 
z
" id="Helvetica-394"/>
      <path d="M 13.96875 23.140625 
Q 14.3125 17.046875 16.84375 13.234375 
Q 21.6875 6.109375 33.890625 6.109375 
Q 39.359375 6.109375 43.84375 7.671875 
Q 52.546875 10.6875 52.546875 18.5 
Q 52.546875 24.359375 48.875 26.859375 
Q 45.171875 29.296875 37.25 31.109375 
L 27.546875 33.296875 
Q 18.015625 35.453125 14.0625 38.03125 
Q 7.234375 42.53125 7.234375 51.46875 
Q 7.234375 61.140625 13.921875 67.328125 
Q 20.609375 73.53125 32.859375 73.53125 
Q 44.140625 73.53125 52.015625 68.078125 
Q 59.90625 62.640625 59.90625 50.6875 
L 50.78125 50.6875 
Q 50.046875 56.453125 47.65625 59.515625 
Q 43.21875 65.140625 32.5625 65.140625 
Q 23.96875 65.140625 20.203125 61.515625 
Q 16.453125 57.90625 16.453125 53.125 
Q 16.453125 47.859375 20.84375 45.40625 
Q 23.734375 43.84375 33.890625 41.5 
L 43.953125 39.203125 
Q 51.21875 37.546875 55.171875 34.671875 
Q 62.015625 29.640625 62.015625 20.0625 
Q 62.015625 8.15625 53.34375 3.03125 
Q 44.671875 -2.09375 33.203125 -2.09375 
Q 19.828125 -2.09375 12.25 4.734375 
Q 4.6875 11.53125 4.828125 23.140625 
z
M 33.59375 73.6875 
z
" id="Helvetica-53"/>
      <path d="M 22.75 71.734375 
L 30.171875 71.734375 
L 7.421875 0 
L 0 0 
z
" id="Helvetica-2f"/>
      <path d="M 6.25 71.734375 
L 14.703125 71.734375 
L 14.703125 30.078125 
L 37.25 52.296875 
L 48.484375 52.296875 
L 28.46875 32.71875 
L 49.609375 0 
L 38.375 0 
L 22.078125 26.375 
L 14.703125 19.625 
L 14.703125 0 
L 6.25 0 
z
" id="Helvetica-6b"/>
     </defs>
     <g transform="translate(17.242812 109.14625)rotate(-90)scale(0.14 -0.14)">
      <use transform="translate(0 0.3125)" xlink:href="#Helvetica-394"/>
      <use transform="translate(72.216797 0.3125)" xlink:href="#Helvetica-53"/>
      <use transform="translate(138.916016 0.3125)" xlink:href="#Helvetica-2f"/>
      <use transform="translate(166.699219 0.3125)" xlink:href="#Helvetica-6b"/>
      <use transform="translate(217.614414 -15.376563)scale(0.7)" xlink:href="#Helvetica-42"/>
     </g>
    </g>
   </g>
   <g id="line2d_17">
    <path clip-path="url(#pac40e01418)" d="M 42.340938 34.692584 
L 404.92546 34.692584 
" style="fill:none;stroke:#b0b0b0;stroke-dasharray:1,1.65;stroke-dashoffset:0;"/>
   </g>
   <g id="line2d_18">
    <path clip-path="url(#pac40e01418)" d="M 42.340938 156.184868 
L 404.92546 156.184868 
" style="fill:none;stroke:#b0b0b0;stroke-dasharray:1,1.65;stroke-dashoffset:0;"/>
   </g>
   <g id="PathCollection_1">
    <defs>
     <path d="M 0 3 
C 0.795609 3 1.55874 2.683901 2.12132 2.12132 
C 2.683901 1.55874 3 0.795609 3 0 
C 3 -0.795609 2.683901 -1.55874 2.12132 -2.12132 
C 1.55874 -2.683901 0.795609 -3 0 -3 
C -0.795609 -3 -1.55874 -2.683901 -2.12132 -2.12132 
C -2.683901 -1.55874 -3 -0.795609 -3 0 
C -3 0.795609 -2.683901 1.55874 -2.12132 2.12132 
C -1.55874 2.683901 -0.795609 3 0 3 
z
" id="mbecd527e2c"/>
    </defs>
    <g clip-path="url(#pac40e01418)">
     <use style="fill:#1f77b4;fill-opacity:0.4;" x="91.784281" xlink:href="#mbecd527e2c" y="151.043573"/>
     <use style="fill:#1f77b4;fill-opacity:0.4;" x="93.981763" xlink:href="#mbecd527e2c" y="144.376771"/>
     <use style="fill:#1f77b4;fill-opacity:0.4;" x="96.179245" xlink:href="#mbecd527e2c" y="138.923759"/>
     <use style="fill:#1f77b4;fill-opacity:0.4;" x="98.376727" xlink:href="#mbecd527e2c" y="152.185444"/>
     <use style="fill:#1f77b4;fill-opacity:0.4;" x="100.574209" xlink:href="#mbecd527e2c" y="156.918499"/>
     <use style="fill:#1f77b4;fill-opacity:0.4;" x="102.771691" xlink:href="#mbecd527e2c" y="160.109553"/>
     <use style="fill:#1f77b4;fill-opacity:0.4;" x="104.969173" xlink:href="#mbecd527e2c" y="151.034236"/>
     <use style="fill:#1f77b4;fill-opacity:0.4;" x="107.166655" xlink:href="#mbecd527e2c" y="139.054849"/>
     <use style="fill:#1f77b4;fill-opacity:0.4;" x="109.364137" xlink:href="#mbecd527e2c" y="144.174031"/>
     <use style="fill:#1f77b4;fill-opacity:0.4;" x="111.561619" xlink:href="#mbecd527e2c" y="158.890868"/>
     <use style="fill:#1f77b4;fill-opacity:0.4;" x="113.759101" xlink:href="#mbecd527e2c" y="134.084866"/>
     <use style="fill:#1f77b4;fill-opacity:0.4;" x="115.956583" xlink:href="#mbecd527e2c" y="148.205811"/>
     <use style="fill:#1f77b4;fill-opacity:0.4;" x="118.154065" xlink:href="#mbecd527e2c" y="144.88076"/>
     <use style="fill:#1f77b4;fill-opacity:0.4;" x="120.351547" xlink:href="#mbecd527e2c" y="148.154895"/>
     <use style="fill:#1f77b4;fill-opacity:0.4;" x="122.549029" xlink:href="#mbecd527e2c" y="142.122801"/>
     <use style="fill:#1f77b4;fill-opacity:0.4;" x="124.746511" xlink:href="#mbecd527e2c" y="149.201422"/>
     <use style="fill:#1f77b4;fill-opacity:0.4;" x="126.943993" xlink:href="#mbecd527e2c" y="158.516112"/>
     <use style="fill:#1f77b4;fill-opacity:0.4;" x="129.141475" xlink:href="#mbecd527e2c" y="158.242523"/>
     <use style="fill:#1f77b4;fill-opacity:0.4;" x="131.338957" xlink:href="#mbecd527e2c" y="166.545138"/>
     <use style="fill:#1f77b4;fill-opacity:0.4;" x="133.536439" xlink:href="#mbecd527e2c" y="146.849279"/>
     <use style="fill:#1f77b4;fill-opacity:0.4;" x="135.733921" xlink:href="#mbecd527e2c" y="143.923583"/>
     <use style="fill:#1f77b4;fill-opacity:0.4;" x="137.931403" xlink:href="#mbecd527e2c" y="146.066173"/>
     <use style="fill:#1f77b4;fill-opacity:0.4;" x="140.128884" xlink:href="#mbecd527e2c" y="138.084773"/>
     <use style="fill:#1f77b4;fill-opacity:0.4;" x="142.326366" xlink:href="#mbecd527e2c" y="145.303736"/>
     <use style="fill:#1f77b4;fill-opacity:0.4;" x="144.523848" xlink:href="#mbecd527e2c" y="149.563773"/>
     <use style="fill:#1f77b4;fill-opacity:0.4;" x="146.72133" xlink:href="#mbecd527e2c" y="148.689237"/>
     <use style="fill:#1f77b4;fill-opacity:0.4;" x="148.918812" xlink:href="#mbecd527e2c" y="147.777451"/>
     <use style="fill:#1f77b4;fill-opacity:0.4;" x="151.116294" xlink:href="#mbecd527e2c" y="140.456245"/>
     <use style="fill:#1f77b4;fill-opacity:0.4;" x="153.313776" xlink:href="#mbecd527e2c" y="138.456203"/>
     <use style="fill:#1f77b4;fill-opacity:0.4;" x="155.511258" xlink:href="#mbecd527e2c" y="145.479017"/>
     <use style="fill:#1f77b4;fill-opacity:0.4;" x="157.70874" xlink:href="#mbecd527e2c" y="132.056425"/>
     <use style="fill:#1f77b4;fill-opacity:0.4;" x="159.906222" xlink:href="#mbecd527e2c" y="134.88405"/>
     <use style="fill:#1f77b4;fill-opacity:0.4;" x="162.103704" xlink:href="#mbecd527e2c" y="141.36387"/>
     <use style="fill:#1f77b4;fill-opacity:0.4;" x="164.301186" xlink:href="#mbecd527e2c" y="133.368683"/>
     <use style="fill:#1f77b4;fill-opacity:0.4;" x="166.498668" xlink:href="#mbecd527e2c" y="133.151678"/>
     <use style="fill:#1f77b4;fill-opacity:0.4;" x="168.69615" xlink:href="#mbecd527e2c" y="142.954948"/>
     <use style="fill:#1f77b4;fill-opacity:0.4;" x="170.893632" xlink:href="#mbecd527e2c" y="137.697588"/>
     <use style="fill:#1f77b4;fill-opacity:0.4;" x="173.091114" xlink:href="#mbecd527e2c" y="120.812389"/>
     <use style="fill:#1f77b4;fill-opacity:0.4;" x="175.288596" xlink:href="#mbecd527e2c" y="127.076359"/>
     <use style="fill:#1f77b4;fill-opacity:0.4;" x="177.486078" xlink:href="#mbecd527e2c" y="123.734957"/>
     <use style="fill:#1f77b4;fill-opacity:0.4;" x="179.68356" xlink:href="#mbecd527e2c" y="126.305301"/>
     <use style="fill:#1f77b4;fill-opacity:0.4;" x="181.881042" xlink:href="#mbecd527e2c" y="121.460965"/>
     <use style="fill:#1f77b4;fill-opacity:0.4;" x="184.078524" xlink:href="#mbecd527e2c" y="115.051533"/>
     <use style="fill:#1f77b4;fill-opacity:0.4;" x="186.276006" xlink:href="#mbecd527e2c" y="111.880895"/>
     <use style="fill:#1f77b4;fill-opacity:0.4;" x="188.473487" xlink:href="#mbecd527e2c" y="106.577611"/>
     <use style="fill:#1f77b4;fill-opacity:0.4;" x="190.670969" xlink:href="#mbecd527e2c" y="104.515607"/>
     <use style="fill:#1f77b4;fill-opacity:0.4;" x="192.868451" xlink:href="#mbecd527e2c" y="102.864201"/>
     <use style="fill:#1f77b4;fill-opacity:0.4;" x="195.065933" xlink:href="#mbecd527e2c" y="111.469283"/>
     <use style="fill:#1f77b4;fill-opacity:0.4;" x="197.263415" xlink:href="#mbecd527e2c" y="98.583878"/>
     <use style="fill:#1f77b4;fill-opacity:0.4;" x="199.460897" xlink:href="#mbecd527e2c" y="92.823855"/>
     <use style="fill:#1f77b4;fill-opacity:0.4;" x="201.658379" xlink:href="#mbecd527e2c" y="83.162636"/>
     <use style="fill:#1f77b4;fill-opacity:0.4;" x="203.855861" xlink:href="#mbecd527e2c" y="70.352789"/>
     <use style="fill:#1f77b4;fill-opacity:0.4;" x="206.053343" xlink:href="#mbecd527e2c" y="63.373263"/>
     <use style="fill:#1f77b4;fill-opacity:0.4;" x="208.250825" xlink:href="#mbecd527e2c" y="58.888482"/>
     <use style="fill:#1f77b4;fill-opacity:0.4;" x="210.448307" xlink:href="#mbecd527e2c" y="58.072506"/>
     <use style="fill:#1f77b4;fill-opacity:0.4;" x="212.645789" xlink:href="#mbecd527e2c" y="43.838204"/>
     <use style="fill:#1f77b4;fill-opacity:0.4;" x="214.843271" xlink:href="#mbecd527e2c" y="51.553482"/>
     <use style="fill:#1f77b4;fill-opacity:0.4;" x="217.040753" xlink:href="#mbecd527e2c" y="49.392444"/>
     <use style="fill:#1f77b4;fill-opacity:0.4;" x="219.238235" xlink:href="#mbecd527e2c" y="36.89253"/>
     <use style="fill:#1f77b4;fill-opacity:0.4;" x="221.435717" xlink:href="#mbecd527e2c" y="38.508065"/>
     <use style="fill:#1f77b4;fill-opacity:0.4;" x="223.633199" xlink:href="#mbecd527e2c" y="41.739408"/>
     <use style="fill:#1f77b4;fill-opacity:0.4;" x="225.830681" xlink:href="#mbecd527e2c" y="31.496894"/>
     <use style="fill:#1f77b4;fill-opacity:0.4;" x="228.028163" xlink:href="#mbecd527e2c" y="39.29776"/>
     <use style="fill:#1f77b4;fill-opacity:0.4;" x="230.225645" xlink:href="#mbecd527e2c" y="53.62802"/>
     <use style="fill:#1f77b4;fill-opacity:0.4;" x="232.423127" xlink:href="#mbecd527e2c" y="48.656946"/>
     <use style="fill:#1f77b4;fill-opacity:0.4;" x="234.620609" xlink:href="#mbecd527e2c" y="48.538824"/>
     <use style="fill:#1f77b4;fill-opacity:0.4;" x="236.81809" xlink:href="#mbecd527e2c" y="43.864552"/>
     <use style="fill:#1f77b4;fill-opacity:0.4;" x="239.015572" xlink:href="#mbecd527e2c" y="57.451843"/>
     <use style="fill:#1f77b4;fill-opacity:0.4;" x="241.213054" xlink:href="#mbecd527e2c" y="67.696061"/>
     <use style="fill:#1f77b4;fill-opacity:0.4;" x="243.410536" xlink:href="#mbecd527e2c" y="58.730877"/>
     <use style="fill:#1f77b4;fill-opacity:0.4;" x="245.608018" xlink:href="#mbecd527e2c" y="70.146518"/>
     <use style="fill:#1f77b4;fill-opacity:0.4;" x="247.8055" xlink:href="#mbecd527e2c" y="85.290423"/>
     <use style="fill:#1f77b4;fill-opacity:0.4;" x="250.002982" xlink:href="#mbecd527e2c" y="82.188903"/>
     <use style="fill:#1f77b4;fill-opacity:0.4;" x="252.200464" xlink:href="#mbecd527e2c" y="79.599103"/>
     <use style="fill:#1f77b4;fill-opacity:0.4;" x="254.397946" xlink:href="#mbecd527e2c" y="70.338159"/>
     <use style="fill:#1f77b4;fill-opacity:0.4;" x="256.595428" xlink:href="#mbecd527e2c" y="95.573457"/>
     <use style="fill:#1f77b4;fill-opacity:0.4;" x="258.79291" xlink:href="#mbecd527e2c" y="100.024267"/>
     <use style="fill:#1f77b4;fill-opacity:0.4;" x="260.990392" xlink:href="#mbecd527e2c" y="99.434981"/>
     <use style="fill:#1f77b4;fill-opacity:0.4;" x="263.187874" xlink:href="#mbecd527e2c" y="99.350986"/>
     <use style="fill:#1f77b4;fill-opacity:0.4;" x="265.385356" xlink:href="#mbecd527e2c" y="111.43563"/>
     <use style="fill:#1f77b4;fill-opacity:0.4;" x="267.582838" xlink:href="#mbecd527e2c" y="112.094613"/>
     <use style="fill:#1f77b4;fill-opacity:0.4;" x="269.78032" xlink:href="#mbecd527e2c" y="113.358943"/>
     <use style="fill:#1f77b4;fill-opacity:0.4;" x="271.977802" xlink:href="#mbecd527e2c" y="117.09295"/>
     <use style="fill:#1f77b4;fill-opacity:0.4;" x="274.175284" xlink:href="#mbecd527e2c" y="107.671283"/>
     <use style="fill:#1f77b4;fill-opacity:0.4;" x="276.372766" xlink:href="#mbecd527e2c" y="123.581574"/>
     <use style="fill:#1f77b4;fill-opacity:0.4;" x="278.570248" xlink:href="#mbecd527e2c" y="133.796811"/>
     <use style="fill:#1f77b4;fill-opacity:0.4;" x="280.76773" xlink:href="#mbecd527e2c" y="136.482502"/>
     <use style="fill:#1f77b4;fill-opacity:0.4;" x="282.965211" xlink:href="#mbecd527e2c" y="142.430927"/>
     <use style="fill:#1f77b4;fill-opacity:0.4;" x="285.162693" xlink:href="#mbecd527e2c" y="135.112964"/>
     <use style="fill:#1f77b4;fill-opacity:0.4;" x="287.360175" xlink:href="#mbecd527e2c" y="155.665641"/>
     <use style="fill:#1f77b4;fill-opacity:0.4;" x="289.557657" xlink:href="#mbecd527e2c" y="148.637603"/>
     <use style="fill:#1f77b4;fill-opacity:0.4;" x="291.755139" xlink:href="#mbecd527e2c" y="140.152657"/>
     <use style="fill:#1f77b4;fill-opacity:0.4;" x="293.952621" xlink:href="#mbecd527e2c" y="145.250923"/>
     <use style="fill:#1f77b4;fill-opacity:0.4;" x="296.150103" xlink:href="#mbecd527e2c" y="136.555233"/>
     <use style="fill:#1f77b4;fill-opacity:0.4;" x="298.347585" xlink:href="#mbecd527e2c" y="144.442113"/>
     <use style="fill:#1f77b4;fill-opacity:0.4;" x="300.545067" xlink:href="#mbecd527e2c" y="140.901435"/>
     <use style="fill:#1f77b4;fill-opacity:0.4;" x="302.742549" xlink:href="#mbecd527e2c" y="145.717848"/>
     <use style="fill:#1f77b4;fill-opacity:0.4;" x="304.940031" xlink:href="#mbecd527e2c" y="142.146717"/>
     <use style="fill:#1f77b4;fill-opacity:0.4;" x="307.137513" xlink:href="#mbecd527e2c" y="138.731575"/>
     <use style="fill:#1f77b4;fill-opacity:0.4;" x="309.334995" xlink:href="#mbecd527e2c" y="150.316605"/>
     <use style="fill:#1f77b4;fill-opacity:0.4;" x="311.532477" xlink:href="#mbecd527e2c" y="166.145048"/>
     <use style="fill:#1f77b4;fill-opacity:0.4;" x="313.729959" xlink:href="#mbecd527e2c" y="156.93513"/>
     <use style="fill:#1f77b4;fill-opacity:0.4;" x="315.927441" xlink:href="#mbecd527e2c" y="156.318094"/>
     <use style="fill:#1f77b4;fill-opacity:0.4;" x="318.124923" xlink:href="#mbecd527e2c" y="150.697779"/>
     <use style="fill:#1f77b4;fill-opacity:0.4;" x="320.322405" xlink:href="#mbecd527e2c" y="147.697258"/>
     <use style="fill:#1f77b4;fill-opacity:0.4;" x="322.519887" xlink:href="#mbecd527e2c" y="146.49706"/>
     <use style="fill:#1f77b4;fill-opacity:0.4;" x="324.717369" xlink:href="#mbecd527e2c" y="146.054507"/>
     <use style="fill:#1f77b4;fill-opacity:0.4;" x="326.914851" xlink:href="#mbecd527e2c" y="148.892931"/>
     <use style="fill:#1f77b4;fill-opacity:0.4;" x="329.112333" xlink:href="#mbecd527e2c" y="151.35966"/>
     <use style="fill:#1f77b4;fill-opacity:0.4;" x="331.309814" xlink:href="#mbecd527e2c" y="135.645011"/>
     <use style="fill:#1f77b4;fill-opacity:0.4;" x="333.507296" xlink:href="#mbecd527e2c" y="153.641944"/>
     <use style="fill:#1f77b4;fill-opacity:0.4;" x="335.704778" xlink:href="#mbecd527e2c" y="143.143599"/>
     <use style="fill:#1f77b4;fill-opacity:0.4;" x="337.90226" xlink:href="#mbecd527e2c" y="154.256782"/>
     <use style="fill:#1f77b4;fill-opacity:0.4;" x="340.099742" xlink:href="#mbecd527e2c" y="138.621739"/>
     <use style="fill:#1f77b4;fill-opacity:0.4;" x="342.297224" xlink:href="#mbecd527e2c" y="152.168993"/>
     <use style="fill:#1f77b4;fill-opacity:0.4;" x="344.494706" xlink:href="#mbecd527e2c" y="153.606508"/>
     <use style="fill:#1f77b4;fill-opacity:0.4;" x="346.692188" xlink:href="#mbecd527e2c" y="160.622072"/>
     <use style="fill:#1f77b4;fill-opacity:0.4;" x="348.88967" xlink:href="#mbecd527e2c" y="157.454455"/>
     <use style="fill:#1f77b4;fill-opacity:0.4;" x="351.087152" xlink:href="#mbecd527e2c" y="158.185257"/>
     <use style="fill:#1f77b4;fill-opacity:0.4;" x="353.284634" xlink:href="#mbecd527e2c" y="146.266403"/>
     <use style="fill:#1f77b4;fill-opacity:0.4;" x="355.482116" xlink:href="#mbecd527e2c" y="154.538226"/>
    </g>
   </g>
   <g id="PathCollection_2">
    <defs>
     <path d="M -0 4.242641 
L 2.545584 0 
L 0 -4.242641 
L -2.545584 -0 
z
" id="m0b910310ba"/>
    </defs>
    <g clip-path="url(#pac40e01418)">
     <use style="fill:#ff7f0e;fill-opacity:0.4;" x="58.822052" xlink:href="#m0b910310ba" y="156.368669"/>
     <use style="fill:#ff7f0e;fill-opacity:0.4;" x="61.019534" xlink:href="#m0b910310ba" y="156.699622"/>
     <use style="fill:#ff7f0e;fill-opacity:0.4;" x="63.217016" xlink:href="#m0b910310ba" y="154.236637"/>
     <use style="fill:#ff7f0e;fill-opacity:0.4;" x="65.414498" xlink:href="#m0b910310ba" y="157.553629"/>
     <use style="fill:#ff7f0e;fill-opacity:0.4;" x="67.61198" xlink:href="#m0b910310ba" y="156.598859"/>
     <use style="fill:#ff7f0e;fill-opacity:0.4;" x="69.809462" xlink:href="#m0b910310ba" y="162.873236"/>
     <use style="fill:#ff7f0e;fill-opacity:0.4;" x="72.006944" xlink:href="#m0b910310ba" y="160.376066"/>
     <use style="fill:#ff7f0e;fill-opacity:0.4;" x="74.204426" xlink:href="#m0b910310ba" y="154.751581"/>
     <use style="fill:#ff7f0e;fill-opacity:0.4;" x="76.401908" xlink:href="#m0b910310ba" y="156.249723"/>
     <use style="fill:#ff7f0e;fill-opacity:0.4;" x="78.59939" xlink:href="#m0b910310ba" y="155.086861"/>
     <use style="fill:#ff7f0e;fill-opacity:0.4;" x="80.796872" xlink:href="#m0b910310ba" y="156.044895"/>
     <use style="fill:#ff7f0e;fill-opacity:0.4;" x="82.994354" xlink:href="#m0b910310ba" y="151.194839"/>
     <use style="fill:#ff7f0e;fill-opacity:0.4;" x="85.191836" xlink:href="#m0b910310ba" y="154.174481"/>
     <use style="fill:#ff7f0e;fill-opacity:0.4;" x="87.389318" xlink:href="#m0b910310ba" y="154.884753"/>
     <use style="fill:#ff7f0e;fill-opacity:0.4;" x="89.5868" xlink:href="#m0b910310ba" y="151.793151"/>
     <use style="fill:#ff7f0e;fill-opacity:0.4;" x="91.784281" xlink:href="#m0b910310ba" y="160.679273"/>
     <use style="fill:#ff7f0e;fill-opacity:0.4;" x="93.981763" xlink:href="#m0b910310ba" y="161.382615"/>
     <use style="fill:#ff7f0e;fill-opacity:0.4;" x="96.179245" xlink:href="#m0b910310ba" y="158.722188"/>
     <use style="fill:#ff7f0e;fill-opacity:0.4;" x="98.376727" xlink:href="#m0b910310ba" y="154.89391"/>
     <use style="fill:#ff7f0e;fill-opacity:0.4;" x="100.574209" xlink:href="#m0b910310ba" y="153.905283"/>
     <use style="fill:#ff7f0e;fill-opacity:0.4;" x="102.771691" xlink:href="#m0b910310ba" y="160.42288"/>
     <use style="fill:#ff7f0e;fill-opacity:0.4;" x="104.969173" xlink:href="#m0b910310ba" y="155.726254"/>
     <use style="fill:#ff7f0e;fill-opacity:0.4;" x="107.166655" xlink:href="#m0b910310ba" y="148.656237"/>
     <use style="fill:#ff7f0e;fill-opacity:0.4;" x="109.364137" xlink:href="#m0b910310ba" y="148.374755"/>
     <use style="fill:#ff7f0e;fill-opacity:0.4;" x="111.561619" xlink:href="#m0b910310ba" y="153.188193"/>
     <use style="fill:#ff7f0e;fill-opacity:0.4;" x="113.759101" xlink:href="#m0b910310ba" y="154.185199"/>
     <use style="fill:#ff7f0e;fill-opacity:0.4;" x="115.956583" xlink:href="#m0b910310ba" y="151.328894"/>
     <use style="fill:#ff7f0e;fill-opacity:0.4;" x="118.154065" xlink:href="#m0b910310ba" y="151.905437"/>
     <use style="fill:#ff7f0e;fill-opacity:0.4;" x="120.351547" xlink:href="#m0b910310ba" y="152.78406"/>
     <use style="fill:#ff7f0e;fill-opacity:0.4;" x="122.549029" xlink:href="#m0b910310ba" y="149.144897"/>
     <use style="fill:#ff7f0e;fill-opacity:0.4;" x="124.746511" xlink:href="#m0b910310ba" y="157.685855"/>
     <use style="fill:#ff7f0e;fill-opacity:0.4;" x="126.943993" xlink:href="#m0b910310ba" y="152.784514"/>
     <use style="fill:#ff7f0e;fill-opacity:0.4;" x="129.141475" xlink:href="#m0b910310ba" y="145.906686"/>
     <use style="fill:#ff7f0e;fill-opacity:0.4;" x="131.338957" xlink:href="#m0b910310ba" y="148.414245"/>
     <use style="fill:#ff7f0e;fill-opacity:0.4;" x="133.536439" xlink:href="#m0b910310ba" y="146.425572"/>
     <use style="fill:#ff7f0e;fill-opacity:0.4;" x="135.733921" xlink:href="#m0b910310ba" y="146.906548"/>
     <use style="fill:#ff7f0e;fill-opacity:0.4;" x="137.931403" xlink:href="#m0b910310ba" y="145.110477"/>
     <use style="fill:#ff7f0e;fill-opacity:0.4;" x="140.128884" xlink:href="#m0b910310ba" y="148.086559"/>
     <use style="fill:#ff7f0e;fill-opacity:0.4;" x="142.326366" xlink:href="#m0b910310ba" y="150.782901"/>
     <use style="fill:#ff7f0e;fill-opacity:0.4;" x="144.523848" xlink:href="#m0b910310ba" y="148.284629"/>
     <use style="fill:#ff7f0e;fill-opacity:0.4;" x="146.72133" xlink:href="#m0b910310ba" y="145.224299"/>
     <use style="fill:#ff7f0e;fill-opacity:0.4;" x="148.918812" xlink:href="#m0b910310ba" y="144.621377"/>
     <use style="fill:#ff7f0e;fill-opacity:0.4;" x="151.116294" xlink:href="#m0b910310ba" y="145.252976"/>
     <use style="fill:#ff7f0e;fill-opacity:0.4;" x="153.313776" xlink:href="#m0b910310ba" y="139.782494"/>
     <use style="fill:#ff7f0e;fill-opacity:0.4;" x="155.511258" xlink:href="#m0b910310ba" y="139.351762"/>
     <use style="fill:#ff7f0e;fill-opacity:0.4;" x="157.70874" xlink:href="#m0b910310ba" y="140.700078"/>
     <use style="fill:#ff7f0e;fill-opacity:0.4;" x="159.906222" xlink:href="#m0b910310ba" y="141.474901"/>
     <use style="fill:#ff7f0e;fill-opacity:0.4;" x="162.103704" xlink:href="#m0b910310ba" y="133.027132"/>
     <use style="fill:#ff7f0e;fill-opacity:0.4;" x="164.301186" xlink:href="#m0b910310ba" y="138.1054"/>
     <use style="fill:#ff7f0e;fill-opacity:0.4;" x="166.498668" xlink:href="#m0b910310ba" y="136.021088"/>
     <use style="fill:#ff7f0e;fill-opacity:0.4;" x="168.69615" xlink:href="#m0b910310ba" y="134.335222"/>
     <use style="fill:#ff7f0e;fill-opacity:0.4;" x="170.893632" xlink:href="#m0b910310ba" y="130.316933"/>
     <use style="fill:#ff7f0e;fill-opacity:0.4;" x="173.091114" xlink:href="#m0b910310ba" y="128.586492"/>
     <use style="fill:#ff7f0e;fill-opacity:0.4;" x="175.288596" xlink:href="#m0b910310ba" y="124.171865"/>
     <use style="fill:#ff7f0e;fill-opacity:0.4;" x="177.486078" xlink:href="#m0b910310ba" y="123.708955"/>
     <use style="fill:#ff7f0e;fill-opacity:0.4;" x="179.68356" xlink:href="#m0b910310ba" y="127.042222"/>
     <use style="fill:#ff7f0e;fill-opacity:0.4;" x="181.881042" xlink:href="#m0b910310ba" y="124.572404"/>
     <use style="fill:#ff7f0e;fill-opacity:0.4;" x="184.078524" xlink:href="#m0b910310ba" y="111.21366"/>
     <use style="fill:#ff7f0e;fill-opacity:0.4;" x="186.276006" xlink:href="#m0b910310ba" y="103.66638"/>
     <use style="fill:#ff7f0e;fill-opacity:0.4;" x="188.473487" xlink:href="#m0b910310ba" y="102.925265"/>
     <use style="fill:#ff7f0e;fill-opacity:0.4;" x="190.670969" xlink:href="#m0b910310ba" y="92.053106"/>
     <use style="fill:#ff7f0e;fill-opacity:0.4;" x="192.868451" xlink:href="#m0b910310ba" y="89.602651"/>
     <use style="fill:#ff7f0e;fill-opacity:0.4;" x="195.065933" xlink:href="#m0b910310ba" y="85.860945"/>
     <use style="fill:#ff7f0e;fill-opacity:0.4;" x="197.263415" xlink:href="#m0b910310ba" y="78.271471"/>
     <use style="fill:#ff7f0e;fill-opacity:0.4;" x="199.460897" xlink:href="#m0b910310ba" y="73.357117"/>
     <use style="fill:#ff7f0e;fill-opacity:0.4;" x="201.658379" xlink:href="#m0b910310ba" y="64.774711"/>
     <use style="fill:#ff7f0e;fill-opacity:0.4;" x="203.855861" xlink:href="#m0b910310ba" y="67.09905"/>
     <use style="fill:#ff7f0e;fill-opacity:0.4;" x="206.053343" xlink:href="#m0b910310ba" y="59.034157"/>
     <use style="fill:#ff7f0e;fill-opacity:0.4;" x="208.250825" xlink:href="#m0b910310ba" y="49.015783"/>
     <use style="fill:#ff7f0e;fill-opacity:0.4;" x="210.448307" xlink:href="#m0b910310ba" y="49.170533"/>
     <use style="fill:#ff7f0e;fill-opacity:0.4;" x="212.645789" xlink:href="#m0b910310ba" y="47.695906"/>
     <use style="fill:#ff7f0e;fill-opacity:0.4;" x="214.843271" xlink:href="#m0b910310ba" y="32.424233"/>
     <use style="fill:#ff7f0e;fill-opacity:0.4;" x="217.040753" xlink:href="#m0b910310ba" y="44.928455"/>
     <use style="fill:#ff7f0e;fill-opacity:0.4;" x="219.238235" xlink:href="#m0b910310ba" y="43.995578"/>
     <use style="fill:#ff7f0e;fill-opacity:0.4;" x="221.435717" xlink:href="#m0b910310ba" y="35.819148"/>
     <use style="fill:#ff7f0e;fill-opacity:0.4;" x="223.633199" xlink:href="#m0b910310ba" y="36.3219"/>
     <use style="fill:#ff7f0e;fill-opacity:0.4;" x="225.830681" xlink:href="#m0b910310ba" y="42.470497"/>
     <use style="fill:#ff7f0e;fill-opacity:0.4;" x="228.028163" xlink:href="#m0b910310ba" y="31.841096"/>
     <use style="fill:#ff7f0e;fill-opacity:0.4;" x="230.225645" xlink:href="#m0b910310ba" y="49.728452"/>
     <use style="fill:#ff7f0e;fill-opacity:0.4;" x="232.423127" xlink:href="#m0b910310ba" y="40.509498"/>
     <use style="fill:#ff7f0e;fill-opacity:0.4;" x="234.620609" xlink:href="#m0b910310ba" y="43.352549"/>
     <use style="fill:#ff7f0e;fill-opacity:0.4;" x="236.81809" xlink:href="#m0b910310ba" y="49.057876"/>
     <use style="fill:#ff7f0e;fill-opacity:0.4;" x="239.015572" xlink:href="#m0b910310ba" y="50.926317"/>
     <use style="fill:#ff7f0e;fill-opacity:0.4;" x="241.213054" xlink:href="#m0b910310ba" y="60.2854"/>
     <use style="fill:#ff7f0e;fill-opacity:0.4;" x="243.410536" xlink:href="#m0b910310ba" y="64.689012"/>
     <use style="fill:#ff7f0e;fill-opacity:0.4;" x="245.608018" xlink:href="#m0b910310ba" y="69.39394"/>
     <use style="fill:#ff7f0e;fill-opacity:0.4;" x="247.8055" xlink:href="#m0b910310ba" y="75.83499"/>
     <use style="fill:#ff7f0e;fill-opacity:0.4;" x="250.002982" xlink:href="#m0b910310ba" y="81.157497"/>
     <use style="fill:#ff7f0e;fill-opacity:0.4;" x="252.200464" xlink:href="#m0b910310ba" y="76.61854"/>
     <use style="fill:#ff7f0e;fill-opacity:0.4;" x="254.397946" xlink:href="#m0b910310ba" y="94.245744"/>
     <use style="fill:#ff7f0e;fill-opacity:0.4;" x="256.595428" xlink:href="#m0b910310ba" y="94.291761"/>
     <use style="fill:#ff7f0e;fill-opacity:0.4;" x="258.79291" xlink:href="#m0b910310ba" y="97.119961"/>
     <use style="fill:#ff7f0e;fill-opacity:0.4;" x="260.990392" xlink:href="#m0b910310ba" y="102.903611"/>
     <use style="fill:#ff7f0e;fill-opacity:0.4;" x="263.187874" xlink:href="#m0b910310ba" y="109.319369"/>
     <use style="fill:#ff7f0e;fill-opacity:0.4;" x="265.385356" xlink:href="#m0b910310ba" y="112.957314"/>
     <use style="fill:#ff7f0e;fill-opacity:0.4;" x="267.582838" xlink:href="#m0b910310ba" y="119.590219"/>
     <use style="fill:#ff7f0e;fill-opacity:0.4;" x="269.78032" xlink:href="#m0b910310ba" y="119.329008"/>
     <use style="fill:#ff7f0e;fill-opacity:0.4;" x="271.977802" xlink:href="#m0b910310ba" y="124.279156"/>
     <use style="fill:#ff7f0e;fill-opacity:0.4;" x="274.175284" xlink:href="#m0b910310ba" y="127.619724"/>
     <use style="fill:#ff7f0e;fill-opacity:0.4;" x="276.372766" xlink:href="#m0b910310ba" y="126.311593"/>
     <use style="fill:#ff7f0e;fill-opacity:0.4;" x="278.570248" xlink:href="#m0b910310ba" y="134.197611"/>
     <use style="fill:#ff7f0e;fill-opacity:0.4;" x="280.76773" xlink:href="#m0b910310ba" y="135.188378"/>
     <use style="fill:#ff7f0e;fill-opacity:0.4;" x="282.965211" xlink:href="#m0b910310ba" y="132.552737"/>
     <use style="fill:#ff7f0e;fill-opacity:0.4;" x="285.162693" xlink:href="#m0b910310ba" y="134.457268"/>
     <use style="fill:#ff7f0e;fill-opacity:0.4;" x="287.360175" xlink:href="#m0b910310ba" y="142.838818"/>
     <use style="fill:#ff7f0e;fill-opacity:0.4;" x="289.557657" xlink:href="#m0b910310ba" y="140.639911"/>
     <use style="fill:#ff7f0e;fill-opacity:0.4;" x="291.755139" xlink:href="#m0b910310ba" y="143.138795"/>
     <use style="fill:#ff7f0e;fill-opacity:0.4;" x="293.952621" xlink:href="#m0b910310ba" y="139.709302"/>
     <use style="fill:#ff7f0e;fill-opacity:0.4;" x="296.150103" xlink:href="#m0b910310ba" y="145.343964"/>
     <use style="fill:#ff7f0e;fill-opacity:0.4;" x="298.347585" xlink:href="#m0b910310ba" y="142.301944"/>
     <use style="fill:#ff7f0e;fill-opacity:0.4;" x="300.545067" xlink:href="#m0b910310ba" y="146.008922"/>
     <use style="fill:#ff7f0e;fill-opacity:0.4;" x="302.742549" xlink:href="#m0b910310ba" y="143.700266"/>
     <use style="fill:#ff7f0e;fill-opacity:0.4;" x="304.940031" xlink:href="#m0b910310ba" y="148.813856"/>
     <use style="fill:#ff7f0e;fill-opacity:0.4;" x="307.137513" xlink:href="#m0b910310ba" y="143.897235"/>
     <use style="fill:#ff7f0e;fill-opacity:0.4;" x="309.334995" xlink:href="#m0b910310ba" y="148.812092"/>
     <use style="fill:#ff7f0e;fill-opacity:0.4;" x="311.532477" xlink:href="#m0b910310ba" y="152.500065"/>
     <use style="fill:#ff7f0e;fill-opacity:0.4;" x="313.729959" xlink:href="#m0b910310ba" y="147.582801"/>
     <use style="fill:#ff7f0e;fill-opacity:0.4;" x="315.927441" xlink:href="#m0b910310ba" y="149.708982"/>
     <use style="fill:#ff7f0e;fill-opacity:0.4;" x="318.124923" xlink:href="#m0b910310ba" y="156.171819"/>
     <use style="fill:#ff7f0e;fill-opacity:0.4;" x="320.322405" xlink:href="#m0b910310ba" y="149.939917"/>
     <use style="fill:#ff7f0e;fill-opacity:0.4;" x="322.519887" xlink:href="#m0b910310ba" y="156.61219"/>
     <use style="fill:#ff7f0e;fill-opacity:0.4;" x="324.717369" xlink:href="#m0b910310ba" y="154.943732"/>
     <use style="fill:#ff7f0e;fill-opacity:0.4;" x="326.914851" xlink:href="#m0b910310ba" y="151.204383"/>
     <use style="fill:#ff7f0e;fill-opacity:0.4;" x="329.112333" xlink:href="#m0b910310ba" y="146.908354"/>
     <use style="fill:#ff7f0e;fill-opacity:0.4;" x="331.309814" xlink:href="#m0b910310ba" y="155.591482"/>
     <use style="fill:#ff7f0e;fill-opacity:0.4;" x="333.507296" xlink:href="#m0b910310ba" y="157.023295"/>
     <use style="fill:#ff7f0e;fill-opacity:0.4;" x="335.704778" xlink:href="#m0b910310ba" y="151.585371"/>
     <use style="fill:#ff7f0e;fill-opacity:0.4;" x="337.90226" xlink:href="#m0b910310ba" y="159.51772"/>
     <use style="fill:#ff7f0e;fill-opacity:0.4;" x="340.099742" xlink:href="#m0b910310ba" y="163.206261"/>
     <use style="fill:#ff7f0e;fill-opacity:0.4;" x="342.297224" xlink:href="#m0b910310ba" y="158.314939"/>
     <use style="fill:#ff7f0e;fill-opacity:0.4;" x="344.494706" xlink:href="#m0b910310ba" y="157.398189"/>
     <use style="fill:#ff7f0e;fill-opacity:0.4;" x="346.692188" xlink:href="#m0b910310ba" y="157.971567"/>
     <use style="fill:#ff7f0e;fill-opacity:0.4;" x="348.88967" xlink:href="#m0b910310ba" y="157.330505"/>
     <use style="fill:#ff7f0e;fill-opacity:0.4;" x="351.087152" xlink:href="#m0b910310ba" y="155.925492"/>
     <use style="fill:#ff7f0e;fill-opacity:0.4;" x="353.284634" xlink:href="#m0b910310ba" y="163.935063"/>
     <use style="fill:#ff7f0e;fill-opacity:0.4;" x="355.482116" xlink:href="#m0b910310ba" y="155.486122"/>
     <use style="fill:#ff7f0e;fill-opacity:0.4;" x="357.679598" xlink:href="#m0b910310ba" y="147.468263"/>
     <use style="fill:#ff7f0e;fill-opacity:0.4;" x="359.87708" xlink:href="#m0b910310ba" y="156.178651"/>
     <use style="fill:#ff7f0e;fill-opacity:0.4;" x="362.074562" xlink:href="#m0b910310ba" y="159.491256"/>
     <use style="fill:#ff7f0e;fill-opacity:0.4;" x="364.272044" xlink:href="#m0b910310ba" y="157.076069"/>
     <use style="fill:#ff7f0e;fill-opacity:0.4;" x="366.469526" xlink:href="#m0b910310ba" y="153.685153"/>
    </g>
   </g>
   <g id="patch_3">
    <path d="M 42.340938 173.7125 
L 42.340938 7.2 
" style="fill:none;stroke:#000000;stroke-linecap:square;stroke-linejoin:miter;stroke-width:0.8;"/>
   </g>
   <g id="patch_4">
    <path d="M 404.92546 173.7125 
L 404.92546 7.2 
" style="fill:none;stroke:#000000;stroke-linecap:square;stroke-linejoin:miter;stroke-width:0.8;"/>
   </g>
   <g id="patch_5">
    <path d="M 42.340937 173.7125 
L 404.92546 173.7125 
" style="fill:none;stroke:#000000;stroke-linecap:square;stroke-linejoin:miter;stroke-width:0.8;"/>
   </g>
   <g id="patch_6">
    <path d="M 42.340937 7.2 
L 404.92546 7.2 
" style="fill:none;stroke:#000000;stroke-linecap:square;stroke-linejoin:miter;stroke-width:0.8;"/>
   </g>
   <g id="line2d_19">
    <path clip-path="url(#pac40e01418)" d="M 58.822052 156.119299 
L 83.923549 155.921809 
L 98.455995 155.603427 
L 109.025047 155.156365 
L 116.951835 154.614025 
L 123.557492 153.956413 
L 129.502584 153.14087 
L 134.78711 152.178831 
L 139.41107 151.102094 
L 143.374464 149.963213 
L 147.337858 148.583764 
L 150.640687 147.217885 
L 153.943516 145.623842 
L 157.246344 143.768854 
L 160.549173 141.617215 
L 163.191436 139.656701 
L 165.833698 137.461484 
L 168.475961 135.010788 
L 171.118224 132.284009 
L 173.760487 129.261413 
L 176.40275 125.92505 
L 179.045013 122.259899 
L 181.687276 118.255279 
L 184.329539 113.906534 
L 187.632367 107.992662 
L 190.935196 101.576397 
L 194.89859 93.302476 
L 200.183116 81.609571 
L 206.788773 66.943585 
L 210.091602 60.138142 
L 212.733864 55.203176 
L 214.715562 51.897402 
L 216.697259 48.998297 
L 218.678956 46.561954 
L 220.000087 45.219464 
L 221.321219 44.117144 
L 222.64235 43.265401 
L 223.963482 42.672397 
L 225.284613 42.343878 
L 226.605744 42.283047 
L 227.926876 42.490501 
L 229.248007 42.964212 
L 230.569139 43.699573 
L 231.89027 44.6895 
L 233.211402 45.924578 
L 234.532533 47.393259 
L 236.51423 50.004416 
L 238.495927 53.058565 
L 240.477625 56.497662 
L 243.119887 61.574787 
L 246.422716 68.500403 
L 251.707242 80.262082 
L 257.652333 93.435714 
L 261.615727 101.700904 
L 264.918556 108.108208 
L 268.221385 114.0123 
L 271.524213 119.384327 
L 274.166476 123.29538 
L 276.808739 126.869363 
L 279.451002 130.118297 
L 282.093265 133.058134 
L 284.735528 135.707416 
L 287.37779 138.086194 
L 290.020053 140.215182 
L 293.322882 142.556683 
L 296.625711 144.579585 
L 299.928539 146.321123 
L 303.231368 147.815813 
L 306.534196 149.095148 
L 310.497591 150.385815 
L 314.460985 151.450297 
L 319.084945 152.455714 
L 324.369471 153.353149 
L 330.314562 154.113194 
L 336.920219 154.725489 
L 344.847008 155.229997 
L 354.755494 155.625777 
L 367.966808 155.913022 
L 387.78378 156.09389 
L 388.444345 156.09717 
L 388.444345 156.09717 
" style="fill:none;stroke:#000000;stroke-dasharray:3.7,1.6;stroke-dashoffset:0;"/>
   </g>
   <g id="line2d_20">
    <path clip-path="url(#pac40e01418)" d="M 58.822052 156.114666 
L 83.262984 155.908919 
L 97.134864 155.591057 
L 107.04335 155.164306 
L 114.970138 154.617424 
L 121.575795 153.950911 
L 127.520887 153.120668 
L 132.805413 152.137421 
L 137.429373 151.033126 
L 141.392767 149.861595 
L 145.356161 148.43867 
L 148.65899 147.026204 
L 151.961818 145.37403 
L 155.264647 143.447041 
L 158.567476 141.206874 
L 161.209738 139.161643 
L 163.852001 136.867563 
L 166.494264 134.302091 
L 169.136527 131.442795 
L 171.77879 128.268103 
L 174.421053 124.75829 
L 177.063316 120.896733 
L 179.705579 116.67145 
L 182.347841 112.076956 
L 185.65067 105.820463 
L 188.953499 99.023961 
L 192.916893 90.251048 
L 198.201419 77.847576 
L 204.807076 62.313048 
L 208.109904 55.131993 
L 210.752167 49.947649 
L 212.733864 46.492968 
L 214.715562 43.482937 
L 216.697259 40.977585 
L 218.01839 39.613864 
L 219.339522 38.510825 
L 220.660653 37.679181 
L 221.981784 37.127118 
L 223.302916 36.860129 
L 224.624047 36.880884 
L 225.945179 37.189174 
L 227.26631 37.781918 
L 228.587442 38.653227 
L 229.908573 39.794538 
L 231.229704 41.194794 
L 232.550836 42.84068 
L 234.532533 45.736134 
L 236.51423 49.091066 
L 238.495927 52.841088 
L 241.13819 58.338192 
L 244.441019 65.779796 
L 251.046676 81.444781 
L 255.670636 92.183523 
L 259.63403 100.823579 
L 262.936859 107.485733 
L 266.239688 113.596845 
L 268.88195 118.072323 
L 271.524213 122.179523 
L 274.166476 125.926241 
L 276.808739 129.326141 
L 279.451002 132.397001 
L 282.093265 135.159262 
L 284.735528 137.63487 
L 287.37779 139.846364 
L 290.020053 141.816193 
L 293.322882 143.971841 
L 296.625711 145.824487 
L 299.928539 147.411684 
L 303.231368 148.767667 
L 307.194762 150.132781 
L 311.158156 151.255991 
L 315.782116 152.314096 
L 320.406076 153.151373 
L 325.690602 153.89413 
L 332.296259 154.57722 
L 339.562482 155.099624 
L 348.810402 155.529722 
L 360.700585 155.844676 
L 377.875294 156.054254 
L 388.444345 156.112779 
L 388.444345 156.112779 
" style="fill:none;stroke:#000000;stroke-linecap:square;"/>
   </g>
   <g id="legend_1">
    <g id="line2d_21"/>
    <g id="line2d_22">
     <defs>
      <path d="M 0 4 
C 1.060812 4 2.078319 3.578535 2.828427 2.828427 
C 3.578535 2.078319 4 1.060812 4 0 
C 4 -1.060812 3.578535 -2.078319 2.828427 -2.828427 
C 2.078319 -3.578535 1.060812 -4 0 -4 
C -1.060812 -4 -2.078319 -3.578535 -2.828427 -2.828427 
C -3.578535 -2.078319 -4 -1.060812 -4 0 
C -4 1.060812 -3.578535 2.078319 -2.828427 2.828427 
C -2.078319 3.578535 -1.060812 4 0 4 
z
" id="m634bc1a18d"/>
     </defs>
     <g>
      <use style="fill:#1f77b4;opacity:0.4;" x="56.140938" xlink:href="#m634bc1a18d" y="73.841688"/>
     </g>
    </g>
    <g id="text_11">
     <!-- $0 \rightarrow 1$ -->
     <defs>
      <path d="M 85.59375 25.796875 
L 85.59375 24.796875 
Q 74.09375 19.90625 61.796875 5.703125 
L 59.796875 7.59375 
Q 62.59375 11.59375 68 17.203125 
Q 69.40625 18.59375 69.40625 20 
Q 69.40625 22 66.796875 22 
L 7 22 
L 7 28.59375 
L 66.90625 28.59375 
Q 67.703125 28.59375 68.59375 29.34375 
Q 69.5 30.09375 69.5 30.796875 
Q 69.5 31.90625 68.09375 33.296875 
Q 63 38.203125 59.90625 42.90625 
L 61.90625 44.796875 
Q 74.296875 30.5 85.59375 25.796875 
z
" id="STIXGeneral-Regular-2192"/>
      <path d="M 9.578125 49.515625 
L 9.578125 56.25 
Q 19.09375 57.171875 22.84375 59.34375 
Q 26.609375 61.53125 28.46875 69.625 
L 35.40625 69.625 
L 35.40625 0 
L 26.03125 0 
L 26.03125 49.515625 
z
" id="Helvetica-31"/>
     </defs>
     <g transform="translate(65.140938 78.041688)scale(0.12 -0.12)">
      <use transform="translate(0 0.078125)" xlink:href="#Helvetica-30"/>
      <use transform="translate(72.275391 0.078125)" xlink:href="#STIXGeneral-Regular-2192"/>
      <use transform="translate(181.535538 0.078125)" xlink:href="#Helvetica-31"/>
     </g>
    </g>
    <g id="line2d_23">
     <path d="M 50.140938 99.115 
L 62.140938 99.115 
" style="fill:none;stroke:#000000;stroke-dasharray:3.7,1.6;stroke-dashoffset:0;"/>
    </g>
    <g id="line2d_24"/>
    <g id="text_12">
     <!-- $|g| = 0.48$, -->
     <defs>
      <path d="M 15.375 0 
L 7.03125 0 
L 7.03125 72.75 
L 15.375 72.75 
z
" id="Helvetica-7c"/>
      <path d="M 24.90625 53.21875 
Q 31.0625 53.21875 35.640625 50.203125 
Q 38.140625 48.484375 40.71875 45.21875 
L 40.71875 51.8125 
L 48.828125 51.8125 
L 48.828125 4.25 
Q 48.828125 -5.71875 45.90625 -11.46875 
Q 40.4375 -22.125 25.25 -22.125 
Q 16.796875 -22.125 11.03125 -18.328125 
Q 5.28125 -14.546875 4.59375 -6.5 
L 13.53125 -6.5 
Q 14.15625 -10.015625 16.0625 -11.921875 
Q 19.046875 -14.84375 25.4375 -14.84375 
Q 35.546875 -14.84375 38.671875 -7.71875 
Q 40.53125 -3.515625 40.375 7.28125 
Q 37.75 3.265625 34.03125 1.3125 
Q 30.328125 -0.640625 24.21875 -0.640625 
Q 15.71875 -0.640625 9.34375 5.390625 
Q 2.984375 11.421875 2.984375 25.34375 
Q 2.984375 38.484375 9.40625 45.84375 
Q 15.828125 53.21875 24.90625 53.21875 
z
M 40.71875 26.375 
Q 40.71875 36.078125 36.71875 40.765625 
Q 32.71875 45.453125 26.515625 45.453125 
Q 17.234375 45.453125 13.8125 36.765625 
Q 12.015625 32.125 12.015625 24.609375 
Q 12.015625 15.765625 15.59375 11.15625 
Q 19.1875 6.546875 25.25 6.546875 
Q 34.71875 6.546875 38.578125 15.09375 
Q 40.71875 19.921875 40.71875 26.375 
z
M 25.921875 53.5625 
z
" id="Helvetica-67"/>
      <path d="M 55.421875 40.140625 
L 55.421875 31.9375 
L 4.5 31.9375 
L 4.5 40.140625 
z
M 55.421875 19.1875 
L 55.421875 10.84375 
L 4.5 10.84375 
L 4.5 19.1875 
z
" id="Helvetica-3d"/>
      <path d="M 27.203125 40.625 
Q 33.015625 40.625 36.28125 43.875 
Q 39.546875 47.125 39.546875 51.609375 
Q 39.546875 55.515625 36.421875 58.78125 
Q 33.296875 62.0625 26.90625 62.0625 
Q 20.5625 62.0625 17.71875 58.78125 
Q 14.890625 55.515625 14.890625 51.125 
Q 14.890625 46.1875 18.546875 43.40625 
Q 22.21875 40.625 27.203125 40.625 
z
M 27.734375 6 
Q 33.84375 6 37.859375 9.296875 
Q 41.890625 12.59375 41.890625 19.140625 
Q 41.890625 25.921875 37.734375 29.4375 
Q 33.59375 32.953125 27.09375 32.953125 
Q 20.796875 32.953125 16.8125 29.359375 
Q 12.84375 25.78125 12.84375 19.4375 
Q 12.84375 13.96875 16.484375 9.984375 
Q 20.125 6 27.734375 6 
z
M 15.234375 37.25 
Q 11.578125 38.8125 9.515625 40.921875 
Q 5.671875 44.828125 5.671875 51.078125 
Q 5.671875 58.890625 11.328125 64.5 
Q 17 70.125 27.390625 70.125 
Q 37.453125 70.125 43.15625 64.8125 
Q 48.875 59.515625 48.875 52.4375 
Q 48.875 45.90625 45.5625 41.84375 
Q 43.703125 39.546875 39.796875 37.359375 
Q 44.140625 35.359375 46.625 32.765625 
Q 51.265625 27.875 51.265625 20.0625 
Q 51.265625 10.84375 45.0625 4.421875 
Q 38.875 -2 27.546875 -2 
Q 17.328125 -2 10.265625 3.53125 
Q 3.21875 9.078125 3.21875 19.625 
Q 3.21875 25.828125 6.25 30.34375 
Q 9.28125 34.859375 15.234375 37.25 
z
" id="Helvetica-38"/>
      <path d="M 8.296875 -10.203125 
Q 11.671875 -9.625 13.03125 -5.46875 
Q 13.765625 -3.265625 13.765625 -1.21875 
Q 13.765625 -0.875 13.734375 -0.609375 
Q 13.71875 -0.34375 13.625 0 
L 8.296875 0 
L 8.296875 10.640625 
L 18.75 10.640625 
L 18.75 0.78125 
Q 18.75 -5.03125 16.40625 -9.421875 
Q 14.0625 -13.8125 8.296875 -14.84375 
z
" id="Helvetica-2c"/>
     </defs>
     <g transform="translate(65.140938 95.806938)scale(0.12 -0.12)">
      <use transform="translate(0 0.25)" xlink:href="#Helvetica-7c"/>
      <use transform="translate(25.976562 0.25)" xlink:href="#Helvetica-67"/>
      <use transform="translate(81.591797 0.25)" xlink:href="#Helvetica-7c"/>
      <use transform="translate(124.228516 0.25)" xlink:href="#Helvetica-3d"/>
      <use transform="translate(199.287109 0.25)" xlink:href="#Helvetica-30"/>
      <use transform="translate(254.902344 0.25)" xlink:href="#Helvetica-2e"/>
      <use transform="translate(282.685547 0.25)" xlink:href="#Helvetica-34"/>
      <use transform="translate(338.300781 0.25)" xlink:href="#Helvetica-38"/>
      <use transform="translate(393.916016 0.25)" xlink:href="#Helvetica-2c"/>
     </g>
     <!-- $\Delta S(B=0T) / k_B = 0.65$ -->
     <defs>
      <path d="M 29.25 70.21875 
Q 40.96875 70.21875 45.578125 64.140625 
Q 50.203125 58.0625 50.203125 51.609375 
L 41.5 51.609375 
Q 40.71875 55.765625 39.015625 58.109375 
Q 35.84375 62.5 29.390625 62.5 
Q 22.015625 62.5 17.671875 55.6875 
Q 13.328125 48.875 12.84375 36.1875 
Q 15.875 40.625 20.453125 42.828125 
Q 24.65625 44.78125 29.828125 44.78125 
Q 38.625 44.78125 45.15625 39.15625 
Q 51.703125 33.546875 51.703125 22.40625 
Q 51.703125 12.890625 45.5 5.53125 
Q 39.3125 -1.8125 27.828125 -1.8125 
Q 18.015625 -1.8125 10.890625 5.640625 
Q 3.765625 13.09375 3.765625 30.71875 
Q 3.765625 43.75 6.9375 52.828125 
Q 13.03125 70.21875 29.25 70.21875 
z
M 28.609375 6 
Q 35.546875 6 38.984375 10.65625 
Q 42.4375 15.328125 42.4375 21.6875 
Q 42.4375 27.046875 39.359375 31.90625 
Q 36.28125 36.765625 28.171875 36.765625 
Q 22.515625 36.765625 18.234375 33 
Q 13.96875 29.25 13.96875 21.6875 
Q 13.96875 15.046875 17.84375 10.515625 
Q 21.734375 6 28.609375 6 
z
" id="Helvetica-36"/>
      <path d="M 12.359375 17.828125 
Q 13.234375 10.296875 19.34375 7.421875 
Q 22.46875 5.953125 26.5625 5.953125 
Q 34.375 5.953125 38.125 10.9375 
Q 41.890625 15.921875 41.890625 21.96875 
Q 41.890625 29.296875 37.421875 33.296875 
Q 32.953125 37.3125 26.703125 37.3125 
Q 22.171875 37.3125 18.921875 35.546875 
Q 15.671875 33.796875 13.375 30.671875 
L 5.765625 31.109375 
L 11.078125 68.75 
L 47.40625 68.75 
L 47.40625 60.25 
L 17.671875 60.25 
L 14.703125 40.828125 
Q 17.140625 42.671875 19.34375 43.609375 
Q 23.25 45.21875 28.375 45.21875 
Q 37.984375 45.21875 44.671875 39.015625 
Q 51.375 32.8125 51.375 23.296875 
Q 51.375 13.375 45.234375 5.796875 
Q 39.109375 -1.765625 25.6875 -1.765625 
Q 17.140625 -1.765625 10.5625 3.046875 
Q 4 7.859375 3.21875 17.828125 
z
" id="Helvetica-35"/>
     </defs>
     <g transform="translate(65.140938 109.222938)scale(0.12 -0.12)">
      <use transform="translate(0 0.3125)" xlink:href="#Helvetica-394"/>
      <use transform="translate(72.216797 0.3125)" xlink:href="#Helvetica-53"/>
      <use transform="translate(138.916016 0.3125)" xlink:href="#Helvetica-28"/>
      <use transform="translate(172.216797 0.3125)" xlink:href="#Helvetica-42"/>
      <use transform="translate(255.576172 0.3125)" xlink:href="#Helvetica-3d"/>
      <use transform="translate(330.634766 0.3125)" xlink:href="#Helvetica-30"/>
      <use transform="translate(386.25 0.3125)" xlink:href="#Helvetica-54"/>
      <use transform="translate(447.333984 0.3125)" xlink:href="#Helvetica-29"/>
      <use transform="translate(480.634766 0.3125)" xlink:href="#Helvetica-2f"/>
      <use transform="translate(508.417969 0.3125)" xlink:href="#Helvetica-6b"/>
      <use transform="translate(559.333164 -15.376563)scale(0.7)" xlink:href="#Helvetica-42"/>
      <use transform="translate(625.297617 0.3125)" xlink:href="#Helvetica-3d"/>
      <use transform="translate(700.356211 0.3125)" xlink:href="#Helvetica-30"/>
      <use transform="translate(755.971445 0.3125)" xlink:href="#Helvetica-2e"/>
      <use transform="translate(783.754648 0.3125)" xlink:href="#Helvetica-36"/>
      <use transform="translate(839.369883 0.3125)" xlink:href="#Helvetica-35"/>
     </g>
    </g>
   </g>
   <g id="legend_2">
    <g id="line2d_25"/>
    <g id="line2d_26">
     <defs>
      <path d="M 0 4 
C 1.060812 4 2.078319 3.578535 2.828427 2.828427 
C 3.578535 2.078319 4 1.060812 4 0 
C 4 -1.060812 3.578535 -2.078319 2.828427 -2.828427 
C 2.078319 -3.578535 1.060812 -4 0 -4 
C -1.060812 -4 -2.078319 -3.578535 -2.828427 -2.828427 
C -3.578535 -2.078319 -4 -1.060812 -4 0 
C -4 1.060812 -3.578535 2.078319 -2.828427 2.828427 
C -2.078319 3.578535 -1.060812 4 0 4 
z
" id="m78bb4635e4"/>
     </defs>
     <g>
      <use style="fill:#ff7f0e;opacity:0.4;" x="280.72546" xlink:href="#m78bb4635e4" y="73.841688"/>
     </g>
    </g>
    <g id="text_13">
     <!-- $2 \rightarrow 3$ -->
     <defs>
      <path d="M 25.984375 -1.90625 
Q 13.578125 -1.90625 7.984375 4.90625 
Q 2.390625 11.71875 2.390625 21.484375 
L 11.578125 21.484375 
Q 12.15625 14.703125 14.109375 11.625 
Q 17.53125 6.109375 26.46875 6.109375 
Q 33.40625 6.109375 37.59375 9.8125 
Q 41.796875 13.53125 41.796875 19.390625 
Q 41.796875 26.609375 37.375 29.484375 
Q 32.953125 32.375 25.09375 32.375 
Q 24.21875 32.375 23.3125 32.34375 
Q 22.40625 32.328125 21.484375 32.28125 
L 21.484375 40.046875 
Q 22.859375 39.890625 23.78125 39.84375 
Q 24.703125 39.796875 25.78125 39.796875 
Q 30.71875 39.796875 33.890625 41.359375 
Q 39.453125 44.09375 39.453125 51.125 
Q 39.453125 56.34375 35.734375 59.171875 
Q 32.03125 62.015625 27.09375 62.015625 
Q 18.3125 62.015625 14.9375 56.15625 
Q 13.09375 52.9375 12.84375 46.96875 
L 4.15625 46.96875 
Q 4.15625 54.78125 7.28125 60.25 
Q 12.640625 70.015625 26.171875 70.015625 
Q 36.859375 70.015625 42.71875 65.25 
Q 48.578125 60.5 48.578125 51.46875 
Q 48.578125 45.015625 45.125 41.015625 
Q 42.96875 38.53125 39.546875 37.109375 
Q 45.0625 35.59375 48.15625 31.265625 
Q 51.265625 26.953125 51.265625 20.703125 
Q 51.265625 10.6875 44.671875 4.390625 
Q 38.09375 -1.90625 25.984375 -1.90625 
z
" id="Helvetica-33"/>
     </defs>
     <g transform="translate(289.72546 78.041688)scale(0.12 -0.12)">
      <use transform="translate(0 0.828125)" xlink:href="#Helvetica-32"/>
      <use transform="translate(72.275391 0.828125)" xlink:href="#STIXGeneral-Regular-2192"/>
      <use transform="translate(181.535538 0.828125)" xlink:href="#Helvetica-33"/>
     </g>
    </g>
    <g id="line2d_27">
     <path d="M 274.72546 99.115 
L 286.72546 99.115 
" style="fill:none;stroke:#000000;stroke-linecap:square;"/>
    </g>
    <g id="line2d_28"/>
    <g id="text_14">
     <!-- $|g| = 0.44$, -->
     <g transform="translate(289.72546 95.806938)scale(0.12 -0.12)">
      <use transform="translate(0 0.25)" xlink:href="#Helvetica-7c"/>
      <use transform="translate(25.976562 0.25)" xlink:href="#Helvetica-67"/>
      <use transform="translate(81.591797 0.25)" xlink:href="#Helvetica-7c"/>
      <use transform="translate(124.228516 0.25)" xlink:href="#Helvetica-3d"/>
      <use transform="translate(199.287109 0.25)" xlink:href="#Helvetica-30"/>
      <use transform="translate(254.902344 0.25)" xlink:href="#Helvetica-2e"/>
      <use transform="translate(282.685547 0.25)" xlink:href="#Helvetica-34"/>
      <use transform="translate(338.300781 0.25)" xlink:href="#Helvetica-34"/>
      <use transform="translate(393.916016 0.25)" xlink:href="#Helvetica-2c"/>
     </g>
     <!-- $\Delta S(B=0T) / k_B = 0.68$ -->
     <g transform="translate(289.72546 109.222938)scale(0.12 -0.12)">
      <use transform="translate(0 0.3125)" xlink:href="#Helvetica-394"/>
      <use transform="translate(72.216797 0.3125)" xlink:href="#Helvetica-53"/>
      <use transform="translate(138.916016 0.3125)" xlink:href="#Helvetica-28"/>
      <use transform="translate(172.216797 0.3125)" xlink:href="#Helvetica-42"/>
      <use transform="translate(255.576172 0.3125)" xlink:href="#Helvetica-3d"/>
      <use transform="translate(330.634766 0.3125)" xlink:href="#Helvetica-30"/>
      <use transform="translate(386.25 0.3125)" xlink:href="#Helvetica-54"/>
      <use transform="translate(447.333984 0.3125)" xlink:href="#Helvetica-29"/>
      <use transform="translate(480.634766 0.3125)" xlink:href="#Helvetica-2f"/>
      <use transform="translate(508.417969 0.3125)" xlink:href="#Helvetica-6b"/>
      <use transform="translate(559.333164 -15.376563)scale(0.7)" xlink:href="#Helvetica-42"/>
      <use transform="translate(625.297617 0.3125)" xlink:href="#Helvetica-3d"/>
      <use transform="translate(700.356211 0.3125)" xlink:href="#Helvetica-30"/>
      <use transform="translate(755.971445 0.3125)" xlink:href="#Helvetica-2e"/>
      <use transform="translate(783.754648 0.3125)" xlink:href="#Helvetica-36"/>
      <use transform="translate(839.369883 0.3125)" xlink:href="#Helvetica-38"/>
     </g>
    </g>
   </g>
  </g>
 </g>
 <defs>
  <clipPath id="pac40e01418">
   <rect height="166.5125" width="362.584522" x="42.340938" y="7.2"/>
  </clipPath>
 </defs>
</svg>
