<?xml version="1.0" encoding="utf-8" standalone="no"?>
<!DOCTYPE svg PUBLIC "-//W3C//DTD SVG 1.1//EN"
  "http://www.w3.org/Graphics/SVG/1.1/DTD/svg11.dtd">
<!-- Created with matplotlib (http://matplotlib.org/) -->
<svg height="252pt" version="1.1" viewBox="0 0 288 252" width="288pt" xmlns="http://www.w3.org/2000/svg" xmlns:xlink="http://www.w3.org/1999/xlink">
 <defs>
  <style type="text/css">
*{stroke-linecap:butt;stroke-linejoin:round;}
  </style>
 </defs>
 <g id="figure_1">
  <g id="patch_1">
   <path d="M 0 252 
L 288 252 
L 288 0 
L 0 0 
z
" style="fill:#ffffff;"/>
  </g>
  <g id="axes_1">
   <g id="patch_2">
    <path d="M 36 220.5 
L 259.2 220.5 
L 259.2 30.24 
L 36 30.24 
z
" style="fill:#ffffff;"/>
   </g>
   <g id="matplotlib.axis_1">
    <g id="xtick_1">
     <g id="line2d_1">
      <defs>
       <path d="M 0 0 
L 0 -3.5 
" id="madea6abc0f" style="stroke:#000000;stroke-width:0.8;"/>
      </defs>
      <g>
       <use style="stroke:#000000;stroke-width:0.8;" x="46.145455" xlink:href="#madea6abc0f" y="220.5"/>
      </g>
     </g>
     <g id="line2d_2">
      <defs>
       <path d="M 0 0 
L 0 3.5 
" id="m4033e6efb0" style="stroke:#000000;stroke-width:0.8;"/>
      </defs>
      <g>
       <use style="stroke:#000000;stroke-width:0.8;" x="46.145455" xlink:href="#m4033e6efb0" y="30.24"/>
      </g>
     </g>
    </g>
    <g id="xtick_2">
     <g id="line2d_3">
      <g>
       <use style="stroke:#000000;stroke-width:0.8;" x="96.872727" xlink:href="#madea6abc0f" y="220.5"/>
      </g>
     </g>
     <g id="line2d_4">
      <g>
       <use style="stroke:#000000;stroke-width:0.8;" x="96.872727" xlink:href="#m4033e6efb0" y="30.24"/>
      </g>
     </g>
    </g>
    <g id="xtick_3">
     <g id="line2d_5">
      <g>
       <use style="stroke:#000000;stroke-width:0.8;" x="147.6" xlink:href="#madea6abc0f" y="220.5"/>
      </g>
     </g>
     <g id="line2d_6">
      <g>
       <use style="stroke:#000000;stroke-width:0.8;" x="147.6" xlink:href="#m4033e6efb0" y="30.24"/>
      </g>
     </g>
    </g>
    <g id="xtick_4">
     <g id="line2d_7">
      <g>
       <use style="stroke:#000000;stroke-width:0.8;" x="198.327273" xlink:href="#madea6abc0f" y="220.5"/>
      </g>
     </g>
     <g id="line2d_8">
      <g>
       <use style="stroke:#000000;stroke-width:0.8;" x="198.327273" xlink:href="#m4033e6efb0" y="30.24"/>
      </g>
     </g>
    </g>
    <g id="xtick_5">
     <g id="line2d_9">
      <g>
       <use style="stroke:#000000;stroke-width:0.8;" x="249.054545" xlink:href="#madea6abc0f" y="220.5"/>
      </g>
     </g>
     <g id="line2d_10">
      <g>
       <use style="stroke:#000000;stroke-width:0.8;" x="249.054545" xlink:href="#m4033e6efb0" y="30.24"/>
      </g>
     </g>
    </g>
    <g id="text_1">
     <!-- $V_{g}$ -->
     <defs>
      <path d="M 13.28125 71.734375 
L 33.890625 10.640625 
L 54.25 71.734375 
L 65.140625 71.734375 
L 38.96875 0 
L 28.65625 0 
L 2.546875 71.734375 
z
" id="Helvetica-56"/>
      <path d="M 24.90625 53.21875 
Q 31.0625 53.21875 35.640625 50.203125 
Q 38.140625 48.484375 40.71875 45.21875 
L 40.71875 51.8125 
L 48.828125 51.8125 
L 48.828125 4.25 
Q 48.828125 -5.71875 45.90625 -11.46875 
Q 40.4375 -22.125 25.25 -22.125 
Q 16.796875 -22.125 11.03125 -18.328125 
Q 5.28125 -14.546875 4.59375 -6.5 
L 13.53125 -6.5 
Q 14.15625 -10.015625 16.0625 -11.921875 
Q 19.046875 -14.84375 25.4375 -14.84375 
Q 35.546875 -14.84375 38.671875 -7.71875 
Q 40.53125 -3.515625 40.375 7.28125 
Q 37.75 3.265625 34.03125 1.3125 
Q 30.328125 -0.640625 24.21875 -0.640625 
Q 15.71875 -0.640625 9.34375 5.390625 
Q 2.984375 11.421875 2.984375 25.34375 
Q 2.984375 38.484375 9.40625 45.84375 
Q 15.828125 53.21875 24.90625 53.21875 
z
M 40.71875 26.375 
Q 40.71875 36.078125 36.71875 40.765625 
Q 32.71875 45.453125 26.515625 45.453125 
Q 17.234375 45.453125 13.8125 36.765625 
Q 12.015625 32.125 12.015625 24.609375 
Q 12.015625 15.765625 15.59375 11.15625 
Q 19.1875 6.546875 25.25 6.546875 
Q 34.71875 6.546875 38.578125 15.09375 
Q 40.71875 19.921875 40.71875 26.375 
z
M 25.921875 53.5625 
z
" id="Helvetica-67"/>
     </defs>
     <g transform="translate(139.9 236.08)scale(0.14 -0.14)">
      <use transform="translate(0 0.265625)" xlink:href="#Helvetica-56"/>
      <use transform="translate(67.614414 -15.423438)scale(0.7)" xlink:href="#Helvetica-67"/>
     </g>
    </g>
   </g>
   <g id="matplotlib.axis_2">
    <g id="ytick_1">
     <g id="line2d_11">
      <defs>
       <path d="M 0 0 
L 3.5 0 
" id="m1e5f78c782" style="stroke:#000000;stroke-width:0.8;"/>
      </defs>
      <g>
       <use style="stroke:#000000;stroke-width:0.8;" x="36" xlink:href="#m1e5f78c782" y="198.538614"/>
      </g>
     </g>
     <g id="line2d_12">
      <defs>
       <path d="M 0 0 
L -3.5 0 
" id="m26eb91f7ec" style="stroke:#000000;stroke-width:0.8;"/>
      </defs>
      <g>
       <use style="stroke:#000000;stroke-width:0.8;" x="259.2" xlink:href="#m26eb91f7ec" y="198.538614"/>
      </g>
     </g>
    </g>
    <g id="ytick_2">
     <g id="line2d_13">
      <g>
       <use style="stroke:#000000;stroke-width:0.8;" x="36" xlink:href="#m1e5f78c782" y="166.608528"/>
      </g>
     </g>
     <g id="line2d_14">
      <g>
       <use style="stroke:#000000;stroke-width:0.8;" x="259.2" xlink:href="#m26eb91f7ec" y="166.608528"/>
      </g>
     </g>
    </g>
    <g id="ytick_3">
     <g id="line2d_15">
      <g>
       <use style="stroke:#000000;stroke-width:0.8;" x="36" xlink:href="#m1e5f78c782" y="134.678441"/>
      </g>
     </g>
     <g id="line2d_16">
      <g>
       <use style="stroke:#000000;stroke-width:0.8;" x="259.2" xlink:href="#m26eb91f7ec" y="134.678441"/>
      </g>
     </g>
    </g>
    <g id="ytick_4">
     <g id="line2d_17">
      <g>
       <use style="stroke:#000000;stroke-width:0.8;" x="36" xlink:href="#m1e5f78c782" y="102.748355"/>
      </g>
     </g>
     <g id="line2d_18">
      <g>
       <use style="stroke:#000000;stroke-width:0.8;" x="259.2" xlink:href="#m26eb91f7ec" y="102.748355"/>
      </g>
     </g>
    </g>
    <g id="ytick_5">
     <g id="line2d_19">
      <g>
       <use style="stroke:#000000;stroke-width:0.8;" x="36" xlink:href="#m1e5f78c782" y="70.818268"/>
      </g>
     </g>
     <g id="line2d_20">
      <g>
       <use style="stroke:#000000;stroke-width:0.8;" x="259.2" xlink:href="#m26eb91f7ec" y="70.818268"/>
      </g>
     </g>
    </g>
    <g id="ytick_6">
     <g id="line2d_21">
      <g>
       <use style="stroke:#000000;stroke-width:0.8;" x="36" xlink:href="#m1e5f78c782" y="38.888182"/>
      </g>
     </g>
     <g id="line2d_22">
      <g>
       <use style="stroke:#000000;stroke-width:0.8;" x="259.2" xlink:href="#m26eb91f7ec" y="38.888182"/>
      </g>
     </g>
    </g>
    <g id="text_2">
     <!-- $\delta g_{SET}$ -->
     <defs>
      <path d="M 10.40625 70.609375 
L 49.8125 70.609375 
L 49.8125 63.375 
L 21.78125 63.375 
L 21.78125 63.1875 
L 39.203125 51.609375 
Q 48.96875 45.015625 52.6875 38.578125 
Q 56.109375 32.078125 56 25 
Q 55.90625 14.59375 49.421875 6.984375 
Q 42.78125 -0.78125 30.28125 -0.984375 
Q 18.796875 -0.875 12.015625 6.296875 
Q 5.171875 13.28125 5.078125 24.3125 
Q 5.328125 47.90625 29.109375 49.8125 
L 29.109375 50 
L 10.40625 63.375 
z
M 31.109375 6.203125 
Q 39.015625 6.296875 42.671875 12.40625 
Q 46.390625 18.21875 46.390625 25.09375 
Q 46.390625 29 45.609375 31.890625 
Q 44.78125 34.71875 43.609375 36.625 
Q 42.390625 38.484375 41.21875 39.703125 
Q 39.984375 40.921875 39.203125 41.40625 
Q 37.203125 43.21875 33.6875 43.21875 
Q 14.796875 43.21875 14.703125 23.875 
Q 14.703125 16.5 19 11.53125 
Q 23.296875 6.296875 31.109375 6.203125 
z
" id="Helvetica-3b4"/>
      <path d="M 13.96875 23.140625 
Q 14.3125 17.046875 16.84375 13.234375 
Q 21.6875 6.109375 33.890625 6.109375 
Q 39.359375 6.109375 43.84375 7.671875 
Q 52.546875 10.6875 52.546875 18.5 
Q 52.546875 24.359375 48.875 26.859375 
Q 45.171875 29.296875 37.25 31.109375 
L 27.546875 33.296875 
Q 18.015625 35.453125 14.0625 38.03125 
Q 7.234375 42.53125 7.234375 51.46875 
Q 7.234375 61.140625 13.921875 67.328125 
Q 20.609375 73.53125 32.859375 73.53125 
Q 44.140625 73.53125 52.015625 68.078125 
Q 59.90625 62.640625 59.90625 50.6875 
L 50.78125 50.6875 
Q 50.046875 56.453125 47.65625 59.515625 
Q 43.21875 65.140625 32.5625 65.140625 
Q 23.96875 65.140625 20.203125 61.515625 
Q 16.453125 57.90625 16.453125 53.125 
Q 16.453125 47.859375 20.84375 45.40625 
Q 23.734375 43.84375 33.890625 41.5 
L 43.953125 39.203125 
Q 51.21875 37.546875 55.171875 34.671875 
Q 62.015625 29.640625 62.015625 20.0625 
Q 62.015625 8.15625 53.34375 3.03125 
Q 44.671875 -2.09375 33.203125 -2.09375 
Q 19.828125 -2.09375 12.25 4.734375 
Q 4.6875 11.53125 4.828125 23.140625 
z
M 33.59375 73.6875 
z
" id="Helvetica-53"/>
      <path d="M 8.546875 71.734375 
L 60.84375 71.734375 
L 60.84375 62.9375 
L 18.015625 62.9375 
L 18.015625 41.15625 
L 57.625 41.15625 
L 57.625 32.859375 
L 18.015625 32.859375 
L 18.015625 8.546875 
L 61.578125 8.546875 
L 61.578125 0 
L 8.546875 0 
z
M 35.0625 71.734375 
z
" id="Helvetica-45"/>
      <path d="M 59.8125 71.734375 
L 59.8125 63.1875 
L 35.640625 63.1875 
L 35.640625 0 
L 25.78125 0 
L 25.78125 63.1875 
L 1.609375 63.1875 
L 1.609375 71.734375 
z
" id="Helvetica-54"/>
     </defs>
     <g transform="translate(27.28 143.36)rotate(-90)scale(0.14 -0.14)">
      <use transform="translate(0 0.390625)" xlink:href="#Helvetica-3b4"/>
      <use transform="translate(61.083984 0.390625)" xlink:href="#Helvetica-67"/>
      <use transform="translate(117.614414 -15.298438)scale(0.7)" xlink:href="#Helvetica-53"/>
      <use transform="translate(164.303867 -15.298438)scale(0.7)" xlink:href="#Helvetica-45"/>
      <use transform="translate(210.99332 -15.298438)scale(0.7)" xlink:href="#Helvetica-54"/>
     </g>
    </g>
   </g>
   <g id="line2d_23">
    <path clip-path="url(#p73075fcfe0)" d="M 46.145455 101.403213 
L 51.832596 100.785726 
L 56.707289 100.043239 
L 60.972645 99.175707 
L 64.831777 98.164327 
L 68.284685 97.031642 
L 71.53448 95.726474 
L 74.581163 94.252223 
L 77.424734 92.620545 
L 80.065192 90.851907 
L 82.705651 88.807722 
L 85.142998 86.649285 
L 87.580344 84.205904 
L 90.01769 81.456463 
L 92.455037 78.384677 
L 95.095495 74.683834 
L 97.735954 70.601178 
L 100.782637 65.458416 
L 104.641769 58.454832 
L 110.328911 48.108891 
L 112.563145 44.534736 
L 114.188043 42.316358 
L 115.609828 40.739647 
L 116.828501 39.727144 
L 117.844062 39.167019 
L 118.656511 38.9302 
L 119.46896 38.901598 
L 120.281409 39.100414 
L 121.093857 39.545997 
L 121.906306 40.257619 
L 122.718755 41.254231 
L 123.734316 42.928619 
L 124.749877 45.110596 
L 125.765438 47.830554 
L 126.984111 51.840742 
L 128.202785 56.696354 
L 129.421458 62.416103 
L 130.843243 70.180937 
L 132.468141 80.447329 
L 134.296151 93.617239 
L 136.530385 111.602901 
L 140.186405 143.357519 
L 143.029975 167.330712 
L 144.857985 181.091502 
L 146.482883 191.625467 
L 147.701556 198.242081 
L 148.920229 203.622534 
L 149.93579 207.100167 
L 150.748239 209.201915 
L 151.560688 210.692008 
L 152.170025 211.408974 
L 152.779361 211.786252 
L 153.388698 211.82962 
L 153.998034 211.547006 
L 154.607371 210.948354 
L 155.216708 210.045458 
L 156.029156 208.391844 
L 157.044717 205.653351 
L 158.060278 202.242514 
L 159.278952 197.382564 
L 160.903849 189.856628 
L 162.934971 179.290049 
L 170.653235 137.903698 
L 172.684357 128.6897 
L 174.512367 121.36431 
L 176.137265 115.657508 
L 177.762162 110.703935 
L 179.38706 106.475912 
L 180.808845 103.337236 
L 182.230631 100.684052 
L 183.652416 98.476072 
L 185.074201 96.671148 
L 186.495987 95.226854 
L 187.917772 94.101691 
L 189.339558 93.255971 
L 190.761343 92.652426 
L 192.386241 92.215123 
L 194.011138 92.002587 
L 195.839148 91.980814 
L 198.073382 92.195533 
L 200.713841 92.692976 
L 204.166749 93.586188 
L 212.494349 96.072413 
L 218.384603 97.676611 
L 223.462408 98.834768 
L 228.743325 99.807961 
L 234.227355 100.592943 
L 240.320721 101.241396 
L 247.429648 101.769026 
L 249.054545 101.862414 
L 249.054545 101.862414 
" style="fill:none;stroke:#365c8d;stroke-linecap:square;stroke-width:2;"/>
   </g>
   <g id="line2d_24">
    <path clip-path="url(#p73075fcfe0)" d="M 46.145455 101.862414 
L 53.863718 101.330229 
L 60.363309 100.667559 
L 66.05045 99.873578 
L 71.331368 98.917848 
L 76.409173 97.777379 
L 81.893202 96.307818 
L 95.704832 92.436901 
L 98.142179 92.069707 
L 100.173301 91.965283 
L 102.00131 92.083468 
L 103.626208 92.402887 
L 105.047993 92.883712 
L 106.469779 93.586657 
L 107.891564 94.547422 
L 109.31335 95.804373 
L 110.735135 97.398064 
L 112.156921 99.370516 
L 113.578706 101.764204 
L 115.000491 104.620697 
L 116.422277 107.978903 
L 117.844062 111.8729 
L 119.46896 117.012961 
L 121.093857 122.90987 
L 122.921867 130.444909 
L 124.952989 139.871822 
L 127.187224 151.327859 
L 130.843243 171.470433 
L 133.889926 187.827272 
L 135.717936 196.501237 
L 137.139722 202.242514 
L 138.358395 206.257466 
L 139.373956 208.851797 
L 140.186405 210.379429 
L 140.795741 211.182328 
L 141.405078 211.676857 
L 142.014414 211.851818 
L 142.623751 211.697925 
L 143.233088 211.20795 
L 143.842424 210.376859 
L 144.451761 209.201915 
L 145.26421 207.100167 
L 146.076658 204.392642 
L 147.092219 200.177832 
L 148.310893 193.961665 
L 149.529566 186.585316 
L 151.154464 175.192646 
L 153.185586 159.03021 
L 156.435381 130.887998 
L 159.888288 101.572824 
L 161.91941 86.102726 
L 163.74742 73.86142 
L 165.372318 64.515397 
L 166.794103 57.589379 
L 168.012776 52.590593 
L 169.23145 48.441476 
L 170.450123 45.110596 
L 171.465684 42.928619 
L 172.481245 41.254231 
L 173.496806 40.053728 
L 174.309255 39.410409 
L 175.121704 39.028332 
L 175.934152 38.888182 
L 176.746601 38.970629 
L 177.55905 39.256537 
L 178.574611 39.871504 
L 179.590172 40.739647 
L 180.808845 42.068131 
L 182.230631 43.944584 
L 184.05864 46.753187 
L 186.495987 50.958222 
L 191.573792 60.333163 
L 195.432924 67.219263 
L 198.479607 72.215294 
L 201.323178 76.440203 
L 203.963636 79.961611 
L 206.604095 83.098573 
L 209.041441 85.667129 
L 211.6819 88.118476 
L 214.322359 90.253724 
L 216.962817 92.103833 
L 219.806388 93.812845 
L 222.649959 95.26404 
L 225.696642 96.571727 
L 228.946437 97.726634 
L 232.602457 98.779172 
L 236.461589 99.65911 
L 240.930057 100.44335 
L 246.007862 101.100763 
L 249.054545 101.403213 
L 249.054545 101.403213 
" style="fill:none;stroke:#4ac16d;stroke-linecap:square;stroke-width:2;"/>
   </g>
   <g id="patch_3">
    <path d="M 36 220.5 
L 36 30.24 
" style="fill:none;stroke:#000000;stroke-linecap:square;stroke-linejoin:miter;stroke-width:0.8;"/>
   </g>
   <g id="patch_4">
    <path d="M 259.2 220.5 
L 259.2 30.24 
" style="fill:none;stroke:#000000;stroke-linecap:square;stroke-linejoin:miter;stroke-width:0.8;"/>
   </g>
   <g id="patch_5">
    <path d="M 36 220.5 
L 259.2 220.5 
" style="fill:none;stroke:#000000;stroke-linecap:square;stroke-linejoin:miter;stroke-width:0.8;"/>
   </g>
   <g id="patch_6">
    <path d="M 36 30.24 
L 259.2 30.24 
" style="fill:none;stroke:#000000;stroke-linecap:square;stroke-linejoin:miter;stroke-width:0.8;"/>
   </g>
   <g id="legend_1">
    <g id="line2d_25">
     <path d="M 43.8 188.889375 
L 55.8 188.889375 
" style="fill:none;stroke:#365c8d;stroke-linecap:square;stroke-width:2;"/>
    </g>
    <g id="line2d_26"/>
    <g id="text_3">
     <!-- $dS/k_B = 2 \ln{2}$ -->
     <defs>
      <path d="M 12.015625 25.53125 
Q 12.015625 17.140625 15.578125 11.46875 
Q 19.140625 5.8125 27 5.8125 
Q 33.109375 5.8125 37.03125 11.0625 
Q 40.96875 16.3125 40.96875 26.125 
Q 40.96875 36.03125 36.90625 40.796875 
Q 32.859375 45.5625 26.90625 45.5625 
Q 20.265625 45.5625 16.140625 40.484375 
Q 12.015625 35.40625 12.015625 25.53125 
z
M 25.25 53.21875 
Q 31.25 53.21875 35.296875 50.6875 
Q 37.640625 49.21875 40.625 45.5625 
L 40.625 71.96875 
L 49.078125 71.96875 
L 49.078125 0 
L 41.15625 0 
L 41.15625 7.28125 
Q 38.09375 2.4375 33.890625 0.28125 
Q 29.6875 -1.859375 24.265625 -1.859375 
Q 15.53125 -1.859375 9.125 5.484375 
Q 2.734375 12.84375 2.734375 25.046875 
Q 2.734375 36.46875 8.5625 44.84375 
Q 14.40625 53.21875 25.25 53.21875 
z
" id="Helvetica-64"/>
      <path d="M 22.75 71.734375 
L 30.171875 71.734375 
L 7.421875 0 
L 0 0 
z
" id="Helvetica-2f"/>
      <path d="M 6.25 71.734375 
L 14.703125 71.734375 
L 14.703125 30.078125 
L 37.25 52.296875 
L 48.484375 52.296875 
L 28.46875 32.71875 
L 49.609375 0 
L 38.375 0 
L 22.078125 26.375 
L 14.703125 19.625 
L 14.703125 0 
L 6.25 0 
z
" id="Helvetica-6b"/>
      <path d="M 34.578125 41.40625 
Q 40.71875 41.40625 44.140625 43.109375 
Q 49.515625 45.796875 49.515625 52.78125 
Q 49.515625 59.8125 43.796875 62.25 
Q 40.578125 63.625 34.234375 63.625 
L 16.890625 63.625 
L 16.890625 41.40625 
z
M 37.84375 8.296875 
Q 46.78125 8.296875 50.59375 13.484375 
Q 52.984375 16.75 52.984375 21.390625 
Q 52.984375 29.203125 46 32.03125 
Q 42.28125 33.546875 36.1875 33.546875 
L 16.890625 33.546875 
L 16.890625 8.296875 
z
M 7.375 71.734375 
L 38.1875 71.734375 
Q 50.78125 71.734375 56.109375 64.203125 
Q 59.234375 59.765625 59.234375 53.953125 
Q 59.234375 47.171875 55.375 42.828125 
Q 53.375 40.53125 49.609375 38.625 
Q 55.125 36.53125 57.859375 33.890625 
Q 62.703125 29.203125 62.703125 20.953125 
Q 62.703125 14.015625 58.34375 8.40625 
Q 51.859375 0 37.703125 0 
L 7.375 0 
z
" id="Helvetica-42"/>
      <path d="M 55.421875 40.140625 
L 55.421875 31.9375 
L 4.5 31.9375 
L 4.5 40.140625 
z
M 55.421875 19.1875 
L 55.421875 10.84375 
L 4.5 10.84375 
L 4.5 19.1875 
z
" id="Helvetica-3d"/>
      <path d="M 3.125 0 
Q 3.609375 9.03125 6.859375 15.71875 
Q 10.109375 22.40625 19.53125 27.875 
L 28.90625 33.296875 
Q 35.203125 36.96875 37.75 39.546875 
Q 41.75 43.609375 41.75 48.828125 
Q 41.75 54.9375 38.078125 58.515625 
Q 34.421875 62.109375 28.328125 62.109375 
Q 19.28125 62.109375 15.828125 55.28125 
Q 13.96875 51.609375 13.765625 45.125 
L 4.828125 45.125 
Q 4.984375 54.25 8.203125 60.015625 
Q 13.921875 70.171875 28.375 70.171875 
Q 40.375 70.171875 45.921875 63.671875 
Q 51.46875 57.171875 51.46875 49.21875 
Q 51.46875 40.828125 45.5625 34.859375 
Q 42.140625 31.390625 33.296875 26.46875 
L 26.609375 22.75 
Q 21.828125 20.125 19.09375 17.71875 
Q 14.203125 13.484375 12.9375 8.296875 
L 51.125 8.296875 
L 51.125 0 
L 3.125 0 
z
" id="Helvetica-32"/>
      <path d="M 6.6875 71.734375 
L 15.484375 71.734375 
L 15.484375 0 
L 6.6875 0 
z
" id="Helvetica-6c"/>
      <path d="M 6.453125 52.296875 
L 14.796875 52.296875 
L 14.796875 44.875 
Q 18.5 49.46875 22.65625 51.46875 
Q 26.8125 53.46875 31.890625 53.46875 
Q 43.015625 53.46875 46.921875 45.703125 
Q 49.078125 41.453125 49.078125 33.546875 
L 49.078125 0 
L 40.140625 0 
L 40.140625 32.953125 
Q 40.140625 37.75 38.71875 40.671875 
Q 36.375 45.5625 30.21875 45.5625 
Q 27.09375 45.5625 25.09375 44.921875 
Q 21.484375 43.84375 18.75 40.625 
Q 16.546875 38.03125 15.890625 35.265625 
Q 15.234375 32.515625 15.234375 27.390625 
L 15.234375 0 
L 6.453125 0 
z
M 27.09375 53.5625 
z
" id="Helvetica-6e"/>
     </defs>
     <g transform="translate(58.8 193.089375)scale(0.12 -0.12)">
      <use transform="translate(0 0.3125)" xlink:href="#Helvetica-64"/>
      <use transform="translate(55.615234 0.3125)" xlink:href="#Helvetica-53"/>
      <use transform="translate(122.314453 0.3125)" xlink:href="#Helvetica-2f"/>
      <use transform="translate(150.097656 0.3125)" xlink:href="#Helvetica-6b"/>
      <use transform="translate(201.012852 -15.376563)scale(0.7)" xlink:href="#Helvetica-42"/>
      <use transform="translate(266.977305 0.3125)" xlink:href="#Helvetica-3d"/>
      <use transform="translate(342.035898 0.3125)" xlink:href="#Helvetica-32"/>
      <use transform="translate(397.651133 0.3125)" xlink:href="#Helvetica-6c"/>
      <use transform="translate(419.86793 0.3125)" xlink:href="#Helvetica-6e"/>
      <use transform="translate(475.483164 0.3125)" xlink:href="#Helvetica-32"/>
     </g>
    </g>
    <g id="line2d_27">
     <path d="M 43.8 205.99875 
L 55.8 205.99875 
" style="fill:none;stroke:#4ac16d;stroke-linecap:square;stroke-width:2;"/>
    </g>
    <g id="line2d_28"/>
    <g id="text_4">
     <!-- $dS/k_B = -2 \ln{2}$ -->
     <defs>
      <path d="M 55.421875 29.59375 
L 55.421875 21.390625 
L 4.5 21.390625 
L 4.5 29.59375 
z
" id="Helvetica-2212"/>
     </defs>
     <g transform="translate(58.8 210.19875)scale(0.12 -0.12)">
      <use transform="translate(0 0.3125)" xlink:href="#Helvetica-64"/>
      <use transform="translate(55.615234 0.3125)" xlink:href="#Helvetica-53"/>
      <use transform="translate(122.314453 0.3125)" xlink:href="#Helvetica-2f"/>
      <use transform="translate(150.097656 0.3125)" xlink:href="#Helvetica-6b"/>
      <use transform="translate(201.012852 -15.376563)scale(0.7)" xlink:href="#Helvetica-42"/>
      <use transform="translate(266.977305 0.3125)" xlink:href="#Helvetica-3d"/>
      <use transform="translate(358.696055 0.3125)" xlink:href="#Helvetica-2212"/>
      <use transform="translate(433.754648 0.3125)" xlink:href="#Helvetica-32"/>
      <use transform="translate(489.369883 0.3125)" xlink:href="#Helvetica-6c"/>
      <use transform="translate(511.58668 0.3125)" xlink:href="#Helvetica-6e"/>
      <use transform="translate(567.201914 0.3125)" xlink:href="#Helvetica-32"/>
     </g>
    </g>
   </g>
  </g>
 </g>
 <defs>
  <clipPath id="p73075fcfe0">
   <rect height="190.26" width="223.2" x="36" y="30.24"/>
  </clipPath>
 </defs>
</svg>
