<?xml version="1.0" encoding="utf-8" standalone="no"?>
<!DOCTYPE svg PUBLIC "-//W3C//DTD SVG 1.1//EN"
  "http://www.w3.org/Graphics/SVG/1.1/DTD/svg11.dtd">
<!-- Created with matplotlib (http://matplotlib.org/) -->
<svg height="167pt" version="1.1" viewBox="0 0 232 167" width="232pt" xmlns="http://www.w3.org/2000/svg" xmlns:xlink="http://www.w3.org/1999/xlink">
 <defs>
  <style type="text/css">
*{stroke-linecap:butt;stroke-linejoin:round;}
  </style>
 </defs>
 <g id="figure_1">
  <g id="patch_1">
   <path d="M 0 167.869375 
L 232.319125 167.869375 
L 232.319125 0 
L 0 0 
z
" style="fill:#ffffff;"/>
  </g>
  <g id="axes_1">
   <g id="patch_2">
    <path d="M 51.033125 129.5 
L 225.119125 129.5 
L 225.119125 7.2 
L 51.033125 7.2 
z
" style="fill:#ffffff;"/>
   </g>
   <g id="matplotlib.axis_1">
    <g id="xtick_1">
     <g id="line2d_1">
      <path clip-path="url(#p22326c3500)" d="M 68.441725 129.5 
L 68.441725 7.2 
" style="fill:none;stroke:#b0b0b0;stroke-linecap:square;stroke-width:0.8;"/>
     </g>
     <g id="line2d_2">
      <defs>
       <path d="M 0 0 
L 0 -3.5 
" id="m5e6b45f8fa" style="stroke:#000000;stroke-width:0.8;"/>
      </defs>
      <g>
       <use style="stroke:#000000;stroke-width:0.8;" x="68.441725" xlink:href="#m5e6b45f8fa" y="129.5"/>
      </g>
     </g>
     <g id="line2d_3">
      <defs>
       <path d="M 0 0 
L 0 3.5 
" id="md43f0198aa" style="stroke:#000000;stroke-width:0.8;"/>
      </defs>
      <g>
       <use style="stroke:#000000;stroke-width:0.8;" x="68.441725" xlink:href="#md43f0198aa" y="7.2"/>
      </g>
     </g>
     <g id="text_1">
      <!-- −2 -->
      <defs>
       <path d="M 55.421875 29.59375 
L 55.421875 21.390625 
L 4.5 21.390625 
L 4.5 29.59375 
z
" id="Helvetica-2212"/>
       <path d="M 3.125 0 
Q 3.609375 9.03125 6.859375 15.71875 
Q 10.109375 22.40625 19.53125 27.875 
L 28.90625 33.296875 
Q 35.203125 36.96875 37.75 39.546875 
Q 41.75 43.609375 41.75 48.828125 
Q 41.75 54.9375 38.078125 58.515625 
Q 34.421875 62.109375 28.328125 62.109375 
Q 19.28125 62.109375 15.828125 55.28125 
Q 13.96875 51.609375 13.765625 45.125 
L 4.828125 45.125 
Q 4.984375 54.25 8.203125 60.015625 
Q 13.921875 70.171875 28.375 70.171875 
Q 40.375 70.171875 45.921875 63.671875 
Q 51.46875 57.171875 51.46875 49.21875 
Q 51.46875 40.828125 45.5625 34.859375 
Q 42.140625 31.390625 33.296875 26.46875 
L 26.609375 22.75 
Q 21.828125 20.125 19.09375 17.71875 
Q 14.203125 13.484375 12.9375 8.296875 
L 51.125 8.296875 
L 51.125 0 
L 3.125 0 
z
" id="Helvetica-32"/>
      </defs>
      <g transform="translate(61.600787 141.608125)scale(0.12 -0.12)">
       <use xlink:href="#Helvetica-2212"/>
       <use x="58.398438" xlink:href="#Helvetica-32"/>
      </g>
     </g>
    </g>
    <g id="xtick_2">
     <g id="line2d_4">
      <path clip-path="url(#p22326c3500)" d="M 138.076125 129.5 
L 138.076125 7.2 
" style="fill:none;stroke:#b0b0b0;stroke-linecap:square;stroke-width:0.8;"/>
     </g>
     <g id="line2d_5">
      <g>
       <use style="stroke:#000000;stroke-width:0.8;" x="138.076125" xlink:href="#m5e6b45f8fa" y="129.5"/>
      </g>
     </g>
     <g id="line2d_6">
      <g>
       <use style="stroke:#000000;stroke-width:0.8;" x="138.076125" xlink:href="#md43f0198aa" y="7.2"/>
      </g>
     </g>
     <g id="text_2">
      <!-- 0 -->
      <defs>
       <path d="M 27.046875 69.921875 
Q 40.625 69.921875 46.6875 58.734375 
Q 51.375 50.09375 51.375 35.0625 
Q 51.375 20.796875 47.125 11.46875 
Q 40.96875 -1.90625 27 -1.90625 
Q 14.40625 -1.90625 8.25 9.03125 
Q 3.125 18.171875 3.125 33.546875 
Q 3.125 45.453125 6.203125 54 
Q 11.96875 69.921875 27.046875 69.921875 
z
M 26.953125 6.109375 
Q 33.796875 6.109375 37.84375 12.15625 
Q 41.890625 18.21875 41.890625 34.71875 
Q 41.890625 46.625 38.953125 54.3125 
Q 36.03125 62.015625 27.59375 62.015625 
Q 19.828125 62.015625 16.234375 54.703125 
Q 12.640625 47.40625 12.640625 33.203125 
Q 12.640625 22.515625 14.9375 16.015625 
Q 18.453125 6.109375 26.953125 6.109375 
z
" id="Helvetica-30"/>
      </defs>
      <g transform="translate(134.739562 141.608125)scale(0.12 -0.12)">
       <use xlink:href="#Helvetica-30"/>
      </g>
     </g>
    </g>
    <g id="xtick_3">
     <g id="line2d_7">
      <path clip-path="url(#p22326c3500)" d="M 207.710525 129.5 
L 207.710525 7.2 
" style="fill:none;stroke:#b0b0b0;stroke-linecap:square;stroke-width:0.8;"/>
     </g>
     <g id="line2d_8">
      <g>
       <use style="stroke:#000000;stroke-width:0.8;" x="207.710525" xlink:href="#m5e6b45f8fa" y="129.5"/>
      </g>
     </g>
     <g id="line2d_9">
      <g>
       <use style="stroke:#000000;stroke-width:0.8;" x="207.710525" xlink:href="#md43f0198aa" y="7.2"/>
      </g>
     </g>
     <g id="text_3">
      <!-- 2 -->
      <g transform="translate(204.373963 141.608125)scale(0.12 -0.12)">
       <use xlink:href="#Helvetica-32"/>
      </g>
     </g>
    </g>
    <g id="text_4">
     <!-- $V_{p} - V_{mid}$ (mV) -->
     <defs>
      <path d="M 13.28125 71.734375 
L 33.890625 10.640625 
L 54.25 71.734375 
L 65.140625 71.734375 
L 38.96875 0 
L 28.65625 0 
L 2.546875 71.734375 
z
" id="Helvetica-56"/>
      <path d="M 28.515625 5.90625 
Q 34.671875 5.90625 38.75 11.0625 
Q 42.828125 16.21875 42.828125 26.46875 
Q 42.828125 32.71875 41.015625 37.203125 
Q 37.59375 45.84375 28.515625 45.84375 
Q 19.390625 45.84375 16.015625 36.71875 
Q 14.203125 31.84375 14.203125 24.3125 
Q 14.203125 18.265625 16.015625 14.015625 
Q 19.4375 5.90625 28.515625 5.90625 
z
M 5.765625 52.046875 
L 14.3125 52.046875 
L 14.3125 45.125 
Q 16.9375 48.6875 20.0625 50.640625 
Q 24.515625 53.5625 30.515625 53.5625 
Q 39.40625 53.5625 45.609375 46.75 
Q 51.8125 39.9375 51.8125 27.296875 
Q 51.8125 10.203125 42.875 2.875 
Q 37.203125 -1.765625 29.6875 -1.765625 
Q 23.78125 -1.765625 19.78125 0.828125 
Q 17.4375 2.296875 14.546875 5.859375 
L 14.546875 -20.84375 
L 5.765625 -20.84375 
z
" id="Helvetica-70"/>
      <path d="M 6.453125 52.296875 
L 15.140625 52.296875 
L 15.140625 44.875 
Q 18.265625 48.734375 20.796875 50.484375 
Q 25.140625 53.46875 30.671875 53.46875 
Q 36.921875 53.46875 40.71875 50.390625 
Q 42.875 48.640625 44.625 45.21875 
Q 47.5625 49.421875 51.515625 51.4375 
Q 55.46875 53.46875 60.40625 53.46875 
Q 70.953125 53.46875 74.75 45.84375 
Q 76.8125 41.75 76.8125 34.8125 
L 76.8125 0 
L 67.671875 0 
L 67.671875 36.328125 
Q 67.671875 41.546875 65.0625 43.5 
Q 62.453125 45.453125 58.6875 45.453125 
Q 53.515625 45.453125 49.78125 41.984375 
Q 46.046875 38.53125 46.046875 30.421875 
L 46.046875 0 
L 37.109375 0 
L 37.109375 34.125 
Q 37.109375 39.453125 35.84375 41.890625 
Q 33.84375 45.5625 28.375 45.5625 
Q 23.390625 45.5625 19.3125 41.703125 
Q 15.234375 37.84375 15.234375 27.734375 
L 15.234375 0 
L 6.453125 0 
z
" id="Helvetica-6d"/>
      <path d="M 6.453125 52.046875 
L 15.375 52.046875 
L 15.375 0 
L 6.453125 0 
z
M 6.453125 71.734375 
L 15.375 71.734375 
L 15.375 61.765625 
L 6.453125 61.765625 
z
" id="Helvetica-69"/>
      <path d="M 12.015625 25.53125 
Q 12.015625 17.140625 15.578125 11.46875 
Q 19.140625 5.8125 27 5.8125 
Q 33.109375 5.8125 37.03125 11.0625 
Q 40.96875 16.3125 40.96875 26.125 
Q 40.96875 36.03125 36.90625 40.796875 
Q 32.859375 45.5625 26.90625 45.5625 
Q 20.265625 45.5625 16.140625 40.484375 
Q 12.015625 35.40625 12.015625 25.53125 
z
M 25.25 53.21875 
Q 31.25 53.21875 35.296875 50.6875 
Q 37.640625 49.21875 40.625 45.5625 
L 40.625 71.96875 
L 49.078125 71.96875 
L 49.078125 0 
L 41.15625 0 
L 41.15625 7.28125 
Q 38.09375 2.4375 33.890625 0.28125 
Q 29.6875 -1.859375 24.265625 -1.859375 
Q 15.53125 -1.859375 9.125 5.484375 
Q 2.734375 12.84375 2.734375 25.046875 
Q 2.734375 36.46875 8.5625 44.84375 
Q 14.40625 53.21875 25.25 53.21875 
z
" id="Helvetica-64"/>
      <path id="Helvetica-20"/>
      <path d="M 29.59375 72.90625 
Q 21.921875 58.015625 19.625 50.984375 
Q 16.15625 40.28125 16.15625 26.265625 
Q 16.15625 12.109375 20.125 0.390625 
Q 22.5625 -6.84375 29.734375 -20.40625 
L 23.828125 -20.40625 
Q 16.703125 -9.28125 14.984375 -6.203125 
Q 13.28125 -3.125 11.28125 2.15625 
Q 8.546875 9.375 7.46875 17.578125 
Q 6.9375 21.828125 6.9375 25.6875 
Q 6.9375 40.140625 11.46875 51.421875 
Q 14.359375 58.59375 23.484375 72.90625 
z
" id="Helvetica-28"/>
      <path d="M 3.46875 -20.40625 
Q 11.234375 -5.28125 13.484375 1.65625 
Q 16.890625 12.15625 16.890625 26.265625 
Q 16.890625 40.375 12.9375 52.09375 
Q 10.5 59.328125 3.328125 72.90625 
L 9.234375 72.90625 
Q 16.75 60.890625 18.328125 58.078125 
Q 19.921875 55.28125 21.78125 50.34375 
Q 24.125 44.234375 25.125 38.28125 
Q 26.125 32.328125 26.125 26.8125 
Q 26.125 12.359375 21.53125 1.03125 
Q 18.65625 -6.25 9.578125 -20.40625 
z
" id="Helvetica-29"/>
     </defs>
     <g transform="translate(94.046125 156.329375)scale(0.14 -0.14)">
      <use transform="translate(0 0.09375)" xlink:href="#Helvetica-56"/>
      <use transform="translate(67.614414 -15.595313)scale(0.7)" xlink:href="#Helvetica-70"/>
      <use transform="translate(125.820078 0.09375)" xlink:href="#Helvetica-2212"/>
      <use transform="translate(200.878672 0.09375)" xlink:href="#Helvetica-56"/>
      <use transform="translate(268.493086 -15.595313)scale(0.7)" xlink:href="#Helvetica-6d"/>
      <use transform="translate(326.803633 -15.595313)scale(0.7)" xlink:href="#Helvetica-69"/>
      <use transform="translate(342.355391 -15.595313)scale(0.7)" xlink:href="#Helvetica-64"/>
      <use transform="translate(383.900898 0.09375)" xlink:href="#Helvetica-20"/>
      <use transform="translate(411.684102 0.09375)" xlink:href="#Helvetica-28"/>
      <use transform="translate(444.984883 0.09375)" xlink:href="#Helvetica-6d"/>
      <use transform="translate(528.285664 0.09375)" xlink:href="#Helvetica-56"/>
      <use transform="translate(594.984883 0.09375)" xlink:href="#Helvetica-29"/>
     </g>
    </g>
   </g>
   <g id="matplotlib.axis_2">
    <g id="ytick_1">
     <g id="line2d_10">
      <path clip-path="url(#p22326c3500)" d="M 51.033125 98.925 
L 225.119125 98.925 
" style="fill:none;stroke:#b0b0b0;stroke-linecap:square;stroke-width:0.8;"/>
     </g>
     <g id="line2d_11">
      <defs>
       <path d="M 0 0 
L 3.5 0 
" id="m29581213db" style="stroke:#000000;stroke-width:0.8;"/>
      </defs>
      <g>
       <use style="stroke:#000000;stroke-width:0.8;" x="51.033125" xlink:href="#m29581213db" y="98.925"/>
      </g>
     </g>
     <g id="line2d_12">
      <defs>
       <path d="M 0 0 
L -3.5 0 
" id="m066fc83ac3" style="stroke:#000000;stroke-width:0.8;"/>
      </defs>
      <g>
       <use style="stroke:#000000;stroke-width:0.8;" x="225.119125" xlink:href="#m066fc83ac3" y="98.925"/>
      </g>
     </g>
     <g id="text_5">
      <!-- 0.46 -->
      <defs>
       <path d="M 8.546875 10.640625 
L 18.75 10.640625 
L 18.75 0 
L 8.546875 0 
z
" id="Helvetica-2e"/>
       <path d="M 33.0625 24.75 
L 33.0625 56.453125 
L 10.640625 24.75 
z
M 33.203125 0 
L 33.203125 17.09375 
L 2.546875 17.09375 
L 2.546875 25.6875 
L 34.578125 70.125 
L 42 70.125 
L 42 24.75 
L 52.296875 24.75 
L 52.296875 17.09375 
L 42 17.09375 
L 42 0 
z
" id="Helvetica-34"/>
       <path d="M 29.25 70.21875 
Q 40.96875 70.21875 45.578125 64.140625 
Q 50.203125 58.0625 50.203125 51.609375 
L 41.5 51.609375 
Q 40.71875 55.765625 39.015625 58.109375 
Q 35.84375 62.5 29.390625 62.5 
Q 22.015625 62.5 17.671875 55.6875 
Q 13.328125 48.875 12.84375 36.1875 
Q 15.875 40.625 20.453125 42.828125 
Q 24.65625 44.78125 29.828125 44.78125 
Q 38.625 44.78125 45.15625 39.15625 
Q 51.703125 33.546875 51.703125 22.40625 
Q 51.703125 12.890625 45.5 5.53125 
Q 39.3125 -1.8125 27.828125 -1.8125 
Q 18.015625 -1.8125 10.890625 5.640625 
Q 3.765625 13.09375 3.765625 30.71875 
Q 3.765625 43.75 6.9375 52.828125 
Q 13.03125 70.21875 29.25 70.21875 
z
M 28.609375 6 
Q 35.546875 6 38.984375 10.65625 
Q 42.4375 15.328125 42.4375 21.6875 
Q 42.4375 27.046875 39.359375 31.90625 
Q 36.28125 36.765625 28.171875 36.765625 
Q 22.515625 36.765625 18.234375 33 
Q 13.96875 29.25 13.96875 21.6875 
Q 13.96875 15.046875 17.84375 10.515625 
Q 21.734375 6 28.609375 6 
z
" id="Helvetica-36"/>
      </defs>
      <g transform="translate(24.18 103.229063)scale(0.12 -0.12)">
       <use xlink:href="#Helvetica-30"/>
       <use x="55.615234" xlink:href="#Helvetica-2e"/>
       <use x="83.398438" xlink:href="#Helvetica-34"/>
       <use x="139.013672" xlink:href="#Helvetica-36"/>
      </g>
     </g>
    </g>
    <g id="ytick_2">
     <g id="line2d_13">
      <path clip-path="url(#p22326c3500)" d="M 51.033125 58.158333 
L 225.119125 58.158333 
" style="fill:none;stroke:#b0b0b0;stroke-linecap:square;stroke-width:0.8;"/>
     </g>
     <g id="line2d_14">
      <g>
       <use style="stroke:#000000;stroke-width:0.8;" x="51.033125" xlink:href="#m29581213db" y="58.158333"/>
      </g>
     </g>
     <g id="line2d_15">
      <g>
       <use style="stroke:#000000;stroke-width:0.8;" x="225.119125" xlink:href="#m066fc83ac3" y="58.158333"/>
      </g>
     </g>
     <g id="text_6">
      <!-- 0.48 -->
      <defs>
       <path d="M 27.203125 40.625 
Q 33.015625 40.625 36.28125 43.875 
Q 39.546875 47.125 39.546875 51.609375 
Q 39.546875 55.515625 36.421875 58.78125 
Q 33.296875 62.0625 26.90625 62.0625 
Q 20.5625 62.0625 17.71875 58.78125 
Q 14.890625 55.515625 14.890625 51.125 
Q 14.890625 46.1875 18.546875 43.40625 
Q 22.21875 40.625 27.203125 40.625 
z
M 27.734375 6 
Q 33.84375 6 37.859375 9.296875 
Q 41.890625 12.59375 41.890625 19.140625 
Q 41.890625 25.921875 37.734375 29.4375 
Q 33.59375 32.953125 27.09375 32.953125 
Q 20.796875 32.953125 16.8125 29.359375 
Q 12.84375 25.78125 12.84375 19.4375 
Q 12.84375 13.96875 16.484375 9.984375 
Q 20.125 6 27.734375 6 
z
M 15.234375 37.25 
Q 11.578125 38.8125 9.515625 40.921875 
Q 5.671875 44.828125 5.671875 51.078125 
Q 5.671875 58.890625 11.328125 64.5 
Q 17 70.125 27.390625 70.125 
Q 37.453125 70.125 43.15625 64.8125 
Q 48.875 59.515625 48.875 52.4375 
Q 48.875 45.90625 45.5625 41.84375 
Q 43.703125 39.546875 39.796875 37.359375 
Q 44.140625 35.359375 46.625 32.765625 
Q 51.265625 27.875 51.265625 20.0625 
Q 51.265625 10.84375 45.0625 4.421875 
Q 38.875 -2 27.546875 -2 
Q 17.328125 -2 10.265625 3.53125 
Q 3.21875 9.078125 3.21875 19.625 
Q 3.21875 25.828125 6.25 30.34375 
Q 9.28125 34.859375 15.234375 37.25 
z
" id="Helvetica-38"/>
      </defs>
      <g transform="translate(24.18 62.462396)scale(0.12 -0.12)">
       <use xlink:href="#Helvetica-30"/>
       <use x="55.615234" xlink:href="#Helvetica-2e"/>
       <use x="83.398438" xlink:href="#Helvetica-34"/>
       <use x="139.013672" xlink:href="#Helvetica-38"/>
      </g>
     </g>
    </g>
    <g id="ytick_3">
     <g id="line2d_16">
      <path clip-path="url(#p22326c3500)" d="M 51.033125 17.391667 
L 225.119125 17.391667 
" style="fill:none;stroke:#b0b0b0;stroke-linecap:square;stroke-width:0.8;"/>
     </g>
     <g id="line2d_17">
      <g>
       <use style="stroke:#000000;stroke-width:0.8;" x="51.033125" xlink:href="#m29581213db" y="17.391667"/>
      </g>
     </g>
     <g id="line2d_18">
      <g>
       <use style="stroke:#000000;stroke-width:0.8;" x="225.119125" xlink:href="#m066fc83ac3" y="17.391667"/>
      </g>
     </g>
     <g id="text_7">
      <!-- 0.50 -->
      <defs>
       <path d="M 12.359375 17.828125 
Q 13.234375 10.296875 19.34375 7.421875 
Q 22.46875 5.953125 26.5625 5.953125 
Q 34.375 5.953125 38.125 10.9375 
Q 41.890625 15.921875 41.890625 21.96875 
Q 41.890625 29.296875 37.421875 33.296875 
Q 32.953125 37.3125 26.703125 37.3125 
Q 22.171875 37.3125 18.921875 35.546875 
Q 15.671875 33.796875 13.375 30.671875 
L 5.765625 31.109375 
L 11.078125 68.75 
L 47.40625 68.75 
L 47.40625 60.25 
L 17.671875 60.25 
L 14.703125 40.828125 
Q 17.140625 42.671875 19.34375 43.609375 
Q 23.25 45.21875 28.375 45.21875 
Q 37.984375 45.21875 44.671875 39.015625 
Q 51.375 32.8125 51.375 23.296875 
Q 51.375 13.375 45.234375 5.796875 
Q 39.109375 -1.765625 25.6875 -1.765625 
Q 17.140625 -1.765625 10.5625 3.046875 
Q 4 7.859375 3.21875 17.828125 
z
" id="Helvetica-35"/>
      </defs>
      <g transform="translate(24.18 21.695729)scale(0.12 -0.12)">
       <use xlink:href="#Helvetica-30"/>
       <use x="55.615234" xlink:href="#Helvetica-2e"/>
       <use x="83.398438" xlink:href="#Helvetica-35"/>
       <use x="139.013672" xlink:href="#Helvetica-30"/>
      </g>
     </g>
    </g>
    <g id="text_8">
     <!-- G$_{sens}$ $(e^2/h)$ -->
     <defs>
      <path d="M 38.625 73.578125 
Q 48.734375 73.578125 56.109375 69.671875 
Q 66.796875 64.0625 69.1875 50 
L 59.578125 50 
Q 57.8125 57.859375 52.296875 61.453125 
Q 46.78125 65.046875 38.375 65.046875 
Q 28.421875 65.046875 21.609375 57.5625 
Q 14.796875 50.09375 14.796875 35.296875 
Q 14.796875 22.515625 20.40625 14.484375 
Q 26.03125 6.453125 38.71875 6.453125 
Q 48.4375 6.453125 54.8125 12.078125 
Q 61.1875 17.71875 61.328125 30.328125 
L 38.875 30.328125 
L 38.875 38.375 
L 70.359375 38.375 
L 70.359375 0 
L 64.109375 0 
L 61.765625 9.234375 
Q 56.84375 3.8125 53.03125 1.703125 
Q 46.625 -1.90625 36.765625 -1.90625 
Q 24.03125 -1.90625 14.84375 6.34375 
Q 4.828125 16.703125 4.828125 34.765625 
Q 4.828125 52.78125 14.59375 63.421875 
Q 23.875 73.578125 38.625 73.578125 
z
M 37.015625 73.6875 
z
" id="Helvetica-47"/>
      <path d="M 11.671875 16.40625 
Q 12.0625 12.015625 13.875 9.671875 
Q 17.1875 5.421875 25.390625 5.421875 
Q 30.28125 5.421875 33.984375 7.546875 
Q 37.703125 9.671875 37.703125 14.109375 
Q 37.703125 17.484375 34.71875 19.234375 
Q 32.8125 20.3125 27.203125 21.734375 
L 20.21875 23.484375 
Q 13.53125 25.140625 10.359375 27.203125 
Q 4.6875 30.765625 4.6875 37.0625 
Q 4.6875 44.484375 10.03125 49.0625 
Q 15.375 53.65625 24.421875 53.65625 
Q 36.234375 53.65625 41.453125 46.734375 
Q 44.734375 42.328125 44.625 37.25 
L 36.328125 37.25 
Q 36.078125 40.234375 34.234375 42.671875 
Q 31.203125 46.140625 23.734375 46.140625 
Q 18.75 46.140625 16.1875 44.234375 
Q 13.625 42.328125 13.625 39.203125 
Q 13.625 35.796875 17 33.734375 
Q 18.953125 32.515625 22.75 31.59375 
L 28.5625 30.171875 
Q 38.03125 27.875 41.265625 25.734375 
Q 46.390625 22.359375 46.390625 15.140625 
Q 46.390625 8.15625 41.09375 3.078125 
Q 35.796875 -2 24.953125 -2 
Q 13.28125 -2 8.421875 3.296875 
Q 3.5625 8.59375 3.21875 16.40625 
z
M 24.65625 53.5625 
z
" id="Helvetica-73"/>
      <path d="M 28.21875 53.46875 
Q 33.796875 53.46875 39.015625 50.859375 
Q 44.234375 48.25 46.96875 44.09375 
Q 49.609375 40.140625 50.484375 34.859375 
Q 51.265625 31.25 51.265625 23.34375 
L 12.9375 23.34375 
Q 13.1875 15.375 16.703125 10.5625 
Q 20.21875 5.765625 27.59375 5.765625 
Q 34.46875 5.765625 38.578125 10.296875 
Q 40.921875 12.9375 41.890625 16.40625 
L 50.53125 16.40625 
Q 50.203125 13.53125 48.265625 9.984375 
Q 46.34375 6.453125 43.953125 4.203125 
Q 39.9375 0.296875 34.03125 -1.078125 
Q 30.859375 -1.859375 26.859375 -1.859375 
Q 17.09375 -1.859375 10.296875 5.25 
Q 3.515625 12.359375 3.515625 25.140625 
Q 3.515625 37.75 10.34375 45.609375 
Q 17.1875 53.46875 28.21875 53.46875 
z
M 42.234375 30.328125 
Q 41.703125 36.03125 39.75 39.453125 
Q 36.140625 45.796875 27.6875 45.796875 
Q 21.625 45.796875 17.515625 41.421875 
Q 13.421875 37.0625 13.1875 30.328125 
z
M 27.390625 53.5625 
z
" id="Helvetica-65"/>
      <path d="M 6.453125 52.296875 
L 14.796875 52.296875 
L 14.796875 44.875 
Q 18.5 49.46875 22.65625 51.46875 
Q 26.8125 53.46875 31.890625 53.46875 
Q 43.015625 53.46875 46.921875 45.703125 
Q 49.078125 41.453125 49.078125 33.546875 
L 49.078125 0 
L 40.140625 0 
L 40.140625 32.953125 
Q 40.140625 37.75 38.71875 40.671875 
Q 36.375 45.5625 30.21875 45.5625 
Q 27.09375 45.5625 25.09375 44.921875 
Q 21.484375 43.84375 18.75 40.625 
Q 16.546875 38.03125 15.890625 35.265625 
Q 15.234375 32.515625 15.234375 27.390625 
L 15.234375 0 
L 6.453125 0 
z
M 27.09375 53.5625 
z
" id="Helvetica-6e"/>
      <path d="M 22.75 71.734375 
L 30.171875 71.734375 
L 7.421875 0 
L 0 0 
z
" id="Helvetica-2f"/>
      <path d="M 6.453125 71.96875 
L 15.234375 71.96875 
L 15.234375 45.21875 
Q 18.359375 49.171875 20.84375 50.78125 
Q 25.09375 53.5625 31.453125 53.5625 
Q 42.828125 53.5625 46.875 45.609375 
Q 49.078125 41.265625 49.078125 33.546875 
L 49.078125 0 
L 40.046875 0 
L 40.046875 32.953125 
Q 40.046875 38.71875 38.578125 41.40625 
Q 36.1875 45.703125 29.59375 45.703125 
Q 24.125 45.703125 19.671875 41.9375 
Q 15.234375 38.1875 15.234375 27.734375 
L 15.234375 0 
L 6.453125 0 
z
" id="Helvetica-68"/>
     </defs>
     <g transform="translate(19.24 103.77)rotate(-90)scale(0.14 -0.14)">
      <use transform="translate(0 0.271875)" xlink:href="#Helvetica-47"/>
      <use transform="translate(78.698398 -15.417187)scale(0.7)" xlink:href="#Helvetica-73"/>
      <use transform="translate(113.698398 -15.417187)scale(0.7)" xlink:href="#Helvetica-65"/>
      <use transform="translate(152.629062 -15.417187)scale(0.7)" xlink:href="#Helvetica-6e"/>
      <use transform="translate(191.559727 -15.417187)scale(0.7)" xlink:href="#Helvetica-73"/>
      <use transform="translate(229.17457 0.271875)" xlink:href="#Helvetica-20"/>
      <use transform="translate(256.957773 0.271875)" xlink:href="#Helvetica-28"/>
      <use transform="translate(290.258555 0.271875)" xlink:href="#Helvetica-65"/>
      <use transform="translate(346.788984 36.879688)scale(0.7)" xlink:href="#Helvetica-32"/>
      <use transform="translate(388.334492 0.271875)" xlink:href="#Helvetica-2f"/>
      <use transform="translate(416.117695 0.271875)" xlink:href="#Helvetica-68"/>
      <use transform="translate(471.73293 0.271875)" xlink:href="#Helvetica-29"/>
     </g>
    </g>
   </g>
   <g id="PathCollection_1">
    <defs>
     <path d="M 0 2.44949 
C 0.649612 2.44949 1.272706 2.191396 1.732051 1.732051 
C 2.191396 1.272706 2.44949 0.649612 2.44949 0 
C 2.44949 -0.649612 2.191396 -1.272706 1.732051 -1.732051 
C 1.272706 -2.191396 0.649612 -2.44949 0 -2.44949 
C -0.649612 -2.44949 -1.272706 -2.191396 -1.732051 -1.732051 
C -2.191396 -1.272706 -2.44949 -0.649612 -2.44949 0 
C -2.44949 0.649612 -2.191396 1.272706 -1.732051 1.732051 
C -1.272706 2.191396 -0.649612 2.44949 0 2.44949 
z
" id="mecf668297f"/>
    </defs>
    <g clip-path="url(#p22326c3500)">
     <use style="fill:#1f77b4;fill-opacity:0.4;" x="-1" xlink:href="#mecf668297f" y="59.01526"/>
     <use style="fill:#1f77b4;fill-opacity:0.4;" x="-0.831373" xlink:href="#mecf668297f" y="58.935939"/>
     <use style="fill:#1f77b4;fill-opacity:0.4;" x="0.909487" xlink:href="#mecf668297f" y="58.100587"/>
     <use style="fill:#1f77b4;fill-opacity:0.4;" x="2.650347" xlink:href="#mecf668297f" y="57.57497"/>
     <use style="fill:#1f77b4;fill-opacity:0.4;" x="4.391207" xlink:href="#mecf668297f" y="57.096395"/>
     <use style="fill:#1f77b4;fill-opacity:0.4;" x="6.132067" xlink:href="#mecf668297f" y="56.214942"/>
     <use style="fill:#1f77b4;fill-opacity:0.4;" x="7.872927" xlink:href="#mecf668297f" y="55.606548"/>
     <use style="fill:#1f77b4;fill-opacity:0.4;" x="9.613787" xlink:href="#mecf668297f" y="54.839412"/>
     <use style="fill:#1f77b4;fill-opacity:0.4;" x="11.354647" xlink:href="#mecf668297f" y="54.395397"/>
     <use style="fill:#1f77b4;fill-opacity:0.4;" x="13.095507" xlink:href="#mecf668297f" y="53.930236"/>
     <use style="fill:#1f77b4;fill-opacity:0.4;" x="14.836367" xlink:href="#mecf668297f" y="53.464832"/>
     <use style="fill:#1f77b4;fill-opacity:0.4;" x="16.577227" xlink:href="#mecf668297f" y="52.999662"/>
     <use style="fill:#1f77b4;fill-opacity:0.4;" x="18.318087" xlink:href="#mecf668297f" y="52.457817"/>
     <use style="fill:#1f77b4;fill-opacity:0.4;" x="20.058947" xlink:href="#mecf668297f" y="51.925856"/>
     <use style="fill:#1f77b4;fill-opacity:0.4;" x="21.799807" xlink:href="#mecf668297f" y="51.586032"/>
     <use style="fill:#1f77b4;fill-opacity:0.4;" x="23.540667" xlink:href="#mecf668297f" y="50.85817"/>
     <use style="fill:#1f77b4;fill-opacity:0.4;" x="25.281527" xlink:href="#mecf668297f" y="50.272589"/>
     <use style="fill:#1f77b4;fill-opacity:0.4;" x="27.022387" xlink:href="#mecf668297f" y="49.578579"/>
     <use style="fill:#1f77b4;fill-opacity:0.4;" x="28.763247" xlink:href="#mecf668297f" y="48.768406"/>
     <use style="fill:#1f77b4;fill-opacity:0.4;" x="30.504107" xlink:href="#mecf668297f" y="48.057004"/>
     <use style="fill:#1f77b4;fill-opacity:0.4;" x="32.244967" xlink:href="#mecf668297f" y="47.173696"/>
     <use style="fill:#1f77b4;fill-opacity:0.4;" x="33.985827" xlink:href="#mecf668297f" y="46.572363"/>
     <use style="fill:#1f77b4;fill-opacity:0.4;" x="35.726687" xlink:href="#mecf668297f" y="45.738445"/>
     <use style="fill:#1f77b4;fill-opacity:0.4;" x="37.467547" xlink:href="#mecf668297f" y="45.251626"/>
     <use style="fill:#1f77b4;fill-opacity:0.4;" x="39.208407" xlink:href="#mecf668297f" y="44.344546"/>
     <use style="fill:#1f77b4;fill-opacity:0.4;" x="40.949267" xlink:href="#mecf668297f" y="43.83375"/>
     <use style="fill:#1f77b4;fill-opacity:0.4;" x="42.690127" xlink:href="#mecf668297f" y="43.378212"/>
     <use style="fill:#1f77b4;fill-opacity:0.4;" x="44.430987" xlink:href="#mecf668297f" y="42.676684"/>
     <use style="fill:#1f77b4;fill-opacity:0.4;" x="46.171847" xlink:href="#mecf668297f" y="42.169166"/>
     <use style="fill:#1f77b4;fill-opacity:0.4;" x="47.912707" xlink:href="#mecf668297f" y="41.497736"/>
     <use style="fill:#1f77b4;fill-opacity:0.4;" x="49.653567" xlink:href="#mecf668297f" y="40.68966"/>
     <use style="fill:#1f77b4;fill-opacity:0.4;" x="51.394427" xlink:href="#mecf668297f" y="39.967209"/>
     <use style="fill:#1f77b4;fill-opacity:0.4;" x="53.135287" xlink:href="#mecf668297f" y="39.459244"/>
     <use style="fill:#1f77b4;fill-opacity:0.4;" x="54.876147" xlink:href="#mecf668297f" y="38.592853"/>
     <use style="fill:#1f77b4;fill-opacity:0.4;" x="56.617007" xlink:href="#mecf668297f" y="37.916719"/>
     <use style="fill:#1f77b4;fill-opacity:0.4;" x="58.357867" xlink:href="#mecf668297f" y="37.313021"/>
     <use style="fill:#1f77b4;fill-opacity:0.4;" x="60.098727" xlink:href="#mecf668297f" y="36.82527"/>
     <use style="fill:#1f77b4;fill-opacity:0.4;" x="61.839587" xlink:href="#mecf668297f" y="36.247682"/>
     <use style="fill:#1f77b4;fill-opacity:0.4;" x="63.580447" xlink:href="#mecf668297f" y="35.759466"/>
     <use style="fill:#1f77b4;fill-opacity:0.4;" x="65.321307" xlink:href="#mecf668297f" y="35.243257"/>
     <use style="fill:#1f77b4;fill-opacity:0.4;" x="67.062167" xlink:href="#mecf668297f" y="34.79995"/>
     <use style="fill:#1f77b4;fill-opacity:0.4;" x="68.803027" xlink:href="#mecf668297f" y="34.408389"/>
     <use style="fill:#1f77b4;fill-opacity:0.4;" x="70.543887" xlink:href="#mecf668297f" y="34.033754"/>
     <use style="fill:#1f77b4;fill-opacity:0.4;" x="72.284747" xlink:href="#mecf668297f" y="33.475924"/>
     <use style="fill:#1f77b4;fill-opacity:0.4;" x="74.025607" xlink:href="#mecf668297f" y="32.730428"/>
     <use style="fill:#1f77b4;fill-opacity:0.4;" x="75.766467" xlink:href="#mecf668297f" y="31.980218"/>
     <use style="fill:#1f77b4;fill-opacity:0.4;" x="77.507327" xlink:href="#mecf668297f" y="31.437907"/>
     <use style="fill:#1f77b4;fill-opacity:0.4;" x="79.248187" xlink:href="#mecf668297f" y="30.588219"/>
     <use style="fill:#1f77b4;fill-opacity:0.4;" x="80.989047" xlink:href="#mecf668297f" y="29.825778"/>
     <use style="fill:#1f77b4;fill-opacity:0.4;" x="82.729907" xlink:href="#mecf668297f" y="29.400347"/>
     <use style="fill:#1f77b4;fill-opacity:0.4;" x="84.470767" xlink:href="#mecf668297f" y="28.612046"/>
     <use style="fill:#1f77b4;fill-opacity:0.4;" x="86.211627" xlink:href="#mecf668297f" y="28.132279"/>
     <use style="fill:#1f77b4;fill-opacity:0.4;" x="87.952487" xlink:href="#mecf668297f" y="27.783271"/>
     <use style="fill:#1f77b4;fill-opacity:0.4;" x="89.693347" xlink:href="#mecf668297f" y="27.347957"/>
     <use style="fill:#1f77b4;fill-opacity:0.4;" x="91.434207" xlink:href="#mecf668297f" y="26.940859"/>
     <use style="fill:#1f77b4;fill-opacity:0.4;" x="93.175067" xlink:href="#mecf668297f" y="26.738838"/>
     <use style="fill:#1f77b4;fill-opacity:0.4;" x="94.915927" xlink:href="#mecf668297f" y="26.421353"/>
     <use style="fill:#1f77b4;fill-opacity:0.4;" x="96.656787" xlink:href="#mecf668297f" y="25.991217"/>
     <use style="fill:#1f77b4;fill-opacity:0.4;" x="98.397647" xlink:href="#mecf668297f" y="25.932885"/>
     <use style="fill:#1f77b4;fill-opacity:0.4;" x="100.138507" xlink:href="#mecf668297f" y="25.529093"/>
     <use style="fill:#1f77b4;fill-opacity:0.4;" x="101.879367" xlink:href="#mecf668297f" y="24.90518"/>
     <use style="fill:#1f77b4;fill-opacity:0.4;" x="103.620227" xlink:href="#mecf668297f" y="24.363811"/>
     <use style="fill:#1f77b4;fill-opacity:0.4;" x="105.361087" xlink:href="#mecf668297f" y="24.001416"/>
     <use style="fill:#1f77b4;fill-opacity:0.4;" x="107.101947" xlink:href="#mecf668297f" y="23.630088"/>
     <use style="fill:#1f77b4;fill-opacity:0.4;" x="108.842807" xlink:href="#mecf668297f" y="23.230991"/>
     <use style="fill:#1f77b4;fill-opacity:0.4;" x="110.583667" xlink:href="#mecf668297f" y="22.997931"/>
     <use style="fill:#1f77b4;fill-opacity:0.4;" x="112.324527" xlink:href="#mecf668297f" y="22.855667"/>
     <use style="fill:#1f77b4;fill-opacity:0.4;" x="114.065387" xlink:href="#mecf668297f" y="23.10542"/>
     <use style="fill:#1f77b4;fill-opacity:0.4;" x="115.806247" xlink:href="#mecf668297f" y="24.097857"/>
     <use style="fill:#1f77b4;fill-opacity:0.4;" x="117.547107" xlink:href="#mecf668297f" y="24.73142"/>
     <use style="fill:#1f77b4;fill-opacity:0.4;" x="119.287967" xlink:href="#mecf668297f" y="25.328999"/>
     <use style="fill:#1f77b4;fill-opacity:0.4;" x="121.028827" xlink:href="#mecf668297f" y="27.195334"/>
     <use style="fill:#1f77b4;fill-opacity:0.4;" x="122.769687" xlink:href="#mecf668297f" y="28.305851"/>
     <use style="fill:#1f77b4;fill-opacity:0.4;" x="124.510547" xlink:href="#mecf668297f" y="31.333966"/>
     <use style="fill:#1f77b4;fill-opacity:0.4;" x="126.251407" xlink:href="#mecf668297f" y="32.887763"/>
     <use style="fill:#1f77b4;fill-opacity:0.4;" x="127.992267" xlink:href="#mecf668297f" y="35.186833"/>
     <use style="fill:#1f77b4;fill-opacity:0.4;" x="129.733127" xlink:href="#mecf668297f" y="39.503231"/>
     <use style="fill:#1f77b4;fill-opacity:0.4;" x="131.473987" xlink:href="#mecf668297f" y="44.053862"/>
     <use style="fill:#1f77b4;fill-opacity:0.4;" x="133.214847" xlink:href="#mecf668297f" y="49.307186"/>
     <use style="fill:#1f77b4;fill-opacity:0.4;" x="134.955707" xlink:href="#mecf668297f" y="54.33806"/>
     <use style="fill:#1f77b4;fill-opacity:0.4;" x="136.696567" xlink:href="#mecf668297f" y="61.480775"/>
     <use style="fill:#1f77b4;fill-opacity:0.4;" x="138.437427" xlink:href="#mecf668297f" y="67.49913"/>
     <use style="fill:#1f77b4;fill-opacity:0.4;" x="140.178287" xlink:href="#mecf668297f" y="75.664863"/>
     <use style="fill:#1f77b4;fill-opacity:0.4;" x="141.919147" xlink:href="#mecf668297f" y="82.575952"/>
     <use style="fill:#1f77b4;fill-opacity:0.4;" x="143.660007" xlink:href="#mecf668297f" y="88.094558"/>
     <use style="fill:#1f77b4;fill-opacity:0.4;" x="145.400867" xlink:href="#mecf668297f" y="93.922182"/>
     <use style="fill:#1f77b4;fill-opacity:0.4;" x="147.141727" xlink:href="#mecf668297f" y="98.843684"/>
     <use style="fill:#1f77b4;fill-opacity:0.4;" x="148.882587" xlink:href="#mecf668297f" y="103.217688"/>
     <use style="fill:#1f77b4;fill-opacity:0.4;" x="150.623447" xlink:href="#mecf668297f" y="106.213573"/>
     <use style="fill:#1f77b4;fill-opacity:0.4;" x="152.364307" xlink:href="#mecf668297f" y="108.636332"/>
     <use style="fill:#1f77b4;fill-opacity:0.4;" x="154.105167" xlink:href="#mecf668297f" y="110.166375"/>
     <use style="fill:#1f77b4;fill-opacity:0.4;" x="155.846027" xlink:href="#mecf668297f" y="111.918654"/>
     <use style="fill:#1f77b4;fill-opacity:0.4;" x="157.586887" xlink:href="#mecf668297f" y="112.721067"/>
     <use style="fill:#1f77b4;fill-opacity:0.4;" x="159.327747" xlink:href="#mecf668297f" y="113.414361"/>
     <use style="fill:#1f77b4;fill-opacity:0.4;" x="161.068607" xlink:href="#mecf668297f" y="114.038041"/>
     <use style="fill:#1f77b4;fill-opacity:0.4;" x="162.809467" xlink:href="#mecf668297f" y="114.369871"/>
     <use style="fill:#1f77b4;fill-opacity:0.4;" x="164.550327" xlink:href="#mecf668297f" y="114.599643"/>
     <use style="fill:#1f77b4;fill-opacity:0.4;" x="166.291187" xlink:href="#mecf668297f" y="114.32661"/>
     <use style="fill:#1f77b4;fill-opacity:0.4;" x="168.032047" xlink:href="#mecf668297f" y="114.005604"/>
     <use style="fill:#1f77b4;fill-opacity:0.4;" x="169.772907" xlink:href="#mecf668297f" y="113.691416"/>
     <use style="fill:#1f77b4;fill-opacity:0.4;" x="171.513767" xlink:href="#mecf668297f" y="113.206255"/>
     <use style="fill:#1f77b4;fill-opacity:0.4;" x="173.254627" xlink:href="#mecf668297f" y="112.781765"/>
     <use style="fill:#1f77b4;fill-opacity:0.4;" x="174.995487" xlink:href="#mecf668297f" y="112.375151"/>
     <use style="fill:#1f77b4;fill-opacity:0.4;" x="176.736347" xlink:href="#mecf668297f" y="111.862938"/>
     <use style="fill:#1f77b4;fill-opacity:0.4;" x="178.477207" xlink:href="#mecf668297f" y="111.32862"/>
     <use style="fill:#1f77b4;fill-opacity:0.4;" x="180.218067" xlink:href="#mecf668297f" y="110.747735"/>
     <use style="fill:#1f77b4;fill-opacity:0.4;" x="181.958927" xlink:href="#mecf668297f" y="110.146859"/>
     <use style="fill:#1f77b4;fill-opacity:0.4;" x="183.699787" xlink:href="#mecf668297f" y="109.77433"/>
     <use style="fill:#1f77b4;fill-opacity:0.4;" x="185.440647" xlink:href="#mecf668297f" y="109.213911"/>
     <use style="fill:#1f77b4;fill-opacity:0.4;" x="187.181507" xlink:href="#mecf668297f" y="108.561074"/>
     <use style="fill:#1f77b4;fill-opacity:0.4;" x="188.922367" xlink:href="#mecf668297f" y="107.898586"/>
     <use style="fill:#1f77b4;fill-opacity:0.4;" x="190.663227" xlink:href="#mecf668297f" y="107.372028"/>
     <use style="fill:#1f77b4;fill-opacity:0.4;" x="192.404087" xlink:href="#mecf668297f" y="106.726941"/>
     <use style="fill:#1f77b4;fill-opacity:0.4;" x="194.144947" xlink:href="#mecf668297f" y="105.982618"/>
     <use style="fill:#1f77b4;fill-opacity:0.4;" x="195.885807" xlink:href="#mecf668297f" y="105.323894"/>
     <use style="fill:#1f77b4;fill-opacity:0.4;" x="197.626667" xlink:href="#mecf668297f" y="104.824387"/>
     <use style="fill:#1f77b4;fill-opacity:0.4;" x="199.367527" xlink:href="#mecf668297f" y="104.255742"/>
     <use style="fill:#1f77b4;fill-opacity:0.4;" x="201.108387" xlink:href="#mecf668297f" y="104.334047"/>
     <use style="fill:#1f77b4;fill-opacity:0.4;" x="202.849247" xlink:href="#mecf668297f" y="103.64053"/>
     <use style="fill:#1f77b4;fill-opacity:0.4;" x="204.590107" xlink:href="#mecf668297f" y="102.776971"/>
     <use style="fill:#1f77b4;fill-opacity:0.4;" x="206.330967" xlink:href="#mecf668297f" y="102.121777"/>
     <use style="fill:#1f77b4;fill-opacity:0.4;" x="208.071827" xlink:href="#mecf668297f" y="101.561823"/>
     <use style="fill:#1f77b4;fill-opacity:0.4;" x="209.812687" xlink:href="#mecf668297f" y="101.011995"/>
     <use style="fill:#1f77b4;fill-opacity:0.4;" x="211.553547" xlink:href="#mecf668297f" y="100.02144"/>
     <use style="fill:#1f77b4;fill-opacity:0.4;" x="213.294407" xlink:href="#mecf668297f" y="99.302744"/>
     <use style="fill:#1f77b4;fill-opacity:0.4;" x="215.035267" xlink:href="#mecf668297f" y="98.073027"/>
     <use style="fill:#1f77b4;fill-opacity:0.4;" x="216.776127" xlink:href="#mecf668297f" y="97.187595"/>
     <use style="fill:#1f77b4;fill-opacity:0.4;" x="218.516987" xlink:href="#mecf668297f" y="96.600608"/>
     <use style="fill:#1f77b4;fill-opacity:0.4;" x="220.257847" xlink:href="#mecf668297f" y="95.781036"/>
     <use style="fill:#1f77b4;fill-opacity:0.4;" x="221.998707" xlink:href="#mecf668297f" y="95.328338"/>
     <use style="fill:#1f77b4;fill-opacity:0.4;" x="223.739567" xlink:href="#mecf668297f" y="94.809531"/>
     <use style="fill:#1f77b4;fill-opacity:0.4;" x="225.480427" xlink:href="#mecf668297f" y="94.247946"/>
     <use style="fill:#1f77b4;fill-opacity:0.4;" x="227.221287" xlink:href="#mecf668297f" y="93.730331"/>
     <use style="fill:#1f77b4;fill-opacity:0.4;" x="228.962147" xlink:href="#mecf668297f" y="92.94625"/>
     <use style="fill:#1f77b4;fill-opacity:0.4;" x="230.703007" xlink:href="#mecf668297f" y="92.438258"/>
     <use style="fill:#1f77b4;fill-opacity:0.4;" x="232.443867" xlink:href="#mecf668297f" y="91.965794"/>
     <use style="fill:#1f77b4;fill-opacity:0.4;" x="234.184727" xlink:href="#mecf668297f" y="91.761416"/>
     <use style="fill:#1f77b4;fill-opacity:0.4;" x="235.925587" xlink:href="#mecf668297f" y="90.939693"/>
     <use style="fill:#1f77b4;fill-opacity:0.4;" x="237.666447" xlink:href="#mecf668297f" y="90.281202"/>
     <use style="fill:#1f77b4;fill-opacity:0.4;" x="239.407307" xlink:href="#mecf668297f" y="89.786381"/>
     <use style="fill:#1f77b4;fill-opacity:0.4;" x="241.148167" xlink:href="#mecf668297f" y="89.285217"/>
     <use style="fill:#1f77b4;fill-opacity:0.4;" x="242.889027" xlink:href="#mecf668297f" y="88.624145"/>
     <use style="fill:#1f77b4;fill-opacity:0.4;" x="244.629887" xlink:href="#mecf668297f" y="88.125337"/>
     <use style="fill:#1f77b4;fill-opacity:0.4;" x="246.370747" xlink:href="#mecf668297f" y="87.205337"/>
     <use style="fill:#1f77b4;fill-opacity:0.4;" x="248.111607" xlink:href="#mecf668297f" y="86.346715"/>
     <use style="fill:#1f77b4;fill-opacity:0.4;" x="249.852467" xlink:href="#mecf668297f" y="85.998899"/>
     <use style="fill:#1f77b4;fill-opacity:0.4;" x="251.593327" xlink:href="#mecf668297f" y="85.220472"/>
     <use style="fill:#1f77b4;fill-opacity:0.4;" x="253.334187" xlink:href="#mecf668297f" y="84.262139"/>
     <use style="fill:#1f77b4;fill-opacity:0.4;" x="255.075047" xlink:href="#mecf668297f" y="83.311799"/>
     <use style="fill:#1f77b4;fill-opacity:0.4;" x="256.815907" xlink:href="#mecf668297f" y="82.460945"/>
     <use style="fill:#1f77b4;fill-opacity:0.4;" x="258.556767" xlink:href="#mecf668297f" y="82.017181"/>
     <use style="fill:#1f77b4;fill-opacity:0.4;" x="260.297627" xlink:href="#mecf668297f" y="81.520013"/>
     <use style="fill:#1f77b4;fill-opacity:0.4;" x="262.038487" xlink:href="#mecf668297f" y="81.031564"/>
     <use style="fill:#1f77b4;fill-opacity:0.4;" x="263.779347" xlink:href="#mecf668297f" y="80.407418"/>
     <use style="fill:#1f77b4;fill-opacity:0.4;" x="265.520207" xlink:href="#mecf668297f" y="79.723775"/>
     <use style="fill:#1f77b4;fill-opacity:0.4;" x="267.261067" xlink:href="#mecf668297f" y="79.411469"/>
     <use style="fill:#1f77b4;fill-opacity:0.4;" x="269.001927" xlink:href="#mecf668297f" y="79.029316"/>
     <use style="fill:#1f77b4;fill-opacity:0.4;" x="270.742787" xlink:href="#mecf668297f" y="78.799312"/>
     <use style="fill:#1f77b4;fill-opacity:0.4;" x="272.483647" xlink:href="#mecf668297f" y="78.055222"/>
     <use style="fill:#1f77b4;fill-opacity:0.4;" x="274.224507" xlink:href="#mecf668297f" y="77.767853"/>
     <use style="fill:#1f77b4;fill-opacity:0.4;" x="275.965367" xlink:href="#mecf668297f" y="77.045375"/>
     <use style="fill:#1f77b4;fill-opacity:0.4;" x="277.706227" xlink:href="#mecf668297f" y="76.435091"/>
     <use style="fill:#1f77b4;fill-opacity:0.4;" x="279.447087" xlink:href="#mecf668297f" y="75.846428"/>
     <use style="fill:#1f77b4;fill-opacity:0.4;" x="281.187947" xlink:href="#mecf668297f" y="74.956749"/>
     <use style="fill:#1f77b4;fill-opacity:0.4;" x="282.928807" xlink:href="#mecf668297f" y="74.254746"/>
     <use style="fill:#1f77b4;fill-opacity:0.4;" x="284.669667" xlink:href="#mecf668297f" y="73.482431"/>
     <use style="fill:#1f77b4;fill-opacity:0.4;" x="286.410527" xlink:href="#mecf668297f" y="72.700699"/>
     <use style="fill:#1f77b4;fill-opacity:0.4;" x="288.151387" xlink:href="#mecf668297f" y="71.657681"/>
     <use style="fill:#1f77b4;fill-opacity:0.4;" x="289.892247" xlink:href="#mecf668297f" y="70.907489"/>
     <use style="fill:#1f77b4;fill-opacity:0.4;" x="291.633107" xlink:href="#mecf668297f" y="69.737967"/>
     <use style="fill:#1f77b4;fill-opacity:0.4;" x="293.373967" xlink:href="#mecf668297f" y="69.428726"/>
     <use style="fill:#1f77b4;fill-opacity:0.4;" x="295.114827" xlink:href="#mecf668297f" y="68.891836"/>
     <use style="fill:#1f77b4;fill-opacity:0.4;" x="296.855687" xlink:href="#mecf668297f" y="67.8345"/>
     <use style="fill:#1f77b4;fill-opacity:0.4;" x="298.596547" xlink:href="#mecf668297f" y="67.292655"/>
     <use style="fill:#1f77b4;fill-opacity:0.4;" x="300.337407" xlink:href="#mecf668297f" y="66.678625"/>
     <use style="fill:#1f77b4;fill-opacity:0.4;" x="302.078267" xlink:href="#mecf668297f" y="66.145965"/>
     <use style="fill:#1f77b4;fill-opacity:0.4;" x="303.819127" xlink:href="#mecf668297f" y="65.447958"/>
     <use style="fill:#1f77b4;fill-opacity:0.4;" x="305.559987" xlink:href="#mecf668297f" y="65.254414"/>
     <use style="fill:#1f77b4;fill-opacity:0.4;" x="307.300847" xlink:href="#mecf668297f" y="64.250929"/>
     <use style="fill:#1f77b4;fill-opacity:0.4;" x="309.041707" xlink:href="#mecf668297f" y="63.633817"/>
     <use style="fill:#1f77b4;fill-opacity:0.4;" x="310.782567" xlink:href="#mecf668297f" y="63.202033"/>
     <use style="fill:#1f77b4;fill-opacity:0.4;" x="312.523427" xlink:href="#mecf668297f" y="62.256155"/>
     <use style="fill:#1f77b4;fill-opacity:0.4;" x="314.264287" xlink:href="#mecf668297f" y="61.878223"/>
     <use style="fill:#1f77b4;fill-opacity:0.4;" x="316.005147" xlink:href="#mecf668297f" y="60.997245"/>
     <use style="fill:#1f77b4;fill-opacity:0.4;" x="317.746007" xlink:href="#mecf668297f" y="60.424594"/>
     <use style="fill:#1f77b4;fill-opacity:0.4;" x="319.486867" xlink:href="#mecf668297f" y="59.720476"/>
     <use style="fill:#1f77b4;fill-opacity:0.4;" x="321.227727" xlink:href="#mecf668297f" y="59.153229"/>
     <use style="fill:#1f77b4;fill-opacity:0.4;" x="322.968587" xlink:href="#mecf668297f" y="58.366335"/>
     <use style="fill:#1f77b4;fill-opacity:0.4;" x="324.709447" xlink:href="#mecf668297f" y="57.819553"/>
     <use style="fill:#1f77b4;fill-opacity:0.4;" x="326.450307" xlink:href="#mecf668297f" y="57.42681"/>
    </g>
   </g>
   <g id="line2d_19">
    <path clip-path="url(#p22326c3500)" d="M -1 60.048395 
L 91.434207 26.626298 
L 98.397647 24.303413 
L 103.620227 22.777704 
L 107.101947 21.97519 
L 110.583667 21.477621 
L 112.324527 21.399741 
L 114.065387 21.477891 
L 115.806247 21.753147 
L 117.547107 22.275547 
L 119.287967 23.104867 
L 121.028827 24.310674 
L 122.769687 25.971063 
L 124.510547 28.169344 
L 126.251407 30.987866 
L 127.992267 34.498331 
L 129.733127 38.748615 
L 131.473987 43.747301 
L 133.214847 49.44883 
L 134.955707 55.743748 
L 141.919147 82.795683 
L 143.660007 88.861818 
L 145.400867 94.28111 
L 147.141727 98.971276 
L 148.882587 102.91082 
L 150.623447 106.126559 
L 152.364307 108.678052 
L 154.105167 110.642831 
L 155.846027 112.104611 
L 157.586887 113.145104 
L 159.327747 113.83913 
L 161.068607 114.252257 
L 162.809467 114.440159 
L 164.550327 114.449033 
L 168.032047 114.073053 
L 171.513767 113.344613 
L 176.736347 111.878742 
L 183.699787 109.589027 
L 195.885807 105.277113 
L 233.319125 91.71789 
L 233.319125 91.71789 
" style="fill:none;stroke:#000000;stroke-linecap:square;"/>
   </g>
   <g id="patch_3">
    <path d="M 51.033125 129.5 
L 51.033125 7.2 
" style="fill:none;stroke:#000000;stroke-linecap:square;stroke-linejoin:miter;stroke-width:0.8;"/>
   </g>
   <g id="patch_4">
    <path d="M 225.119125 129.5 
L 225.119125 7.2 
" style="fill:none;stroke:#000000;stroke-linecap:square;stroke-linejoin:miter;stroke-width:0.8;"/>
   </g>
   <g id="patch_5">
    <path d="M 51.033125 129.5 
L 225.119125 129.5 
" style="fill:none;stroke:#000000;stroke-linecap:square;stroke-linejoin:miter;stroke-width:0.8;"/>
   </g>
   <g id="patch_6">
    <path d="M 51.033125 7.2 
L 225.119125 7.2 
" style="fill:none;stroke:#000000;stroke-linecap:square;stroke-linejoin:miter;stroke-width:0.8;"/>
   </g>
   <g id="text_9">
    <!-- $N=0$ -->
    <defs>
     <path d="M 22.859375 71.734375 
L 34.328125 71.734375 
L 58.203125 13.625 
L 70.5625 71.734375 
L 79.78125 71.734375 
L 64.546875 0 
L 53.65625 0 
L 29.203125 58.0625 
L 16.890625 0 
L 7.625 0 
z
" id="Helvetica-Oblique-4e"/>
     <path d="M 63.921875 40.140625 
L 62.203125 31.9375 
L 11.28125 31.9375 
L 12.984375 40.140625 
z
M 59.46875 19.1875 
L 57.71875 10.84375 
L 6.78125 10.84375 
L 8.546875 19.1875 
z
" id="Helvetica-Oblique-3d"/>
     <path d="M 59.125 58.734375 
Q 62.015625 50.09375 58.796875 35.0625 
Q 55.765625 20.796875 49.515625 11.46875 
Q 40.53125 -1.90625 26.5625 -1.90625 
Q 13.96875 -1.90625 10.15625 9.03125 
Q 6.984375 18.171875 10.25 33.546875 
Q 12.75 45.453125 17.671875 54 
Q 26.8125 69.921875 41.890625 69.921875 
Q 55.46875 69.921875 59.125 58.734375 
z
M 49.265625 34.71875 
Q 51.765625 46.625 50.46875 54.3125 
Q 49.171875 62.015625 40.71875 62.015625 
Q 32.953125 62.015625 27.828125 54.703125 
Q 22.703125 47.40625 19.671875 33.203125 
Q 17.390625 22.515625 18.3125 16.015625 
Q 19.734375 6.109375 28.21875 6.109375 
Q 35.0625 6.109375 40.40625 12.15625 
Q 45.75 18.21875 49.265625 34.71875 
z
" id="Helvetica-Oblique-30"/>
    </defs>
    <g transform="translate(77.146025 74.465)scale(0.14 -0.14)">
     <use transform="translate(0 0.265625)" xlink:href="#Helvetica-Oblique-4e"/>
     <use transform="translate(88.876953 0.265625)" xlink:href="#Helvetica-Oblique-3d"/>
     <use transform="translate(163.935547 0.265625)" xlink:href="#Helvetica-Oblique-30"/>
    </g>
   </g>
   <g id="text_10">
    <!-- $N=1$ -->
    <defs>
     <path d="M 20.0625 49.515625 
L 21.484375 56.25 
Q 31.203125 57.171875 35.421875 59.34375 
Q 39.65625 61.53125 43.265625 69.625 
L 50.203125 69.625 
L 35.40625 0 
L 26.03125 0 
L 36.53125 49.515625 
z
" id="Helvetica-Oblique-31"/>
    </defs>
    <g transform="translate(164.189025 74.465)scale(0.14 -0.14)">
     <use transform="translate(0 0.265625)" xlink:href="#Helvetica-Oblique-4e"/>
     <use transform="translate(88.876953 0.265625)" xlink:href="#Helvetica-Oblique-3d"/>
     <use transform="translate(163.935547 0.265625)" xlink:href="#Helvetica-Oblique-31"/>
    </g>
   </g>
  </g>
 </g>
 <defs>
  <clipPath id="p22326c3500">
   <rect height="122.3" width="174.086" x="51.033125" y="7.2"/>
  </clipPath>
 </defs>
</svg>
