<?xml version="1.0" encoding="utf-8" standalone="no"?>
<!DOCTYPE svg PUBLIC "-//W3C//DTD SVG 1.1//EN"
  "http://www.w3.org/Graphics/SVG/1.1/DTD/svg11.dtd">
<!-- Created with matplotlib (http://matplotlib.org/) -->
<svg height="167pt" version="1.1" viewBox="0 0 239 167" width="239pt" xmlns="http://www.w3.org/2000/svg" xmlns:xlink="http://www.w3.org/1999/xlink">
 <defs>
  <style type="text/css">
*{stroke-linecap:butt;stroke-linejoin:round;}
  </style>
 </defs>
 <g id="figure_1">
  <g id="patch_1">
   <path d="M 0 167.869375 
L 239.477875 167.869375 
L 239.477875 0 
L 0 0 
z
" style="fill:#ffffff;"/>
  </g>
  <g id="axes_1">
   <g id="patch_2">
    <path d="M 41.361875 129.5 
L 232.277875 129.5 
L 232.277875 7.2 
L 41.361875 7.2 
z
" style="fill:#ffffff;"/>
   </g>
   <g id="matplotlib.axis_1">
    <g id="xtick_1">
     <g id="line2d_1">
      <defs>
       <path d="M 0 0 
L 0 -3.5 
" id="m2be65141c6" style="stroke:#000000;stroke-width:0.8;"/>
      </defs>
      <g>
       <use style="stroke:#000000;stroke-width:0.8;" x="60.453475" xlink:href="#m2be65141c6" y="129.5"/>
      </g>
     </g>
     <g id="line2d_2">
      <defs>
       <path d="M 0 0 
L 0 3.5 
" id="m6787cce658" style="stroke:#000000;stroke-width:0.8;"/>
      </defs>
      <g>
       <use style="stroke:#000000;stroke-width:0.8;" x="60.453475" xlink:href="#m6787cce658" y="7.2"/>
      </g>
     </g>
     <g id="text_1">
      <!-- −2 -->
      <defs>
       <path d="M 55.421875 29.59375 
L 55.421875 21.390625 
L 4.5 21.390625 
L 4.5 29.59375 
z
" id="Helvetica-2212"/>
       <path d="M 3.125 0 
Q 3.609375 9.03125 6.859375 15.71875 
Q 10.109375 22.40625 19.53125 27.875 
L 28.90625 33.296875 
Q 35.203125 36.96875 37.75 39.546875 
Q 41.75 43.609375 41.75 48.828125 
Q 41.75 54.9375 38.078125 58.515625 
Q 34.421875 62.109375 28.328125 62.109375 
Q 19.28125 62.109375 15.828125 55.28125 
Q 13.96875 51.609375 13.765625 45.125 
L 4.828125 45.125 
Q 4.984375 54.25 8.203125 60.015625 
Q 13.921875 70.171875 28.375 70.171875 
Q 40.375 70.171875 45.921875 63.671875 
Q 51.46875 57.171875 51.46875 49.21875 
Q 51.46875 40.828125 45.5625 34.859375 
Q 42.140625 31.390625 33.296875 26.46875 
L 26.609375 22.75 
Q 21.828125 20.125 19.09375 17.71875 
Q 14.203125 13.484375 12.9375 8.296875 
L 51.125 8.296875 
L 51.125 0 
L 3.125 0 
z
" id="Helvetica-32"/>
      </defs>
      <g transform="translate(53.612537 141.608125)scale(0.12 -0.12)">
       <use xlink:href="#Helvetica-2212"/>
       <use x="58.398438" xlink:href="#Helvetica-32"/>
      </g>
     </g>
    </g>
    <g id="xtick_2">
     <g id="line2d_3">
      <g>
       <use style="stroke:#000000;stroke-width:0.8;" x="136.819875" xlink:href="#m2be65141c6" y="129.5"/>
      </g>
     </g>
     <g id="line2d_4">
      <g>
       <use style="stroke:#000000;stroke-width:0.8;" x="136.819875" xlink:href="#m6787cce658" y="7.2"/>
      </g>
     </g>
     <g id="text_2">
      <!-- 0 -->
      <defs>
       <path d="M 27.046875 69.921875 
Q 40.625 69.921875 46.6875 58.734375 
Q 51.375 50.09375 51.375 35.0625 
Q 51.375 20.796875 47.125 11.46875 
Q 40.96875 -1.90625 27 -1.90625 
Q 14.40625 -1.90625 8.25 9.03125 
Q 3.125 18.171875 3.125 33.546875 
Q 3.125 45.453125 6.203125 54 
Q 11.96875 69.921875 27.046875 69.921875 
z
M 26.953125 6.109375 
Q 33.796875 6.109375 37.84375 12.15625 
Q 41.890625 18.21875 41.890625 34.71875 
Q 41.890625 46.625 38.953125 54.3125 
Q 36.03125 62.015625 27.59375 62.015625 
Q 19.828125 62.015625 16.234375 54.703125 
Q 12.640625 47.40625 12.640625 33.203125 
Q 12.640625 22.515625 14.9375 16.015625 
Q 18.453125 6.109375 26.953125 6.109375 
z
" id="Helvetica-30"/>
      </defs>
      <g transform="translate(133.483312 141.608125)scale(0.12 -0.12)">
       <use xlink:href="#Helvetica-30"/>
      </g>
     </g>
    </g>
    <g id="xtick_3">
     <g id="line2d_5">
      <g>
       <use style="stroke:#000000;stroke-width:0.8;" x="213.186275" xlink:href="#m2be65141c6" y="129.5"/>
      </g>
     </g>
     <g id="line2d_6">
      <g>
       <use style="stroke:#000000;stroke-width:0.8;" x="213.186275" xlink:href="#m6787cce658" y="7.2"/>
      </g>
     </g>
     <g id="text_3">
      <!-- 2 -->
      <g transform="translate(209.849712 141.608125)scale(0.12 -0.12)">
       <use xlink:href="#Helvetica-32"/>
      </g>
     </g>
    </g>
    <g id="text_4">
     <!-- $V_{p}-V_{mid}$ (mV) -->
     <defs>
      <path d="M 13.28125 71.734375 
L 33.890625 10.640625 
L 54.25 71.734375 
L 65.140625 71.734375 
L 38.96875 0 
L 28.65625 0 
L 2.546875 71.734375 
z
" id="Helvetica-56"/>
      <path d="M 28.515625 5.90625 
Q 34.671875 5.90625 38.75 11.0625 
Q 42.828125 16.21875 42.828125 26.46875 
Q 42.828125 32.71875 41.015625 37.203125 
Q 37.59375 45.84375 28.515625 45.84375 
Q 19.390625 45.84375 16.015625 36.71875 
Q 14.203125 31.84375 14.203125 24.3125 
Q 14.203125 18.265625 16.015625 14.015625 
Q 19.4375 5.90625 28.515625 5.90625 
z
M 5.765625 52.046875 
L 14.3125 52.046875 
L 14.3125 45.125 
Q 16.9375 48.6875 20.0625 50.640625 
Q 24.515625 53.5625 30.515625 53.5625 
Q 39.40625 53.5625 45.609375 46.75 
Q 51.8125 39.9375 51.8125 27.296875 
Q 51.8125 10.203125 42.875 2.875 
Q 37.203125 -1.765625 29.6875 -1.765625 
Q 23.78125 -1.765625 19.78125 0.828125 
Q 17.4375 2.296875 14.546875 5.859375 
L 14.546875 -20.84375 
L 5.765625 -20.84375 
z
" id="Helvetica-70"/>
      <path d="M 6.453125 52.296875 
L 15.140625 52.296875 
L 15.140625 44.875 
Q 18.265625 48.734375 20.796875 50.484375 
Q 25.140625 53.46875 30.671875 53.46875 
Q 36.921875 53.46875 40.71875 50.390625 
Q 42.875 48.640625 44.625 45.21875 
Q 47.5625 49.421875 51.515625 51.4375 
Q 55.46875 53.46875 60.40625 53.46875 
Q 70.953125 53.46875 74.75 45.84375 
Q 76.8125 41.75 76.8125 34.8125 
L 76.8125 0 
L 67.671875 0 
L 67.671875 36.328125 
Q 67.671875 41.546875 65.0625 43.5 
Q 62.453125 45.453125 58.6875 45.453125 
Q 53.515625 45.453125 49.78125 41.984375 
Q 46.046875 38.53125 46.046875 30.421875 
L 46.046875 0 
L 37.109375 0 
L 37.109375 34.125 
Q 37.109375 39.453125 35.84375 41.890625 
Q 33.84375 45.5625 28.375 45.5625 
Q 23.390625 45.5625 19.3125 41.703125 
Q 15.234375 37.84375 15.234375 27.734375 
L 15.234375 0 
L 6.453125 0 
z
" id="Helvetica-6d"/>
      <path d="M 6.453125 52.046875 
L 15.375 52.046875 
L 15.375 0 
L 6.453125 0 
z
M 6.453125 71.734375 
L 15.375 71.734375 
L 15.375 61.765625 
L 6.453125 61.765625 
z
" id="Helvetica-69"/>
      <path d="M 12.015625 25.53125 
Q 12.015625 17.140625 15.578125 11.46875 
Q 19.140625 5.8125 27 5.8125 
Q 33.109375 5.8125 37.03125 11.0625 
Q 40.96875 16.3125 40.96875 26.125 
Q 40.96875 36.03125 36.90625 40.796875 
Q 32.859375 45.5625 26.90625 45.5625 
Q 20.265625 45.5625 16.140625 40.484375 
Q 12.015625 35.40625 12.015625 25.53125 
z
M 25.25 53.21875 
Q 31.25 53.21875 35.296875 50.6875 
Q 37.640625 49.21875 40.625 45.5625 
L 40.625 71.96875 
L 49.078125 71.96875 
L 49.078125 0 
L 41.15625 0 
L 41.15625 7.28125 
Q 38.09375 2.4375 33.890625 0.28125 
Q 29.6875 -1.859375 24.265625 -1.859375 
Q 15.53125 -1.859375 9.125 5.484375 
Q 2.734375 12.84375 2.734375 25.046875 
Q 2.734375 36.46875 8.5625 44.84375 
Q 14.40625 53.21875 25.25 53.21875 
z
" id="Helvetica-64"/>
      <path id="Helvetica-20"/>
      <path d="M 29.59375 72.90625 
Q 21.921875 58.015625 19.625 50.984375 
Q 16.15625 40.28125 16.15625 26.265625 
Q 16.15625 12.109375 20.125 0.390625 
Q 22.5625 -6.84375 29.734375 -20.40625 
L 23.828125 -20.40625 
Q 16.703125 -9.28125 14.984375 -6.203125 
Q 13.28125 -3.125 11.28125 2.15625 
Q 8.546875 9.375 7.46875 17.578125 
Q 6.9375 21.828125 6.9375 25.6875 
Q 6.9375 40.140625 11.46875 51.421875 
Q 14.359375 58.59375 23.484375 72.90625 
z
" id="Helvetica-28"/>
      <path d="M 3.46875 -20.40625 
Q 11.234375 -5.28125 13.484375 1.65625 
Q 16.890625 12.15625 16.890625 26.265625 
Q 16.890625 40.375 12.9375 52.09375 
Q 10.5 59.328125 3.328125 72.90625 
L 9.234375 72.90625 
Q 16.75 60.890625 18.328125 58.078125 
Q 19.921875 55.28125 21.78125 50.34375 
Q 24.125 44.234375 25.125 38.28125 
Q 26.125 32.328125 26.125 26.8125 
Q 26.125 12.359375 21.53125 1.03125 
Q 18.65625 -6.25 9.578125 -20.40625 
z
" id="Helvetica-29"/>
     </defs>
     <g transform="translate(92.789875 156.329375)scale(0.14 -0.14)">
      <use transform="translate(0 0.09375)" xlink:href="#Helvetica-56"/>
      <use transform="translate(67.614414 -15.595313)scale(0.7)" xlink:href="#Helvetica-70"/>
      <use transform="translate(125.820078 0.09375)" xlink:href="#Helvetica-2212"/>
      <use transform="translate(200.878672 0.09375)" xlink:href="#Helvetica-56"/>
      <use transform="translate(268.493086 -15.595313)scale(0.7)" xlink:href="#Helvetica-6d"/>
      <use transform="translate(326.803633 -15.595313)scale(0.7)" xlink:href="#Helvetica-69"/>
      <use transform="translate(342.355391 -15.595313)scale(0.7)" xlink:href="#Helvetica-64"/>
      <use transform="translate(383.900898 0.09375)" xlink:href="#Helvetica-20"/>
      <use transform="translate(411.684102 0.09375)" xlink:href="#Helvetica-28"/>
      <use transform="translate(444.984883 0.09375)" xlink:href="#Helvetica-6d"/>
      <use transform="translate(528.285664 0.09375)" xlink:href="#Helvetica-56"/>
      <use transform="translate(594.984883 0.09375)" xlink:href="#Helvetica-29"/>
     </g>
    </g>
   </g>
   <g id="matplotlib.axis_2">
    <g id="ytick_1">
     <g id="line2d_7">
      <defs>
       <path d="M 0 0 
L 3.5 0 
" id="m4bd3297dad" style="stroke:#000000;stroke-width:0.8;"/>
      </defs>
      <g>
       <use style="stroke:#000000;stroke-width:0.8;" x="41.361875" xlink:href="#m4bd3297dad" y="123.940909"/>
      </g>
     </g>
     <g id="line2d_8">
      <defs>
       <path d="M 0 0 
L -3.5 0 
" id="m69ecd8fd22" style="stroke:#000000;stroke-width:0.8;"/>
      </defs>
      <g>
       <use style="stroke:#000000;stroke-width:0.8;" x="232.277875" xlink:href="#m69ecd8fd22" y="123.940909"/>
      </g>
     </g>
     <g id="text_5">
      <!-- −2 -->
      <g transform="translate(24.18 128.244972)scale(0.12 -0.12)">
       <use xlink:href="#Helvetica-2212"/>
       <use x="58.398438" xlink:href="#Helvetica-32"/>
      </g>
     </g>
    </g>
    <g id="ytick_2">
     <g id="line2d_9">
      <g>
       <use style="stroke:#000000;stroke-width:0.8;" x="41.361875" xlink:href="#m4bd3297dad" y="79.468182"/>
      </g>
     </g>
     <g id="line2d_10">
      <g>
       <use style="stroke:#000000;stroke-width:0.8;" x="232.277875" xlink:href="#m69ecd8fd22" y="79.468182"/>
      </g>
     </g>
     <g id="text_6">
      <!-- 0 -->
      <g transform="translate(31.18875 83.772244)scale(0.12 -0.12)">
       <use xlink:href="#Helvetica-30"/>
      </g>
     </g>
    </g>
    <g id="ytick_3">
     <g id="line2d_11">
      <g>
       <use style="stroke:#000000;stroke-width:0.8;" x="41.361875" xlink:href="#m4bd3297dad" y="34.995455"/>
      </g>
     </g>
     <g id="line2d_12">
      <g>
       <use style="stroke:#000000;stroke-width:0.8;" x="232.277875" xlink:href="#m69ecd8fd22" y="34.995455"/>
      </g>
     </g>
     <g id="text_7">
      <!-- 2 -->
      <g transform="translate(31.18875 39.299517)scale(0.12 -0.12)">
       <use xlink:href="#Helvetica-32"/>
      </g>
     </g>
    </g>
    <g id="text_8">
     <!-- $\delta G_{sens}$ $(10^{-3} \, e^2/h)$ -->
     <defs>
      <path d="M 10.40625 70.609375 
L 49.8125 70.609375 
L 49.8125 63.375 
L 21.78125 63.375 
L 21.78125 63.1875 
L 39.203125 51.609375 
Q 48.96875 45.015625 52.6875 38.578125 
Q 56.109375 32.078125 56 25 
Q 55.90625 14.59375 49.421875 6.984375 
Q 42.78125 -0.78125 30.28125 -0.984375 
Q 18.796875 -0.875 12.015625 6.296875 
Q 5.171875 13.28125 5.078125 24.3125 
Q 5.328125 47.90625 29.109375 49.8125 
L 29.109375 50 
L 10.40625 63.375 
z
M 31.109375 6.203125 
Q 39.015625 6.296875 42.671875 12.40625 
Q 46.390625 18.21875 46.390625 25.09375 
Q 46.390625 29 45.609375 31.890625 
Q 44.78125 34.71875 43.609375 36.625 
Q 42.390625 38.484375 41.21875 39.703125 
Q 39.984375 40.921875 39.203125 41.40625 
Q 37.203125 43.21875 33.6875 43.21875 
Q 14.796875 43.21875 14.703125 23.875 
Q 14.703125 16.5 19 11.53125 
Q 23.296875 6.296875 31.109375 6.203125 
z
" id="Helvetica-3b4"/>
      <path d="M 38.625 73.578125 
Q 48.734375 73.578125 56.109375 69.671875 
Q 66.796875 64.0625 69.1875 50 
L 59.578125 50 
Q 57.8125 57.859375 52.296875 61.453125 
Q 46.78125 65.046875 38.375 65.046875 
Q 28.421875 65.046875 21.609375 57.5625 
Q 14.796875 50.09375 14.796875 35.296875 
Q 14.796875 22.515625 20.40625 14.484375 
Q 26.03125 6.453125 38.71875 6.453125 
Q 48.4375 6.453125 54.8125 12.078125 
Q 61.1875 17.71875 61.328125 30.328125 
L 38.875 30.328125 
L 38.875 38.375 
L 70.359375 38.375 
L 70.359375 0 
L 64.109375 0 
L 61.765625 9.234375 
Q 56.84375 3.8125 53.03125 1.703125 
Q 46.625 -1.90625 36.765625 -1.90625 
Q 24.03125 -1.90625 14.84375 6.34375 
Q 4.828125 16.703125 4.828125 34.765625 
Q 4.828125 52.78125 14.59375 63.421875 
Q 23.875 73.578125 38.625 73.578125 
z
M 37.015625 73.6875 
z
" id="Helvetica-47"/>
      <path d="M 11.671875 16.40625 
Q 12.0625 12.015625 13.875 9.671875 
Q 17.1875 5.421875 25.390625 5.421875 
Q 30.28125 5.421875 33.984375 7.546875 
Q 37.703125 9.671875 37.703125 14.109375 
Q 37.703125 17.484375 34.71875 19.234375 
Q 32.8125 20.3125 27.203125 21.734375 
L 20.21875 23.484375 
Q 13.53125 25.140625 10.359375 27.203125 
Q 4.6875 30.765625 4.6875 37.0625 
Q 4.6875 44.484375 10.03125 49.0625 
Q 15.375 53.65625 24.421875 53.65625 
Q 36.234375 53.65625 41.453125 46.734375 
Q 44.734375 42.328125 44.625 37.25 
L 36.328125 37.25 
Q 36.078125 40.234375 34.234375 42.671875 
Q 31.203125 46.140625 23.734375 46.140625 
Q 18.75 46.140625 16.1875 44.234375 
Q 13.625 42.328125 13.625 39.203125 
Q 13.625 35.796875 17 33.734375 
Q 18.953125 32.515625 22.75 31.59375 
L 28.5625 30.171875 
Q 38.03125 27.875 41.265625 25.734375 
Q 46.390625 22.359375 46.390625 15.140625 
Q 46.390625 8.15625 41.09375 3.078125 
Q 35.796875 -2 24.953125 -2 
Q 13.28125 -2 8.421875 3.296875 
Q 3.5625 8.59375 3.21875 16.40625 
z
M 24.65625 53.5625 
z
" id="Helvetica-73"/>
      <path d="M 28.21875 53.46875 
Q 33.796875 53.46875 39.015625 50.859375 
Q 44.234375 48.25 46.96875 44.09375 
Q 49.609375 40.140625 50.484375 34.859375 
Q 51.265625 31.25 51.265625 23.34375 
L 12.9375 23.34375 
Q 13.1875 15.375 16.703125 10.5625 
Q 20.21875 5.765625 27.59375 5.765625 
Q 34.46875 5.765625 38.578125 10.296875 
Q 40.921875 12.9375 41.890625 16.40625 
L 50.53125 16.40625 
Q 50.203125 13.53125 48.265625 9.984375 
Q 46.34375 6.453125 43.953125 4.203125 
Q 39.9375 0.296875 34.03125 -1.078125 
Q 30.859375 -1.859375 26.859375 -1.859375 
Q 17.09375 -1.859375 10.296875 5.25 
Q 3.515625 12.359375 3.515625 25.140625 
Q 3.515625 37.75 10.34375 45.609375 
Q 17.1875 53.46875 28.21875 53.46875 
z
M 42.234375 30.328125 
Q 41.703125 36.03125 39.75 39.453125 
Q 36.140625 45.796875 27.6875 45.796875 
Q 21.625 45.796875 17.515625 41.421875 
Q 13.421875 37.0625 13.1875 30.328125 
z
M 27.390625 53.5625 
z
" id="Helvetica-65"/>
      <path d="M 6.453125 52.296875 
L 14.796875 52.296875 
L 14.796875 44.875 
Q 18.5 49.46875 22.65625 51.46875 
Q 26.8125 53.46875 31.890625 53.46875 
Q 43.015625 53.46875 46.921875 45.703125 
Q 49.078125 41.453125 49.078125 33.546875 
L 49.078125 0 
L 40.140625 0 
L 40.140625 32.953125 
Q 40.140625 37.75 38.71875 40.671875 
Q 36.375 45.5625 30.21875 45.5625 
Q 27.09375 45.5625 25.09375 44.921875 
Q 21.484375 43.84375 18.75 40.625 
Q 16.546875 38.03125 15.890625 35.265625 
Q 15.234375 32.515625 15.234375 27.390625 
L 15.234375 0 
L 6.453125 0 
z
M 27.09375 53.5625 
z
" id="Helvetica-6e"/>
      <path d="M 9.578125 49.515625 
L 9.578125 56.25 
Q 19.09375 57.171875 22.84375 59.34375 
Q 26.609375 61.53125 28.46875 69.625 
L 35.40625 69.625 
L 35.40625 0 
L 26.03125 0 
L 26.03125 49.515625 
z
" id="Helvetica-31"/>
      <path d="M 25.984375 -1.90625 
Q 13.578125 -1.90625 7.984375 4.90625 
Q 2.390625 11.71875 2.390625 21.484375 
L 11.578125 21.484375 
Q 12.15625 14.703125 14.109375 11.625 
Q 17.53125 6.109375 26.46875 6.109375 
Q 33.40625 6.109375 37.59375 9.8125 
Q 41.796875 13.53125 41.796875 19.390625 
Q 41.796875 26.609375 37.375 29.484375 
Q 32.953125 32.375 25.09375 32.375 
Q 24.21875 32.375 23.3125 32.34375 
Q 22.40625 32.328125 21.484375 32.28125 
L 21.484375 40.046875 
Q 22.859375 39.890625 23.78125 39.84375 
Q 24.703125 39.796875 25.78125 39.796875 
Q 30.71875 39.796875 33.890625 41.359375 
Q 39.453125 44.09375 39.453125 51.125 
Q 39.453125 56.34375 35.734375 59.171875 
Q 32.03125 62.015625 27.09375 62.015625 
Q 18.3125 62.015625 14.9375 56.15625 
Q 13.09375 52.9375 12.84375 46.96875 
L 4.15625 46.96875 
Q 4.15625 54.78125 7.28125 60.25 
Q 12.640625 70.015625 26.171875 70.015625 
Q 36.859375 70.015625 42.71875 65.25 
Q 48.578125 60.5 48.578125 51.46875 
Q 48.578125 45.015625 45.125 41.015625 
Q 42.96875 38.53125 39.546875 37.109375 
Q 45.0625 35.59375 48.15625 31.265625 
Q 51.265625 26.953125 51.265625 20.703125 
Q 51.265625 10.6875 44.671875 4.390625 
Q 38.09375 -1.90625 25.984375 -1.90625 
z
" id="Helvetica-33"/>
      <path d="M 22.75 71.734375 
L 30.171875 71.734375 
L 7.421875 0 
L 0 0 
z
" id="Helvetica-2f"/>
      <path d="M 6.453125 71.96875 
L 15.234375 71.96875 
L 15.234375 45.21875 
Q 18.359375 49.171875 20.84375 50.78125 
Q 25.09375 53.5625 31.453125 53.5625 
Q 42.828125 53.5625 46.875 45.609375 
Q 49.078125 41.265625 49.078125 33.546875 
L 49.078125 0 
L 40.046875 0 
L 40.046875 32.953125 
Q 40.046875 38.71875 38.578125 41.40625 
Q 36.1875 45.703125 29.59375 45.703125 
Q 24.125 45.703125 19.671875 41.9375 
Q 15.234375 38.1875 15.234375 27.734375 
L 15.234375 0 
L 6.453125 0 
z
" id="Helvetica-68"/>
     </defs>
     <g transform="translate(19.24 122.6)rotate(-90)scale(0.14 -0.14)">
      <use transform="translate(0 0.271875)" xlink:href="#Helvetica-3b4"/>
      <use transform="translate(61.083984 0.271875)" xlink:href="#Helvetica-47"/>
      <use transform="translate(139.782383 -15.417187)scale(0.7)" xlink:href="#Helvetica-73"/>
      <use transform="translate(174.782383 -15.417187)scale(0.7)" xlink:href="#Helvetica-65"/>
      <use transform="translate(213.713047 -15.417187)scale(0.7)" xlink:href="#Helvetica-6e"/>
      <use transform="translate(252.643711 -15.417187)scale(0.7)" xlink:href="#Helvetica-73"/>
      <use transform="translate(290.258555 0.271875)" xlink:href="#Helvetica-20"/>
      <use transform="translate(318.041758 0.271875)" xlink:href="#Helvetica-28"/>
      <use transform="translate(351.342539 0.271875)" xlink:href="#Helvetica-31"/>
      <use transform="translate(406.957773 0.271875)" xlink:href="#Helvetica-30"/>
      <use transform="translate(463.488203 36.879688)scale(0.7)" xlink:href="#Helvetica-2212"/>
      <use transform="translate(504.367109 36.879688)scale(0.7)" xlink:href="#Helvetica-33"/>
      <use transform="translate(559.796358 0.271875)" xlink:href="#Helvetica-65"/>
      <use transform="translate(616.326788 36.879688)scale(0.7)" xlink:href="#Helvetica-32"/>
      <use transform="translate(657.872296 0.271875)" xlink:href="#Helvetica-2f"/>
      <use transform="translate(685.655499 0.271875)" xlink:href="#Helvetica-68"/>
      <use transform="translate(741.270733 0.271875)" xlink:href="#Helvetica-29"/>
     </g>
    </g>
   </g>
   <g id="line2d_13">
    <path clip-path="url(#pedfc684d06)" d="M 41.361875 79.468182 
L 232.277875 79.468182 
" style="fill:none;stroke:#b0b0b0;stroke-dasharray:1,1.65;stroke-dashoffset:0;"/>
   </g>
   <g id="PathCollection_1">
    <defs>
     <path d="M 0 2.44949 
C 0.649612 2.44949 1.272706 2.191396 1.732051 1.732051 
C 2.191396 1.272706 2.44949 0.649612 2.44949 0 
C 2.44949 -0.649612 2.191396 -1.272706 1.732051 -1.732051 
C 1.272706 -2.191396 0.649612 -2.44949 0 -2.44949 
C -0.649612 -2.44949 -1.272706 -2.191396 -1.732051 -1.732051 
C -2.191396 -1.272706 -2.44949 -0.649612 -2.44949 0 
C -2.44949 0.649612 -2.191396 1.272706 -1.732051 1.732051 
C -1.272706 2.191396 -0.649612 2.44949 0 2.44949 
z
" id="m3ab7c63eef"/>
    </defs>
    <g clip-path="url(#pedfc684d06)">
     <use style="fill:#9467bd;fill-opacity:0.4;" x="-1" xlink:href="#m3ab7c63eef" y="78.026905"/>
     <use style="fill:#9467bd;fill-opacity:0.4;" x="-0.787882" xlink:href="#m3ab7c63eef" y="77.962828"/>
     <use style="fill:#9467bd;fill-opacity:0.4;" x="1.121278" xlink:href="#m3ab7c63eef" y="78.216978"/>
     <use style="fill:#9467bd;fill-opacity:0.4;" x="3.030438" xlink:href="#m3ab7c63eef" y="78.549329"/>
     <use style="fill:#9467bd;fill-opacity:0.4;" x="4.939598" xlink:href="#m3ab7c63eef" y="78.824984"/>
     <use style="fill:#9467bd;fill-opacity:0.4;" x="6.848758" xlink:href="#m3ab7c63eef" y="78.981384"/>
     <use style="fill:#9467bd;fill-opacity:0.4;" x="8.757918" xlink:href="#m3ab7c63eef" y="78.780018"/>
     <use style="fill:#9467bd;fill-opacity:0.4;" x="10.667078" xlink:href="#m3ab7c63eef" y="78.881679"/>
     <use style="fill:#9467bd;fill-opacity:0.4;" x="12.576238" xlink:href="#m3ab7c63eef" y="78.709638"/>
     <use style="fill:#9467bd;fill-opacity:0.4;" x="14.485398" xlink:href="#m3ab7c63eef" y="78.46722"/>
     <use style="fill:#9467bd;fill-opacity:0.4;" x="16.394558" xlink:href="#m3ab7c63eef" y="78.619709"/>
     <use style="fill:#9467bd;fill-opacity:0.4;" x="18.303718" xlink:href="#m3ab7c63eef" y="78.408569"/>
     <use style="fill:#9467bd;fill-opacity:0.4;" x="20.212878" xlink:href="#m3ab7c63eef" y="78.326459"/>
     <use style="fill:#9467bd;fill-opacity:0.4;" x="22.122038" xlink:href="#m3ab7c63eef" y="78.737009"/>
     <use style="fill:#9467bd;fill-opacity:0.4;" x="24.031198" xlink:href="#m3ab7c63eef" y="78.770245"/>
     <use style="fill:#9467bd;fill-opacity:0.4;" x="25.940358" xlink:href="#m3ab7c63eef" y="78.703774"/>
     <use style="fill:#9467bd;fill-opacity:0.4;" x="27.849518" xlink:href="#m3ab7c63eef" y="78.950105"/>
     <use style="fill:#9467bd;fill-opacity:0.4;" x="29.758678" xlink:href="#m3ab7c63eef" y="79.032215"/>
     <use style="fill:#9467bd;fill-opacity:0.4;" x="31.667838" xlink:href="#m3ab7c63eef" y="79.145605"/>
     <use style="fill:#9467bd;fill-opacity:0.4;" x="33.576998" xlink:href="#m3ab7c63eef" y="78.912958"/>
     <use style="fill:#9467bd;fill-opacity:0.4;" x="35.486158" xlink:href="#m3ab7c63eef" y="78.269761"/>
     <use style="fill:#9467bd;fill-opacity:0.4;" x="37.395318" xlink:href="#m3ab7c63eef" y="78.03907"/>
     <use style="fill:#9467bd;fill-opacity:0.4;" x="39.304478" xlink:href="#m3ab7c63eef" y="78.0117"/>
     <use style="fill:#9467bd;fill-opacity:0.4;" x="41.213638" xlink:href="#m3ab7c63eef" y="77.982373"/>
     <use style="fill:#9467bd;fill-opacity:0.4;" x="43.122798" xlink:href="#m3ab7c63eef" y="78.029292"/>
     <use style="fill:#9467bd;fill-opacity:0.4;" x="45.031958" xlink:href="#m3ab7c63eef" y="77.08111"/>
     <use style="fill:#9467bd;fill-opacity:0.4;" x="46.941118" xlink:href="#m3ab7c63eef" y="76.467236"/>
     <use style="fill:#9467bd;fill-opacity:0.4;" x="48.850278" xlink:href="#m3ab7c63eef" y="76.65492"/>
     <use style="fill:#9467bd;fill-opacity:0.4;" x="50.759438" xlink:href="#m3ab7c63eef" y="76.564988"/>
     <use style="fill:#9467bd;fill-opacity:0.4;" x="52.668598" xlink:href="#m3ab7c63eef" y="77.216007"/>
     <use style="fill:#9467bd;fill-opacity:0.4;" x="54.577758" xlink:href="#m3ab7c63eef" y="77.276612"/>
     <use style="fill:#9467bd;fill-opacity:0.4;" x="56.486918" xlink:href="#m3ab7c63eef" y="76.238501"/>
     <use style="fill:#9467bd;fill-opacity:0.4;" x="58.396078" xlink:href="#m3ab7c63eef" y="75.663728"/>
     <use style="fill:#9467bd;fill-opacity:0.4;" x="60.305238" xlink:href="#m3ab7c63eef" y="75.128057"/>
     <use style="fill:#9467bd;fill-opacity:0.4;" x="62.214398" xlink:href="#m3ab7c63eef" y="74.65299"/>
     <use style="fill:#9467bd;fill-opacity:0.4;" x="64.123558" xlink:href="#m3ab7c63eef" y="74.658857"/>
     <use style="fill:#9467bd;fill-opacity:0.4;" x="66.032718" xlink:href="#m3ab7c63eef" y="74.424259"/>
     <use style="fill:#9467bd;fill-opacity:0.4;" x="67.941878" xlink:href="#m3ab7c63eef" y="74.586526"/>
     <use style="fill:#9467bd;fill-opacity:0.4;" x="69.851038" xlink:href="#m3ab7c63eef" y="74.539606"/>
     <use style="fill:#9467bd;fill-opacity:0.4;" x="71.760198" xlink:href="#m3ab7c63eef" y="74.559155"/>
     <use style="fill:#9467bd;fill-opacity:0.4;" x="73.669358" xlink:href="#m3ab7c63eef" y="74.518098"/>
     <use style="fill:#9467bd;fill-opacity:0.4;" x="75.578518" xlink:href="#m3ab7c63eef" y="73.595336"/>
     <use style="fill:#9467bd;fill-opacity:0.4;" x="77.487678" xlink:href="#m3ab7c63eef" y="72.932591"/>
     <use style="fill:#9467bd;fill-opacity:0.4;" x="79.396838" xlink:href="#m3ab7c63eef" y="72.394967"/>
     <use style="fill:#9467bd;fill-opacity:0.4;" x="81.305998" xlink:href="#m3ab7c63eef" y="71.659883"/>
     <use style="fill:#9467bd;fill-opacity:0.4;" x="83.215158" xlink:href="#m3ab7c63eef" y="71.349031"/>
     <use style="fill:#9467bd;fill-opacity:0.4;" x="85.124318" xlink:href="#m3ab7c63eef" y="70.83877"/>
     <use style="fill:#9467bd;fill-opacity:0.4;" x="87.033478" xlink:href="#m3ab7c63eef" y="69.874947"/>
     <use style="fill:#9467bd;fill-opacity:0.4;" x="88.942638" xlink:href="#m3ab7c63eef" y="69.120319"/>
     <use style="fill:#9467bd;fill-opacity:0.4;" x="90.851798" xlink:href="#m3ab7c63eef" y="67.790922"/>
     <use style="fill:#9467bd;fill-opacity:0.4;" x="92.760958" xlink:href="#m3ab7c63eef" y="66.238652"/>
     <use style="fill:#9467bd;fill-opacity:0.4;" x="94.670118" xlink:href="#m3ab7c63eef" y="64.350103"/>
     <use style="fill:#9467bd;fill-opacity:0.4;" x="96.579278" xlink:href="#m3ab7c63eef" y="61.358957"/>
     <use style="fill:#9467bd;fill-opacity:0.4;" x="98.488438" xlink:href="#m3ab7c63eef" y="58.238773"/>
     <use style="fill:#9467bd;fill-opacity:0.4;" x="100.397598" xlink:href="#m3ab7c63eef" y="55.925992"/>
     <use style="fill:#9467bd;fill-opacity:0.4;" x="102.306758" xlink:href="#m3ab7c63eef" y="53.969055"/>
     <use style="fill:#9467bd;fill-opacity:0.4;" x="104.215918" xlink:href="#m3ab7c63eef" y="51.787239"/>
     <use style="fill:#9467bd;fill-opacity:0.4;" x="106.125078" xlink:href="#m3ab7c63eef" y="49.853713"/>
     <use style="fill:#9467bd;fill-opacity:0.4;" x="108.034238" xlink:href="#m3ab7c63eef" y="46.755029"/>
     <use style="fill:#9467bd;fill-opacity:0.4;" x="109.943398" xlink:href="#m3ab7c63eef" y="41.724787"/>
     <use style="fill:#9467bd;fill-opacity:0.4;" x="111.852558" xlink:href="#m3ab7c63eef" y="37.846051"/>
     <use style="fill:#9467bd;fill-opacity:0.4;" x="113.761718" xlink:href="#m3ab7c63eef" y="33.441418"/>
     <use style="fill:#9467bd;fill-opacity:0.4;" x="115.670878" xlink:href="#m3ab7c63eef" y="27.564665"/>
     <use style="fill:#9467bd;fill-opacity:0.4;" x="117.580038" xlink:href="#m3ab7c63eef" y="23.992891"/>
     <use style="fill:#9467bd;fill-opacity:0.4;" x="119.489198" xlink:href="#m3ab7c63eef" y="19.214835"/>
     <use style="fill:#9467bd;fill-opacity:0.4;" x="121.398358" xlink:href="#m3ab7c63eef" y="15.304817"/>
     <use style="fill:#9467bd;fill-opacity:0.4;" x="123.307518" xlink:href="#m3ab7c63eef" y="14.198247"/>
     <use style="fill:#9467bd;fill-opacity:0.4;" x="125.216678" xlink:href="#m3ab7c63eef" y="14.74366"/>
     <use style="fill:#9467bd;fill-opacity:0.4;" x="127.125838" xlink:href="#m3ab7c63eef" y="17.883426"/>
     <use style="fill:#9467bd;fill-opacity:0.4;" x="129.034998" xlink:href="#m3ab7c63eef" y="22.065227"/>
     <use style="fill:#9467bd;fill-opacity:0.4;" x="130.944158" xlink:href="#m3ab7c63eef" y="27.371148"/>
     <use style="fill:#9467bd;fill-opacity:0.4;" x="132.853318" xlink:href="#m3ab7c63eef" y="33.914549"/>
     <use style="fill:#9467bd;fill-opacity:0.4;" x="134.762478" xlink:href="#m3ab7c63eef" y="38.760991"/>
     <use style="fill:#9467bd;fill-opacity:0.4;" x="136.671638" xlink:href="#m3ab7c63eef" y="45.226166"/>
     <use style="fill:#9467bd;fill-opacity:0.4;" x="138.580798" xlink:href="#m3ab7c63eef" y="53.728497"/>
     <use style="fill:#9467bd;fill-opacity:0.4;" x="140.489958" xlink:href="#m3ab7c63eef" y="60.811502"/>
     <use style="fill:#9467bd;fill-opacity:0.4;" x="142.399118" xlink:href="#m3ab7c63eef" y="71.044042"/>
     <use style="fill:#9467bd;fill-opacity:0.4;" x="144.308278" xlink:href="#m3ab7c63eef" y="80.152431"/>
     <use style="fill:#9467bd;fill-opacity:0.4;" x="146.217438" xlink:href="#m3ab7c63eef" y="85.798498"/>
     <use style="fill:#9467bd;fill-opacity:0.4;" x="148.126598" xlink:href="#m3ab7c63eef" y="91.685037"/>
     <use style="fill:#9467bd;fill-opacity:0.4;" x="150.035758" xlink:href="#m3ab7c63eef" y="96.711359"/>
     <use style="fill:#9467bd;fill-opacity:0.4;" x="151.944918" xlink:href="#m3ab7c63eef" y="100.365263"/>
     <use style="fill:#9467bd;fill-opacity:0.4;" x="153.854078" xlink:href="#m3ab7c63eef" y="103.565625"/>
     <use style="fill:#9467bd;fill-opacity:0.4;" x="155.763238" xlink:href="#m3ab7c63eef" y="104.848083"/>
     <use style="fill:#9467bd;fill-opacity:0.4;" x="157.672398" xlink:href="#m3ab7c63eef" y="104.496185"/>
     <use style="fill:#9467bd;fill-opacity:0.4;" x="159.581558" xlink:href="#m3ab7c63eef" y="103.677061"/>
     <use style="fill:#9467bd;fill-opacity:0.4;" x="161.490718" xlink:href="#m3ab7c63eef" y="103.006477"/>
     <use style="fill:#9467bd;fill-opacity:0.4;" x="163.399878" xlink:href="#m3ab7c63eef" y="101.712294"/>
     <use style="fill:#9467bd;fill-opacity:0.4;" x="165.309038" xlink:href="#m3ab7c63eef" y="99.812019"/>
     <use style="fill:#9467bd;fill-opacity:0.4;" x="167.218198" xlink:href="#m3ab7c63eef" y="98.244084"/>
     <use style="fill:#9467bd;fill-opacity:0.4;" x="169.127358" xlink:href="#m3ab7c63eef" y="95.896117"/>
     <use style="fill:#9467bd;fill-opacity:0.4;" x="171.036518" xlink:href="#m3ab7c63eef" y="94.185468"/>
     <use style="fill:#9467bd;fill-opacity:0.4;" x="172.945678" xlink:href="#m3ab7c63eef" y="92.734856"/>
     <use style="fill:#9467bd;fill-opacity:0.4;" x="174.854838" xlink:href="#m3ab7c63eef" y="91.118071"/>
     <use style="fill:#9467bd;fill-opacity:0.4;" x="176.763998" xlink:href="#m3ab7c63eef" y="90.042824"/>
     <use style="fill:#9467bd;fill-opacity:0.4;" x="178.673158" xlink:href="#m3ab7c63eef" y="88.852226"/>
     <use style="fill:#9467bd;fill-opacity:0.4;" x="180.582318" xlink:href="#m3ab7c63eef" y="87.73787"/>
     <use style="fill:#9467bd;fill-opacity:0.4;" x="182.491478" xlink:href="#m3ab7c63eef" y="87.096621"/>
     <use style="fill:#9467bd;fill-opacity:0.4;" x="184.400638" xlink:href="#m3ab7c63eef" y="86.545304"/>
     <use style="fill:#9467bd;fill-opacity:0.4;" x="186.309798" xlink:href="#m3ab7c63eef" y="85.651864"/>
     <use style="fill:#9467bd;fill-opacity:0.4;" x="188.218958" xlink:href="#m3ab7c63eef" y="84.609847"/>
     <use style="fill:#9467bd;fill-opacity:0.4;" x="190.128118" xlink:href="#m3ab7c63eef" y="83.012609"/>
     <use style="fill:#9467bd;fill-opacity:0.4;" x="192.037278" xlink:href="#m3ab7c63eef" y="81.321528"/>
     <use style="fill:#9467bd;fill-opacity:0.4;" x="193.946438" xlink:href="#m3ab7c63eef" y="80.852328"/>
     <use style="fill:#9467bd;fill-opacity:0.4;" x="195.855598" xlink:href="#m3ab7c63eef" y="80.623592"/>
     <use style="fill:#9467bd;fill-opacity:0.4;" x="197.764758" xlink:href="#m3ab7c63eef" y="80.437866"/>
     <use style="fill:#9467bd;fill-opacity:0.4;" x="199.673918" xlink:href="#m3ab7c63eef" y="81.102571"/>
     <use style="fill:#9467bd;fill-opacity:0.4;" x="201.583078" xlink:href="#m3ab7c63eef" y="81.239422"/>
     <use style="fill:#9467bd;fill-opacity:0.4;" x="203.492238" xlink:href="#m3ab7c63eef" y="81.558087"/>
     <use style="fill:#9467bd;fill-opacity:0.4;" x="205.401398" xlink:href="#m3ab7c63eef" y="81.630422"/>
     <use style="fill:#9467bd;fill-opacity:0.4;" x="207.310558" xlink:href="#m3ab7c63eef" y="81.300023"/>
     <use style="fill:#9467bd;fill-opacity:0.4;" x="209.219718" xlink:href="#m3ab7c63eef" y="80.998951"/>
     <use style="fill:#9467bd;fill-opacity:0.4;" x="211.128878" xlink:href="#m3ab7c63eef" y="80.738938"/>
     <use style="fill:#9467bd;fill-opacity:0.4;" x="213.038038" xlink:href="#m3ab7c63eef" y="80.811274"/>
     <use style="fill:#9467bd;fill-opacity:0.4;" x="214.947198" xlink:href="#m3ab7c63eef" y="80.656828"/>
     <use style="fill:#9467bd;fill-opacity:0.4;" x="216.856358" xlink:href="#m3ab7c63eef" y="80.650963"/>
     <use style="fill:#9467bd;fill-opacity:0.4;" x="218.765518" xlink:href="#m3ab7c63eef" y="80.602087"/>
     <use style="fill:#9467bd;fill-opacity:0.4;" x="220.674678" xlink:href="#m3ab7c63eef" y="80.304926"/>
     <use style="fill:#9467bd;fill-opacity:0.4;" x="222.583838" xlink:href="#m3ab7c63eef" y="80.226725"/>
     <use style="fill:#9467bd;fill-opacity:0.4;" x="224.492998" xlink:href="#m3ab7c63eef" y="80.289285"/>
     <use style="fill:#9467bd;fill-opacity:0.4;" x="226.402158" xlink:href="#m3ab7c63eef" y="79.835723"/>
     <use style="fill:#9467bd;fill-opacity:0.4;" x="228.311318" xlink:href="#m3ab7c63eef" y="79.434947"/>
     <use style="fill:#9467bd;fill-opacity:0.4;" x="230.220478" xlink:href="#m3ab7c63eef" y="79.264862"/>
     <use style="fill:#9467bd;fill-opacity:0.4;" x="232.129638" xlink:href="#m3ab7c63eef" y="79.03417"/>
     <use style="fill:#9467bd;fill-opacity:0.4;" x="234.038798" xlink:href="#m3ab7c63eef" y="79.569842"/>
     <use style="fill:#9467bd;fill-opacity:0.4;" x="235.947958" xlink:href="#m3ab7c63eef" y="80.213039"/>
     <use style="fill:#9467bd;fill-opacity:0.4;" x="237.857118" xlink:href="#m3ab7c63eef" y="80.594266"/>
     <use style="fill:#9467bd;fill-opacity:0.4;" x="239.766278" xlink:href="#m3ab7c63eef" y="80.566896"/>
     <use style="fill:#9467bd;fill-opacity:0.4;" x="241.675438" xlink:href="#m3ab7c63eef" y="80.451551"/>
     <use style="fill:#9467bd;fill-opacity:0.4;" x="243.584598" xlink:href="#m3ab7c63eef" y="80.627501"/>
     <use style="fill:#9467bd;fill-opacity:0.4;" x="245.493758" xlink:href="#m3ab7c63eef" y="80.40463"/>
     <use style="fill:#9467bd;fill-opacity:0.4;" x="247.402918" xlink:href="#m3ab7c63eef" y="80.51411"/>
     <use style="fill:#9467bd;fill-opacity:0.4;" x="249.312078" xlink:href="#m3ab7c63eef" y="79.984303"/>
     <use style="fill:#9467bd;fill-opacity:0.4;" x="251.221238" xlink:href="#m3ab7c63eef" y="79.904149"/>
     <use style="fill:#9467bd;fill-opacity:0.4;" x="253.130398" xlink:href="#m3ab7c63eef" y="80.144615"/>
     <use style="fill:#9467bd;fill-opacity:0.4;" x="255.039558" xlink:href="#m3ab7c63eef" y="79.970619"/>
     <use style="fill:#9467bd;fill-opacity:0.4;" x="256.948718" xlink:href="#m3ab7c63eef" y="80.332296"/>
     <use style="fill:#9467bd;fill-opacity:0.4;" x="258.857878" xlink:href="#m3ab7c63eef" y="80.25605"/>
     <use style="fill:#9467bd;fill-opacity:0.4;" x="260.767038" xlink:href="#m3ab7c63eef" y="79.923699"/>
     <use style="fill:#9467bd;fill-opacity:0.4;" x="262.676198" xlink:href="#m3ab7c63eef" y="80.101605"/>
     <use style="fill:#9467bd;fill-opacity:0.4;" x="264.585358" xlink:href="#m3ab7c63eef" y="80.001899"/>
     <use style="fill:#9467bd;fill-opacity:0.4;" x="266.494518" xlink:href="#m3ab7c63eef" y="79.886554"/>
     <use style="fill:#9467bd;fill-opacity:0.4;" x="268.403678" xlink:href="#m3ab7c63eef" y="79.822038"/>
     <use style="fill:#9467bd;fill-opacity:0.4;" x="270.312838" xlink:href="#m3ab7c63eef" y="79.505327"/>
     <use style="fill:#9467bd;fill-opacity:0.4;" x="272.221998" xlink:href="#m3ab7c63eef" y="79.231625"/>
     <use style="fill:#9467bd;fill-opacity:0.4;" x="274.131158" xlink:href="#m3ab7c63eef" y="78.893409"/>
     <use style="fill:#9467bd;fill-opacity:0.4;" x="276.040318" xlink:href="#m3ab7c63eef" y="78.51414"/>
     <use style="fill:#9467bd;fill-opacity:0.4;" x="277.949478" xlink:href="#m3ab7c63eef" y="78.63144"/>
     <use style="fill:#9467bd;fill-opacity:0.4;" x="279.858638" xlink:href="#m3ab7c63eef" y="78.649036"/>
     <use style="fill:#9467bd;fill-opacity:0.4;" x="281.767798" xlink:href="#m3ab7c63eef" y="79.159293"/>
     <use style="fill:#9467bd;fill-opacity:0.4;" x="283.676958" xlink:href="#m3ab7c63eef" y="79.999944"/>
     <use style="fill:#9467bd;fill-opacity:0.4;" x="285.586118" xlink:href="#m3ab7c63eef" y="79.890464"/>
     <use style="fill:#9467bd;fill-opacity:0.4;" x="287.495278" xlink:href="#m3ab7c63eef" y="79.939339"/>
     <use style="fill:#9467bd;fill-opacity:0.4;" x="289.404438" xlink:href="#m3ab7c63eef" y="79.552247"/>
     <use style="fill:#9467bd;fill-opacity:0.4;" x="291.313598" xlink:href="#m3ab7c63eef" y="78.836714"/>
     <use style="fill:#9467bd;fill-opacity:0.4;" x="293.222758" xlink:href="#m3ab7c63eef" y="78.836714"/>
     <use style="fill:#9467bd;fill-opacity:0.4;" x="295.131918" xlink:href="#m3ab7c63eef" y="79.008755"/>
     <use style="fill:#9467bd;fill-opacity:0.4;" x="297.041078" xlink:href="#m3ab7c63eef" y="79.524878"/>
     <use style="fill:#9467bd;fill-opacity:0.4;" x="298.950238" xlink:href="#m3ab7c63eef" y="80.365534"/>
     <use style="fill:#9467bd;fill-opacity:0.4;" x="300.859398" xlink:href="#m3ab7c63eef" y="80.901206"/>
     <use style="fill:#9467bd;fill-opacity:0.4;" x="302.768558" xlink:href="#m3ab7c63eef" y="81.063472"/>
     <use style="fill:#9467bd;fill-opacity:0.4;" x="304.677718" xlink:href="#m3ab7c63eef" y="80.476968"/>
     <use style="fill:#9467bd;fill-opacity:0.4;" x="306.586878" xlink:href="#m3ab7c63eef" y="79.728198"/>
     <use style="fill:#9467bd;fill-opacity:0.4;" x="308.496038" xlink:href="#m3ab7c63eef" y="79.436901"/>
     <use style="fill:#9467bd;fill-opacity:0.4;" x="310.405198" xlink:href="#m3ab7c63eef" y="79.409532"/>
     <use style="fill:#9467bd;fill-opacity:0.4;" x="312.314358" xlink:href="#m3ab7c63eef" y="79.495552"/>
     <use style="fill:#9467bd;fill-opacity:0.4;" x="314.223518" xlink:href="#m3ab7c63eef" y="79.581572"/>
     <use style="fill:#9467bd;fill-opacity:0.4;" x="316.132678" xlink:href="#m3ab7c63eef" y="79.255086"/>
     <use style="fill:#9467bd;fill-opacity:0.4;" x="318.041838" xlink:href="#m3ab7c63eef" y="78.938374"/>
     <use style="fill:#9467bd;fill-opacity:0.4;" x="319.950998" xlink:href="#m3ab7c63eef" y="79.126056"/>
     <use style="fill:#9467bd;fill-opacity:0.4;" x="321.860158" xlink:href="#m3ab7c63eef" y="79.454497"/>
     <use style="fill:#9467bd;fill-opacity:0.4;" x="323.769318" xlink:href="#m3ab7c63eef" y="79.698873"/>
     <use style="fill:#9467bd;fill-opacity:0.4;" x="325.678478" xlink:href="#m3ab7c63eef" y="79.763388"/>
     <use style="fill:#9467bd;fill-opacity:0.4;" x="327.587638" xlink:href="#m3ab7c63eef" y="79.626537"/>
     <use style="fill:#9467bd;fill-opacity:0.4;" x="329.496798" xlink:href="#m3ab7c63eef" y="79.655862"/>
     <use style="fill:#9467bd;fill-opacity:0.4;" x="331.405958" xlink:href="#m3ab7c63eef" y="79.642177"/>
     <use style="fill:#9467bd;fill-opacity:0.4;" x="333.315118" xlink:href="#m3ab7c63eef" y="79.511192"/>
     <use style="fill:#9467bd;fill-opacity:0.4;" x="335.224278" xlink:href="#m3ab7c63eef" y="79.14756"/>
     <use style="fill:#9467bd;fill-opacity:0.4;" x="337.133438" xlink:href="#m3ab7c63eef" y="78.854309"/>
     <use style="fill:#9467bd;fill-opacity:0.4;" x="339.042598" xlink:href="#m3ab7c63eef" y="78.682268"/>
     <use style="fill:#9467bd;fill-opacity:0.4;" x="340.951758" xlink:href="#m3ab7c63eef" y="78.985295"/>
     <use style="fill:#9467bd;fill-opacity:0.4;" x="342.860918" xlink:href="#m3ab7c63eef" y="79.235536"/>
     <use style="fill:#9467bd;fill-opacity:0.4;" x="344.770078" xlink:href="#m3ab7c63eef" y="78.676403"/>
     <use style="fill:#9467bd;fill-opacity:0.4;" x="346.679238" xlink:href="#m3ab7c63eef" y="78.535642"/>
     <use style="fill:#9467bd;fill-opacity:0.4;" x="348.588398" xlink:href="#m3ab7c63eef" y="78.263896"/>
     <use style="fill:#9467bd;fill-opacity:0.4;" x="350.497558" xlink:href="#m3ab7c63eef" y="78.357736"/>
     <use style="fill:#9467bd;fill-opacity:0.4;" x="352.406718" xlink:href="#m3ab7c63eef" y="78.729188"/>
     <use style="fill:#9467bd;fill-opacity:0.4;" x="354.315878" xlink:href="#m3ab7c63eef" y="78.27758"/>
     <use style="fill:#9467bd;fill-opacity:0.4;" x="356.225038" xlink:href="#m3ab7c63eef" y="78.578651"/>
     <use style="fill:#9467bd;fill-opacity:0.4;" x="358.134198" xlink:href="#m3ab7c63eef" y="79.073269"/>
     <use style="fill:#9467bd;fill-opacity:0.4;" x="360.043358" xlink:href="#m3ab7c63eef" y="79.552247"/>
     <use style="fill:#9467bd;fill-opacity:0.4;" x="361.952518" xlink:href="#m3ab7c63eef" y="80.289286"/>
     <use style="fill:#9467bd;fill-opacity:0.4;" x="363.861678" xlink:href="#m3ab7c63eef" y="79.94716"/>
     <use style="fill:#9467bd;fill-opacity:0.4;" x="365.770838" xlink:href="#m3ab7c63eef" y="79.286366"/>
     <use style="fill:#9467bd;fill-opacity:0.4;" x="367.679998" xlink:href="#m3ab7c63eef" y="79.008755"/>
     <use style="fill:#9467bd;fill-opacity:0.4;" x="369.589158" xlink:href="#m3ab7c63eef" y="78.95597"/>
     <use style="fill:#9467bd;fill-opacity:0.4;" x="371.498318" xlink:href="#m3ab7c63eef" y="79.086955"/>
     <use style="fill:#9467bd;fill-opacity:0.4;" x="373.407478" xlink:href="#m3ab7c63eef" y="79.534652"/>
     <use style="fill:#9467bd;fill-opacity:0.4;" x="375.316638" xlink:href="#m3ab7c63eef" y="79.648043"/>
     <use style="fill:#9467bd;fill-opacity:0.4;" x="377.225798" xlink:href="#m3ab7c63eef" y="80.041"/>
    </g>
   </g>
   <g id="patch_3">
    <path d="M 41.361875 129.5 
L 41.361875 7.2 
" style="fill:none;stroke:#000000;stroke-linecap:square;stroke-linejoin:miter;stroke-width:0.8;"/>
   </g>
   <g id="patch_4">
    <path d="M 232.277875 129.5 
L 232.277875 7.2 
" style="fill:none;stroke:#000000;stroke-linecap:square;stroke-linejoin:miter;stroke-width:0.8;"/>
   </g>
   <g id="patch_5">
    <path d="M 41.361875 129.5 
L 232.277875 129.5 
" style="fill:none;stroke:#000000;stroke-linecap:square;stroke-linejoin:miter;stroke-width:0.8;"/>
   </g>
   <g id="patch_6">
    <path d="M 41.361875 7.2 
L 232.277875 7.2 
" style="fill:none;stroke:#000000;stroke-linecap:square;stroke-linejoin:miter;stroke-width:0.8;"/>
   </g>
   <g id="text_9">
    <!-- $N=0$ -->
    <defs>
     <path d="M 22.859375 71.734375 
L 34.328125 71.734375 
L 58.203125 13.625 
L 70.5625 71.734375 
L 79.78125 71.734375 
L 64.546875 0 
L 53.65625 0 
L 29.203125 58.0625 
L 16.890625 0 
L 7.625 0 
z
" id="Helvetica-Oblique-4e"/>
     <path d="M 63.921875 40.140625 
L 62.203125 31.9375 
L 11.28125 31.9375 
L 12.984375 40.140625 
z
M 59.46875 19.1875 
L 57.71875 10.84375 
L 6.78125 10.84375 
L 8.546875 19.1875 
z
" id="Helvetica-Oblique-3d"/>
     <path d="M 59.125 58.734375 
Q 62.015625 50.09375 58.796875 35.0625 
Q 55.765625 20.796875 49.515625 11.46875 
Q 40.53125 -1.90625 26.5625 -1.90625 
Q 13.96875 -1.90625 10.15625 9.03125 
Q 6.984375 18.171875 10.25 33.546875 
Q 12.75 45.453125 17.671875 54 
Q 26.8125 69.921875 41.890625 69.921875 
Q 55.46875 69.921875 59.125 58.734375 
z
M 49.265625 34.71875 
Q 51.765625 46.625 50.46875 54.3125 
Q 49.171875 62.015625 40.71875 62.015625 
Q 32.953125 62.015625 27.828125 54.703125 
Q 22.703125 47.40625 19.671875 33.203125 
Q 17.390625 22.515625 18.3125 16.015625 
Q 19.734375 6.109375 28.21875 6.109375 
Q 35.0625 6.109375 40.40625 12.15625 
Q 45.75 18.21875 49.265625 34.71875 
z
" id="Helvetica-Oblique-30"/>
    </defs>
    <g transform="translate(50.907675 117.27)scale(0.14 -0.14)">
     <use transform="translate(0 0.265625)" xlink:href="#Helvetica-Oblique-4e"/>
     <use transform="translate(88.876953 0.265625)" xlink:href="#Helvetica-Oblique-3d"/>
     <use transform="translate(163.935547 0.265625)" xlink:href="#Helvetica-Oblique-30"/>
    </g>
   </g>
   <g id="text_10">
    <!-- $N=1$ -->
    <defs>
     <path d="M 20.0625 49.515625 
L 21.484375 56.25 
Q 31.203125 57.171875 35.421875 59.34375 
Q 39.65625 61.53125 43.265625 69.625 
L 50.203125 69.625 
L 35.40625 0 
L 26.03125 0 
L 36.53125 49.515625 
z
" id="Helvetica-Oblique-31"/>
    </defs>
    <g transform="translate(184.548875 117.27)scale(0.14 -0.14)">
     <use transform="translate(0 0.265625)" xlink:href="#Helvetica-Oblique-4e"/>
     <use transform="translate(88.876953 0.265625)" xlink:href="#Helvetica-Oblique-3d"/>
     <use transform="translate(163.935547 0.265625)" xlink:href="#Helvetica-Oblique-31"/>
    </g>
   </g>
   <g id="line2d_14">
    <path clip-path="url(#pedfc684d06)" d="M -1 78.876232 
L 35.486158 78.763642 
L 48.850278 78.511898 
L 56.486918 78.17688 
L 62.214398 77.744043 
L 67.941878 77.054998 
L 71.760198 76.385598 
L 75.578518 75.482093 
L 79.396838 74.269331 
L 83.215158 72.652438 
L 85.124318 71.656877 
L 87.033478 70.514871 
L 88.942638 69.20858 
L 90.851798 67.719183 
L 92.760958 66.027276 
L 94.670118 64.113488 
L 96.579278 61.959363 
L 98.488438 59.548598 
L 100.397598 56.868708 
L 102.306758 53.9132 
L 104.215918 50.684322 
L 108.034238 43.479953 
L 117.580038 24.204239 
L 119.489198 21.175148 
L 121.398358 18.881178 
L 123.307518 17.554583 
L 125.216678 17.41651 
L 127.125838 18.651568 
L 129.034998 21.37972 
L 130.944158 25.629968 
L 132.853318 31.321477 
L 134.762478 38.257634 
L 136.671638 46.136616 
L 142.399118 71.486523 
L 144.308278 79.179744 
L 146.217438 85.964148 
L 148.126598 91.656293 
L 150.035758 96.172045 
L 151.944918 99.51581 
L 153.854078 101.761802 
L 155.763238 103.032141 
L 157.672398 103.475674 
L 159.581558 103.250077 
L 161.490718 102.508411 
L 163.399878 101.39021 
L 165.309038 100.016529 
L 169.127358 96.885504 
L 174.854838 92.177206 
L 178.673158 89.428449 
L 182.491478 87.105944 
L 186.309798 85.209816 
L 190.128118 83.69945 
L 193.946438 82.518209 
L 197.764758 81.607257 
L 201.583078 80.912455 
L 207.310558 80.1758 
L 213.038038 79.69888 
L 220.674678 79.319322 
L 230.220478 79.07913 
L 240.477875 78.964499 
L 240.477875 78.964499 
" style="fill:none;stroke:#000000;stroke-linecap:square;"/>
   </g>
   <g id="legend_1">
    <g id="line2d_15">
     <path d="M 142.997875 19.408125 
L 154.997875 19.408125 
" style="fill:none;stroke:#000000;stroke-linecap:square;"/>
    </g>
    <g id="line2d_16"/>
    <g id="text_11">
     <!-- $\Delta S/k_B = 0.71$ -->
     <defs>
      <path d="M 14.40625 7.8125 
L 57.375 7.8125 
L 35.59375 61.578125 
z
M 30.71875 70.609375 
L 41.109375 70.609375 
L 70.21875 0 
L 2 0 
z
" id="Helvetica-394"/>
      <path d="M 13.96875 23.140625 
Q 14.3125 17.046875 16.84375 13.234375 
Q 21.6875 6.109375 33.890625 6.109375 
Q 39.359375 6.109375 43.84375 7.671875 
Q 52.546875 10.6875 52.546875 18.5 
Q 52.546875 24.359375 48.875 26.859375 
Q 45.171875 29.296875 37.25 31.109375 
L 27.546875 33.296875 
Q 18.015625 35.453125 14.0625 38.03125 
Q 7.234375 42.53125 7.234375 51.46875 
Q 7.234375 61.140625 13.921875 67.328125 
Q 20.609375 73.53125 32.859375 73.53125 
Q 44.140625 73.53125 52.015625 68.078125 
Q 59.90625 62.640625 59.90625 50.6875 
L 50.78125 50.6875 
Q 50.046875 56.453125 47.65625 59.515625 
Q 43.21875 65.140625 32.5625 65.140625 
Q 23.96875 65.140625 20.203125 61.515625 
Q 16.453125 57.90625 16.453125 53.125 
Q 16.453125 47.859375 20.84375 45.40625 
Q 23.734375 43.84375 33.890625 41.5 
L 43.953125 39.203125 
Q 51.21875 37.546875 55.171875 34.671875 
Q 62.015625 29.640625 62.015625 20.0625 
Q 62.015625 8.15625 53.34375 3.03125 
Q 44.671875 -2.09375 33.203125 -2.09375 
Q 19.828125 -2.09375 12.25 4.734375 
Q 4.6875 11.53125 4.828125 23.140625 
z
M 33.59375 73.6875 
z
" id="Helvetica-53"/>
      <path d="M 6.25 71.734375 
L 14.703125 71.734375 
L 14.703125 30.078125 
L 37.25 52.296875 
L 48.484375 52.296875 
L 28.46875 32.71875 
L 49.609375 0 
L 38.375 0 
L 22.078125 26.375 
L 14.703125 19.625 
L 14.703125 0 
L 6.25 0 
z
" id="Helvetica-6b"/>
      <path d="M 34.578125 41.40625 
Q 40.71875 41.40625 44.140625 43.109375 
Q 49.515625 45.796875 49.515625 52.78125 
Q 49.515625 59.8125 43.796875 62.25 
Q 40.578125 63.625 34.234375 63.625 
L 16.890625 63.625 
L 16.890625 41.40625 
z
M 37.84375 8.296875 
Q 46.78125 8.296875 50.59375 13.484375 
Q 52.984375 16.75 52.984375 21.390625 
Q 52.984375 29.203125 46 32.03125 
Q 42.28125 33.546875 36.1875 33.546875 
L 16.890625 33.546875 
L 16.890625 8.296875 
z
M 7.375 71.734375 
L 38.1875 71.734375 
Q 50.78125 71.734375 56.109375 64.203125 
Q 59.234375 59.765625 59.234375 53.953125 
Q 59.234375 47.171875 55.375 42.828125 
Q 53.375 40.53125 49.609375 38.625 
Q 55.125 36.53125 57.859375 33.890625 
Q 62.703125 29.203125 62.703125 20.953125 
Q 62.703125 14.015625 58.34375 8.40625 
Q 51.859375 0 37.703125 0 
L 7.375 0 
z
" id="Helvetica-42"/>
      <path d="M 55.421875 40.140625 
L 55.421875 31.9375 
L 4.5 31.9375 
L 4.5 40.140625 
z
M 55.421875 19.1875 
L 55.421875 10.84375 
L 4.5 10.84375 
L 4.5 19.1875 
z
" id="Helvetica-3d"/>
      <path d="M 8.546875 10.640625 
L 18.75 10.640625 
L 18.75 0 
L 8.546875 0 
z
" id="Helvetica-2e"/>
      <path d="M 52.296875 68.75 
L 52.296875 61.078125 
Q 48.921875 57.8125 43.328125 49.703125 
Q 37.75 41.609375 33.453125 32.234375 
Q 29.203125 23.09375 27 15.578125 
Q 25.59375 10.75 23.34375 0 
L 13.625 0 
Q 16.9375 20.015625 28.265625 39.84375 
Q 34.96875 51.46875 42.328125 59.90625 
L 3.65625 59.90625 
L 3.65625 68.75 
z
" id="Helvetica-37"/>
     </defs>
     <g transform="translate(157.997875 23.608125)scale(0.12 -0.12)">
      <use transform="translate(0 0.3125)" xlink:href="#Helvetica-394"/>
      <use transform="translate(72.216797 0.3125)" xlink:href="#Helvetica-53"/>
      <use transform="translate(138.916016 0.3125)" xlink:href="#Helvetica-2f"/>
      <use transform="translate(166.699219 0.3125)" xlink:href="#Helvetica-6b"/>
      <use transform="translate(217.614414 -15.376563)scale(0.7)" xlink:href="#Helvetica-42"/>
      <use transform="translate(283.578867 0.3125)" xlink:href="#Helvetica-3d"/>
      <use transform="translate(358.637461 0.3125)" xlink:href="#Helvetica-30"/>
      <use transform="translate(414.252695 0.3125)" xlink:href="#Helvetica-2e"/>
      <use transform="translate(442.035898 0.3125)" xlink:href="#Helvetica-37"/>
      <use transform="translate(497.651133 0.3125)" xlink:href="#Helvetica-31"/>
     </g>
    </g>
   </g>
  </g>
 </g>
 <defs>
  <clipPath id="pedfc684d06">
   <rect height="122.3" width="190.916" x="41.361875" y="7.2"/>
  </clipPath>
 </defs>
</svg>
