<?xml version="1.0" encoding="utf-8"?>
<!-- Generator: Adobe Illustrator 15.0.0, SVG Export Plug-In . SVG Version: 6.00 Build 0)  -->
<!DOCTYPE svg PUBLIC "-//W3C//DTD SVG 1.1//EN" "http://www.w3.org/Graphics/SVG/1.1/DTD/svg11.dtd">
<svg version="1.1" id="gate_x5F_blockade_x5F_labels"
	 xmlns="http://www.w3.org/2000/svg" xmlns:xlink="http://www.w3.org/1999/xlink" x="0px" y="0px" width="360px" height="401px"
	 viewBox="0 0 360 401" enable-background="new 0 0 360 401" xml:space="preserve">
<rect fill="#FFFFFF" width="360" height="401"/>
<g>
	<line x1="215.243" y1="86.067" x2="215.243" y2="12"/>
	<g>
		<line fill="none" stroke="#000000" stroke-width="5" stroke-miterlimit="10" x1="215.243" y1="71.143" x2="215.243" y2="26.924"/>
		<g>
			<polygon points="224.5,64.121 215.243,68.054 205.985,64.121 215.243,86.067 			"/>
		</g>
		<g>
			<polygon points="224.5,33.946 215.243,30.013 205.985,33.946 215.243,12 			"/>
		</g>
	</g>
</g>
<text transform="matrix(1 0 0 1 230.9751 57.1333)" font-family="'Helvetica'" font-size="28.8">­</text>
<text transform="matrix(0.583 0 0 0.583 250.1841 57.1333)" font-family="'Helvetica'" font-size="28.8">p</text>
<text transform="matrix(1 0 0 1 210.1655 164.667)" font-family="'Helvetica'" font-size="36">μ</text>
<text transform="matrix(0.583 0 0 0.583 232.1558 176.6548)" font-family="'Helvetica'" font-size="36">N</text>
<text transform="matrix(1 0 0 1 210.1655 232.6665)" font-family="'Helvetica'" font-size="36">μ</text>
<text transform="matrix(0.583 0 0 0.583 232.1558 244.6543)" font-family="'Helvetica'" font-size="36">N-1</text>
<text transform="matrix(1 0 0 1 114.6724 172.2939)" font-family="'Helvetica'" font-size="36">E</text>
<text transform="matrix(0.583 0 0 0.583 138.6841 184.2822)" font-family="'Helvetica'" font-size="36">F</text>
<line fill="none" stroke="#000000" stroke-width="3" stroke-miterlimit="10" x1="300.334" y1="126.319" x2="336.334" y2="159.651"/>
<line fill="none" stroke="#000000" stroke-width="3" stroke-miterlimit="10" x1="300.334" y1="194.334" x2="336.334" y2="227.667"/>
<line fill="none" stroke="#000000" stroke-width="3" stroke-miterlimit="10" x1="300.334" y1="258.99" x2="336.334" y2="292.322"/>
<line fill="none" stroke="#000000" stroke-width="3" stroke-miterlimit="10" x1="300.334" y1="322.038" x2="336.334" y2="355.371"/>
<rect x="99.005" y="188.958" opacity="0.35" fill="#FF0000" stroke="#000000" stroke-width="3" stroke-miterlimit="10" width="77.76" height="174.96"/>
<line fill="none" stroke="#000000" stroke-width="6" stroke-miterlimit="10" x1="202.686" y1="314.038" x2="267.486" y2="314.038"/>
<line fill="none" stroke="#000000" stroke-width="6" stroke-miterlimit="10" x1="202.686" y1="250.157" x2="267.486" y2="250.157"/>
<path fill="#FF543F" stroke="#FF543F" stroke-width="5" stroke-miterlimit="10" d="M202.686,182.479"/>
<path fill="#FF543F" stroke="#FF543F" stroke-width="5" stroke-miterlimit="10" d="M209.166,175.999"/>
<path stroke="#000000" stroke-width="5" stroke-miterlimit="10" d="M241.565,363.919"/>
<path stroke="#000000" stroke-width="5" stroke-miterlimit="10" d="M235.086,357.439"/>
<line fill="#545C56" stroke="#545C56" stroke-width="12" stroke-miterlimit="10" x1="56.886" y1="363.919" x2="56.886" y2="130.638"/>
<path fill="#545C56" stroke="#545C56" stroke-width="5" stroke-miterlimit="10" d="M73.086,147.918"/>
<polygon fill="#545C56" stroke="#545C56" stroke-width="5" stroke-miterlimit="10" points="34.206,147.918 79.565,147.918 
	56.886,104.719 "/>
<text transform="matrix(0 -1 1 0 40.6851 279.6787)" font-family="'Helvetica'" font-size="25.92">Energy</text>
<line fill="none" stroke="#000000" stroke-width="6" stroke-miterlimit="10" x1="202.686" y1="182.157" x2="267.486" y2="182.157"/>
<polyline fill="none" stroke="#000000" stroke-width="3" stroke-miterlimit="10" points="176.766,363.919 176.766,98.238 
	189.727,98.238 189.727,363.919 280.446,363.919 280.446,38.999 300.334,38.999 300.334,363.919 "/>
<line fill="none" stroke="#000000" stroke-width="3" stroke-miterlimit="10" x1="300.334" y1="61.667" x2="336.334" y2="94.999"/>
</svg>
